<svg xmlns="http://www.w3.org/2000/svg" viewBox="0 0 256 256">
  <g fill="none" fill-rule="evenodd" transform="translate(26.624 48.128)">
    <path fill="#FFF" d="M127.232,67.4742272 L127.236096,67.4742272 L127.236096,51.1322112 L127.290368,47.7366272 C123.79648,58.6217472 113.160192,71.4043392 100.822016,77.7306112 C90.364928,83.0922752 77.529088,86.2584832 63.644672,86.2584832 C49.760256,86.2584832 36.92544,83.0922752 26.468352,77.7306112 C14.130176,71.4043392 3.508224,60.7270912 0.014336,49.8419712 L0,51.1322112 L0,67.4742272 L0.058368,67.4742272 C0.03072,68.0118272 0,68.5504512 0,69.0941952 C0,94.0664832 28.494848,114.308915 63.644672,114.308915 C98.794496,114.308915 127.290368,94.0664832 127.290368,69.0941952 C127.290368,68.5504512 127.258624,68.0118272 127.232,67.4742272"/>
    <path stroke="#152E5F" stroke-linecap="round" stroke-linejoin="round" stroke-width="5.12" d="M127.232,67.4742272 L127.236096,67.4742272 L127.236096,51.1322112 L127.290368,47.7366272 C123.79648,58.6217472 113.160192,71.4043392 100.822016,77.7306112 C90.364928,83.0922752 77.529088,86.2584832 63.644672,86.2584832 C49.760256,86.2584832 36.92544,83.0922752 26.468352,77.7306112 C14.130176,71.4043392 3.508224,60.7270912 0.014336,49.8419712 L0,51.1322112 L0,67.4742272 L0.058368,67.4742272 C0.03072,68.0118272 0,68.5504512 0,69.0941952 C0,94.0664832 28.494848,114.308915 63.644672,114.308915 C98.794496,114.308915 127.290368,94.0664832 127.290368,69.0941952 C127.290368,68.5504512 127.258624,68.0118272 127.232,67.4742272 Z"/>
    <path fill="#FFF" d="M127.171994,46.729216 C127.171994,72.537088 98.7303936,93.459456 63.6450816,93.459456 C28.5597696,93.459456 0.1181696,72.537088 0.1181696,46.729216 C0.1181696,20.921344 28.5597696,0 63.6450816,0 C98.7303936,0 127.171994,20.921344 127.171994,46.729216"/>
    <path stroke="#152E5F" stroke-linecap="round" stroke-linejoin="round" stroke-width="5.12" d="M127.171994,46.729216 C127.171994,72.537088 98.7303936,93.459456 63.6450816,93.459456 C28.5597696,93.459456 0.1181696,72.537088 0.1181696,46.729216 C0.1181696,20.921344 28.5597696,0 63.6450816,0 C98.7303936,0 127.171994,20.921344 127.171994,46.729216 Z"/>
    <polygon fill="#FFF" points="96.392 94.85 150.828 126.279 164.437 118.423 110.001 86.993"/>
    <polygon stroke="#152E5F" stroke-linecap="round" stroke-linejoin="round" stroke-width="5.12" points="96.392 94.85 150.828 126.279 164.437 118.423 110.001 86.993"/>
    <g transform="translate(.118 20.85)">
      <path fill="#FFF" d="M1.77635684e-15,46.73024 C1.77635684e-15,20.922368 28.4416,0 63.526912,0 C98.612224,0 127.053824,20.922368 127.053824,46.73024"/>
      <path stroke="#152E5F" stroke-linecap="round" stroke-linejoin="round" stroke-width="5.12" d="M1.77635684e-15,46.73024 C1.77635684e-15,20.922368 28.4416,0 63.526912,0 C98.612224,0 127.053824,20.922368 127.053824,46.73024"/>
    </g>
    <path fill="#FFF" d="M78.3474688,62.6332672 C78.3577088,61.5652352 77.9399168,60.3425792 77.2825088,58.4768512 C76.2677248,55.5912192 71.9894528,43.4394112 63.8158848,43.2684032 C54.7985408,43.0789632 50.0594688,57.6596992 49.7676288,58.5935872 C49.1808768,60.4746752 48.7958528,61.7516032 48.8787968,62.8974592 C48.7712768,63.4115072 48.7139328,63.9368192 48.7139328,64.4733952 C48.7139328,70.3316992 55.3986048,75.0799872 63.6448768,75.0799872 C71.8911488,75.0799872 78.5758208,70.3316992 78.5758208,64.4733952 C78.5758208,63.8456832 78.4949248,63.2312832 78.3474688,62.6332672"/>
    <path stroke="#152E5F" stroke-linecap="round" stroke-linejoin="round" stroke-width="5.12" d="M78.3474688,62.6332672 C78.3577088,61.5652352 77.9399168,60.3425792 77.2825088,58.4768512 C76.2677248,55.5912192 71.9894528,43.4394112 63.8158848,43.2684032 C54.7985408,43.0789632 50.0594688,57.6596992 49.7676288,58.5935872 C49.1808768,60.4746752 48.7958528,61.7516032 48.8787968,62.8974592 C48.7712768,63.4115072 48.7139328,63.9368192 48.7139328,64.4733952 C48.7139328,70.3316992 55.3986048,75.0799872 63.6448768,75.0799872 C71.8911488,75.0799872 78.5758208,70.3316992 78.5758208,64.4733952 C78.5758208,63.8456832 78.4949248,63.2312832 78.3474688,62.6332672 Z"/>
    <path fill="#FFF" d="M72.2079744,40.332288 C72.2079744,45.372416 68.1211904,49.4592 63.0810624,49.4592 C58.0399104,49.4592 53.9541504,45.372416 53.9541504,40.332288 C53.9541504,35.291136 58.0399104,31.204352 63.0810624,31.204352 C68.1211904,31.204352 72.2079744,35.291136 72.2079744,40.332288"/>
    <path stroke="#152E5F" stroke-linecap="round" stroke-linejoin="round" stroke-width="5.12" d="M72.2079744,40.332288 C72.2079744,45.372416 68.1211904,49.4592 63.0810624,49.4592 C58.0399104,49.4592 53.9541504,45.372416 53.9541504,40.332288 C53.9541504,35.291136 58.0399104,31.204352 63.0810624,31.204352 C68.1211904,31.204352 72.2079744,35.291136 72.2079744,40.332288 Z"/>
    <path fill="#FFF" d="M63.9405056,84.1202688 C34.5885696,84.1202688 10.7949056,67.3788928 10.7949056,46.7289088 C10.7949056,26.0789248 34.5885696,9.3395968 63.9405056,9.3395968 C93.2914176,9.3395968 117.085082,26.0789248 117.085082,46.7289088 C117.085082,67.3788928 93.2914176,84.1202688 63.9405056,84.1202688 M63.6445696,0.0007168 C28.5602816,0.0007168 0.1176576,20.9220608 0.1176576,46.7289088 C0.1176576,72.5367808 28.5602816,93.4591488 63.6445696,93.4591488 C98.7298816,93.4591488 127.172506,72.5367808 127.172506,46.7289088 C127.172506,20.9220608 98.7298816,0.0007168 63.6445696,0.0007168"/>
    <path stroke="#152E5F" stroke-linecap="round" stroke-linejoin="round" stroke-width="5.12" d="M63.9405056,84.1202688 C34.5885696,84.1202688 10.7949056,67.3788928 10.7949056,46.7289088 C10.7949056,26.0789248 34.5885696,9.3395968 63.9405056,9.3395968 C93.2914176,9.3395968 117.085082,26.0789248 117.085082,46.7289088 C117.085082,67.3788928 93.2914176,84.1202688 63.9405056,84.1202688 Z M63.6445696,0.0007168 C28.5602816,0.0007168 0.1176576,20.9220608 0.1176576,46.7289088 C0.1176576,72.5367808 28.5602816,93.4591488 63.6445696,93.4591488 C98.7298816,93.4591488 127.172506,72.5367808 127.172506,46.7289088 C127.172506,20.9220608 98.7298816,0.0007168 63.6445696,0.0007168 Z"/>
    <path fill="#FFF" d="M184.103936,157.636301 L125.889536,117.593805 C120.553472,113.923789 119.190528,106.553037 122.861568,101.216973 C126.531584,95.8809088 133.901312,94.5179648 139.2384,98.1890048 L197.450752,138.231501 C202.78784,141.902541 204.150784,149.271245 200.479744,154.607309 L200.479744,154.608333 C196.808704,159.944397 189.44,161.307341 184.103936,157.636301"/>
    <path stroke="#152E5F" stroke-linecap="round" stroke-linejoin="round" stroke-width="5.12" d="M184.103936,157.636301 L125.889536,117.593805 C120.553472,113.923789 119.190528,106.553037 122.861568,101.216973 C126.531584,95.8809088 133.901312,94.5179648 139.2384,98.1890048 L197.450752,138.231501 C202.78784,141.902541 204.150784,149.271245 200.479744,154.607309 L200.479744,154.608333 C196.808704,159.944397 189.44,161.307341 184.103936,157.636301 Z"/>
  </g>
</svg>
