<svg xmlns="http://www.w3.org/2000/svg" viewBox="0 0 256 256">
  <g fill="none" fill-rule="evenodd" transform="translate(23.552 67.584)">
    <polyline fill="#FFF" points="0 51.785 39.634 28.361 137.538 28.08 162.056 15.127 138.156 1.907 209.2 0 201.572 40.649 184.603 30.051 160.605 42.729 161.541 97.273 124.73 120.832"/>
    <polyline stroke="#152E5F" stroke-linecap="round" stroke-linejoin="round" stroke-width="5.12" points="0 51.785 39.634 28.361 137.538 28.08 162.056 15.127 138.156 1.907 209.2 0 201.572 40.649 184.603 30.051 160.605 42.729 161.541 97.273 124.73 120.832"/>
    <polygon fill="#FFF" points="123.006 48.954 98.053 49.623 104.883 53.485 56.266 83.714 66.922 89.74 115.54 59.509 122.37 63.37"/>
    <polygon stroke="#152E5F" stroke-linecap="round" stroke-linejoin="round" stroke-width="5.12" points="123.006 48.954 98.053 49.623 104.883 53.485 56.266 83.714 66.922 89.74 115.54 59.509 122.37 63.37"/>
    <polygon fill="#FFF" points="73.924 46.187 48.972 46.856 55.802 50.717 26.554 67.113 37.212 73.136 66.459 56.742 73.289 60.603"/>
    <polygon stroke="#152E5F" stroke-linecap="round" stroke-linejoin="round" stroke-width="5.12" points="73.924 46.187 48.972 46.856 55.802 50.717 26.554 67.113 37.212 73.136 66.459 56.742 73.289 60.603"/>
    <polygon fill="#FFF" points="131.074 78.701 106.122 79.37 112.952 83.231 86.472 99.627 97.129 105.65 123.609 89.256 130.439 93.117"/>
    <polygon stroke="#152E5F" stroke-linecap="round" stroke-linejoin="round" stroke-width="5.12" points="131.074 78.701 106.122 79.37 112.952 83.231 86.472 99.627 97.129 105.65 123.609 89.256 130.439 93.117"/>
  </g>
</svg>
