<svg xmlns="http://www.w3.org/2000/svg" viewBox="0 0 256 256">
  <g fill="none" fill-rule="evenodd" transform="translate(83.968 37.888)">
    <path fill="#FFF" d="M88.20736,74.0455424 L88.20736,72.3764224 C88.20736,55.0810624 68.46464,41.0625024 44.11392,41.0625024 C19.7632,41.0625024 0.03072,55.0810624 0.03072,72.3764224 L0.03072,74.0455424 L0.03072,148.694118 C0.4096,165.754982 19.98848,179.507302 44.06272,179.507302 C68.41344,179.507302 88.15616,165.488742 88.15616,148.193382 L88.15616,147.169382 L88.20736,74.0455424 Z"/>
    <path stroke="#152E5F" stroke-width="5.12" d="M88.20736,74.0455424 L88.20736,72.3764224 C88.20736,55.0810624 68.46464,41.0625024 44.11392,41.0625024 C19.7632,41.0625024 0.03072,55.0810624 0.03072,72.3764224 L0.03072,74.0455424 L0.03072,148.694118 C0.4096,165.754982 19.98848,179.507302 44.06272,179.507302 C68.41344,179.507302 88.15616,165.488742 88.15616,148.193382 L88.15616,147.169382 L88.20736,74.0455424 Z"/>
    <path fill="#FFF" d="M75.5303424,23.7564928 L72.6529024,23.9305728 C67.6455424,16.3222528 56.7809024,16.4450125 44.1754624,16.4450125 C31.5700224,16.4450125 20.7053824,16.3222528 15.6980224,23.9305728 L12.8103424,23.7564928 L12.7489024,38.5430528 L12.7489024,38.7683328 C12.7489024,51.0563328 26.8186624,61.0915328 44.1754624,61.0915328 C61.5322624,61.0915328 75.5303424,51.0972928 75.5303424,38.7683328 L75.5303424,38.5430528 L75.5303424,23.7564928 Z"/>
    <path stroke="#152E5F" stroke-width="5.12" d="M75.5303424,23.7564928 L72.6529024,23.9305728 C67.6455424,16.3222528 56.7809024,16.4450125 44.1754624,16.4450125 C31.5700224,16.4450125 20.7053824,16.3222528 15.6980224,23.9305728 L12.8103424,23.7564928 L12.7489024,38.5430528 L12.7489024,38.7683328 C12.7489024,51.0563328 26.8186624,61.0915328 44.1754624,61.0915328 C61.5322624,61.0915328 75.5303424,51.0972928 75.5303424,38.7683328 L75.5303424,38.5430528 L75.5303424,23.7564928 Z"/>
    <path fill="#FFF" d="M44.1243648,0 C61.4811648,0 75.5509248,9.99424 75.5509248,22.3232 C75.5509248,34.65216 61.4811648,44.6464 44.1243648,44.6464 C26.7675648,44.6464 12.6978048,34.65216 12.6978048,22.3232 C12.6978048,9.99424 26.7675648,0 44.1243648,0"/>
    <path stroke="#152E5F" stroke-width="5.12" d="M44.1243648,0 C61.4811648,0 75.5509248,9.99424 75.5509248,22.3232 C75.5509248,34.65216 61.4811648,44.6464 44.1243648,44.6464 C26.7675648,44.6464 12.6978048,34.65216 12.6978048,22.3232 C12.6978048,9.99424 26.7675648,0 44.1243648,0 Z"/>
    <path fill="#FFF" d="M88.1664,120.033075 L88.1664,120.033075 L88.1664,77.3117952 L88.1664,74.9668352 C85.73952,82.5034752 78.37696,91.3508352 69.82656,95.7437952 C53.561344,103.621427 34.584576,103.621427 18.31936,95.7437952 C9.7792,91.3610752 2.41664,83.9677952 0,76.4209152 L0,120.033075 L0,121.159475 C0,138.454835 19.74272,152.473395 44.0832,152.473395 C68.42368,152.473395 88.20736,138.454835 88.20736,121.149235 C88.20736,120.780595 88.18688,120.401715 88.1664,120.033075"/>
    <path stroke="#152E5F" stroke-linejoin="round" stroke-width="5.12" d="M88.1664,120.033075 L88.1664,120.033075 L88.1664,77.3117952 L88.1664,74.9668352 C85.73952,82.5034752 78.37696,91.3508352 69.82656,95.7437952 C53.561344,103.621427 34.584576,103.621427 18.31936,95.7437952 C9.7792,91.3610752 2.41664,83.9677952 0,76.4209152 L0,120.033075 L0,121.159475 C0,138.454835 19.74272,152.473395 44.0832,152.473395 C68.42368,152.473395 88.20736,138.454835 88.20736,121.149235 C88.20736,120.780595 88.18688,120.401715 88.1664,120.033075 Z"/>
    <line x1="44.37" x2="44.37" y1="60.727" y2="54.006" stroke="#152E5F" stroke-linecap="round" stroke-linejoin="round" stroke-width="4.822"/>
    <line x1="32.471" x2="32.471" y1="59.412" y2="51.845" stroke="#152E5F" stroke-linecap="round" stroke-linejoin="round" stroke-width="5.12"/>
    <line x1="56.269" x2="56.269" y1="59.412" y2="51.845" stroke="#152E5F" stroke-linecap="round" stroke-linejoin="round" stroke-width="5.12"/>
    <line x1="21.658" x2="21.658" y1="54.006" y2="46.438" stroke="#152E5F" stroke-linecap="round" stroke-linejoin="round" stroke-width="5.12"/>
    <line x1="67.082" x2="67.082" y1="54.006" y2="46.438" stroke="#152E5F" stroke-linecap="round" stroke-linejoin="round" stroke-width="5.12"/>
    <polygon fill="#FFF" points="59.505 120.3 50.586 120.3 50.586 111.38 38.687 111.38 38.687 120.3 29.768 120.3 29.768 132.198 38.687 132.198 38.687 141.117 50.586 141.117 50.586 132.198 59.505 132.198"/>
    <polygon stroke="#152E5F" stroke-linejoin="round" stroke-width="5.12" points="59.505 120.3 50.586 120.3 50.586 111.38 38.687 111.38 38.687 120.3 29.768 120.3 29.768 132.198 38.687 132.198 38.687 141.117 50.586 141.117 50.586 132.198 59.505 132.198"/>
  </g>
</svg>
