<svg xmlns="http://www.w3.org/2000/svg" viewBox="0 0 256 256">
  <g fill="none" fill-rule="evenodd" transform="translate(62.464 41.984)">
    <path fill="#FFF" d="M0.00369652568,81.6878826 L1.57553653,165.336395 C1.66769653,170.291531 7.04984053,173.324619 11.3373285,170.838347 L120.656497,107.427147 C127.251057,103.601483 131.239537,96.4918506 131.066481,88.8712426 L129.195633,6.36244263 C129.084017,1.43700263 123.746929,-1.57867737 119.469681,0.865610629 L10.5293925,63.1483626 C3.89592053,66.9402346 -0.139663474,74.0488426 0.00369652568,81.6878826"/>
    <path stroke="#152E5F" stroke-linejoin="round" stroke-width="5.12" d="M0.00369652568,81.6878826 L1.57553653,165.336395 C1.66769653,170.291531 7.04984053,173.324619 11.3373285,170.838347 L120.656497,107.427147 C127.251057,103.601483 131.239537,96.4918506 131.066481,88.8712426 L129.195633,6.36244263 C129.084017,1.43700263 123.746929,-1.57867737 119.469681,0.865610629 L10.5293925,63.1483626 C3.89592053,66.9402346 -0.139663474,74.0488426 0.00369652568,81.6878826 Z"/>
    <line x2="129.212" y1="93.515" y2="18.914" stroke="#152E5F" stroke-linejoin="round" stroke-width="5.12"/>
    <line x2="129.212" y1="106.179" y2="31.578" stroke="#152E5F" stroke-linejoin="round" stroke-width="5.12"/>
    <line x1="15.042" x2="73.557" y1="149.328" y2="115.545" stroke="#152E5F" stroke-linecap="round" stroke-linejoin="round" stroke-width="5.12"/>
    <line x1="15.042" x2="49.639" y1="133.945" y2="113.971" stroke="#152E5F" stroke-linecap="round" stroke-linejoin="round" stroke-width="5.12"/>
    <path fill="#FFF" d="M98.0511845,87.530929 L98.3000165,100.774321 C98.3143525,101.557681 99.1663205,102.038961 99.8452325,101.644721 L117.152881,91.605425 C118.196337,91.000241 118.828145,89.873841 118.800497,88.667569 L118.504561,75.605425 C118.487153,74.826161 117.641329,74.347953 116.964465,74.735025 L99.7172325,84.596145 C98.6676325,85.196209 98.0286565,86.320561 98.0511845,87.530929"/>
    <path stroke="#152E5F" stroke-linejoin="round" stroke-width="5.12" d="M98.0511845,87.530929 L98.3000165,100.774321 C98.3143525,101.557681 99.1663205,102.038961 99.8452325,101.644721 L117.152881,91.605425 C118.196337,91.000241 118.828145,89.873841 118.800497,88.667569 L118.504561,75.605425 C118.487153,74.826161 117.641329,74.347953 116.964465,74.735025 L99.7172325,84.596145 C98.6676325,85.196209 98.0286565,86.320561 98.0511845,87.530929 Z"/>
  </g>
</svg>
