<svg xmlns="http://www.w3.org/2000/svg" viewBox="0 0 256 256">
  <g fill="none" fill-rule="evenodd" transform="translate(43.008 53.248)">
    <path fill="#FFF" d="M170.440704,32.738304 L170.440704,31.094784 C170.440704,13.913088 141.796352,0 106.499072,0 C71.200768,0 42.556416,13.913088 42.556416,31.094784 L42.556416,32.738304 L42.556416,106.793984 C43.080704,123.65824 71.478272,137.402368 106.467328,137.402368 C141.457408,137.402368 170.409984,123.4688 170.409984,106.309632 L170.409984,105.276416 L170.440704,32.738304 Z"/>
    <path stroke="#152E5F" stroke-linejoin="round" stroke-width="5.12" d="M170.440704,32.738304 L170.440704,31.094784 C170.440704,13.913088 141.796352,0 106.499072,0 C71.200768,0 42.556416,13.913088 42.556416,31.094784 L42.556416,32.738304 L42.556416,106.793984 C43.080704,123.65824 71.478272,137.402368 106.467328,137.402368 C141.457408,137.402368 170.409984,123.4688 170.409984,106.309632 L170.409984,105.276416 L170.440704,32.738304 Z"/>
    <path fill="#FFF" d="M170.378752,80.9703424 L170.378752,80.9703424 L170.378752,38.5777664 L170.378752,36.2369024 C165.448192,45.0883584 155.991552,52.4130304 143.768064,56.8541184 C120.188416,64.6969344 92.655104,64.6969344 69.07648,56.8541184 C56.755712,52.5123584 46.006784,45.1764224 42.495488,37.6920064 L42.495488,80.9703424 L42.495488,82.0885504 C42.495488,99.2681984 71.10912,113.181286 106.43712,113.181286 C141.766144,113.181286 170.378752,99.2681984 170.378752,82.0885504 C170.441216,81.7086464 170.409472,81.3502464 170.378752,80.9703424"/>
    <path stroke="#152E5F" stroke-linejoin="round" stroke-width="5.12" d="M170.378752,80.9703424 L170.378752,80.9703424 L170.378752,38.5777664 L170.378752,36.2369024 C165.448192,45.0883584 155.991552,52.4130304 143.768064,56.8541184 C120.188416,64.6969344 92.655104,64.6969344 69.07648,56.8541184 C56.755712,52.5123584 46.006784,45.1764224 42.495488,37.6920064 L42.495488,80.9703424 L42.495488,82.0885504 C42.495488,99.2681984 71.10912,113.181286 106.43712,113.181286 C141.766144,113.181286 170.378752,99.2681984 170.378752,82.0885504 C170.441216,81.7086464 170.409472,81.3502464 170.378752,80.9703424 Z"/>
    <path fill="#FFF" d="M170.378752,54.5992704 L170.378752,54.5992704 L170.378752,37.4185984 L170.378752,35.0787584 C165.438976,43.9302144 155.986432,51.2600064 143.768064,55.7164544 C120.180224,63.5305984 92.663296,63.5305984 69.07648,55.7164544 C56.755712,51.3521664 46.006784,44.0162304 42.495488,36.5328384 L42.495488,54.5992704 L42.495488,55.7164544 C42.495488,72.8756224 71.10912,86.8102144 106.43712,86.8102144 C141.766144,86.8102144 170.378752,72.8756224 170.378752,55.7164544 C170.441216,55.3365504 170.409472,54.9361664 170.378752,54.5992704"/>
    <path stroke="#152E5F" stroke-linejoin="round" stroke-width="5.12" d="M170.378752,54.5992704 L170.378752,54.5992704 L170.378752,37.4185984 L170.378752,35.0787584 C165.438976,43.9302144 155.986432,51.2600064 143.768064,55.7164544 C120.180224,63.5305984 92.663296,63.5305984 69.07648,55.7164544 C56.755712,51.3521664 46.006784,44.0162304 42.495488,36.5328384 L42.495488,54.5992704 L42.495488,55.7164544 C42.495488,72.8756224 71.10912,86.8102144 106.43712,86.8102144 C141.766144,86.8102144 170.378752,72.8756224 170.378752,55.7164544 C170.441216,55.3365504 170.409472,54.9361664 170.378752,54.5992704 Z"/>
    <path fill="#FFF" d="M78.239744,107.340288 C78.239744,106.046976 78.171136,104.770048 78.041088,103.511552 L84.182016,97.967616 C83.08224,93.003264 81.125376,88.36352 78.476288,84.205056 L70.371328,84.619776 C68.727808,82.529792 66.870272,80.61696 64.8192,78.929408 L65.226752,70.954496 C61.067264,68.305408 56.428544,66.350592 51.464192,65.249792 L46.367744,70.893056 C44.760064,70.67904 43.123712,70.557184 41.45664,70.557184 C40.182784,70.557184 38.924288,70.62272 37.684224,70.749696 L32.717824,65.249792 C27.753472,66.350592 23.114752,68.305408 18.955264,70.954496 L19.314688,77.970944 C16.799744,79.86944 14.542848,82.0864 12.591104,84.557312 L5.705728,84.205056 C3.05664,88.36352 1.1008,93.003264 0,97.967616 L5.003264,102.48448 C4.793344,104.074752 4.67456,105.693696 4.67456,107.340288 C4.67456,108.98688 4.793344,110.605824 5.003264,112.196096 L0,116.71296 C1.1008,121.677312 3.05664,126.317056 5.705728,130.47552 L12.591104,130.123264 C14.542848,132.593152 16.799744,134.811136 19.314688,136.709632 L18.955264,143.725056 C23.114752,146.375168 27.753472,148.329984 32.717824,149.430784 L37.684224,143.93088 C38.924288,144.057856 40.182784,144.123392 41.45664,144.123392 C43.123712,144.123392 44.760064,144.001536 46.367744,143.78752 L51.464192,149.430784 C56.428544,148.329984 61.067264,146.375168 65.226752,143.725056 L64.8192,135.751168 C66.870272,134.062592 68.727808,132.150784 70.371328,130.0608 L78.476288,130.47552 C81.125376,126.317056 83.08224,121.677312 84.182016,116.71296 L78.041088,111.169024 C78.171136,109.910528 78.239744,108.6336 78.239744,107.340288"/>
    <path stroke="#152E5F" stroke-linejoin="round" stroke-width="5.12" d="M78.239744,107.340288 C78.239744,106.046976 78.171136,104.770048 78.041088,103.511552 L84.182016,97.967616 C83.08224,93.003264 81.125376,88.36352 78.476288,84.205056 L70.371328,84.619776 C68.727808,82.529792 66.870272,80.61696 64.8192,78.929408 L65.226752,70.954496 C61.067264,68.305408 56.428544,66.350592 51.464192,65.249792 L46.367744,70.893056 C44.760064,70.67904 43.123712,70.557184 41.45664,70.557184 C40.182784,70.557184 38.924288,70.62272 37.684224,70.749696 L32.717824,65.249792 C27.753472,66.350592 23.114752,68.305408 18.955264,70.954496 L19.314688,77.970944 C16.799744,79.86944 14.542848,82.0864 12.591104,84.557312 L5.705728,84.205056 C3.05664,88.36352 1.1008,93.003264 0,97.967616 L5.003264,102.48448 C4.793344,104.074752 4.67456,105.693696 4.67456,107.340288 C4.67456,108.98688 4.793344,110.605824 5.003264,112.196096 L0,116.71296 C1.1008,121.677312 3.05664,126.317056 5.705728,130.47552 L12.591104,130.123264 C14.542848,132.593152 16.799744,134.811136 19.314688,136.709632 L18.955264,143.725056 C23.114752,146.375168 27.753472,148.329984 32.717824,149.430784 L37.684224,143.93088 C38.924288,144.057856 40.182784,144.123392 41.45664,144.123392 C43.123712,144.123392 44.760064,144.001536 46.367744,143.78752 L51.464192,149.430784 C56.428544,148.329984 61.067264,146.375168 65.226752,143.725056 L64.8192,135.751168 C66.870272,134.062592 68.727808,132.150784 70.371328,130.0608 L78.476288,130.47552 C81.125376,126.317056 83.08224,121.677312 84.182016,116.71296 L78.041088,111.169024 C78.171136,109.910528 78.239744,108.6336 78.239744,107.340288 Z"/>
    <path fill="#FFF" d="M66.057216,107.340288 C66.057216,120.980992 54.99904,132.039168 41.358336,132.039168 C27.717632,132.039168 16.659456,120.980992 16.659456,107.340288 C16.659456,93.699584 27.717632,82.641408 41.358336,82.641408 C54.99904,82.641408 66.057216,93.699584 66.057216,107.340288"/>
    <path stroke="#152E5F" stroke-linejoin="round" stroke-width="5.12" d="M66.057216,107.340288 C66.057216,120.980992 54.99904,132.039168 41.358336,132.039168 C27.717632,132.039168 16.659456,120.980992 16.659456,107.340288 C16.659456,93.699584 27.717632,82.641408 41.358336,82.641408 C54.99904,82.641408 66.057216,93.699584 66.057216,107.340288 Z"/>
  </g>
</svg>
