<svg xmlns="http://www.w3.org/2000/svg" viewBox="0 0 256 256">
  <g fill="none" fill-rule="evenodd" transform="translate(61.44 44.032)">
    <path fill="#FFF" d="M1.4412019,67.8322858 L5.32907052e-15,160.529886 C-0.0210701011,161.939934 0.758193899,163.240414 2.0115699,163.885534 L8.1658099,167.055838 L131.745202,4.77743775 C132.237746,4.12924575 131.991986,3.19023775 131.243442,2.86767775 L125.899186,0.563677754 C123.98021,-0.263714246 121.790898,-0.176674246 119.94565,0.801245754 L5.3313779,61.4804138 C2.9731059,62.7296938 1.4821619,65.1637418 1.4412019,67.8322858"/>
    <path stroke="#152E5F" stroke-linejoin="round" stroke-width="5.12" d="M1.4412019,67.8322858 L5.32907052e-15,160.529886 C-0.0210701011,161.939934 0.758193899,163.240414 2.0115699,163.885534 L8.1658099,167.055838 L131.745202,4.77743775 C132.237746,4.12924575 131.991986,3.19023775 131.243442,2.86767775 L125.899186,0.563677754 C123.98021,-0.263714246 121.790898,-0.176674246 119.94565,0.801245754 L5.3313779,61.4804138 C2.9731059,62.7296938 1.4821619,65.1637418 1.4412019,67.8322858 Z"/>
    <path fill="#FFF" d="M9.8312435,71.126289 L8.40673477,166.422801 C8.3945715,167.267601 9.2926195,167.814417 10.0360435,167.415057 L129.065803,103.637265 C130.643787,102.791441 131.636043,101.154065 131.656523,99.364113 L132.697997,5.10286495 C132.706123,4.37992095 131.939147,3.91195295 131.300171,4.24884895 L12.3400435,67.034385 C10.8194035,67.837201 9.8568435,69.405969 9.8312435,71.126289"/>
    <path stroke="#152E5F" stroke-linejoin="round" stroke-width="5.12" d="M9.8312435,71.126289 L8.40673477,166.422801 C8.3945715,167.267601 9.2926195,167.814417 10.0360435,167.415057 L129.065803,103.637265 C130.643787,102.791441 131.636043,101.154065 131.656523,99.364113 L132.697997,5.10286495 C132.706123,4.37992095 131.939147,3.91195295 131.300171,4.24884895 L12.3400435,67.034385 C10.8194035,67.837201 9.8568435,69.405969 9.8312435,71.126289 Z"/>
    <path fill="#FFF" d="M73.8801907,70.7183274 L127.580799,100.056951 C129.323647,101.009271 129.319551,103.513975 127.572607,104.459127 L10.4259827,167.880567 C9.8423027,168.195959 9.2248307,167.519095 9.5934707,166.966135 L73.8801907,70.7183274 Z"/>
    <path stroke="#152E5F" stroke-linejoin="round" stroke-width="5.12" d="M73.8801907,70.7183274 L127.580799,100.056951 C129.323647,101.009271 129.319551,103.513975 127.572607,104.459127 L10.4259827,167.880567 C9.8423027,168.195959 9.2248307,167.519095 9.5934707,166.966135 L73.8801907,70.7183274 Z"/>
    <path fill="#FFF" d="M80.0262387,103.359351 L131.940991,4.97138335 C132.176511,4.52389535 131.694207,4.04159135 131.247743,4.27711135 L9.8730227,68.3365034 L80.0262387,103.359351 Z"/>
    <path stroke="#152E5F" stroke-linejoin="round" stroke-width="5.12" d="M80.0262387,103.359351 L131.940991,4.97138335 C132.176511,4.52389535 131.694207,4.04159135 131.247743,4.27711135 L9.8730227,68.3365034 L80.0262387,103.359351 Z"/>
    <g transform="translate(1.507 63.505)">
      <line x2="8.366" y2="4.831" fill="#FFF"/>
      <line x2="8.366" y2="4.831" stroke="#152E5F" stroke-linejoin="round" stroke-width="5.12"/>
    </g>
  </g>
</svg>
