<svg xmlns="http://www.w3.org/2000/svg" viewBox="0 0 256 256">
  <g fill="none" fill-rule="evenodd" transform="translate(24.576 51.2)">
    <polygon fill="#FFF" points="169.021 132.366 3.894 85.1 48.82 26.15 198.659 74.056"/>
    <polygon stroke="#152E5F" stroke-linecap="round" stroke-linejoin="round" stroke-width="5.12" points="169.021 132.366 3.894 85.1 48.82 26.15 198.659 74.056"/>
    <polygon fill="#FFF" points="207.36 70.706 121.886 120.055 0 49.324 85.474 0"/>
    <polygon stroke="#152E5F" stroke-linecap="round" stroke-linejoin="round" stroke-width="5.12" points="207.36 70.706 121.886 120.055 0 49.324 85.474 0"/>
    <line x1="59.407" x2="112.691" y1="66.591" y2="36.31" stroke="#152E5F" stroke-linecap="round" stroke-linejoin="round" stroke-width="5.12"/>
    <line x1="71.086" x2="124.41" y1="73.89" y2="43.523" stroke="#152E5F" stroke-linecap="round" stroke-linejoin="round" stroke-width="5.12"/>
    <line x1="81.923" x2="117.805" y1="81.524" y2="61.132" stroke="#152E5F" stroke-linecap="round" stroke-linejoin="round" stroke-width="5.12"/>
    <line x1="58.826" x2="91.378" y1="40.066" y2="21.534" stroke="#152E5F" stroke-linecap="round" stroke-linejoin="round" stroke-width="5.12"/>
    <polygon fill="#FFF" points="54.595 49.272 41.568 57.102 29.936 49.711 42.966 41.885"/>
    <polygon stroke="#152E5F" stroke-linecap="round" stroke-linejoin="round" stroke-width="5.12" points="54.595 49.272 41.568 57.102 29.936 49.711 42.966 41.885"/>
    <polygon fill="#FFF" points="36.234 124.871 86.113 153.928 173.279 102.406 123.892 73.89"/>
    <polygon stroke="#152E5F" stroke-linecap="round" stroke-linejoin="round" stroke-width="5.12" points="36.234 124.871 86.113 153.928 173.279 102.406 123.892 73.89"/>
    <polygon fill="#FFF" points="95.567 98.462 173.28 102.406 86.456 154.262"/>
    <polygon stroke="#152E5F" stroke-linecap="round" stroke-linejoin="round" stroke-width="5.12" points="95.567 98.462 173.28 102.406 86.456 154.262"/>
    <polygon fill="#FFF" points="122.563 118.139 123.891 73.89 36.234 124.871"/>
    <polygon stroke="#152E5F" stroke-linecap="round" stroke-linejoin="round" stroke-width="5.12" points="122.563 118.139 123.891 73.89 36.234 124.871"/>
  </g>
</svg>
