<svg xmlns="http://www.w3.org/2000/svg" xmlns:xlink="http://www.w3.org/1999/xlink" viewBox="0 0 256 256">
  <defs>
    <polygon id="money-a" points="0 80.18 60.078 114.371 198.921 34.191 142.746 0"/>
    <polygon id="money-c" points="0 80.18 60.078 114.371 198.921 34.191 142.746 0"/>
    <polygon id="money-e" points="0 80.18 60.078 114.371 198.921 34.191 142.746 0"/>
    <polygon id="money-g" points="0 80.18 60.078 114.371 198.921 34.191 142.746 0"/>
  </defs>
  <g fill="none" fill-rule="evenodd" transform="translate(25.6 53.248)">
    <polygon fill="#FFF" points="1.342 114.586 63.048 149.709 205.66 67.359 147.958 32.236"/>
    <polygon stroke="#152E5F" stroke-linejoin="round" stroke-width="5.12" points="1.342 114.586 63.048 149.709 205.66 67.359 147.958 32.236"/>
    <line x1="90.572" x2="119.357" y1="78.091" y2="96.697" stroke="#152E5F" stroke-linecap="round" stroke-linejoin="round" stroke-width="5.12"/>
    <polygon fill="#FFF" points="1.342 98.827 63.048 133.94 205.66 51.6 147.958 16.477"/>
    <polygon stroke="#152E5F" stroke-linejoin="round" stroke-width="5.12" points="1.342 98.827 63.048 133.94 205.66 51.6 147.958 16.477"/>
    <line x1="90.572" x2="119.357" y1="63.355" y2="81.961" stroke="#152E5F" stroke-linecap="round" stroke-linejoin="round" stroke-width="5.12"/>
    <polygon fill="#FFF" points="0 82.35 61.706 117.474 204.319 35.124 146.627 0"/>
    <polygon stroke="#152E5F" stroke-linejoin="round" stroke-width="5.12" points="0 82.35 61.706 117.474 204.319 35.124 146.627 0"/>
    <g transform="translate(74.996 37.118)">
      <path fill="#FFF" d="M0.00862904769,19.029815 C0.403893048,7.94091896 14.277045,-0.566473043 30.994869,0.0294949575 C47.712693,0.624438957 60.944821,10.097463 60.550581,21.185335 C60.155317,32.275255 46.282165,40.781623 29.564341,40.185655 C12.846517,39.590711 -0.386634952,30.118711 0.00862904769,19.029815"/>
      <path stroke="#152E5F" stroke-linejoin="round" stroke-width="5.12" d="M0.00862904769,19.029815 C0.403893048,7.94091896 14.277045,-0.566473043 30.994869,0.0294949575 C47.712693,0.624438957 60.944821,10.097463 60.550581,21.185335 C60.155317,32.275255 46.282165,40.781623 29.564341,40.185655 C12.846517,39.590711 -0.386634952,30.118711 0.00862904769,19.029815 Z"/>
      <line x1="16.355" x2="45.14" y1="9.628" y2="28.244" stroke="#152E5F" stroke-linecap="round" stroke-linejoin="round" stroke-width="5.12"/>
      <path stroke="#152E5F" stroke-linecap="round" stroke-linejoin="round" stroke-width="5.12" d="M27.3935634,10.047799 C21.2638994,10.998071 17.2119314,13.880631 17.0204434,16.911671 C16.9354514,18.263351 17.5887634,20.111671 19.0684434,21.007671 C24.3338514,24.195383 33.8468114,11.579703 40.5724434,14.863671 C42.2436114,15.679799 43.4775314,17.347895 43.6444434,18.959671 C44.0304914,22.678839 38.8429074,27.111735 30.2505234,29.708599"/>
    </g>
    <g transform="translate(1.977 .983)">
      <mask id="money-b" fill="#fff">
        <use xlink:href="#money-a"/>
      </mask>
      <path stroke="#152E5F" stroke-linejoin="round" stroke-width="5.12" d="M35.5777536,112.68055 C35.9003136,103.609958 47.2462336,96.6508544 60.9176576,97.1372544 C74.5890816,97.6246784 85.4107136,105.372262 85.0871296,114.443878 C84.7645696,123.515494 73.4196736,130.473574 59.7472256,129.98615 C46.0758016,129.49975 35.2541696,121.751142 35.5777536,112.68055 Z" mask="url(#money-b)"/>
      <mask id="money-d" fill="#fff">
        <use xlink:href="#money-c"/>
      </mask>
      <path stroke="#152E5F" stroke-linejoin="round" stroke-width="5.12" d="M-22.5242112,80.5126144 C-22.2006272,71.4409984 -10.8557312,64.4829184 2.8156928,64.9682944 C16.4881408,65.4557184 27.3087488,73.2043264 26.9861888,82.2759424 C26.6626048,91.3465344 15.3177088,98.3056384 1.6462848,97.8182144 C-12.0261632,97.3318144 -22.8467712,89.5832064 -22.5242112,80.5126144 Z" mask="url(#money-d)"/>
      <mask id="money-f" fill="#fff">
        <use xlink:href="#money-e"/>
      </mask>
      <path stroke="#152E5F" stroke-linejoin="round" stroke-width="5.12" d="M179.717734,35.8926336 C180.081254,26.8158976 191.466086,19.9018496 205.145702,20.4486656 C218.826342,20.9954816 229.622374,28.7973376 229.258854,37.8750976 C228.896358,46.9518336 217.511526,53.8669056 203.830886,53.3190656 C190.150246,52.7712256 179.355238,44.9693696 179.717734,35.8926336 Z" mask="url(#money-f)"/>
      <mask id="money-h" fill="#fff">
        <use xlink:href="#money-g"/>
      </mask>
      <path stroke="#152E5F" stroke-linejoin="round" stroke-width="5.12" d="M117.973811,-0.8884224 C118.296371,-9.9590144 129.642291,-16.9181184 143.313715,-16.4317184 C156.985139,-15.9442944 167.806771,-8.1967104 167.483187,0.8759296 C167.160627,9.9465216 155.815731,16.9056256 142.143283,16.4182016 C128.471859,15.9318016 117.650227,8.1821696 117.973811,-0.8884224 Z" mask="url(#money-h)"/>
    </g>
    <g transform="translate(140.953 57.56)">
      <path fill="#FFF" d="M42.53696,15.90272 L42.53696,15.104 C42.53696,6.7584 33.01376,0 21.27872,0 C9.54368,0 0.02048,6.7584 0.02048,15.104 L0.02048,15.90272 L0.02048,51.87584 C0.19456,60.06784 9.63584,66.74432 21.26848,66.74432 C32.90112,66.74432 42.52672,59.97568 42.52672,51.64032 L42.52672,51.13856 L42.53696,15.90272 Z"/>
      <path stroke="#152E5F" stroke-linejoin="round" stroke-width="5.12" d="M42.53696,15.90272 L42.53696,15.104 C42.53696,6.7584 33.01376,0 21.27872,0 C9.54368,0 0.02048,6.7584 0.02048,15.104 L0.02048,15.90272 L0.02048,51.87584 C0.19456,60.06784 9.63584,66.74432 21.26848,66.74432 C32.90112,66.74432 42.52672,59.97568 42.52672,51.64032 L42.52672,51.13856 L42.53696,15.90272 Z"/>
      <path fill="#FFF" d="M42.51648,39.3317376 L42.51648,39.3317376 L42.51648,18.7401216 L42.51648,17.6024576 C40.877056,21.9022336 37.733376,25.4606336 33.66912,27.6182016 C25.8304,31.4264576 16.67584,31.4264576 8.83712,27.6182016 C4.74112,25.5077376 1.16736,21.9452416 0,18.3100416 L0,39.3317376 L0,39.8744576 C0,48.2210816 9.51296,54.9784576 21.25824,54.9784576 C33.00352,54.9784576 42.51648,48.2210816 42.51648,39.8744576 C42.53696,39.6911616 42.52672,39.5170816 42.51648,39.3317376"/>
      <path stroke="#152E5F" stroke-linejoin="round" stroke-width="5.12" d="M42.51648,39.3317376 L42.51648,39.3317376 L42.51648,18.7401216 L42.51648,17.6024576 C40.877056,21.9022336 37.733376,25.4606336 33.66912,27.6182016 C25.8304,31.4264576 16.67584,31.4264576 8.83712,27.6182016 C4.74112,25.5077376 1.16736,21.9452416 0,18.3100416 L0,39.3317376 L0,39.8744576 C0,48.2210816 9.51296,54.9784576 21.25824,54.9784576 C33.00352,54.9784576 42.51648,48.2210816 42.51648,39.8744576 C42.53696,39.6911616 42.52672,39.5170816 42.51648,39.3317376 Z"/>
      <path fill="#FFF" d="M42.51648,26.5217024 L42.51648,26.5217024 L42.51648,18.1761024 L42.51648,17.0394624 C40.873984,21.3392384 37.731328,24.9007104 33.66912,27.0644224 C25.827328,30.8603904 16.678912,30.8603904 8.83712,27.0644224 C4.74112,24.9447424 1.16736,21.3812224 0,17.7460224 L0,26.5217024 L0,27.0644224 C0,35.3997824 9.51296,42.1684224 21.25824,42.1684224 C33.00352,42.1684224 42.51648,35.3997824 42.51648,27.0644224 C42.53696,26.8801024 42.52672,26.6855424 42.51648,26.5217024"/>
      <path stroke="#152E5F" stroke-linejoin="round" stroke-width="5.12" d="M42.51648,26.5217024 L42.51648,26.5217024 L42.51648,18.1761024 L42.51648,17.0394624 C40.873984,21.3392384 37.731328,24.9007104 33.66912,27.0644224 C25.827328,30.8603904 16.678912,30.8603904 8.83712,27.0644224 C4.74112,24.9447424 1.16736,21.3812224 0,17.7460224 L0,26.5217024 L0,27.0644224 C0,35.3997824 9.51296,42.1684224 21.25824,42.1684224 C33.00352,42.1684224 42.51648,35.3997824 42.51648,27.0644224 C42.53696,26.8801024 42.52672,26.6855424 42.51648,26.5217024 Z"/>
    </g>
  </g>
</svg>
