<svg xmlns="http://www.w3.org/2000/svg" viewBox="0 0 256 256">
  <g fill="none" fill-rule="evenodd" transform="translate(15.36 51.2)">
    <polygon fill="#FFF" points="132.546 117.286 96.445 116.258 106.335 110.688 59.849 82.944 83.078 79.1 121.77 101.997 131.661 96.427"/>
    <polygon stroke="#152E5F" stroke-linejoin="round" stroke-width="5.12" points="132.546 117.286 96.445 116.258 106.335 110.688 59.849 82.944 83.078 79.1 121.77 101.997 131.661 96.427"/>
    <polygon fill="#FFF" points="113.691 58.1 150.403 59.146 140.345 64.81 179.691 88.094 163.996 96.932 124.65 73.648 114.591 79.312"/>
    <polygon stroke="#152E5F" stroke-linejoin="round" stroke-width="5.12" points="113.691 58.1 150.403 59.146 140.345 64.81 179.691 88.094 163.996 96.932 124.65 73.648 114.591 79.312"/>
    <path fill="#FFF" d="M102.848,19.755008 L102.848,18.762752 C102.848,8.394752 85.56288,0 64.26368,0 C42.96448,0 25.680384,8.394752 25.680384,18.762752 L25.680384,19.755008 L25.680384,64.442368 C25.995776,74.617856 43.132416,82.912256 64.245248,82.912256 C85.35808,82.912256 102.828544,74.503168 102.828544,64.149504 L102.828544,63.525888 L102.848,19.755008 Z"/>
    <path stroke="#152E5F" stroke-linejoin="round" stroke-width="5.12" d="M102.848,19.755008 L102.848,18.762752 C102.848,8.394752 85.56288,0 64.26368,0 C42.96448,0 25.680384,8.394752 25.680384,18.762752 L25.680384,19.755008 L25.680384,64.442368 C25.995776,74.617856 43.132416,82.912256 64.245248,82.912256 C85.35808,82.912256 102.828544,74.503168 102.828544,64.149504 L102.828544,63.525888 L102.848,19.755008 Z"/>
    <path fill="#FFF" d="M102.810522,48.8590336 L102.810522,48.8590336 L102.810522,23.2784896 L102.810522,21.8663936 C99.8347776,27.2065536 94.1290496,31.6271616 86.7521536,34.3069696 C72.5246976,39.0388736 55.9102976,39.0388736 41.6818176,34.3069696 C34.2475776,31.6865536 27.7615616,27.2598016 25.6429056,22.7439616 L25.6429056,48.8590336 L25.6429056,49.5328256 C25.6429056,59.9008256 42.9085696,68.2955776 64.2262016,68.2955776 C85.5448576,68.2955776 102.810522,59.9008256 102.810522,49.5328256 C102.84841,49.3044736 102.828954,49.0884096 102.810522,48.8590336"/>
    <path stroke="#152E5F" stroke-linejoin="round" stroke-width="5.12" d="M102.810522,48.8590336 L102.810522,48.8590336 L102.810522,23.2784896 L102.810522,21.8663936 C99.8347776,27.2065536 94.1290496,31.6271616 86.7521536,34.3069696 C72.5246976,39.0388736 55.9102976,39.0388736 41.6818176,34.3069696 C34.2475776,31.6865536 27.7615616,27.2598016 25.6429056,22.7439616 L25.6429056,48.8590336 L25.6429056,49.5328256 C25.6429056,59.9008256 42.9085696,68.2955776 64.2262016,68.2955776 C85.5448576,68.2955776 102.810522,59.9008256 102.810522,49.5328256 C102.84841,49.3044736 102.828954,49.0884096 102.810522,48.8590336 Z"/>
    <path fill="#FFF" d="M102.810522,32.9459712 L102.810522,32.9459712 L102.810522,22.5789952 L102.810522,21.1668992 C99.8296576,26.5080832 94.1259776,30.9317632 86.7521536,33.6197632 C72.5185536,38.3352832 55.9154176,38.3352832 41.6818176,33.6197632 C34.2475776,30.9870592 27.7615616,26.5603072 25.6429056,22.0444672 L25.6429056,32.9459712 L25.6429056,33.6197632 C25.6429056,43.9754752 42.9085696,52.3825152 64.2262016,52.3825152 C85.5448576,52.3825152 102.810522,43.9754752 102.810522,33.6197632 C102.84841,33.3914112 102.828954,33.1487232 102.810522,32.9459712"/>
    <path stroke="#152E5F" stroke-linejoin="round" stroke-width="5.12" d="M102.810522,32.9459712 L102.810522,32.9459712 L102.810522,22.5789952 L102.810522,21.1668992 C99.8296576,26.5080832 94.1259776,30.9317632 86.7521536,33.6197632 C72.5185536,38.3352832 55.9154176,38.3352832 41.6818176,33.6197632 C34.2475776,30.9870592 27.7615616,26.5603072 25.6429056,22.0444672 L25.6429056,32.9459712 L25.6429056,33.6197632 C25.6429056,43.9754752 42.9085696,52.3825152 64.2262016,52.3825152 C85.5448576,52.3825152 102.810522,43.9754752 102.810522,33.6197632 C102.84841,33.3914112 102.828954,33.1487232 102.810522,32.9459712 Z"/>
    <path fill="#FFF" d="M47.21152,64.7709696 C47.21152,63.9906816 47.17056,63.2196096 47.091712,62.4608256 L50.797568,59.1154176 C50.134016,56.1202176 48.953344,53.3195776 47.35488,50.8107776 L42.464256,51.0606336 C41.472,49.8000896 40.35072,48.6460416 39.113728,47.6271616 L39.359488,42.8153856 C36.849664,41.2169216 34.050048,40.0372736 31.054848,39.3726976 L27.979776,42.7774976 C27.009024,42.6484736 26.021888,42.5757696 25.01632,42.5757696 C24.247296,42.5757696 23.488512,42.6146816 22.738944,42.6914816 L19.74272,39.3726976 C16.74752,40.0372736 13.947904,41.2169216 11.43808,42.8153856 L11.655168,47.0486016 C10.1376,48.1954816 8.77568,49.5328256 7.59808,51.0227456 L3.442688,50.8107776 C1.844224,53.3195776 0.664576,56.1202176 0,59.1154176 L3.018752,61.8413056 C2.8928,62.7997696 2.820096,63.7766656 2.820096,64.7709696 C2.820096,65.7652736 2.8928,66.7421696 3.018752,67.7006336 L0,70.4265216 C0.664576,73.4227456 1.844224,76.2223616 3.442688,78.7311616 L7.59808,78.5191936 C8.77568,80.0101376 10.1376,81.3474816 11.655168,82.4933376 L11.43808,86.7265536 C13.947904,88.3260416 16.74752,89.5056896 19.74272,90.1702656 L22.738944,86.8504576 C23.488512,86.9272576 24.247296,86.9671936 25.01632,86.9671936 C26.021888,86.9671936 27.009024,86.8934656 27.979776,86.7644416 L31.054848,90.1702656 C34.050048,89.5056896 36.849664,88.3260416 39.359488,86.7265536 L39.113728,81.9147776 C40.35072,80.8958976 41.472,79.7418496 42.464256,78.4823296 L47.35488,78.7311616 C48.953344,76.2223616 50.134016,73.4227456 50.797568,70.4265216 L47.091712,67.0821376 C47.17056,66.3223296 47.21152,65.5522816 47.21152,64.7709696"/>
    <path stroke="#152E5F" stroke-linejoin="round" stroke-width="5.12" d="M47.21152,64.7709696 C47.21152,63.9906816 47.17056,63.2196096 47.091712,62.4608256 L50.797568,59.1154176 C50.134016,56.1202176 48.953344,53.3195776 47.35488,50.8107776 L42.464256,51.0606336 C41.472,49.8000896 40.35072,48.6460416 39.113728,47.6271616 L39.359488,42.8153856 C36.849664,41.2169216 34.050048,40.0372736 31.054848,39.3726976 L27.979776,42.7774976 C27.009024,42.6484736 26.021888,42.5757696 25.01632,42.5757696 C24.247296,42.5757696 23.488512,42.6146816 22.738944,42.6914816 L19.74272,39.3726976 C16.74752,40.0372736 13.947904,41.2169216 11.43808,42.8153856 L11.655168,47.0486016 C10.1376,48.1954816 8.77568,49.5328256 7.59808,51.0227456 L3.442688,50.8107776 C1.844224,53.3195776 0.664576,56.1202176 0,59.1154176 L3.018752,61.8413056 C2.8928,62.7997696 2.820096,63.7766656 2.820096,64.7709696 C2.820096,65.7652736 2.8928,66.7421696 3.018752,67.7006336 L0,70.4265216 C0.664576,73.4227456 1.844224,76.2223616 3.442688,78.7311616 L7.59808,78.5191936 C8.77568,80.0101376 10.1376,81.3474816 11.655168,82.4933376 L11.43808,86.7265536 C13.947904,88.3260416 16.74752,89.5056896 19.74272,90.1702656 L22.738944,86.8504576 C23.488512,86.9272576 24.247296,86.9671936 25.01632,86.9671936 C26.021888,86.9671936 27.009024,86.8934656 27.979776,86.7644416 L31.054848,90.1702656 C34.050048,89.5056896 36.849664,88.3260416 39.359488,86.7265536 L39.113728,81.9147776 C40.35072,80.8958976 41.472,79.7418496 42.464256,78.4823296 L47.35488,78.7311616 C48.953344,76.2223616 50.134016,73.4227456 50.797568,70.4265216 L47.091712,67.0821376 C47.17056,66.3223296 47.21152,65.5522816 47.21152,64.7709696 Z"/>
    <path fill="#FFF" d="M39.8605312,64.7709696 C39.8605312,73.0018816 33.1881472,79.6752896 24.9562112,79.6752896 C16.7252992,79.6752896 10.0529152,73.0018816 10.0529152,64.7709696 C10.0529152,56.5400576 16.7252992,49.8666496 24.9562112,49.8666496 C33.1881472,49.8666496 39.8605312,56.5400576 39.8605312,64.7709696"/>
    <path stroke="#152E5F" stroke-linejoin="round" stroke-width="5.12" d="M39.8605312,64.7709696 C39.8605312,73.0018816 33.1881472,79.6752896 24.9562112,79.6752896 C16.7252992,79.6752896 10.0529152,73.0018816 10.0529152,64.7709696 C10.0529152,56.5400576 16.7252992,49.8666496 24.9562112,49.8666496 C33.1881472,49.8666496 39.8605312,56.5400576 39.8605312,64.7709696 Z"/>
    <path fill="#FFF" d="M225.737011,90.496 L225.737011,89.50272 C225.737011,79.135744 208.451891,70.740992 187.152691,70.740992 C165.854515,70.740992 148.569395,79.135744 148.569395,89.50272 L148.569395,90.496 L148.569395,135.182336 C148.884787,145.358848 166.021427,153.653248 187.134259,153.653248 C208.248115,153.653248 225.717555,145.24416 225.717555,134.890496 L225.717555,134.26688 L225.737011,90.496 Z"/>
    <path stroke="#152E5F" stroke-linejoin="round" stroke-width="5.12" d="M225.737011,90.496 L225.737011,89.50272 C225.737011,79.135744 208.451891,70.740992 187.152691,70.740992 C165.854515,70.740992 148.569395,79.135744 148.569395,89.50272 L148.569395,90.496 L148.569395,135.182336 C148.884787,145.358848 166.021427,153.653248 187.134259,153.653248 C208.248115,153.653248 225.717555,145.24416 225.717555,134.890496 L225.717555,134.26688 L225.737011,90.496 Z"/>
    <path fill="#FFF" d="M225.700045,119.600026 L225.700045,119.600026 L225.700045,94.0194816 L225.700045,92.6073856 C222.724301,97.9475456 217.017549,102.368154 209.641677,105.047962 C195.414221,109.779866 178.798797,109.779866 164.571341,105.047962 C157.137101,102.427546 150.651085,98.0007936 148.532429,93.4849536 L148.532429,119.600026 L148.532429,120.273818 C148.532429,130.640794 165.798093,139.03657 187.115725,139.03657 C208.434381,139.03657 225.700045,130.640794 225.700045,120.273818 C225.736909,120.045466 225.718477,119.829402 225.700045,119.600026"/>
    <path stroke="#152E5F" stroke-linejoin="round" stroke-width="5.12" d="M225.700045,119.600026 L225.700045,119.600026 L225.700045,94.0194816 L225.700045,92.6073856 C222.724301,97.9475456 217.017549,102.368154 209.641677,105.047962 C195.414221,109.779866 178.798797,109.779866 164.571341,105.047962 C157.137101,102.427546 150.651085,98.0007936 148.532429,93.4849536 L148.532429,119.600026 L148.532429,120.273818 C148.532429,130.640794 165.798093,139.03657 187.115725,139.03657 C208.434381,139.03657 225.700045,130.640794 225.700045,120.273818 C225.736909,120.045466 225.718477,119.829402 225.700045,119.600026 Z"/>
    <path fill="#FFF" d="M225.700045,103.687066 L225.700045,103.687066 L225.700045,93.3200896 L225.700045,91.9079936 C222.719181,97.2491776 217.015501,101.672858 209.641677,104.360858 C195.408077,109.076378 178.804941,109.076378 164.571341,104.360858 C157.137101,101.728154 150.651085,97.3014016 148.532429,92.7855616 L148.532429,103.687066 L148.532429,104.360858 C148.532429,114.715546 165.798093,123.12361 187.115725,123.12361 C208.434381,123.12361 225.700045,114.715546 225.700045,104.360858 C225.736909,104.132506 225.718477,103.889818 225.700045,103.687066"/>
    <path stroke="#152E5F" stroke-linejoin="round" stroke-width="5.12" d="M225.700045,103.687066 L225.700045,103.687066 L225.700045,93.3200896 L225.700045,91.9079936 C222.719181,97.2491776 217.015501,101.672858 209.641677,104.360858 C195.408077,109.076378 178.804941,109.076378 164.571341,104.360858 C157.137101,101.728154 150.651085,97.3014016 148.532429,92.7855616 L148.532429,103.687066 L148.532429,104.360858 C148.532429,114.715546 165.798093,123.12361 187.115725,123.12361 C208.434381,123.12361 225.700045,114.715546 225.700045,104.360858 C225.736909,104.132506 225.718477,103.889818 225.700045,103.687066 Z"/>
  </g>
</svg>
