<svg xmlns="http://www.w3.org/2000/svg" viewBox="0 0 256 256">
  <g fill="none" fill-rule="evenodd" transform="translate(46.08 49.152)">
    <path fill="#FFF" d="M107.846042,137.532518 C107.846042,149.090406 120.582554,158.460006 136.295834,158.460006 C152.00809,158.460006 164.744602,149.090406 164.744602,137.532518 C164.744602,125.975654 152.00809,116.606054 136.295834,116.606054 C120.582554,116.606054 107.846042,125.975654 107.846042,137.532518"/>
    <path stroke="#152E5F" stroke-linejoin="round" stroke-width="5.12" d="M107.846042,137.532518 C107.846042,149.090406 120.582554,158.460006 136.295834,158.460006 C152.00809,158.460006 164.744602,149.090406 164.744602,137.532518 C164.744602,125.975654 152.00809,116.606054 136.295834,116.606054 C120.582554,116.606054 107.846042,125.975654 107.846042,137.532518 Z"/>
    <path fill="#FFF" d="M-1.59872116e-14,71.8104576 C-1.59872116e-14,83.3683456 12.737536,92.7379456 28.449792,92.7379456 C44.162048,92.7379456 56.89856,83.3683456 56.89856,71.8104576 C56.89856,60.2535936 44.162048,50.8839936 28.449792,50.8839936 C12.737536,50.8839936 -1.59872116e-14,60.2535936 -1.59872116e-14,71.8104576"/>
    <path stroke="#152E5F" stroke-linejoin="round" stroke-width="5.12" d="M-1.59872116e-14,71.8104576 C-1.59872116e-14,83.3683456 12.737536,92.7379456 28.449792,92.7379456 C44.162048,92.7379456 56.89856,83.3683456 56.89856,71.8104576 C56.89856,60.2535936 44.162048,50.8839936 28.449792,50.8839936 C12.737536,50.8839936 -1.59872116e-14,60.2535936 -1.59872116e-14,71.8104576 Z"/>
    <g transform="translate(50.48 85.073)">
      <line x1="65.204" y1="37.646" fill="#FFF"/>
      <line x1="65.204" y1="37.646" stroke="#152E5F" stroke-linejoin="round" stroke-width="5.12"/>
    </g>
    <g transform="translate(47.776 28.708)">
      <line x2="50.109" y1="27.751" fill="#FFF"/>
      <line x2="50.109" y1="27.751" stroke="#152E5F" stroke-linejoin="round" stroke-width="5.12"/>
    </g>
    <path fill="#FFF" d="M79.4190848,20.927488 C79.4190848,32.485376 92.1555968,41.854976 107.868877,41.854976 C123.581133,41.854976 136.317645,32.485376 136.317645,20.927488 C136.317645,9.370624 123.581133,-1.42108547e-14 107.868877,-1.42108547e-14 C92.1555968,-1.42108547e-14 79.4190848,9.370624 79.4190848,20.927488"/>
    <path stroke="#152E5F" stroke-linejoin="round" stroke-width="5.12" d="M79.4190848,20.927488 C79.4190848,32.485376 92.1555968,41.854976 107.868877,41.854976 C123.581133,41.854976 136.317645,32.485376 136.317645,20.927488 C136.317645,9.370624 123.581133,-1.42108547e-14 107.868877,-1.42108547e-14 C92.1555968,-1.42108547e-14 79.4190848,9.370624 79.4190848,20.927488 Z"/>
  </g>
</svg>
