<svg xmlns="http://www.w3.org/2000/svg" viewBox="0 0 256 256">
  <g fill="none" fill-rule="evenodd" transform="translate(52.224 61.44)">
    <path fill="#FFF" d="M152.176128,39.520768 L152.176128,37.969408 C152.176128,21.76256 133.682688,8.638976 110.893568,8.638976 C88.104448,8.638976 69.611008,21.76256 69.611008,37.969408 L69.611008,39.520768 L69.611008,52.035072 C69.948928,67.943936 88.283648,80.9088 110.874112,80.9088 C133.464576,80.9088 152.155648,67.764736 152.155648,51.577344 L152.155648,50.60352 L152.176128,39.520768 Z"/>
    <path stroke="#152E5F" stroke-linejoin="round" stroke-width="5.12" d="M152.176128,39.520768 L152.176128,37.969408 C152.176128,21.76256 133.682688,8.638976 110.893568,8.638976 C88.104448,8.638976 69.611008,21.76256 69.611008,37.969408 L69.611008,39.520768 L69.611008,52.035072 C69.948928,67.943936 88.283648,80.9088 110.874112,80.9088 C133.464576,80.9088 152.155648,67.764736 152.155648,51.577344 L152.155648,50.60352 L152.176128,39.520768 Z"/>
    <path fill="#FFF" d="M152.137114,53.9987968 L152.137114,53.9987968 L152.137114,43.9359488 L152.137114,41.7282048 C148.947354,50.0789248 142.844314,56.9939968 134.955418,61.1954688 C119.72649,68.5682688 101.961114,68.5682688 86.7321856,61.1954688 C78.7787776,57.0800128 71.8381056,50.1598208 69.5709696,43.1003648 L69.5709696,53.9987968 L69.5709696,55.0524928 C69.5709696,71.2398848 88.0449536,84.3839488 110.854554,84.3839488 C133.66313,84.3839488 152.137114,71.2398848 152.137114,55.0524928 C152.176026,54.6951168 152.15657,54.3172608 152.137114,53.9987968"/>
    <path stroke="#152E5F" stroke-linejoin="round" stroke-width="5.12" d="M152.137114,53.9987968 L152.137114,53.9987968 L152.137114,43.9359488 L152.137114,41.7282048 C148.947354,50.0789248 142.844314,56.9939968 134.955418,61.1954688 C119.72649,68.5682688 101.961114,68.5682688 86.7321856,61.1954688 C78.7787776,57.0800128 71.8381056,50.1598208 69.5709696,43.1003648 L69.5709696,53.9987968 L69.5709696,55.0524928 C69.5709696,71.2398848 88.0449536,84.3839488 110.854554,84.3839488 C133.66313,84.3839488 152.137114,71.2398848 152.137114,55.0524928 C152.176026,54.6951168 152.15657,54.3172608 152.137114,53.9987968 Z"/>
    <line x1="96.376" x2="125.161" y1="28.199" y2="46.816" stroke="#152E5F" stroke-linecap="round" stroke-linejoin="round" stroke-width="5.12"/>
    <path stroke="#152E5F" stroke-linecap="round" stroke-linejoin="round" stroke-width="5.12" d="M107.41463,28.618752 C101.284966,29.570048 97.2329984,32.451584 97.0415104,35.482624 C96.9565184,36.834304 97.6098304,38.682624 99.0895104,39.578624 C104.354918,42.76736 113.867878,30.15168 120.59351,33.434624 C122.265702,34.251776 123.498598,35.919872 123.66551,37.530624 C124.051558,41.249792 118.863974,45.682688 110.27159,48.279552"/>
    <path fill="#FFF" d="M82.6051584,30.881792 L82.6051584,29.330432 C82.6051584,13.123584 64.1117184,0 41.3225984,0 C18.5334784,0 0.0400384,13.123584 0.0400384,29.330432 L0.0400384,30.881792 L0.0400384,64.90112 C0.3779584,80.80896 18.7126784,93.774848 41.3031424,93.774848 C63.8925824,93.774848 82.5846784,80.62976 82.5846784,64.442368 L82.5846784,63.468544 L82.6051584,30.881792 Z"/>
    <path stroke="#152E5F" stroke-linejoin="round" stroke-width="5.12" d="M82.6051584,30.881792 L82.6051584,29.330432 C82.6051584,13.123584 64.1117184,0 41.3225984,0 C18.5334784,0 0.0400384,13.123584 0.0400384,29.330432 L0.0400384,30.881792 L0.0400384,64.90112 C0.3779584,80.80896 18.7126784,93.774848 41.3031424,93.774848 C63.8925824,93.774848 82.5846784,80.62976 82.5846784,64.442368 L82.5846784,63.468544 L82.6051584,30.881792 Z"/>
    <path fill="#FFF" d="M82.56512,45.3598208 L82.56512,45.3598208 L82.56512,35.2969728 L82.56512,33.0902528 C79.376384,41.4399488 73.273344,48.3550208 65.384448,52.5575168 C50.15552,59.9292928 32.390144,59.9292928 17.161216,52.5575168 C9.206784,48.4410368 2.267136,41.5208448 0,34.4613888 L0,45.3598208 L0,46.4135168 C0,62.6009088 18.473984,75.7449728 41.28256,75.7449728 C64.091136,75.7449728 82.56512,62.6009088 82.56512,46.4135168 C82.605056,46.0561408 82.5856,45.6782848 82.56512,45.3598208"/>
    <path stroke="#152E5F" stroke-linejoin="round" stroke-width="5.12" d="M82.56512,45.3598208 L82.56512,45.3598208 L82.56512,35.2969728 L82.56512,33.0902528 C79.376384,41.4399488 73.273344,48.3550208 65.384448,52.5575168 C50.15552,59.9292928 32.390144,59.9292928 17.161216,52.5575168 C9.206784,48.4410368 2.267136,41.5208448 0,34.4613888 L0,45.3598208 L0,46.4135168 C0,62.6009088 18.473984,75.7449728 41.28256,75.7449728 C64.091136,75.7449728 82.56512,62.6009088 82.56512,46.4135168 C82.605056,46.0561408 82.5856,45.6782848 82.56512,45.3598208 Z"/>
    <line x1="26.805" x2="55.589" y1="19.561" y2="38.177" stroke="#152E5F" stroke-linecap="round" stroke-linejoin="round" stroke-width="5.12"/>
    <path stroke="#152E5F" stroke-linecap="round" stroke-linejoin="round" stroke-width="5.12" d="M37.8436608,19.979776 C31.7129728,20.931072 27.6620288,23.812608 27.4705408,26.844672 C27.3855488,28.195328 28.0378368,30.043648 29.5185408,30.940672 C34.7829248,34.128384 44.2958848,21.512704 51.0225408,24.796672 C52.6937088,25.6128 53.9276288,27.280896 54.0945408,28.892672 C54.4795648,32.610816 49.2919808,37.044736 40.7006208,39.640576"/>
    <path fill="#FFF" d="M143.940096,88.8597504 L143.940096,87.3083904 C143.940096,71.1015424 125.445632,57.9779584 102.657536,57.9779584 C79.868416,57.9779584 61.373952,71.1015424 61.373952,87.3083904 L61.373952,88.8597504 L61.373952,101.374054 C61.711872,117.282918 80.046592,130.247782 102.637056,130.247782 C125.22752,130.247782 143.919616,117.103718 143.919616,100.916326 L143.919616,99.9425024 L143.940096,88.8597504 Z"/>
    <path stroke="#152E5F" stroke-linejoin="round" stroke-width="5.12" d="M143.940096,88.8597504 L143.940096,87.3083904 C143.940096,71.1015424 125.445632,57.9779584 102.657536,57.9779584 C79.868416,57.9779584 61.373952,71.1015424 61.373952,87.3083904 L61.373952,88.8597504 L61.373952,101.374054 C61.711872,117.282918 80.046592,130.247782 102.637056,130.247782 C125.22752,130.247782 143.919616,117.103718 143.919616,100.916326 L143.919616,99.9425024 L143.940096,88.8597504 Z"/>
    <path fill="#FFF" d="M143.90016,103.337779 L143.90016,103.337779 L143.90016,93.2749312 L143.90016,91.0671872 C140.7104,99.4179072 134.60736,106.332979 126.718464,110.534451 C111.489536,117.907251 93.725184,117.907251 78.496256,110.534451 C70.541824,106.418995 63.601152,99.4988032 61.33504,92.4393472 L61.33504,103.337779 L61.33504,104.391475 C61.33504,120.578867 79.808,133.722931 102.6176,133.722931 C125.426176,133.722931 143.90016,120.578867 143.90016,104.391475 C143.940096,104.034099 143.92064,103.656243 143.90016,103.337779"/>
    <path stroke="#152E5F" stroke-linejoin="round" stroke-width="5.12" d="M143.90016,103.337779 L143.90016,103.337779 L143.90016,93.2749312 L143.90016,91.0671872 C140.7104,99.4179072 134.60736,106.332979 126.718464,110.534451 C111.489536,117.907251 93.725184,117.907251 78.496256,110.534451 C70.541824,106.418995 63.601152,99.4988032 61.33504,92.4393472 L61.33504,103.337779 L61.33504,104.391475 C61.33504,120.578867 79.808,133.722931 102.6176,133.722931 C125.426176,133.722931 143.90016,120.578867 143.90016,104.391475 C143.940096,104.034099 143.92064,103.656243 143.90016,103.337779 Z"/>
    <line x1="88.139" x2="116.924" y1="77.538" y2="96.155" stroke="#152E5F" stroke-linecap="round" stroke-linejoin="round" stroke-width="5.12"/>
    <path stroke="#152E5F" stroke-linecap="round" stroke-linejoin="round" stroke-width="5.12" d="M99.1781888,77.9578368 C93.0485248,78.9091328 88.9965568,81.7906688 88.8050688,84.8217088 C88.7200768,86.1733888 89.3723648,88.0217088 90.8530688,88.9177088 C96.1174528,92.1054208 105.631437,79.4907648 112.357069,82.7737088 C114.028237,83.5898368 115.262157,85.2589568 115.429069,86.8697088 C115.814093,90.5888768 110.626509,95.0217728 102.035149,97.6186368"/>
  </g>
</svg>
