<svg xmlns="http://www.w3.org/2000/svg" viewBox="0 0 256 256">
  <g fill="none" fill-rule="evenodd" transform="translate(34.816 46.08)">
    <path stroke="#152E5F" stroke-linecap="round" stroke-linejoin="round" stroke-width="5.12" d="M0,158.948762 C2.108416,157.771162 4.92032,156.173722 8.21248,154.289562"/>
    <path stroke="#152E5F" stroke-dasharray="17.207 17.207" stroke-linecap="round" stroke-linejoin="round" stroke-width="5.12" d="M23.122944,145.703731 C30.9504,141.180723 39.435264,136.256307 47.095808,131.810099 C56.257536,126.491443 67.554304,126.477107 76.72832,131.773235 C91.836416,140.495667 112.28672,152.303411 125.971456,160.203571 C135.124992,165.488435 146.395136,165.484339 155.547648,160.200499 L170.180608,151.751475"/>
    <line x1="177.637" x2="185.818" y1="147.448" y2="142.724" stroke="#152E5F" stroke-linecap="round" stroke-linejoin="round" stroke-width="5.12"/>
    <path fill="#FFF" d="M121.892966,149.384806 C121.892966,154.78231 115.942502,159.158886 108.604518,159.158886 C101.26551,159.158886 95.3170944,154.78231 95.3170944,149.384806 C95.3170944,143.987302 101.26551,139.609702 108.604518,139.609702 C115.942502,139.609702 121.892966,143.987302 121.892966,149.384806"/>
    <path stroke="#152E5F" stroke-linejoin="round" stroke-width="5.12" d="M121.892966,149.384806 C121.892966,154.78231 115.942502,159.158886 108.604518,159.158886 C101.26551,159.158886 95.3170944,154.78231 95.3170944,149.384806 C95.3170944,143.987302 101.26551,139.609702 108.604518,139.609702 C115.942502,139.609702 121.892966,143.987302 121.892966,149.384806 Z"/>
    <path fill="#FFF" d="M42.025984,141.307802 C42.025984,146.705306 36.07552,151.081882 28.737536,151.081882 C21.398528,151.081882 15.450112,146.705306 15.450112,141.307802 C15.450112,135.909274 21.398528,131.532698 28.737536,131.532698 C36.07552,131.532698 42.025984,135.909274 42.025984,141.307802"/>
    <path stroke="#152E5F" stroke-linejoin="round" stroke-width="5.12" d="M42.025984,141.307802 C42.025984,146.705306 36.07552,151.081882 28.737536,151.081882 C21.398528,151.081882 15.450112,146.705306 15.450112,141.307802 C15.450112,135.909274 21.398528,131.532698 28.737536,131.532698 C36.07552,131.532698 42.025984,135.909274 42.025984,141.307802 Z"/>
    <path fill="#FFF" d="M156.850995,48.24576 C156.850995,74.714112 108.605235,147.4816 108.605235,147.4816 C108.605235,147.4816 60.3584512,74.714112 60.3584512,48.24576 C60.3584512,21.778432 82.1368832,0 108.605235,0 C135.071539,0 156.850995,21.778432 156.850995,48.24576"/>
    <path stroke="#152E5F" stroke-linejoin="round" stroke-width="5.12" d="M156.850995,48.24576 C156.850995,74.714112 108.605235,147.4816 108.605235,147.4816 C108.605235,147.4816 60.3584512,74.714112 60.3584512,48.24576 C60.3584512,21.778432 82.1368832,0 108.605235,0 C135.071539,0 156.850995,21.778432 156.850995,48.24576 Z"/>
    <path fill="#FFF" d="M131.531981,47.691776 C131.531981,60.353536 121.267405,70.618112 108.604621,70.618112 C95.9428608,70.618112 85.6782848,60.353536 85.6782848,47.691776 C85.6782848,35.028992 95.9428608,24.764416 108.604621,24.764416 C121.267405,24.764416 131.531981,35.028992 131.531981,47.691776"/>
    <path stroke="#152E5F" stroke-linejoin="round" stroke-width="5.12" d="M131.531981,47.691776 C131.531981,60.353536 121.267405,70.618112 108.604621,70.618112 C95.9428608,70.618112 85.6782848,60.353536 85.6782848,47.691776 C85.6782848,35.028992 95.9428608,24.764416 108.604621,24.764416 C121.267405,24.764416 131.531981,35.028992 131.531981,47.691776 Z"/>
  </g>
</svg>
