<svg xmlns="http://www.w3.org/2000/svg" viewBox="0 0 256 256">
  <g fill="none" fill-rule="evenodd" transform="translate(69.632 39.936)">
    <path fill="#FFF" d="M96.2892001,29.9281889 C96.2892001,38.9772769 89.6413921,46.3121889 81.4412001,46.3121889 C73.2410081,46.3121889 66.5932001,38.9772769 66.5932001,29.9281889 C66.5932001,20.8791009 73.2410081,13.5441889 81.4412001,13.5441889 C89.6413921,13.5441889 96.2892001,20.8791009 96.2892001,29.9281889"/>
    <path stroke="#152E5F" stroke-width="5.12" d="M96.2892001,29.9281889 C96.2892001,38.9772769 89.6413921,46.3121889 81.4412001,46.3121889 C73.2410081,46.3121889 66.5932001,38.9772769 66.5932001,29.9281889 C66.5932001,20.8791009 73.2410081,13.5441889 81.4412001,13.5441889 C89.6413921,13.5441889 96.2892001,20.8791009 96.2892001,29.9281889 Z"/>
    <path fill="#FFF" d="M55.9232225,172.332182 L101.829142,147.182742 C116.437526,139.184278 121.797142,120.856726 113.797654,106.249366 C111.225366,101.55023 107.44783,97.6211425 102.853142,94.8676065 C90.0572385,87.1978465 74.1258465,87.0022625 61.1456225,94.3556065 L14.2771425,120.979606 C1.09826248,128.452758 -3.52714552,145.195158 3.94703048,158.374038 C6.28277448,162.492566 9.64354248,165.935254 13.7037025,168.369302 L19.1616225,171.646102 C30.4184545,178.40655 44.4216545,178.66767 55.9232225,172.332182"/>
    <path stroke="#152E5F" stroke-width="5.12" d="M55.9232225,172.332182 L101.829142,147.182742 C116.437526,139.184278 121.797142,120.856726 113.797654,106.249366 C111.225366,101.55023 107.44783,97.6211425 102.853142,94.8676065 C90.0572385,87.1978465 74.1258465,87.0022625 61.1456225,94.3556065 L14.2771425,120.979606 C1.09826248,128.452758 -3.52714552,145.195158 3.94703048,158.374038 C6.28277448,162.492566 9.64354248,165.935254 13.7037025,168.369302 L19.1616225,171.646102 C30.4184545,178.40655 44.4216545,178.66767 55.9232225,172.332182 Z"/>
    <g transform="translate(0 75.697)">
      <path fill="#FFF" d="M0.0436448751,71.024938 C-0.263555125,61.952298 0.821884875,46.448938 10.7956449,32.696618 C18.9876449,21.350698 29.8215649,16.722218 51.4586849,7.45501798 C70.9966049,-0.91106202 79.0145249,-0.39906202 83.7146849,0.44061798 C91.1110369,1.69296998 97.9749089,5.09776998 103.447165,10.230058 C111.403645,17.910058 114.066045,27.904298 115.264125,32.399658 C115.612285,33.700138 115.858045,34.795818 116.011645,35.574058"/>
      <path stroke="#152E5F" stroke-width="5.12" d="M0.0436448751,71.024938 C-0.263555125,61.952298 0.821884875,46.448938 10.7956449,32.696618 C18.9876449,21.350698 29.8215649,16.722218 51.4586849,7.45501798 C70.9966049,-0.91106202 79.0145249,-0.39906202 83.7146849,0.44061798 C91.1110369,1.69296998 97.9749089,5.09776998 103.447165,10.230058 C111.403645,17.910058 114.066045,27.904298 115.264125,32.399658 C115.612285,33.700138 115.858045,34.795818 116.011645,35.574058"/>
    </g>
    <path fill="#FFF" d="M51.3336545,64.1161697 C60.1605345,59.7150177 72.4485345,66.4416737 78.7799265,79.1402977 C85.1113185,91.8389217 83.0878945,105.70081 74.2620385,110.100938 C65.4351585,114.50209 53.1471585,107.776458 46.8157665,95.0768097 C40.4843745,82.3781857 42.5067745,68.5173217 51.3336545,64.1161697"/>
    <path stroke="#152E5F" stroke-width="5.12" d="M51.3336545,64.1161697 C60.1605345,59.7150177 72.4485345,66.4416737 78.7799265,79.1402977 C85.1113185,91.8389217 83.0878945,105.70081 74.2620385,110.100938 C65.4351585,114.50209 53.1471585,107.776458 46.8157665,95.0768097 C40.4843745,82.3781857 42.5067745,68.5173217 51.3336545,64.1161697 Z"/>
    <path fill="#FFF" d="M53.4246625,8.17515208 C77.8163425,8.17515208 97.5897825,27.9485921 97.5897825,52.3402721 C97.5897825,76.7319521 77.8163425,96.5053921 53.4246625,96.5053921 C29.0329825,96.5053921 9.25954248,76.7319521 9.25954248,52.3402721 C9.25954248,27.9485921 29.0329825,8.17515208 53.4246625,8.17515208"/>
    <path stroke="#152E5F" stroke-width="5.12" d="M53.4246625,8.17515208 C77.8163425,8.17515208 97.5897825,27.9485921 97.5897825,52.3402721 C97.5897825,76.7319521 77.8163425,96.5053921 53.4246625,96.5053921 C29.0329825,96.5053921 9.25954248,76.7319521 9.25954248,52.3402721 C9.25954248,27.9485921 29.0329825,8.17515208 53.4246625,8.17515208 Z"/>
    <g transform="translate(16.93 50.92)">
      <path fill="#FFF" d="M0,0 C0.146432,1.521664 1.93536,17.277952 16.384,25.6 C29.86496,33.364992 43.358208,28.316672 45.056,27.648"/>
      <path stroke="#152E5F" stroke-width="5.12" d="M0,0 C0.146432,1.521664 1.93536,17.277952 16.384,25.6 C29.86496,33.364992 43.358208,28.316672 45.056,27.648"/>
    </g>
    <path fill="#FFF" d="M59.4252001,85.6911329 C54.3348961,85.6911329 50.2092001,82.9601249 50.2092001,79.5921889 C50.2092001,76.2242529 54.3348961,73.4932449 59.4252001,73.4932449 C64.5155041,73.4932449 68.6412001,76.2242529 68.6412001,79.5921889 C68.6412001,82.9601249 64.5155041,85.6911329 59.4252001,85.6911329"/>
    <path stroke="#152E5F" stroke-width="5.12" d="M59.4252001,85.6911329 C54.3348961,85.6911329 50.2092001,82.9601249 50.2092001,79.5921889 C50.2092001,76.2242529 54.3348961,73.4932449 59.4252001,73.4932449 C64.5155041,73.4932449 68.6412001,76.2242529 68.6412001,79.5921889 C68.6412001,82.9601249 64.5155041,85.6911329 59.4252001,85.6911329 Z"/>
    <path fill="#FFF" d="M11.2972001,38.1201889 C11.4845921,35.9216609 13.5510241,15.5932129 30.7532001,5.35218888 C46.4644321,-4.00205112 68.1578721,-0.985347119 82.9772001,13.5441889 C81.2701921,14.2271969 79.5642081,14.9091809 77.8572001,15.5921889 C63.2662241,6.07206088 45.1741921,6.80217288 33.8252001,16.6161889 C22.6523361,26.2786529 22.5407201,40.8286689 22.5612001,43.2401889 C18.8061921,41.5331809 15.0522081,39.8271969 11.2972001,38.1201889"/>
    <path stroke="#152E5F" stroke-width="5.12" d="M11.2972001,38.1201889 C11.4845921,35.9216609 13.5510241,15.5932129 30.7532001,5.35218888 C46.4644321,-4.00205112 68.1578721,-0.985347119 82.9772001,13.5441889 C81.2701921,14.2271969 79.5642081,14.9091809 77.8572001,15.5921889 C63.2662241,6.07206088 45.1741921,6.80217288 33.8252001,16.6161889 C22.6523361,26.2786529 22.5407201,40.8286689 22.5612001,43.2401889 C18.8061921,41.5331809 15.0522081,39.8271969 11.2972001,38.1201889 Z"/>
    <path fill="#FFF" d="M30.7532001,46.3121889 C30.7532001,55.3612769 23.8760161,62.6961889 15.3932001,62.6961889 C6.91038408,62.6961889 0.0332000751,55.3612769 0.0332000751,46.3121889 C0.0332000751,37.2631009 6.91038408,29.9281889 15.3932001,29.9281889 C23.8760161,29.9281889 30.7532001,37.2631009 30.7532001,46.3121889"/>
    <path stroke="#152E5F" stroke-width="5.12" d="M30.7532001,46.3121889 C30.7532001,55.3612769 23.8760161,62.6961889 15.3932001,62.6961889 C6.91038408,62.6961889 0.0332000751,55.3612769 0.0332000751,46.3121889 C0.0332000751,37.2631009 6.91038408,29.9281889 15.3932001,29.9281889 C23.8760161,29.9281889 30.7532001,37.2631009 30.7532001,46.3121889 Z"/>
  </g>
</svg>
