<svg xmlns="http://www.w3.org/2000/svg" viewBox="0 0 256 256">
  <g fill="none" fill-rule="evenodd" transform="translate(24.576 55.296)">
    <path fill="#FFF" d="M206.455501,47.454208 C206.455501,73.48736 159.000269,145.060864 159.000269,145.060864 C159.000269,145.060864 111.546061,73.48736 111.546061,47.454208 C111.546061,21.42208 132.967117,0 159.000269,0 C185.033421,0 206.455501,21.42208 206.455501,47.454208"/>
    <path stroke="#152E5F" stroke-linejoin="round" stroke-width="5.12" d="M206.455501,47.454208 C206.455501,73.48736 159.000269,145.060864 159.000269,145.060864 C159.000269,145.060864 111.546061,73.48736 111.546061,47.454208 C111.546061,21.42208 132.967117,0 159.000269,0 C185.033421,0 206.455501,21.42208 206.455501,47.454208 Z"/>
    <path fill="#FFF" d="M181.551514,46.9082112 C181.551514,59.3631232 171.455898,69.4587392 159.000986,69.4587392 C146.546074,69.4587392 136.450458,59.3631232 136.450458,46.9082112 C136.450458,34.4543232 146.546074,24.3587072 159.000986,24.3587072 C171.455898,24.3587072 181.551514,34.4543232 181.551514,46.9082112"/>
    <path stroke="#152E5F" stroke-linejoin="round" stroke-width="5.12" d="M181.551514,46.9082112 C181.551514,59.3631232 171.455898,69.4587392 159.000986,69.4587392 C146.546074,69.4587392 136.450458,59.3631232 136.450458,46.9082112 C136.450458,34.4543232 146.546074,24.3587072 159.000986,24.3587072 C171.455898,24.3587072 181.551514,34.4543232 181.551514,46.9082112 Z"/>
    <path stroke="#152E5F" stroke-linecap="round" stroke-linejoin="round" stroke-width="5.12" d="M44.5084672,81.3812736 C46.2963712,80.3818496 48.0832512,79.3824256 49.8711552,78.3830016"/>
    <path stroke="#152E5F" stroke-dasharray="12.454 12.454" stroke-linecap="round" stroke-linejoin="round" stroke-width="5.12" d="M60.7415296,72.3052544 C62.5673216,71.2843264 64.3941376,70.2633984 66.2209536,69.2424704 C68.8587776,67.7668864 72.0772096,67.7894144 74.6945536,69.2998144 L97.5246336,82.4817664 C101.249946,84.6321664 101.283738,89.9958784 97.5860736,92.1944064 C81.9168256,101.510758 66.2465536,110.828134 50.5752576,120.14551 C47.0875136,122.218086 47.0557696,127.25719 50.5179136,129.374822 C58.9464576,134.53271 67.3760256,139.690598 75.8055936,144.847462 C78.5273856,146.512486 81.9495936,146.52887 84.6877696,144.89047 C94.6400256,138.931814 104.590234,132.974182 114.54249,127.01655 C117.13321,125.466214 120.34857,125.391462 123.007898,126.819942 C127.80329,129.39735 132.599706,131.974758 137.395098,134.552166"/>
    <path stroke="#152E5F" stroke-linecap="round" stroke-linejoin="round" stroke-width="5.12" d="M142.880461,137.499238 C144.684749,138.468966 146.488013,139.438694 148.293325,140.408422"/>
    <path fill="#FFF" d="M53.567488,78.4772096 C53.584896,76.5459456 52.830208,74.3371776 51.643392,70.9651456 C49.80736,65.7488896 42.074112,43.7830656 27.298816,43.4727936 C10.999808,43.1318016 2.432,69.4875136 1.905664,71.1750656 C0.843776,74.5737216 0.14848,76.8838656 0.299008,78.9554176 C0.104448,79.8841856 0,80.8354816 0,81.8031616 C0,92.3933696 12.084224,100.978586 26.990592,100.978586 C41.89696,100.978586 53.98016,92.3933696 53.98016,81.8031616 C53.98016,80.6685696 53.833728,79.5585536 53.567488,78.4772096"/>
    <path stroke="#152E5F" stroke-linejoin="round" stroke-width="5.12" d="M53.567488,78.4772096 C53.584896,76.5459456 52.830208,74.3371776 51.643392,70.9651456 C49.80736,65.7488896 42.074112,43.7830656 27.298816,43.4727936 C10.999808,43.1318016 2.432,69.4875136 1.905664,71.1750656 C0.843776,74.5737216 0.14848,76.8838656 0.299008,78.9554176 C0.104448,79.8841856 0,80.8354816 0,81.8031616 C0,92.3933696 12.084224,100.978586 26.990592,100.978586 C41.89696,100.978586 53.98016,92.3933696 53.98016,81.8031616 C53.98016,80.6685696 53.833728,79.5585536 53.567488,78.4772096 Z"/>
    <path fill="#FFF" d="M42.4694784,38.1651968 C42.4694784,47.2767488 35.0823424,54.6628608 25.9707904,54.6628608 C16.8592384,54.6628608 9.4721024,47.2767488 9.4721024,38.1651968 C9.4721024,29.0536448 16.8592384,21.6675328 25.9707904,21.6675328 C35.0823424,21.6675328 42.4694784,29.0536448 42.4694784,38.1651968"/>
    <path stroke="#152E5F" stroke-linejoin="round" stroke-width="5.12" d="M42.4694784,38.1651968 C42.4694784,47.2767488 35.0823424,54.6628608 25.9707904,54.6628608 C16.8592384,54.6628608 9.4721024,47.2767488 9.4721024,38.1651968 C9.4721024,29.0536448 16.8592384,21.6675328 25.9707904,21.6675328 C35.0823424,21.6675328 42.4694784,29.0536448 42.4694784,38.1651968 Z"/>
  </g>
</svg>
