<svg xmlns="http://www.w3.org/2000/svg" viewBox="0 0 256 256">
  <g fill="none" fill-rule="evenodd" transform="translate(48.128 19.456)">
    <polygon fill="#FFF" points=".447 202.881 24.827 216.957 158.9 139.525 135.229 125.065"/>
    <polygon stroke="#152E5F" stroke-linejoin="round" stroke-width="5.12" points=".447 202.881 24.827 216.957 158.9 139.525 135.229 125.065"/>
    <path fill="#FFF" d="M114.353152,0 C103.13728,8.323072 91.922432,16.646144 80.70656,24.969216 L96.057344,27.48928 C90.370048,43.132928 80.68608,64.308224 63.963136,86.150144 C41.580544,115.382272 16.492544,132.873216 0,142.5152 C7.026688,146.731008 14.0544,150.946816 21.082112,155.1616 C37.377024,145.024 61.355008,127.38048 83.325952,99.058688 C103.153664,73.498624 113.999872,48.715776 120.010752,31.419392 C125.12768,32.258048 130.246656,33.097728 135.363584,33.938432 C128.359424,22.62528 121.357312,11.313152 114.353152,0"/>
    <path stroke="#152E5F" stroke-linejoin="round" stroke-width="5.12" d="M114.353152,0 C103.13728,8.323072 91.922432,16.646144 80.70656,24.969216 L96.057344,27.48928 C90.370048,43.132928 80.68608,64.308224 63.963136,86.150144 C41.580544,115.382272 16.492544,132.873216 0,142.5152 C7.026688,146.731008 14.0544,150.946816 21.082112,155.1616 C37.377024,145.024 61.355008,127.38048 83.325952,99.058688 C103.153664,73.498624 113.999872,48.715776 120.010752,31.419392 C125.12768,32.258048 130.246656,33.097728 135.363584,33.938432 C128.359424,22.62528 121.357312,11.313152 114.353152,0 Z"/>
    <polygon fill="#FFF" points="25.783 201.831 42.503 193.003 42.503 163.711 25.783 172.538"/>
    <polygon stroke="#152E5F" stroke-linejoin="round" stroke-width="5.12" points="25.783 201.831 42.503 193.003 42.503 163.711 25.783 172.538"/>
    <polygon fill="#FFF" points="55.025 185.171 71.745 176.344 71.745 138.899 55.025 147.725"/>
    <polygon stroke="#152E5F" stroke-linejoin="round" stroke-width="5.12" points="55.025 185.171 71.745 176.344 71.745 138.899 55.025 147.725"/>
    <polygon fill="#FFF" points="83.989 168.125 100.709 159.297 100.709 108.887 83.989 117.714"/>
    <polygon stroke="#152E5F" stroke-linejoin="round" stroke-width="5.12" points="83.989 168.125 100.709 159.297 100.709 108.887 83.989 117.714"/>
    <polygon fill="#FFF" points="113.509 151.465 130.229 142.638 130.229 67.003 113.509 75.831"/>
    <polygon stroke="#152E5F" stroke-linejoin="round" stroke-width="5.12" points="113.509 151.465 130.229 142.638 130.229 67.003 113.509 75.831"/>
  </g>
</svg>
