<svg xmlns="http://www.w3.org/2000/svg" viewBox="0 0 256 256">
  <g fill="none" fill-rule="evenodd" transform="translate(49.152 50.176)">
    <path fill="#FFF" d="M125.720373,115.627295 C151.924533,81.0754869 149.033781,34.7609909 119.262005,12.1817909 C89.4902289,-10.3963851 44.1137169,-0.690913098 17.9085329,33.8608949 C-8.29665108,68.4137269 -5.40487508,114.727199 24.3658769,137.306399 C54.1386769,159.885599 99.5151889,150.179103 125.720373,115.627295"/>
    <path stroke="#152E5F" stroke-linejoin="round" stroke-width="5.12" d="M125.720373,115.627295 C151.924533,81.0754869 149.033781,34.7609909 119.262005,12.1817909 C89.4902289,-10.3963851 44.1137169,-0.690913098 17.9085329,33.8608949 C-8.29665108,68.4137269 -5.40487508,114.727199 24.3658769,137.306399 C54.1386769,159.885599 99.5151889,150.179103 125.720373,115.627295 Z"/>
    <path fill="#FFF" d="M139.367323,121.662239 C165.571483,87.1104309 162.680731,40.7959349 132.908955,18.2167349 C103.137179,-4.3614411 57.7606673,5.3440309 31.5554833,39.8958389 C5.35029932,74.4486709 8.24207532,120.762143 38.0128273,143.341343 C67.7856273,165.920543 113.162139,156.214047 139.367323,121.662239"/>
    <path stroke="#152E5F" stroke-linejoin="round" stroke-width="5.12" d="M139.367323,121.662239 C165.571483,87.1104309 162.680731,40.7959349 132.908955,18.2167349 C103.137179,-4.3614411 57.7606673,5.3440309 31.5554833,39.8958389 C5.35029932,74.4486709 8.24207532,120.762143 38.0128273,143.341343 C67.7856273,165.920543 113.162139,156.214047 139.367323,121.662239 Z"/>
    <polyline stroke="#152E5F" stroke-linejoin="round" stroke-width="5.12" points="85.461 6.81 85.461 80.779 152.461 96.71"/>
    <line x1="156.556" x2="85.461" y1="62.918" y2="80.779" stroke="#152E5F" stroke-linejoin="round" stroke-width="5.12"/>
  </g>
</svg>
