<svg xmlns="http://www.w3.org/2000/svg" viewBox="0 0 256 256">
  <g fill="#FFF" fill-rule="evenodd" transform="translate(72.704 33.792)">
    <path d="M51.068928,17.446912 L51.068928,17.272832 C51.068928,7.764992 42.584064,0 32.115712,0 C21.648384,0 13.206528,7.733248 13.206528,17.272832 L13.206528,17.446912 L13.206528,130.760704 C5.202944,136.60672 0,146.057216 0,156.726272 C0,174.475264 14.388224,188.864512 32.13824,188.864512 C49.888256,188.864512 64.27648,174.475264 64.27648,156.726272 C64.27648,146.040832 59.057152,136.579072 51.034112,130.736128 L51.068928,17.446912 Z"/>
    <path stroke="#152E5F" stroke-linecap="round" stroke-width="5.12" d="M51.034112,130.736128 L51.068928,17.446912 L51.068928,17.272832 C51.068928,7.764992 42.584064,0 32.115712,0 C21.648384,0 13.206528,7.733248 13.206528,17.272832 L13.206528,17.446912 L13.206528,130.760704 C5.202944,136.60672 0,146.057216 0,156.726272 C0,174.475264 14.388224,188.864512 32.13824,188.864512 C49.888256,188.864512 64.27648,174.475264 64.27648,156.726272 C64.27648,146.040832 59.057152,136.579072 51.034112,130.736128 Z"/>
    <line x1="72.994" x2="111.322" y1="66.962" y2="66.962" stroke="#152E5F" stroke-linecap="round" stroke-width="5.12"/>
    <line x1="72.994" x2="111.322" y1="29.317" y2="29.317" stroke="#152E5F" stroke-linecap="round" stroke-width="5.12"/>
    <line x1="72.994" x2="97.484" y1="48.139" y2="48.139" stroke="#152E5F" stroke-linecap="round" stroke-width="5.12"/>
    <line x1="72.994" x2="97.484" y1="85.784" y2="85.784" stroke="#152E5F" stroke-linecap="round" stroke-width="5.12"/>
    <line x1="72.994" x2="111.322" y1="104.606" y2="104.606" stroke="#152E5F" stroke-linecap="round" stroke-width="5.12"/>
    <path stroke="#152E5F" stroke-linecap="round" stroke-width="5.12" d="M40.673792,67.7538081 L40.26112,138.881126 C47.021568,142.044262 51.715584,148.88663 51.715584,156.844134 C51.715584,167.801958 42.83136,176.685158 31.873536,176.685158 C20.915712,176.685158 12.032512,167.801958 12.032512,156.844134 C12.032512,148.633141 17.0263496,141.599733 24.1370475,138.582855 L24.488448,138.437734 L23.850496,69.0136064 L24.0449219,68.9928692 L24.0449219,68.9928692 C24.8454365,71.6461589 28.1646397,73.633792 32.1381376,73.633792 C36.7102976,73.633792 40.4161536,71.002112 40.4161536,67.7538081 L40.4179378,67.7668418 L40.663139,67.7538081 L40.663139,67.7538081 L40.673792,67.7538081 Z"/>
    <path stroke="#152E5F" stroke-linecap="round" stroke-width="5.12" d="M32.2048,61.874176 C36.8708465,61.874176 40.6528,64.505856 40.6528,67.753984 C40.6528,71.002112 36.8708465,73.633792 32.2048,73.633792 C27.5387535,73.633792 23.7568,71.002112 23.7568,67.753984 C23.7568,64.505856 27.5387535,61.874176 32.2048,61.874176 Z"/>
  </g>
</svg>
