<svg xmlns="http://www.w3.org/2000/svg" viewBox="0 0 256 256">
  <g fill="none" fill-rule="evenodd" transform="translate(60.416 29.696)">
    <g transform="translate(116.657 56.32)">
      <path fill="#FFF" d="M6.144,0 C9.216,2.731008 13.312,6.484992 16.384,9.216 L0,34.816"/>
      <path stroke="#152E5F" stroke-linecap="round" stroke-linejoin="round" stroke-width="5.12" d="M6.144,0 C9.216,2.731008 13.312,6.484992 16.384,9.216 L0,34.816"/>
    </g>
    <polygon fill="#FFF" points="89.224 145.153 .511 197.046 0 51.855 88.691 0"/>
    <polygon stroke="#152E5F" stroke-linejoin="round" stroke-width="5.12" points="89.224 145.153 .511 197.046 0 51.855 88.691 0"/>
    <line x1="17.958" x2="73.313" y1="89.946" y2="56.251" stroke="#152E5F" stroke-linecap="round" stroke-linejoin="round" stroke-width="5.12"/>
    <line x1="17.958" x2="73.313" y1="104.387" y2="70.692" stroke="#152E5F" stroke-linecap="round" stroke-linejoin="round" stroke-width="5.12"/>
    <polygon fill="#FFF" points="74.924 39.287 17.401 73.834 16.952 63.513 74.472 28.97"/>
    <polygon stroke="#152E5F" stroke-linejoin="round" stroke-width="5.12" points="74.924 39.287 17.401 73.834 16.952 63.513 74.472 28.97"/>
    <path fill="#FFF" d="M101.283635,72.875008 L98.0017152,88.035328 L109.698867,78.846976 C118.754099,65.025024 125.398835,56.049664 134.454067,42.228736 C134.449971,42.21952 134.440755,42.202112 134.435635,42.190848 C135.015219,41.412608 135.384883,40.464384 135.444275,39.422976 C135.604019,36.594688 133.441331,34.173952 130.614067,34.014208 C129.064755,33.927168 127.654707,34.550784 126.654259,35.585024 C126.650163,35.579904 126.639923,35.576832 126.637875,35.571712 L126.559027,35.688448 C126.205747,36.073472 125.902643,36.501504 125.680435,36.982784 L101.283635,72.875008 Z"/>
    <path stroke="#152E5F" stroke-linejoin="round" stroke-width="5.12" d="M101.283635,72.875008 L98.0017152,88.035328 L109.698867,78.846976 C118.754099,65.025024 125.398835,56.049664 134.454067,42.228736 C134.449971,42.21952 134.440755,42.202112 134.435635,42.190848 C135.015219,41.412608 135.384883,40.464384 135.444275,39.422976 C135.604019,36.594688 133.441331,34.173952 130.614067,34.014208 C129.064755,33.927168 127.654707,34.550784 126.654259,35.585024 C126.650163,35.579904 126.639923,35.576832 126.637875,35.571712 L126.559027,35.688448 C126.205747,36.073472 125.902643,36.501504 125.680435,36.982784 L101.283635,72.875008 Z"/>
    <path fill="#FFF" d="M68.0797184,113.921946 L61.9019264,142.455706 L83.9179264,125.162394 C100.962406,99.1466496 113.469542,82.2537216 130.514022,56.2390016 C130.50583,56.2236416 130.488422,56.1878016 130.479206,56.1693696 C131.568742,54.7040256 132.266086,52.9181696 132.376678,50.9582336 C132.67671,45.6354816 128.60631,41.0786816 123.285606,40.7776256 C120.370278,40.6137856 117.71607,41.7893376 115.832934,43.7339136 C115.825766,43.7257216 115.805286,43.7185536 115.80119,43.7103616 L115.65271,43.9284736 C114.989158,44.6534656 114.417766,45.4593536 113.99895,46.3645696 L68.0797184,113.921946 Z"/>
    <path stroke="#152E5F" stroke-linejoin="round" stroke-width="5.12" d="M68.0797184,113.921946 L61.9019264,142.455706 L83.9179264,125.162394 C100.962406,99.1466496 113.469542,82.2537216 130.514022,56.2390016 C130.50583,56.2236416 130.488422,56.1878016 130.479206,56.1693696 C131.568742,54.7040256 132.266086,52.9181696 132.376678,50.9582336 C132.67671,45.6354816 128.60631,41.0786816 123.285606,40.7776256 C120.370278,40.6137856 117.71607,41.7893376 115.832934,43.7339136 C115.825766,43.7257216 115.805286,43.7185536 115.80119,43.7103616 L115.65271,43.9284736 C114.989158,44.6534656 114.417766,45.4593536 113.99895,46.3645696 L68.0797184,113.921946 Z"/>
    <path stroke="#152E5F" stroke-linecap="round" stroke-linejoin="round" stroke-width="5.12" d="M17.32864,161.792 C23.66208,149.113856 25.75104,147.167232 26.54464,147.456 C28.443136,148.148224 25.015808,162.405376 26.54464,162.816 C27.922944,163.185664 30.345728,151.51616 36.78464,150.528 C38.742528,150.227968 39.524864,151.151616 41.90464,151.552 C45.159936,152.098816 50.148864,151.452672 57.26464,145.408"/>
  </g>
</svg>
