<svg xmlns="http://www.w3.org/2000/svg" viewBox="0 0 256 256">
  <g fill="none" fill-rule="evenodd" transform="translate(44.032 33.792)">
    <path fill="#FFF" d="M17.8608059,54.0295809 C16.1916859,46.7079809 19.4684859,37.2359809 25.6739259,32.4641409 C30.0464059,29.0951809 32.5449659,30.6209409 45.3756859,27.9995009 C61.6265659,24.6817409 63.6131259,21.0158209 71.0371259,22.4187009 C77.7340859,23.6884609 84.8918459,28.2964609 88.1481659,35.0651009 C94.0976059,47.4452609 85.6803259,64.8635009 74.0169659,72.2567809 C54.2742459,84.7495809 21.7417659,71.1099009 17.8608059,54.0295809"/>
    <path stroke="#152E5F" stroke-linejoin="round" stroke-width="5.12" d="M17.8608059,54.0295809 C16.1916859,46.7079809 19.4684859,37.2359809 25.6739259,32.4641409 C30.0464059,29.0951809 32.5449659,30.6209409 45.3756859,27.9995009 C61.6265659,24.6817409 63.6131259,21.0158209 71.0371259,22.4187009 C77.7340859,23.6884609 84.8918459,28.2964609 88.1481659,35.0651009 C94.0976059,47.4452609 85.6803259,64.8635009 74.0169659,72.2567809 C54.2742459,84.7495809 21.7417659,71.1099009 17.8608059,54.0295809 Z"/>
    <path fill="#FFF" d="M41.4128059,151.503527 C36.2928059,153.080487 31.0806459,149.947047 27.2611259,147.643047 C22.2025659,144.571047 14.9731259,138.315431 6.03360591,103.897767 C-2.75231409,70.2491265 0.0432059051,60.7269505 2.17312591,55.6468865 C3.65792591,52.1038465 7.85632591,42.1198465 16.3248059,40.2059905 C26.0937659,37.9828865 35.6374459,47.8337665 38.8528059,51.1412865 C66.8489659,80.0385665 60.2134459,145.707687 41.4128059,151.503527"/>
    <path stroke="#152E5F" stroke-linejoin="round" stroke-width="5.12" d="M41.4128059,151.503527 C36.2928059,153.080487 31.0806459,149.947047 27.2611259,147.643047 C22.2025659,144.571047 14.9731259,138.315431 6.03360591,103.897767 C-2.75231409,70.2491265 0.0432059051,60.7269505 2.17312591,55.6468865 C3.65792591,52.1038465 7.85632591,42.1198465 16.3248059,40.2059905 C26.0937659,37.9828865 35.6374459,47.8337665 38.8528059,51.1412865 C66.8489659,80.0385665 60.2134459,145.707687 41.4128059,151.503527 Z"/>
    <g transform="translate(63.234 27.657)">
      <path fill="#FFF" d="M0.73728,27.8983008 C5.53984,11.5962208 16.40448,0.250300845 27.14624,0.00454084513 C33.56672,-0.149059155 40.69376,3.63974085 42.20928,4.44870085 C47.42144,7.22374085 52.35712,9.84518085 53.5552,14.1357408 C56.064,23.1264608 41.60512,37.3703008 26.03008,41.2819808 C14.61248,44.1491808 4.68992,40.9543008 0,39.0496608"/>
      <path stroke="#152E5F" stroke-linejoin="round" stroke-width="5.12" d="M0.73728,27.8983008 C5.53984,11.5962208 16.40448,0.250300845 27.14624,0.00454084513 C33.56672,-0.149059155 40.69376,3.63974085 42.20928,4.44870085 C47.42144,7.22374085 52.35712,9.84518085 53.5552,14.1357408 C56.064,23.1264608 41.60512,37.3703008 26.03008,41.2819808 C14.61248,44.1491808 4.68992,40.9543008 0,39.0496608"/>
    </g>
    <path fill="#FFF" d="M102.279366,44.0251009 C104.839366,42.7246209 111.075526,39.5809409 116.789446,41.7927809 C124.848326,44.8647809 126.793926,56.7227009 127.469766,60.8084609 C130.183366,77.1924609 122.032326,80.6740609 115.673286,110.595341 C113.625286,120.425741 112.539846,129.027341 106.744006,140.291341 C102.279366,149.015821 98.6339259,152.220941 95.2137659,154.053901 C89.2438459,157.259021 80.1507259,158.313741 74.3856059,154.801421 C55.0627259,142.984461 76.2083259,81.3806209 87.1958459,60.1940609 C89.1619259,56.3950209 93.5139259,48.4590209 102.279366,44.0251009"/>
    <path stroke="#152E5F" stroke-linejoin="round" stroke-width="5.12" d="M102.279366,44.0251009 C104.839366,42.7246209 111.075526,39.5809409 116.789446,41.7927809 C124.848326,44.8647809 126.793926,56.7227009 127.469766,60.8084609 C130.183366,77.1924609 122.032326,80.6740609 115.673286,110.595341 C113.625286,120.425741 112.539846,129.027341 106.744006,140.291341 C102.279366,149.015821 98.6339259,152.220941 95.2137659,154.053901 C89.2438459,157.259021 80.1507259,158.313741 74.3856059,154.801421 C55.0627259,142.984461 76.2083259,81.3806209 87.1958459,60.1940609 C89.1619259,56.3950209 93.5139259,48.4590209 102.279366,44.0251009 Z"/>
    <path fill="#FFF" d="M30.1283259,0.883571334 C28.8790459,2.00997133 28.7971259,4.12965133 28.6435259,7.94917133 C28.4899259,11.7686913 28.3977659,14.0931713 29.7596859,15.3834113 C32.4016059,17.9024513 37.0505659,13.2227713 42.4060859,14.6461313 C49.0313659,16.3971713 53.9772859,26.7395713 53.1888059,35.4650753 C52.4003259,44.1895553 46.2665659,46.2774913 47.6080059,51.4589313 C49.7276859,59.6509313 67.7398459,64.9859713 73.2694459,59.2730753 C75.1024059,57.3776513 75.1331259,54.7357313 75.1331259,51.8275713 C75.1331259,45.9702913 73.3513659,39.7750913 64.3504059,26.1661313 C58.2064059,16.8682113 55.1344059,12.2192513 50.2192059,8.31781133 C43.6144059,3.06469133 33.4563259,-2.11674867 30.1283259,0.883571334"/>
    <path stroke="#152E5F" stroke-linejoin="round" stroke-width="5.12" d="M30.1283259,0.883571334 C28.8790459,2.00997133 28.7971259,4.12965133 28.6435259,7.94917133 C28.4899259,11.7686913 28.3977659,14.0931713 29.7596859,15.3834113 C32.4016059,17.9024513 37.0505659,13.2227713 42.4060859,14.6461313 C49.0313659,16.3971713 53.9772859,26.7395713 53.1888059,35.4650753 C52.4003259,44.1895553 46.2665659,46.2774913 47.6080059,51.4589313 C49.7276859,59.6509313 67.7398459,64.9859713 73.2694459,59.2730753 C75.1024059,57.3776513 75.1331259,54.7357313 75.1331259,51.8275713 C75.1331259,45.9702913 73.3513659,39.7750913 64.3504059,26.1661313 C58.2064059,16.8682113 55.1344059,12.2192513 50.2192059,8.31781133 C43.6144059,3.06469133 33.4563259,-2.11674867 30.1283259,0.883571334 Z"/>
    <path fill="#FFF" d="M68.4363707,54.0295809 C57.2952507,55.4017409 52.6565307,44.5883009 42.4062907,46.2267009 C35.9346107,47.2507009 31.8181307,52.5140609 29.7598907,55.1457409 C27.0462907,58.6171009 23.3291707,65.0683009 23.8104507,86.3879809 C24.2200507,104.277261 27.2101307,116.083981 32.0024507,134.362381 C36.5797307,151.883021 39.3035707,156.818701 44.0037307,158.549261 C48.7028667,160.279821 51.6734907,157.197581 62.0148667,157.903117 C71.9486907,158.579981 73.6690107,161.774861 77.9186107,160.883981 C85.0866107,159.378701 88.5579707,148.442381 94.8248507,119.299341 C104.296851,75.2673409 103.856531,65.7134209 98.0402107,58.1870209 C96.8728507,56.6715009 91.0565307,49.1348609 82.9566907,48.8276609 C76.4850107,48.6126209 75.4200507,53.2103809 68.4363707,54.0295809"/>
    <path stroke="#152E5F" stroke-linejoin="round" stroke-width="5.12" d="M68.4363707,54.0295809 C57.2952507,55.4017409 52.6565307,44.5883009 42.4062907,46.2267009 C35.9346107,47.2507009 31.8181307,52.5140609 29.7598907,55.1457409 C27.0462907,58.6171009 23.3291707,65.0683009 23.8104507,86.3879809 C24.2200507,104.277261 27.2101307,116.083981 32.0024507,134.362381 C36.5797307,151.883021 39.3035707,156.818701 44.0037307,158.549261 C48.7028667,160.279821 51.6734907,157.197581 62.0148667,157.903117 C71.9486907,158.579981 73.6690107,161.774861 77.9186107,160.883981 C85.0866107,159.378701 88.5579707,148.442381 94.8248507,119.299341 C104.296851,75.2673409 103.856531,65.7134209 98.0402107,58.1870209 C96.8728507,56.6715009 91.0565307,49.1348609 82.9566907,48.8276609 C76.4850107,48.6126209 75.4200507,53.2103809 68.4363707,54.0295809 Z"/>
    <path fill="#FFF" d="M97.7943483,91.6305537 C91.7117883,92.9719937 81.4717883,95.2350337 72.5220283,104.010714 C57.9300283,118.346714 58.9233083,137.946074 59.1076283,140.639194 C60.7972283,165.973978 82.4957883,179.356634 85.9261883,181.394394 C89.3565883,183.432154 107.788588,193.877978 129.773868,187.067354 C148.441388,181.293018 166.637868,163.965914 167.436588,141.151194 C168.286508,117.844954 150.509868,103.068634 147.837228,100.918234 C127.992108,84.9745537 103.948588,90.2788737 97.7943483,91.6305537"/>
    <path stroke="#152E5F" stroke-linejoin="round" stroke-width="5.12" d="M97.7943483,91.6305537 C91.7117883,92.9719937 81.4717883,95.2350337 72.5220283,104.010714 C57.9300283,118.346714 58.9233083,137.946074 59.1076283,140.639194 C60.7972283,165.973978 82.4957883,179.356634 85.9261883,181.394394 C89.3565883,183.432154 107.788588,193.877978 129.773868,187.067354 C148.441388,181.293018 166.637868,163.965914 167.436588,141.151194 C168.286508,117.844954 150.509868,103.068634 147.837228,100.918234 C127.992108,84.9745537 103.948588,90.2788737 97.7943483,91.6305537 Z"/>
    <path fill="#FFF" d="M102.176864,102.946061 C98.2508475,102.250765 94.2173115,102.453517 90.3803835,103.539981 C84.1882555,105.401613 78.8532155,109.391117 75.3173435,114.803981 C80.1332155,115.196173 84.9746875,115.172621 89.7864635,114.732301 C99.0024635,113.882381 104.122464,111.885581 105.719904,114.138381 C107.030624,115.981581 104.695904,118.818061 103.067744,123.876621 C101.28496,129.716493 101.08016,135.923981 102.473824,141.868301 C105.182304,140.350733 107.663456,138.462477 109.846624,136.256781 C118.478944,127.532301 117.557344,118.449421 122.830944,117.087501 C126.732384,116.063501 128.688224,120.691981 135.958624,123.180301 C142.983264,125.586701 149.854304,124.265741 154.687584,122.688781 C151.487584,119.152909 147.813472,116.075789 143.771744,113.544461 C135.579744,108.475661 130.756704,108.680461 129.906784,105.291021 C128.811104,100.918541 136.265824,98.1230209 139.931744,88.4769409 C141.331552,84.7096449 141.934688,80.6924929 141.703264,76.6804609 C139.051104,78.9435009 135.426144,82.2100609 131.381344,86.4084609 C122.564704,95.5630209 119.881824,100.744461 116.932704,99.9764609 C113.492064,99.0855809 114.884704,91.6615809 109.549664,84.3502209 C105.699424,79.0868609 100.190304,76.4756609 95.9714235,75.0727809 C96.9954235,77.9092609 98.0194235,81.0119809 98.9307835,84.3502209 C100.576352,90.4368769 101.662816,96.6617729 102.176864,102.946061"/>
    <path stroke="#152E5F" stroke-linejoin="round" stroke-width="5.12" d="M102.176864,102.946061 C98.2508475,102.250765 94.2173115,102.453517 90.3803835,103.539981 C84.1882555,105.401613 78.8532155,109.391117 75.3173435,114.803981 C80.1332155,115.196173 84.9746875,115.172621 89.7864635,114.732301 C99.0024635,113.882381 104.122464,111.885581 105.719904,114.138381 C107.030624,115.981581 104.695904,118.818061 103.067744,123.876621 C101.28496,129.716493 101.08016,135.923981 102.473824,141.868301 C105.182304,140.350733 107.663456,138.462477 109.846624,136.256781 C118.478944,127.532301 117.557344,118.449421 122.830944,117.087501 C126.732384,116.063501 128.688224,120.691981 135.958624,123.180301 C142.983264,125.586701 149.854304,124.265741 154.687584,122.688781 C151.487584,119.152909 147.813472,116.075789 143.771744,113.544461 C135.579744,108.475661 130.756704,108.680461 129.906784,105.291021 C128.811104,100.918541 136.265824,98.1230209 139.931744,88.4769409 C141.331552,84.7096449 141.934688,80.6924929 141.703264,76.6804609 C139.051104,78.9435009 135.426144,82.2100609 131.381344,86.4084609 C122.564704,95.5630209 119.881824,100.744461 116.932704,99.9764609 C113.492064,99.0855809 114.884704,91.6615809 109.549664,84.3502209 C105.699424,79.0868609 100.190304,76.4756609 95.9714235,75.0727809 C96.9954235,77.9092609 98.0194235,81.0119809 98.9307835,84.3502209 C100.576352,90.4368769 101.662816,96.6617729 102.176864,102.946061 Z"/>
    <path fill="#FFF" d="M118.110304,110.032039 C115.550304,111.209639 110.942304,108.659879 109.846624,105.311399 C109.099104,103.079079 110.102624,101.123239 111.024224,98.8192385 C115.642464,87.2787585 112.918624,80.1824385 116.338784,79.0560385 C118.550624,78.3289985 121.765984,80.6329985 123.117664,83.1520385 C124.858464,86.3981185 122.861664,88.6713985 121.069664,97.6621185 C119.472224,106.120359 120.250464,109.038759 118.110304,110.032039"/>
    <path stroke="#152E5F" stroke-linejoin="round" stroke-width="5.12" d="M118.110304,110.032039 C115.550304,111.209639 110.942304,108.659879 109.846624,105.311399 C109.099104,103.079079 110.102624,101.123239 111.024224,98.8192385 C115.642464,87.2787585 112.918624,80.1824385 116.338784,79.0560385 C118.550624,78.3289985 121.765984,80.6329985 123.117664,83.1520385 C124.858464,86.3981185 122.861664,88.6713985 121.069664,97.6621185 C119.472224,106.120359 120.250464,109.038759 118.110304,110.032039 Z"/>
  </g>
</svg>
