<svg xmlns="http://www.w3.org/2000/svg" viewBox="0 0 256 256">
  <g fill="none" fill-rule="evenodd" transform="translate(32.768 32.768)">
    <polygon fill="#FFF" points="84.73 136.253 115.949 135.363 107.396 130.547 140.857 110.746 127.509 103.23 94.049 123.031 85.494 118.214"/>
    <polygon stroke="#152E5F" stroke-linecap="round" stroke-linejoin="round" stroke-width="5.12" points="84.73 136.253 115.949 135.363 107.396 130.547 140.857 110.746 127.509 103.23 94.049 123.031 85.494 118.214"/>
    <path fill="#FFF" d="M154.107494,64.8349696 C174.404198,64.8349696 190.858854,76.5229056 190.858854,90.9408256 C190.858854,105.357722 174.404198,117.045658 154.107494,117.045658 C133.81079,117.045658 117.356134,105.357722 117.356134,90.9408256 C117.356134,76.5229056 133.81079,64.8349696 154.107494,64.8349696"/>
    <path stroke="#152E5F" stroke-linecap="round" stroke-linejoin="round" stroke-width="5.12" d="M154.107494,64.8349696 C174.404198,64.8349696 190.858854,76.5229056 190.858854,90.9408256 C190.858854,105.357722 174.404198,117.045658 154.107494,117.045658 C133.81079,117.045658 117.356134,105.357722 117.356134,90.9408256 C117.356134,76.5229056 133.81079,64.8349696 154.107494,64.8349696 Z"/>
    <polygon fill="#FFF" points="122.472 64.371 95.81 63.612 103.115 59.498 74.539 42.589 85.938 36.17 114.513 53.08 121.817 48.967"/>
    <polygon stroke="#152E5F" stroke-linecap="round" stroke-linejoin="round" stroke-width="5.12" points="122.472 64.371 95.81 63.612 103.115 59.498 74.539 42.589 85.938 36.17 114.513 53.08 121.817 48.967"/>
    <polygon fill="#FFF" points="101.825 158.095 48.03 190.426 0 159.908 53.8 127.59"/>
    <polygon stroke="#152E5F" stroke-linecap="round" stroke-linejoin="round" stroke-width="5.12" points="101.825 158.095 48.03 190.426 0 159.908 53.8 127.59"/>
    <path fill="#FFF" d="M53.1305472,0 C73.1558912,0 89.3893632,11.532288 89.3893632,25.755648 C89.3893632,39.981056 73.1558912,51.51232 53.1305472,51.51232 C33.1052032,51.51232 16.8717312,39.981056 16.8717312,25.755648 C16.8717312,11.532288 33.1052032,0 53.1305472,0"/>
    <path stroke="#152E5F" stroke-linecap="round" stroke-linejoin="round" stroke-width="5.12" d="M53.1305472,0 C73.1558912,0 89.3893632,11.532288 89.3893632,25.755648 C89.3893632,39.981056 73.1558912,51.51232 53.1305472,51.51232 C33.1052032,51.51232 16.8717312,39.981056 16.8717312,25.755648 C16.8717312,11.532288 33.1052032,0 53.1305472,0 Z"/>
  </g>
</svg>
