<svg xmlns="http://www.w3.org/2000/svg" viewBox="0 0 256 256">
  <g fill="none" fill-rule="evenodd" transform="translate(38.912 43.008)">
    <path fill="#FFF" d="M55.9231201,164.157952 L101.82904,139.007488 C116.438448,131.010048 121.79704,112.682496 113.798576,98.074112 C111.225264,93.374976 107.447728,89.446912 102.85304,86.692352 C90.0571361,79.022592 74.1257441,78.828032 61.1455201,86.180352 L14.2770401,112.804352 C1.09816008,120.277504 -3.52622392,137.020928 3.94795208,150.199808 C6.28267208,154.317312 9.64344008,157.761024 13.7036001,160.195072 L19.1615201,163.471872 C30.4183521,170.231296 44.4215521,170.492416 55.9231201,164.157952"/>
    <path stroke="#152E5F" stroke-width="5.12" d="M55.9231201,164.157952 L101.82904,139.007488 C116.438448,131.010048 121.79704,112.682496 113.798576,98.074112 C111.225264,93.374976 107.447728,89.446912 102.85304,86.692352 C90.0571361,79.022592 74.1257441,78.828032 61.1455201,86.180352 L14.2770401,112.804352 C1.09816008,120.277504 -3.52622392,137.020928 3.94795208,150.199808 C6.28267208,154.317312 9.64344008,157.761024 13.7036001,160.195072 L19.1615201,163.471872 C30.4183521,170.231296 44.4215521,170.492416 55.9231201,164.157952 Z"/>
    <g transform="translate(0 67.522)">
      <path fill="#FFF" d="M0.0436448751,71.0249161 C-0.263555125,61.9533001 0.821884875,46.4489161 10.7956449,32.6965961 C18.9876449,21.3506761 29.8215649,16.7232201 51.4586849,7.45602013 C70.9966049,-0.911083873 79.0145249,-0.399083873 83.7146849,0.440596127 C91.1120609,1.69294813 97.9749089,5.09774813 103.447165,10.2310601 C111.403645,17.9110601 114.066045,27.9053001 115.264125,32.3996361 C115.612285,33.7011401 115.858045,34.7957961 116.011645,35.5750601"/>
      <path stroke="#152E5F" stroke-width="5.12" d="M0.0436448751,71.0249161 C-0.263555125,61.9533001 0.821884875,46.4489161 10.7956449,32.6965961 C18.9876449,21.3506761 29.8215649,16.7232201 51.4586849,7.45602013 C70.9966049,-0.911083873 79.0145249,-0.399083873 83.7146849,0.440596127 C91.1120609,1.69294813 97.9749089,5.09774813 103.447165,10.2310601 C111.403645,17.9110601 114.066045,27.9053001 115.264125,32.3996361 C115.612285,33.7011401 115.858045,34.7957961 116.011645,35.5750601"/>
    </g>
    <path fill="#FFF" d="M51.3341665,55.9410176 C60.1610465,51.5398656 72.4490465,58.2665216 78.7804385,70.9661696 C85.1108065,83.6637696 83.0884065,97.5256576 74.2615265,101.92681 C65.4356705,106.327962 53.1476705,99.6013056 46.8152545,86.9016576 C40.4848865,74.2040576 42.5072865,60.3421696 51.3341665,55.9410176"/>
    <path stroke="#152E5F" stroke-width="5.12" d="M51.3341665,55.9410176 C60.1610465,51.5398656 72.4490465,58.2665216 78.7804385,70.9661696 C85.1108065,83.6637696 83.0884065,97.5256576 74.2615265,101.92681 C65.4356705,106.327962 53.1476705,99.6013056 46.8152545,86.9016576 C40.4848865,74.2040576 42.5072865,60.3421696 51.3341665,55.9410176 Z"/>
    <path fill="#FFF" d="M134.526179,166.789018 L167.806179,148.555674 C178.397411,142.756762 182.282467,129.471386 176.483555,118.880154 C174.618851,115.473306 171.879651,112.624538 168.549603,110.627738 C159.272163,105.069466 147.722467,104.92713 138.311907,110.25705 L104.333539,129.55945 C94.7796193,134.977434 91.4270433,147.114906 96.8450273,156.66985 C98.5376993,159.65481 100.974819,162.151322 103.917795,163.915674 L107.874531,166.292378 C116.035811,171.192218 126.187747,171.380634 134.526179,166.789018"/>
    <path stroke="#152E5F" stroke-width="5.12" d="M134.526179,166.789018 L167.806179,148.555674 C178.397411,142.756762 182.282467,129.471386 176.483555,118.880154 C174.618851,115.473306 171.879651,112.624538 168.549603,110.627738 C159.272163,105.069466 147.722467,104.92713 138.311907,110.25705 L104.333539,129.55945 C94.7796193,134.977434 91.4270433,147.114906 96.8450273,156.66985 C98.5376993,159.65481 100.974819,162.151322 103.917795,163.915674 L107.874531,166.292378 C116.035811,171.192218 126.187747,171.380634 134.526179,166.789018 Z"/>
    <g transform="translate(93.983 96.73)">
      <path fill="#FFF" d="M0.0315295148,51.4911162 C-0.190678485,44.9139642 0.595753515,33.6745402 7.82621751,23.7038522 C13.7654175,15.4790842 21.6194975,12.1234362 37.3061535,5.40497223 C51.4701215,-0.661203769 57.2833695,-0.288467769 60.6912415,0.318764231 C66.0539295,1.22705223 71.0295455,3.69591623 74.9965215,7.41610823 C80.7647135,12.9846202 82.6949535,20.2304442 83.5633055,23.4888122 C83.8162335,24.4319162 83.9944095,25.2265402 84.1060255,25.7897402"/>
      <path stroke="#152E5F" stroke-width="5.12" d="M0.0315295148,51.4911162 C-0.190678485,44.9139642 0.595753515,33.6745402 7.82621751,23.7038522 C13.7654175,15.4790842 21.6194975,12.1234362 37.3061535,5.40497223 C51.4701215,-0.661203769 57.2833695,-0.288467769 60.6912415,0.318764231 C66.0539295,1.22705223 71.0295455,3.69591623 74.9965215,7.41610823 C80.7647135,12.9846202 82.6949535,20.2304442 83.5633055,23.4888122 C83.8162335,24.4319162 83.9944095,25.2265402 84.1060255,25.7897402"/>
    </g>
    <path fill="#FFF" d="M131.199101,88.3349504 C137.598077,85.1441664 146.506877,90.0204544 151.096445,99.2272384 C155.687037,108.432998 154.219645,118.482534 147.820669,121.673318 C141.421693,124.864102 132.512893,119.98679 127.923325,110.78103 C123.332733,101.57527 124.799101,91.5247104 131.199101,88.3349504"/>
    <path stroke="#152E5F" stroke-width="5.12" d="M131.199101,88.3349504 C137.598077,85.1441664 146.506877,90.0204544 151.096445,99.2272384 C155.687037,108.432998 154.219645,118.482534 147.820669,121.673318 C141.421693,124.864102 132.512893,119.98679 127.923325,110.78103 C123.332733,101.57527 124.799101,91.5247104 131.199101,88.3349504 Z"/>
    <path fill="#FFF" d="M132.714621,47.7790208 C150.398077,47.7790208 164.733053,62.1139968 164.733053,79.7984768 C164.733053,97.4809088 150.398077,111.815885 132.714621,111.815885 C115.031165,111.815885 100.696189,97.4809088 100.696189,79.7984768 C100.696189,62.1139968 115.031165,47.7790208 132.714621,47.7790208"/>
    <path stroke="#152E5F" stroke-width="5.12" d="M132.714621,47.7790208 C150.398077,47.7790208 164.733053,62.1139968 164.733053,79.7984768 C164.733053,97.4809088 150.398077,111.815885 132.714621,111.815885 C115.031165,111.815885 100.696189,97.4809088 100.696189,79.7984768 C100.696189,62.1139968 115.031165,47.7790208 132.714621,47.7790208 Z"/>
    <path fill="#FFF" d="M53.4246625,0 C77.8163425,0 97.5897825,19.774464 97.5897825,44.16512 C97.5897825,68.5568 77.8163425,88.331264 53.4246625,88.331264 C29.0329825,88.331264 9.25954248,68.5568 9.25954248,44.16512 C9.25954248,19.774464 29.0329825,0 53.4246625,0"/>
    <path stroke="#152E5F" stroke-width="5.12" d="M53.4246625,0 C77.8163425,0 97.5897825,19.774464 97.5897825,44.16512 C97.5897825,68.5568 77.8163425,88.331264 53.4246625,88.331264 C29.0329825,88.331264 9.25954248,68.5568 9.25954248,44.16512 C9.25954248,19.774464 29.0329825,0 53.4246625,0 Z"/>
  </g>
</svg>
