<svg xmlns="http://www.w3.org/2000/svg" viewBox="0 0 256 256">
  <g fill="none" fill-rule="evenodd" transform="translate(49.152 32.768)">
    <path fill="#FFF" d="M64.790528,163.946468 C64.812032,161.611748 63.898624,158.938084 62.462976,154.860516 C60.24192,148.551652 50.888704,121.982948 33.017856,121.608164 C13.303808,121.195492 2.941952,153.072612 2.304,155.114468 C1.019904,159.225828 0.1792,162.0193 0.361472,164.52298 C0.124928,165.648356 0,166.798308 0,167.969764 C0,180.777956 14.615552,191.161316 32.64512,191.161316 C50.674688,191.161316 65.29024,180.777956 65.29024,167.969764 C65.29024,166.59658 65.112064,165.253092 64.790528,163.946468"/>
    <path stroke="#152E5F" stroke-width="5.12" d="M64.790528,163.946468 C64.812032,161.611748 63.898624,158.938084 62.462976,154.860516 C60.24192,148.551652 50.888704,121.982948 33.017856,121.608164 C13.303808,121.195492 2.941952,153.072612 2.304,155.114468 C1.019904,159.225828 0.1792,162.0193 0.361472,164.52298 C0.124928,165.648356 0,166.798308 0,167.969764 C0,180.777956 14.615552,191.161316 32.64512,191.161316 C50.674688,191.161316 65.29024,180.777956 65.29024,167.969764 C65.29024,166.59658 65.112064,165.253092 64.790528,163.946468 Z"/>
    <path fill="#FFF" d="M51.3666048,115.18748 C51.3666048,126.208792 42.4322048,135.142168 31.4119168,135.142168 C20.3906048,135.142168 11.4562048,126.208792 11.4562048,115.18748 C11.4562048,104.167192 20.3906048,95.2338155 31.4119168,95.2338155 C42.4322048,95.2338155 51.3666048,104.167192 51.3666048,115.18748"/>
    <path stroke="#152E5F" stroke-width="5.12" d="M51.3666048,115.18748 C51.3666048,126.208792 42.4322048,135.142168 31.4119168,135.142168 C20.3906048,135.142168 11.4562048,126.208792 11.4562048,115.18748 C11.4562048,104.167192 20.3906048,95.2338155 31.4119168,95.2338155 C42.4322048,95.2338155 51.3666048,104.167192 51.3666048,115.18748 Z"/>
    <path fill="#FFF" d="M71.171584,66.8114667 C68.993536,58.4505067 62.482944,51.9102187 54.132224,49.6922347 L23.972352,41.6825067 C23.015936,41.5002347 14.836224,40.0809707 8.684032,45.7785067 C1.552896,52.3833067 3.804672,62.3836907 4.082176,63.5264747 C5.448192,69.1420907 9.133568,72.5796587 10.875392,74.2047467 C14.407168,77.4979307 18.107904,79.0646507 20.352512,79.8162667 L49.536512,88.0307947 C51.60704,88.6134507 53.652992,88.7998187 55.618048,88.6533867 C57.363968,90.5078507 58.802688,92.7729387 59.340288,95.5049707 C59.941376,98.5605867 59.231744,101.245515 59.975168,101.461579 C60.90496,101.731915 63.14752,97.8775787 64.251392,94.0826347 C65.245696,90.6655467 65.248768,87.5249387 64.956928,85.0294507 C70.155776,80.9877227 73.07008,74.0931307 71.171584,66.8114667"/>
    <path stroke="#152E5F" stroke-width="5.12" d="M71.171584,66.8114667 C68.993536,58.4505067 62.482944,51.9102187 54.132224,49.6922347 L23.972352,41.6825067 C23.015936,41.5002347 14.836224,40.0809707 8.684032,45.7785067 C1.552896,52.3833067 3.804672,62.3836907 4.082176,63.5264747 C5.448192,69.1420907 9.133568,72.5796587 10.875392,74.2047467 C14.407168,77.4979307 18.107904,79.0646507 20.352512,79.8162667 L49.536512,88.0307947 C51.60704,88.6134507 53.652992,88.7998187 55.618048,88.6533867 C57.363968,90.5078507 58.802688,92.7729387 59.340288,95.5049707 C59.941376,98.5605867 59.231744,101.245515 59.975168,101.461579 C60.90496,101.731915 63.14752,97.8775787 64.251392,94.0826347 C65.245696,90.6655467 65.248768,87.5249387 64.956928,85.0294507 C70.155776,80.9877227 73.07008,74.0931307 71.171584,66.8114667 Z"/>
    <path fill="#FFF" d="M49.8485248,68.7544043 C50.0686848,69.6002283 50.9339648,70.1081323 51.7797888,69.8869483 C52.6256128,69.6678123 53.1335168,68.8025323 52.9123328,67.9567083 C52.6921728,67.1108843 51.8279168,66.6019563 50.9810688,66.8231403 C50.1352448,67.0433003 49.6273408,67.9085803 49.8485248,68.7544043"/>
    <path stroke="#152E5F" stroke-width="5.12" d="M49.8485248,68.7544043 C50.0686848,69.6002283 50.9339648,70.1081323 51.7797888,69.8869483 C52.6256128,69.6678123 53.1335168,68.8025323 52.9123328,67.9567083 C52.6921728,67.1108843 51.8279168,66.6019563 50.9810688,66.8231403 C50.1352448,67.0433003 49.6273408,67.9085803 49.8485248,68.7544043 Z"/>
    <path fill="#FFF" d="M35.5580928,64.7084779 C35.7782528,65.5543019 36.6435328,66.0611819 37.4893568,65.8410219 C38.3351808,65.6208619 38.8430848,64.7566059 38.6229248,63.9097579 C38.4017408,63.0639339 37.5374848,62.5560299 36.6906368,62.7772139 C35.8448128,62.9973739 35.3379328,63.8626539 35.5580928,64.7084779"/>
    <path stroke="#152E5F" stroke-width="5.12" d="M35.5580928,64.7084779 C35.7782528,65.5543019 36.6435328,66.0611819 37.4893568,65.8410219 C38.3351808,65.6208619 38.8430848,64.7566059 38.6229248,63.9097579 C38.4017408,63.0639339 37.5374848,62.5560299 36.6906368,62.7772139 C35.8448128,62.9973739 35.3379328,63.8626539 35.5580928,64.7084779 Z"/>
    <path fill="#FFF" d="M21.2815872,61.3184235 C21.5017472,62.1652715 22.3670272,62.6721515 23.2128512,62.4509675 C24.0586752,62.2318315 24.5665792,61.3665515 24.3453952,60.5207275 C24.1252352,59.6749035 23.2609792,59.1669995 22.4141312,59.3871595 C21.5683072,59.6083435 21.0614272,60.4725995 21.2815872,61.3184235"/>
    <path stroke="#152E5F" stroke-width="5.12" d="M21.2815872,61.3184235 C21.5017472,62.1652715 22.3670272,62.6721515 23.2128512,62.4509675 C24.0586752,62.2318315 24.5665792,61.3665515 24.3453952,60.5207275 C24.1252352,59.6749035 23.2609792,59.1669995 22.4141312,59.3871595 C21.5683072,59.6083435 21.0614272,60.4725995 21.2815872,61.3184235 Z"/>
    <path fill="#FFF" d="M105.790566,25.4174955 C103.612518,17.0565355 97.1019264,10.5152235 88.7512064,8.29826354 L58.5913344,0.288535538 C57.6349184,0.105239538 49.4552064,-1.31300046 43.3030144,4.38453554 C36.1718784,10.9883115 38.4236544,20.9897195 38.7011584,22.1314795 C40.0671744,27.7481195 43.7525504,31.1856875 45.4943744,32.8097515 C49.0261504,36.1039595 52.7268864,37.6706795 54.9714944,38.4222955 L80.6390784,45.6466155 C82.2017024,49.0637035 84.5190144,53.3460715 87.1056384,55.5220715 C90.1305344,58.0677355 94.1343744,60.0307435 94.7579904,59.2893675 C95.2566784,58.6974955 93.1769344,56.8573675 91.9819264,53.9829995 C91.0470144,51.7322475 90.8841984,49.3975275 91.1412224,47.1662315 C101.054566,45.8933995 108.56663,36.0681195 105.790566,25.4174955"/>
    <path stroke="#152E5F" stroke-width="5.12" d="M105.790566,25.4174955 C103.612518,17.0565355 97.1019264,10.5152235 88.7512064,8.29826354 L58.5913344,0.288535538 C57.6349184,0.105239538 49.4552064,-1.31300046 43.3030144,4.38453554 C36.1718784,10.9883115 38.4236544,20.9897195 38.7011584,22.1314795 C40.0671744,27.7481195 43.7525504,31.1856875 45.4943744,32.8097515 C49.0261504,36.1039595 52.7268864,37.6706795 54.9714944,38.4222955 L80.6390784,45.6466155 C82.2017024,49.0637035 84.5190144,53.3460715 87.1056384,55.5220715 C90.1305344,58.0677355 94.1343744,60.0307435 94.7579904,59.2893675 C95.2566784,58.6974955 93.1769344,56.8573675 91.9819264,53.9829995 C91.0470144,51.7322475 90.8841984,49.3975275 91.1412224,47.1662315 C101.054566,45.8933995 108.56663,36.0681195 105.790566,25.4174955 Z"/>
    <path fill="#FFF" d="M157.709517,110.505444 C157.731021,108.170724 156.817613,105.49706 155.382989,101.419492 C153.161933,95.1106283 143.808717,68.5419243 125.937869,68.1671403 C106.223821,67.7544683 95.8619648,99.6315883 95.2240128,101.673444 C93.9399168,105.784804 93.0981888,108.578276 93.2804608,111.081956 C93.0449408,112.207332 92.9200128,113.357284 92.9200128,114.52874 C92.9200128,127.336932 107.535565,137.720292 125.564109,137.720292 C143.593677,137.720292 158.209229,127.336932 158.209229,114.52874 C158.209229,113.155556 158.031053,111.812068 157.709517,110.505444"/>
    <path stroke="#152E5F" stroke-width="5.12" d="M157.709517,110.505444 C157.731021,108.170724 156.817613,105.49706 155.382989,101.419492 C153.161933,95.1106283 143.808717,68.5419243 125.937869,68.1671403 C106.223821,67.7544683 95.8619648,99.6315883 95.2240128,101.673444 C93.9399168,105.784804 93.0981888,108.578276 93.2804608,111.081956 C93.0449408,112.207332 92.9200128,113.357284 92.9200128,114.52874 C92.9200128,127.336932 107.535565,137.720292 125.564109,137.720292 C143.593677,137.720292 158.209229,127.336932 158.209229,114.52874 C158.209229,113.155556 158.031053,111.812068 157.709517,110.505444 Z"/>
    <path fill="#FFF" d="M144.286106,61.7464555 C144.286106,72.7677675 135.351706,81.7011435 124.331418,81.7011435 C113.310106,81.7011435 104.375706,72.7677675 104.375706,61.7464555 C104.375706,50.7261675 113.310106,41.7917675 124.331418,41.7917675 C135.351706,41.7917675 144.286106,50.7261675 144.286106,61.7464555"/>
    <path stroke="#152E5F" stroke-width="5.12" d="M144.286106,61.7464555 C144.286106,72.7677675 135.351706,81.7011435 124.331418,81.7011435 C113.310106,81.7011435 104.375706,72.7677675 104.375706,61.7464555 C104.375706,50.7261675 113.310106,41.7917675 124.331418,41.7917675 C135.351706,41.7917675 144.286106,50.7261675 144.286106,61.7464555 Z"/>
    <path fill="#FFF" d="M83.4816,27.7514987 C83.70176,28.5973227 84.56704,29.1042027 85.412864,28.8840427 C86.259712,28.6638827 86.766592,27.7996267 86.546432,26.9538027 C86.325248,26.1069547 85.460992,25.5990507 84.614144,25.8202347 C83.76832,26.0403947 83.26144,26.9056747 83.4816,27.7514987"/>
    <path stroke="#152E5F" stroke-width="5.12" d="M83.4816,27.7514987 C83.70176,28.5973227 84.56704,29.1042027 85.412864,28.8840427 C86.259712,28.6638827 86.766592,27.7996267 86.546432,26.9538027 C86.325248,26.1069547 85.460992,25.5990507 84.614144,25.8202347 C83.76832,26.0403947 83.26144,26.9056747 83.4816,27.7514987 Z"/>
    <path fill="#FFF" d="M69.1915776,23.7054699 C69.4117376,24.5512939 70.2770176,25.0581739 71.1228416,24.8380139 C71.9686656,24.6178539 72.4765696,23.7525739 72.2553856,22.9067499 C72.0352256,22.0609259 71.1709696,21.5530219 70.3241216,21.7731819 C69.4782976,21.9943659 68.9714176,22.8596459 69.1915776,23.7054699"/>
    <path stroke="#152E5F" stroke-width="5.12" d="M69.1915776,23.7054699 C69.4117376,24.5512939 70.2770176,25.0581739 71.1228416,24.8380139 C71.9686656,24.6178539 72.4765696,23.7525739 72.2553856,22.9067499 C72.0352256,22.0609259 71.1709696,21.5530219 70.3241216,21.7731819 C69.4782976,21.9943659 68.9714176,22.8596459 69.1915776,23.7054699 Z"/>
    <path fill="#FFF" d="M54.91456,20.3154155 C55.135744,21.1612395 56,21.6691435 56.845824,21.4479595 C57.692672,21.2288235 58.199552,20.3635435 57.979392,19.5177195 C57.758208,18.6718955 56.893952,18.1629675 56.047104,18.3841515 C55.20128,18.6043115 54.6944,19.4695915 54.91456,20.3154155"/>
    <path stroke="#152E5F" stroke-width="5.12" d="M54.91456,20.3154155 C55.135744,21.1612395 56,21.6691435 56.845824,21.4479595 C57.692672,21.2288235 58.199552,20.3635435 57.979392,19.5177195 C57.758208,18.6718955 56.893952,18.1629675 56.047104,18.3841515 C55.20128,18.6043115 54.6944,19.4695915 54.91456,20.3154155 Z"/>
    <line x1="23.055" x2="23.055" y1="58.28" y2="63.4" stroke="#152E5F" stroke-width="5.12"/>
    <line x1="37.391" x2="37.391" y1="61.864" y2="66.984" stroke="#152E5F" stroke-width="5.12"/>
    <line x1="51.727" x2="51.727" y1="65.96" y2="71.08" stroke="#152E5F" stroke-width="5.12"/>
    <line x1="56.847" x2="56.847" y1="17.832" y2="21.416" stroke="#152E5F" stroke-width="5.12"/>
    <line x1="70.735" x2="70.735" y1="21.816" y2="25.4" stroke="#152E5F" stroke-width="5.12"/>
    <line x1="85.42" x2="85.42" y1="25.81" y2="29.394" stroke="#152E5F" stroke-width="5.12"/>
  </g>
</svg>
