<svg xmlns="http://www.w3.org/2000/svg" viewBox="0 0 256 256">
  <g fill="none" fill-rule="evenodd" transform="translate(31.744 36.864)">
    <path fill="#FFF" d="M188.717604,62.6430842 C183.066148,53.4414202 172.42986,52.3600762 171.179556,52.2546042 L130.995748,51.7149562 C119.871012,51.5654522 109.52554,57.4165882 103.91914,67.0278522 C99.2394596,75.0529402 100.165156,84.1726842 104.694308,90.9198202 C103.439908,93.6743802 102.371876,96.8917882 101.826084,100.542348 C100.88298,106.85838 101.571108,114.030476 103.116324,114.2619 C104.35434,114.447244 105.126436,110.02766 108.072484,105.950092 C110.131748,103.1003 112.806436,101.045132 115.696164,99.5429242 C118.061604,100.389772 120.640036,100.858764 123.382308,100.854668 L162.427428,100.803468 C165.472804,100.649868 170.605092,99.9924602 176.128548,97.1344762 C178.852388,95.7244282 184.617508,92.7425402 188.2609,86.2503802 C189.002276,84.9304442 195.268132,73.3100922 188.717604,62.6430842"/>
    <path stroke="#152E5F" stroke-linejoin="round" stroke-width="5.12" d="M188.717604,62.6430842 C183.066148,53.4414202 172.42986,52.3600762 171.179556,52.2546042 L130.995748,51.7149562 C119.871012,51.5654522 109.52554,57.4165882 103.91914,67.0278522 C99.2394596,75.0529402 100.165156,84.1726842 104.694308,90.9198202 C103.439908,93.6743802 102.371876,96.8917882 101.826084,100.542348 C100.88298,106.85838 101.571108,114.030476 103.116324,114.2619 C104.35434,114.447244 105.126436,110.02766 108.072484,105.950092 C110.131748,103.1003 112.806436,101.045132 115.696164,99.5429242 C118.061604,100.389772 120.640036,100.858764 123.382308,100.854668 L162.427428,100.803468 C165.472804,100.649868 170.605092,99.9924602 176.128548,97.1344762 C178.852388,95.7244282 184.617508,92.7425402 188.2609,86.2503802 C189.002276,84.9304442 195.268132,73.3100922 188.717604,62.6430842 Z"/>
    <path fill="#FFF" d="M129.689021,76.842073 C129.121725,77.814873 127.873469,78.143577 126.900669,77.576281 C125.927869,77.008985 125.599165,75.759705 126.166461,74.786905 C126.733757,73.815129 127.982013,73.486425 128.954813,74.052697 C129.927613,74.619993 130.256317,75.869273 129.689021,76.842073"/>
    <path stroke="#152E5F" stroke-linejoin="round" stroke-width="5.12" d="M129.689021,76.842073 C129.121725,77.814873 127.873469,78.143577 126.900669,77.576281 C125.927869,77.008985 125.599165,75.759705 126.166461,74.786905 C126.733757,73.815129 127.982013,73.486425 128.954813,74.052697 C129.927613,74.619993 130.256317,75.869273 129.689021,76.842073 Z"/>
    <path fill="#FFF" d="M148.81601,76.7861626 C148.248714,77.7589626 147.000458,78.0876666 146.027658,77.5203706 C145.054858,76.9530746 144.726154,75.7048186 145.29345,74.7320186 C145.860746,73.7592186 147.109002,73.4305146 148.081802,73.9978106 C149.054602,74.5651066 149.383306,75.8133626 148.81601,76.7861626"/>
    <path stroke="#152E5F" stroke-linejoin="round" stroke-width="5.12" d="M148.81601,76.7861626 C148.248714,77.7589626 147.000458,78.0876666 146.027658,77.5203706 C145.054858,76.9530746 144.726154,75.7048186 145.29345,74.7320186 C145.860746,73.7592186 147.109002,73.4305146 148.081802,73.9978106 C149.054602,74.5651066 149.383306,75.8133626 148.81601,76.7861626 Z"/>
    <path fill="#FFF" d="M167.69857,77.5401338 C167.131274,78.5129338 165.883018,78.8416378 164.909194,78.2753658 C163.937418,77.7070458 163.60769,76.4587898 164.17601,75.4859898 C164.743306,74.5131898 165.991562,74.1844858 166.964362,74.7517818 C167.937162,75.3190778 168.265866,76.5683578 167.69857,77.5401338"/>
    <path stroke="#152E5F" stroke-linejoin="round" stroke-width="5.12" d="M167.69857,77.5401338 C167.131274,78.5129338 165.883018,78.8416378 164.909194,78.2753658 C163.937418,77.7070458 163.60769,76.4587898 164.17601,75.4859898 C164.743306,74.5131898 165.991562,74.1844858 166.964362,74.7517818 C167.937162,75.3190778 168.265866,76.5683578 167.69857,77.5401338 Z"/>
    <path fill="#FFF" d="M102.522608,173.489139 C102.344432,171.704307 98.7768164,169.503731 82.9549924,167.986163 C68.2237284,138.714099 53.4934884,109.442035 38.7622244,80.1689466 C38.7622244,80.1689466 37.7914724,76.1835386 39.0458724,73.9686266 C43.7439844,65.6762746 57.9161444,59.1257466 61.7284964,54.7409786 C65.5132004,50.3869306 37.3112164,30.3841146 17.7825124,11.0837626 C16.0540004,12.1323386 0.147184429,33.9752826 0,53.7436026 C-0.0483995709,60.3586426 2.32318443,66.9747066 3.41169643,70.0118906 C4.39985643,72.7684986 6.55947243,77.8239866 6.55947243,77.8239866 L46.4524644,165.336051 C49.2766564,169.031667 58.9544804,180.739059 74.4701284,182.505459 C88.3146084,184.082419 102.901488,177.301491 102.522608,173.489139"/>
    <path stroke="#152E5F" stroke-linejoin="round" stroke-width="5.12" d="M102.522608,173.489139 C102.344432,171.704307 98.7768164,169.503731 82.9549924,167.986163 C68.2237284,138.714099 53.4934884,109.442035 38.7622244,80.1689466 C38.7622244,80.1689466 37.7914724,76.1835386 39.0458724,73.9686266 C43.7439844,65.6762746 57.9161444,59.1257466 61.7284964,54.7409786 C65.5132004,50.3869306 37.3112164,30.3841146 17.7825124,11.0837626 C16.0540004,12.1323386 0.147184429,33.9752826 0,53.7436026 C-0.0483995709,60.3586426 2.32318443,66.9747066 3.41169643,70.0118906 C4.39985643,72.7684986 6.55947243,77.8239866 6.55947243,77.8239866 L46.4524644,165.336051 C49.2766564,169.031667 58.9544804,180.739059 74.4701284,182.505459 C88.3146084,184.082419 102.901488,177.301491 102.522608,173.489139 Z"/>
    <path fill="#FFF" d="M61.4005092,57.3211514 L61.4015332,57.3221754 L66.1528932,50.3876474 L67.1625572,48.9622394 C62.5156452,52.5656954 54.2857572,54.8983674 47.2109412,53.9951994 C41.2143972,53.2312954 34.8471652,50.8433274 28.9550692,46.8067194 C23.0639972,42.7701114 18.5368932,37.6951674 15.6584292,32.3806074 C12.2618212,26.1086074 12.0457572,16.8987514 13.7271652,11.2636794 L12.1583972,13.3976954 L7.40806123,20.3332474 L7.43263723,20.3496314 C7.26470123,20.5697914 7.09471723,20.7899514 6.93702123,21.0203514 C-0.323138771,31.6167034 5.88434923,48.4922234 20.8009572,58.7096954 C35.7165412,68.9292154 53.6938852,68.6220154 60.9540452,58.0246394 C61.1117412,57.7952634 61.2551012,57.5566714 61.4005092,57.3211514"/>
    <path stroke="#152E5F" stroke-linejoin="round" stroke-width="5.12" d="M61.4005092,57.3211514 L61.4015332,57.3221754 L66.1528932,50.3876474 L67.1625572,48.9622394 C62.5156452,52.5656954 54.2857572,54.8983674 47.2109412,53.9951994 C41.2143972,53.2312954 34.8471652,50.8433274 28.9550692,46.8067194 C23.0639972,42.7701114 18.5368932,37.6951674 15.6584292,32.3806074 C12.2618212,26.1086074 12.0457572,16.8987514 13.7271652,11.2636794 L12.1583972,13.3976954 L7.40806123,20.3332474 L7.43263723,20.3496314 C7.26470123,20.5697914 7.09471723,20.7899514 6.93702123,21.0203514 C-0.323138771,31.6167034 5.88434923,48.4922234 20.8009572,58.7096954 C35.7165412,68.9292154 53.6938852,68.6220154 60.9540452,58.0246394 C61.1117412,57.7952634 61.2551012,57.5566714 61.4005092,57.3211514 Z"/>
    <path fill="#FFF" d="M69.415562,45.5671674 C61.912714,56.5188474 43.760266,57.1281274 28.87233,46.9290874 C13.98337,36.7290234 7.99604203,19.5821434 15.497866,8.63046339 C23.000714,-2.32224061 41.153162,-2.93152061 56.041098,7.26854339 C70.930058,17.4686074 76.91841,34.6154874 69.415562,45.5671674"/>
    <path stroke="#152E5F" stroke-linejoin="round" stroke-width="5.12" d="M69.415562,45.5671674 C61.912714,56.5188474 43.760266,57.1281274 28.87233,46.9290874 C13.98337,36.7290234 7.99604203,19.5821434 15.497866,8.63046339 C23.000714,-2.32224061 41.153162,-2.93152061 56.041098,7.26854339 C70.930058,17.4686074 76.91841,34.6154874 69.415562,45.5671674 Z"/>
    <path fill="#FFF" d="M110.723108,171.68014 L110.725156,171.681164 L115.145764,165.227916 L116.085796,163.901836 C111.761444,167.255436 104.103972,169.425292 97.5196516,168.586636 C91.9398756,167.873932 86.0150116,165.652876 80.5325156,161.896844 C75.0500196,158.140812 70.8372836,153.418124 68.1595236,148.472204 C64.9984356,142.636428 63.6918116,135.547276 65.2575076,130.303372 L64.9021796,130.809228 L60.4815716,137.262476 L60.5040996,137.276812 C60.3484516,137.482636 60.1907556,137.687436 60.0432996,137.901452 C53.2879716,147.762572 59.0643556,163.465612 72.9436516,172.973452 C86.8239716,182.482316 103.55306,182.197644 110.307364,172.336524 C110.45482,172.121484 110.58794,171.9003 110.723108,171.68014"/>
    <path stroke="#152E5F" stroke-linejoin="round" stroke-width="5.12" d="M110.723108,171.68014 L110.725156,171.681164 L115.145764,165.227916 L116.085796,163.901836 C111.761444,167.255436 104.103972,169.425292 97.5196516,168.586636 C91.9398756,167.873932 86.0150116,165.652876 80.5325156,161.896844 C75.0500196,158.140812 70.8372836,153.418124 68.1595236,148.472204 C64.9984356,142.636428 63.6918116,135.547276 65.2575076,130.303372 L64.9021796,130.809228 L60.4815716,137.262476 L60.5040996,137.276812 C60.3484516,137.482636 60.1907556,137.687436 60.0432996,137.901452 C53.2879716,147.762572 59.0643556,163.465612 72.9436516,172.973452 C86.8239716,182.482316 103.55306,182.197644 110.307364,172.336524 C110.45482,172.121484 110.58794,171.9003 110.723108,171.68014 Z"/>
    <path fill="#FFF" d="M118.181514,160.743103 C111.199882,170.933951 94.309002,171.501247 80.454282,162.009791 C66.599562,152.519359 61.029002,136.563391 68.00961,126.372543 C74.991242,116.180671 91.882122,115.614399 105.736842,125.104831 C119.591562,134.596287 125.163146,150.552255 118.181514,160.743103"/>
    <path stroke="#152E5F" stroke-linejoin="round" stroke-width="5.12" d="M118.181514,160.743103 C111.199882,170.933951 94.309002,171.501247 80.454282,162.009791 C66.599562,152.519359 61.029002,136.563391 68.00961,126.372543 C74.991242,116.180671 91.882122,115.614399 105.736842,125.104831 C119.591562,134.596287 125.163146,150.552255 118.181514,160.743103 Z"/>
    <path fill="#FFF" d="M59.027594,38.4501626 C54.416522,45.1819386 43.257994,45.5567226 34.106506,39.2867706 C24.955018,33.0178426 21.274762,22.4778106 25.885834,15.7460346 C30.49793,9.01528259 41.655434,8.64049859 50.806922,14.9094266 C59.959434,21.1793786 63.638666,31.7194106 59.027594,38.4501626"/>
    <path stroke="#152E5F" stroke-linejoin="round" stroke-width="5.12" d="M59.027594,38.4501626 C54.416522,45.1819386 43.257994,45.5567226 34.106506,39.2867706 C24.955018,33.0178426 21.274762,22.4778106 25.885834,15.7460346 C30.49793,9.01528259 41.655434,8.64049859 50.806922,14.9094266 C59.959434,21.1793786 63.638666,31.7194106 59.027594,38.4501626 Z"/>
    <path fill="#FFF" d="M109.168573,154.568076 C104.695741,161.098124 93.8730852,161.46062 84.9960292,155.380108 C76.1199972,149.298572 72.5493092,139.07598 77.0231652,132.545932 C81.4959972,126.016908 92.3186532,125.653388 101.194685,131.7339 C110.071741,137.81646 113.641405,148.039052 109.168573,154.568076"/>
    <path stroke="#152E5F" stroke-linejoin="round" stroke-width="5.12" d="M109.168573,154.568076 C104.695741,161.098124 93.8730852,161.46062 84.9960292,155.380108 C76.1199972,149.298572 72.5493092,139.07598 77.0231652,132.545932 C81.4959972,126.016908 92.3186532,125.653388 101.194685,131.7339 C110.071741,137.81646 113.641405,148.039052 109.168573,154.568076 Z"/>
    <path fill="#FFF" d="M43.6330852,27.904089 C43.3054052,28.382297 42.5138532,28.407897 41.8636132,27.963481 C41.2143972,27.518041 40.9532772,26.771545 41.2809572,26.293337 C41.6076132,25.815129 42.4001892,25.788505 43.0494052,26.232921 C43.6986212,26.678361 43.9597412,27.425881 43.6330852,27.904089"/>
    <path stroke="#152E5F" stroke-linejoin="round" stroke-width="5.12" d="M43.6330852,27.904089 C43.3054052,28.382297 42.5138532,28.407897 41.8636132,27.963481 C41.2143972,27.518041 40.9532772,26.771545 41.2809572,26.293337 C41.6076132,25.815129 42.4001892,25.788505 43.0494052,26.232921 C43.6986212,26.678361 43.9597412,27.425881 43.6330852,27.904089 Z"/>
    <path fill="#FFF" d="M94.2715236,144.363097 C93.9448676,144.841305 93.1522916,144.866905 92.5030756,144.422489 C91.8538596,143.977049 91.5927396,143.229529 91.9193956,142.752345 C92.2470756,142.274137 93.0386276,142.247513 93.6878436,142.691929 C94.3370596,143.137369 94.5992036,143.884889 94.2715236,144.363097"/>
    <path stroke="#152E5F" stroke-linejoin="round" stroke-width="5.12" d="M94.2715236,144.363097 C93.9448676,144.841305 93.1522916,144.866905 92.5030756,144.422489 C91.8538596,143.977049 91.5927396,143.229529 91.9193956,142.752345 C92.2470756,142.274137 93.0386276,142.247513 93.6878436,142.691929 C94.3370596,143.137369 94.5992036,143.884889 94.2715236,144.363097 Z"/>
    <g transform="translate(41.888 26.112)">
      <line x2="1.024" y2="2.048" fill="#FFF"/>
      <line x2="1.024" y2="2.048" stroke="#152E5F" stroke-linecap="round" stroke-linejoin="round" stroke-width="5.12"/>
    </g>
    <g transform="translate(92.064 142.848)">
      <line x2="1.024" y2="1.024" fill="#FFF"/>
      <line x2="1.024" y2="1.024" stroke="#152E5F" stroke-linecap="round" stroke-linejoin="round" stroke-width="5.12"/>
    </g>
    <g transform="translate(164.768 75.264)">
      <line x2="2.048" y2="2.048" fill="#FFF"/>
      <line x2="2.048" y2="2.048" stroke="#152E5F" stroke-linecap="round" stroke-linejoin="round" stroke-width="5.12"/>
    </g>
    <g transform="translate(146.336 74.24)">
      <line x2="2.048" y2="2.048" fill="#FFF"/>
      <line x2="2.048" y2="2.048" stroke="#152E5F" stroke-linecap="round" stroke-linejoin="round" stroke-width="5.12"/>
    </g>
    <g transform="translate(126.88 74.24)">
      <line x2="2.048" y2="2.048" fill="#FFF"/>
      <line x2="2.048" y2="2.048" stroke="#152E5F" stroke-linecap="round" stroke-linejoin="round" stroke-width="5.12"/>
    </g>
  </g>
</svg>
