<svg xmlns="http://www.w3.org/2000/svg" viewBox="0 0 256 256">
  <g fill="none" fill-rule="evenodd" transform="translate(38.912 27.648)">
    <polygon fill="#FFF" points="3.811 93.072 3.811 64.22 19.658 71.744 19.658 102.882"/>
    <polygon stroke="#0E2D63" stroke-linejoin="round" stroke-width="5.12" points="3.811 93.072 3.811 64.22 19.658 71.744 19.658 102.882"/>
    <polygon fill="#FFF" points="19.044 102.786 19.044 70.276 36.634 61.554 36.634 89.981"/>
    <polygon stroke="#0E2D63" stroke-linejoin="round" stroke-width="5.12" points="19.044 102.786 19.044 70.276 36.634 61.554 36.634 89.981"/>
    <polygon fill="#FFF" points="0 154.13 0 91.067 14.719 99.51 14.719 162.811"/>
    <polygon stroke="#0E2D63" stroke-linejoin="round" stroke-width="5.12" points="0 154.13 0 91.067 14.719 99.51 14.719 162.811"/>
    <polygon fill="#FFF" points="19.087 19.829 3.811 64.22 19.044 70.981 36.634 61.554"/>
    <polygon stroke="#0E2D63" stroke-linejoin="round" stroke-width="5.12" points="19.087 19.829 3.811 64.22 19.044 70.981 36.634 61.554"/>
    <path fill="#FFF" d="M19.0434304,70.98112 L19.0434304,19.828224 L19.0434304,70.98112 Z"/>
    <line x1="19.044" x2="19.044" y1="70.981" y2="19.829" stroke="#0E2D63" stroke-linejoin="round" stroke-width="5.12"/>
    <polygon fill="#FFF" points="66.01 191.111 66.01 120.708 177.868 56.351 177.868 126.62"/>
    <polygon stroke="#0E2D63" stroke-linejoin="round" stroke-width="5.12" points="66.01 191.111 66.01 120.708 177.868 56.351 177.868 126.62"/>
    <polygon fill="#FFF" points="14.535 162.578 66.01 191.111 66.01 117.636 41.676 53.248 14.535 91.778"/>
    <polygon stroke="#0E2D63" stroke-linejoin="round" stroke-width="5.12" points="14.535 162.578 66.01 191.111 66.01 117.636 41.676 53.248 14.535 91.778"/>
    <polygon fill="#FFF" points="146.123 0 177.867 56.351 66.01 119.684 41.675 53.248"/>
    <polygon stroke="#0E2D63" stroke-linejoin="round" stroke-width="5.12" points="146.123 0 177.867 56.351 66.01 119.684 41.675 53.248"/>
    <path fill="#FFF" d="M146.175488,133.519974 L146.175488,99.2282624 C146.175488,93.7897984 149.145088,88.7865344 153.918976,86.1825024 C158.416384,83.7300224 163.899904,86.9853184 163.899904,92.1083904 L163.899904,123.718246 L146.175488,133.519974 Z"/>
    <path stroke="#0E2D63" stroke-linejoin="round" stroke-width="5.12" d="M146.175488,133.519974 L146.175488,99.2282624 C146.175488,93.7897984 149.145088,88.7865344 153.918976,86.1825024 C158.416384,83.7300224 163.899904,86.9853184 163.899904,92.1083904 L163.899904,123.718246 L146.175488,133.519974 Z"/>
    <line x1="155.636" x2="155.636" y1="86.183" y2="128.834" stroke="#0E2D63" stroke-linejoin="round" stroke-width="5.12"/>
    <line x1="146.175" x2="163.9" y1="122.217" y2="111.984" stroke="#0E2D63" stroke-linejoin="round" stroke-width="5.12"/>
    <path fill="#FFF" d="M115.79904,150.956954 L115.79904,116.665242 C115.79904,111.226778 118.769664,106.223514 123.542528,103.619482 C128.04096,101.167002 133.52448,104.422298 133.52448,109.54537 L133.52448,141.155226 L115.79904,150.956954 Z"/>
    <path stroke="#0E2D63" stroke-linejoin="round" stroke-width="5.12" d="M115.79904,150.956954 L115.79904,116.665242 C115.79904,111.226778 118.769664,106.223514 123.542528,103.619482 C128.04096,101.167002 133.52448,104.422298 133.52448,109.54537 L133.52448,141.155226 L115.79904,150.956954 Z"/>
    <line x1="125.26" x2="125.26" y1="103.62" y2="146.272" stroke="#0E2D63" stroke-linejoin="round" stroke-width="5.12"/>
    <line x1="115.799" x2="133.524" y1="139.654" y2="129.421" stroke="#0E2D63" stroke-linejoin="round" stroke-width="5.12"/>
    <path fill="#FFF" d="M46.2900224,179.675034 L46.2900224,145.382298 C46.2900224,139.944858 43.3204224,134.94057 38.5465344,132.336538 C34.0491264,129.884058 28.5656064,133.139354 28.5656064,138.262426 L28.5656064,169.872282 L46.2900224,179.675034 Z"/>
    <path stroke="#0E2D63" stroke-linejoin="round" stroke-width="5.12" d="M46.2900224,179.675034 L46.2900224,145.382298 C46.2900224,139.944858 43.3204224,134.94057 38.5465344,132.336538 C34.0491264,129.884058 28.5656064,133.139354 28.5656064,138.262426 L28.5656064,169.872282 L46.2900224,179.675034 Z"/>
    <path fill="#FFF" d="M46.7874816,100.046029 C49.8727936,106.553549 48.1678336,113.822925 42.9792256,116.282573 C37.7906176,118.743245 31.0834176,115.462349 27.9970816,108.954829 C24.9127936,102.448333 26.6177536,95.1779328 31.8063616,92.7182848 C36.9949696,90.2576128 43.7021696,93.5395328 46.7874816,100.046029"/>
    <path stroke="#0E2D63" stroke-linejoin="round" stroke-width="5.12" d="M46.7874816,100.046029 C49.8727936,106.553549 48.1678336,113.822925 42.9792256,116.282573 C37.7906176,118.743245 31.0834176,115.462349 27.9970816,108.954829 C24.9127936,102.448333 26.6177536,95.1779328 31.8063616,92.7182848 C36.9949696,90.2576128 43.7021696,93.5395328 46.7874816,100.046029 Z"/>
    <polygon fill="#FFF" points="66.35 129.874 66.35 99.998 82.198 107.521 82.198 139.684"/>
    <polygon stroke="#0E2D63" stroke-linejoin="round" stroke-width="5.12" points="66.35 129.874 66.35 99.998 82.198 107.521 82.198 139.684"/>
    <polygon fill="#FFF" points="81.584 139.588 81.584 107.078 99.174 98.356 99.174 131.504"/>
    <polygon stroke="#0E2D63" stroke-linejoin="round" stroke-width="5.12" points="81.584 139.588 81.584 107.078 99.174 98.356 99.174 131.504"/>
    <polygon fill="#FFF" points="83.659 199.68 82.712 138.38 103.266 128.188 103.115 188.416"/>
    <polygon stroke="#0E2D63" stroke-linejoin="round" stroke-width="5.12" points="83.659 199.68 82.712 138.38 103.266 128.188 103.115 188.416"/>
    <polygon fill="#FFF" points="66.491 191.132 66.491 129.094 82.762 137.54 83.66 199.68"/>
    <polygon stroke="#0E2D63" stroke-linejoin="round" stroke-width="5.12" points="66.491 191.132 66.491 129.094 82.762 137.54 83.66 199.68"/>
    <polygon fill="#FFF" points="81.627 56.631 66.35 99.998 81.584 106.759 99.174 98.356"/>
    <polygon stroke="#0E2D63" stroke-linejoin="round" stroke-width="5.12" points="81.627 56.631 66.35 99.998 81.584 106.759 99.174 98.356"/>
    <g transform="translate(81.072 56.631)">
      <line x1=".512" x2=".512" y1="51.152" fill="#FFF"/>
      <line x1=".512" x2=".512" y1="51.152" stroke="#0E2D63" stroke-linejoin="round" stroke-width="5.12"/>
    </g>
    <line x2="3.81" y1="91.067" y2="88.831" stroke="#0E2D63" stroke-linejoin="round" stroke-width="5.12"/>
    <line x1="103.266" x2="99.173" y1="128.188" y2="125.403" stroke="#0E2D63" stroke-linejoin="round" stroke-width="5.12"/>
  </g>
</svg>
