<svg xmlns="http://www.w3.org/2000/svg" viewBox="0 0 256 256">
  <g fill="none" fill-rule="evenodd" transform="translate(34.816 24.576)">
    <polygon fill="#FFF" points="185.6 133.17 161.063 146.592 161.063 79.633 185.6 65.833"/>
    <polygon stroke="#152E5F" stroke-linejoin="round" stroke-width="5.12" points="185.6 133.17 161.063 146.592 161.063 79.633 185.6 65.833"/>
    <polygon fill="#FFF" points="161.063 146.592 102.42 112.736 102.42 45.776 161.063 79.255"/>
    <polygon stroke="#152E5F" stroke-linejoin="round" stroke-width="5.12" points="161.063 146.592 102.42 112.736 102.42 45.776 161.063 79.255"/>
    <polygon fill="#FFF" points="185.6 133.17 58.643 206.246 58.643 139.287 185.6 65.833"/>
    <polygon stroke="#152E5F" stroke-linejoin="round" stroke-width="5.12" points="185.6 133.17 58.643 206.246 58.643 139.287 185.6 65.833"/>
    <polygon fill="#FFF" points="58.643 206.247 0 172.39 0 105.43 58.643 138.909"/>
    <polygon stroke="#152E5F" stroke-linejoin="round" stroke-width="5.12" points="58.643 206.247 0 172.39 0 105.43 58.643 138.909"/>
    <polygon fill="#FFF" points="83.18 192.824 105.722 205.839 186.885 158.978 163.71 145.574"/>
    <polygon stroke="#152E5F" stroke-linejoin="round" stroke-width="5.12" points="83.18 192.824 105.722 205.839 186.885 158.978 163.71 145.574"/>
    <path fill="#FFF" d="M131.959091,142.620467 C131.965235,142.534451 131.959091,119.004979 131.959091,118.917939 C131.959091,116.219699 128.879923,114.031411 125.081907,114.031411 C121.283891,114.031411 118.204723,116.219699 118.204723,118.917939 C118.204723,119.004979 118.199603,142.534451 118.205747,142.620467 L118.204723,181.097267 L118.206771,181.097267 C118.266163,183.759667 121.320755,185.905971 125.081907,185.905971 C128.879923,185.905971 131.959091,183.717683 131.959091,181.019443 C131.959091,180.964147 131.956019,180.911923 131.953971,180.857651 L131.959091,142.620467 Z"/>
    <path stroke="#152E5F" stroke-linejoin="round" stroke-width="5.12" d="M131.959091,142.620467 C131.965235,142.534451 131.959091,119.004979 131.959091,118.917939 C131.959091,116.219699 128.879923,114.031411 125.081907,114.031411 C121.283891,114.031411 118.204723,116.219699 118.204723,118.917939 C118.204723,119.004979 118.199603,142.534451 118.205747,142.620467 L118.204723,181.097267 L118.206771,181.097267 C118.266163,183.759667 121.320755,185.905971 125.081907,185.905971 C128.879923,185.905971 131.959091,183.717683 131.959091,181.019443 C131.959091,180.964147 131.956019,180.911923 131.953971,180.857651 L131.959091,142.620467 Z"/>
    <path fill="#FFF" d="M111.375565,154.075443 C111.381709,153.989427 111.375565,130.459955 111.375565,130.372915 C111.375565,127.674675 108.296397,125.486387 104.498381,125.486387 C100.700365,125.486387 97.6211968,127.674675 97.6211968,130.372915 C97.6211968,130.459955 97.6160768,153.989427 97.6222208,154.075443 L97.6211968,192.552243 L97.6232448,192.552243 C97.6826368,195.214643 100.736205,197.360947 104.498381,197.360947 C108.296397,197.360947 111.375565,195.172659 111.375565,192.474419 C111.375565,192.420147 111.372493,192.366899 111.370445,192.312627 L111.375565,154.075443 Z"/>
    <path stroke="#152E5F" stroke-linejoin="round" stroke-width="5.12" d="M111.375565,154.075443 C111.381709,153.989427 111.375565,130.459955 111.375565,130.372915 C111.375565,127.674675 108.296397,125.486387 104.498381,125.486387 C100.700365,125.486387 97.6211968,127.674675 97.6211968,130.372915 C97.6211968,130.459955 97.6160768,153.989427 97.6222208,154.075443 L97.6211968,192.552243 L97.6232448,192.552243 C97.6826368,195.214643 100.736205,197.360947 104.498381,197.360947 C108.296397,197.360947 111.375565,195.172659 111.375565,192.474419 C111.375565,192.420147 111.372493,192.366899 111.370445,192.312627 L111.375565,154.075443 Z"/>
    <path fill="#FFF" d="M172.605133,119.349453 C172.611277,119.264461 172.605133,95.7339648 172.605133,95.6479488 C172.605133,92.9497088 169.525965,90.7614208 165.727949,90.7614208 C161.928909,90.7614208 158.849741,92.9497088 158.849741,95.6479488 C158.849741,95.7339648 158.844621,119.264461 158.851789,119.349453 L158.849741,157.827277 L158.852813,157.827277 C158.911181,160.489677 161.965773,162.634957 165.727949,162.634957 C169.525965,162.634957 172.605133,160.447693 172.605133,157.749453 C172.605133,157.694157 172.602061,157.640909 172.598989,157.586637 L172.605133,119.349453 Z"/>
    <path stroke="#152E5F" stroke-linejoin="round" stroke-width="5.12" d="M172.605133,119.349453 C172.611277,119.264461 172.605133,95.7339648 172.605133,95.6479488 C172.605133,92.9497088 169.525965,90.7614208 165.727949,90.7614208 C161.928909,90.7614208 158.849741,92.9497088 158.849741,95.6479488 C158.849741,95.7339648 158.844621,119.264461 158.851789,119.349453 L158.849741,157.827277 L158.852813,157.827277 C158.911181,160.489677 161.965773,162.634957 165.727949,162.634957 C169.525965,162.634957 172.605133,160.447693 172.605133,157.749453 C172.605133,157.694157 172.602061,157.640909 172.598989,157.586637 L172.605133,119.349453 Z"/>
    <path fill="#FFF" d="M152.021094,130.804531 C152.027238,130.719539 152.021094,107.189043 152.021094,107.103027 C152.021094,104.404787 148.941926,102.216499 145.14391,102.216499 C141.345894,102.216499 138.266726,104.404787 138.266726,107.103027 C138.266726,107.189043 138.261606,130.719539 138.26775,130.804531 L138.266726,169.282355 L138.268774,169.282355 C138.328166,171.944755 141.381734,174.090035 145.14391,174.090035 C148.941926,174.090035 152.021094,171.902771 152.021094,169.204531 C152.021094,169.149235 152.018022,169.095987 152.015974,169.041715 L152.021094,130.804531 Z"/>
    <path stroke="#152E5F" stroke-linejoin="round" stroke-width="5.12" d="M152.021094,130.804531 C152.027238,130.719539 152.021094,107.189043 152.021094,107.103027 C152.021094,104.404787 148.941926,102.216499 145.14391,102.216499 C141.345894,102.216499 138.266726,104.404787 138.266726,107.103027 C138.266726,107.189043 138.261606,130.719539 138.26775,130.804531 L138.266726,169.282355 L138.268774,169.282355 C138.328166,171.944755 141.381734,174.090035 145.14391,174.090035 C148.941926,174.090035 152.021094,171.902771 152.021094,169.204531 C152.021094,169.149235 152.018022,169.095987 152.015974,169.041715 L152.021094,130.804531 Z"/>
    <polygon fill="#FFF" points="186.906 92.008 163.29 78.379 185.6 65.832 126.958 32.353 102.42 45.776 103.516 46.409 24.537 92.008 0 105.429 58.642 139.287 83.085 125.539 106.375 138.878"/>
    <polygon stroke="#152E5F" stroke-linejoin="round" stroke-width="5.12" points="186.906 92.008 163.29 78.379 185.6 65.832 126.958 32.353 102.42 45.776 103.516 46.409 24.537 92.008 0 105.429 58.642 139.287 83.085 125.539 106.375 138.878"/>
    <path fill="#FFF" d="M133.741158,71.70048 L133.741158,70.22592 C133.741158,54.944768 116.297318,42.55744 94.7820544,42.55744 C73.2657664,42.55744 55.8311424,54.944768 55.8311424,70.22592 L55.8311424,71.70048 L55.8311424,88.445952 C56.1659904,103.519232 73.4644224,115.670016 94.7359744,115.670016 C116.251238,115.670016 133.696102,103.284736 133.696102,88.00256 L133.696102,87.097344 L133.741158,71.70048 Z"/>
    <path stroke="#152E5F" stroke-linejoin="round" stroke-width="5.12" d="M133.741158,71.70048 L133.741158,70.22592 C133.741158,54.944768 116.297318,42.55744 94.7820544,42.55744 C73.2657664,42.55744 55.8311424,54.944768 55.8311424,70.22592 L55.8311424,71.70048 L55.8311424,88.445952 C56.1659904,103.519232 73.4644224,115.670016 94.7359744,115.670016 C116.251238,115.670016 133.696102,103.284736 133.696102,88.00256 L133.696102,87.097344 L133.741158,71.70048 Z"/>
    <path fill="#FFF" d="M133.69559,68.3585536 L133.709926,57.9915776 C131.164262,38.7444736 114.702438,23.8882816 94.7610624,23.8882816 C74.8749824,23.8882816 58.4489984,38.6594816 55.8306304,57.8256896 L55.8306304,68.5592576 C56.5023744,73.4724096 58.0772864,78.0957696 60.3894784,82.2552576 C66.9359104,90.9858816 79.8598144,96.9322496 94.7364864,96.9322496 C109.623398,96.9322496 122.556518,91.0002176 129.115238,82.2839296 C131.443814,78.1029376 133.026918,73.4529536 133.69559,68.5101056 L133.69559,68.3585536 Z"/>
    <path stroke="#152E5F" stroke-linejoin="round" stroke-width="5.12" d="M133.69559,68.3585536 L133.709926,57.9915776 C131.164262,38.7444736 114.702438,23.8882816 94.7610624,23.8882816 C74.8749824,23.8882816 58.4489984,38.6594816 55.8306304,57.8256896 L55.8306304,68.5592576 C56.5023744,73.4724096 58.0772864,78.0957696 60.3894784,82.2552576 C66.9359104,90.9858816 79.8598144,96.9322496 94.7364864,96.9322496 C109.623398,96.9322496 122.556518,91.0002176 129.115238,82.2839296 C131.443814,78.1029376 133.026918,73.4529536 133.69559,68.5101056 L133.69559,68.3585536 Z"/>
    <path fill="#FFF" d="M105.553101,32.7315456 L105.553101,32.3239936 C105.553101,28.0938496 100.724941,24.6654976 94.7693568,24.6654976 C88.8137728,24.6654976 83.9876608,28.0938496 83.9876608,32.3239936 L83.9876608,32.7315456 L83.9876608,37.3671936 C84.0808448,41.5399936 88.8690688,44.9028096 94.7570688,44.9028096 C100.711629,44.9028096 105.540813,41.4744576 105.540813,37.2443136 L105.540813,36.9934336 L105.553101,32.7315456 Z"/>
    <path stroke="#152E5F" stroke-linejoin="round" stroke-width="5.12" d="M105.553101,32.7315456 L105.553101,32.3239936 C105.553101,28.0938496 100.724941,24.6654976 94.7693568,24.6654976 C88.8137728,24.6654976 83.9876608,28.0938496 83.9876608,32.3239936 L83.9876608,32.7315456 L83.9876608,37.3671936 C84.0808448,41.5399936 88.8690688,44.9028096 94.7570688,44.9028096 C100.711629,44.9028096 105.540813,41.4744576 105.540813,37.2443136 L105.540813,36.9934336 L105.553101,32.7315456 Z"/>
    <path fill="#FFF" d="M105.540608,27.8545408 L105.544704,24.9852928 C104.840192,19.6574208 100.283392,15.5450368 94.764032,15.5450368 C89.259008,15.5450368 84.712448,19.6348928 83.987456,24.9392128 L83.987456,27.9108608 C84.173824,29.2707328 84.610048,30.5507328 85.250048,31.7017088 C87.061504,34.1183488 90.63936,35.7649408 94.756864,35.7649408 C98.87744,35.7649408 102.457344,34.1224448 104.272896,31.7099008 C104.918016,30.5527808 105.355264,29.2656128 105.540608,27.8965248 L105.540608,27.8545408 Z"/>
    <path stroke="#152E5F" stroke-linejoin="round" stroke-width="5.12" d="M105.540608,27.8545408 L105.544704,24.9852928 C104.840192,19.6574208 100.283392,15.5450368 94.764032,15.5450368 C89.259008,15.5450368 84.712448,19.6348928 83.987456,24.9392128 L83.987456,27.9108608 C84.173824,29.2707328 84.610048,30.5507328 85.250048,31.7017088 C87.061504,34.1183488 90.63936,35.7649408 94.756864,35.7649408 C98.87744,35.7649408 102.457344,34.1224448 104.272896,31.7099008 C104.918016,30.5527808 105.355264,29.2656128 105.540608,27.8965248 L105.540608,27.8545408 Z"/>
    <line x1="94.761" x2="94.761" y1="21.311" stroke="#152E5F" stroke-linecap="round" stroke-linejoin="round" stroke-width="5.12"/>
    <polygon fill="#FFF" points="186.906 92.007 105.201 139.189 144.312 82.968"/>
    <polygon stroke="#152E5F" stroke-linejoin="round" stroke-width="5.12" points="186.906 92.007 105.201 139.189 144.312 82.968"/>
    <polygon fill="#FFF" points="90.148 130.105 105.201 139.189 144.313 82.968 129.077 74.247"/>
    <polygon stroke="#152E5F" stroke-linejoin="round" stroke-width="5.12" points="90.148 130.105 105.201 139.189 144.313 82.968 129.077 74.247"/>
    <polygon fill="#FFF" points="169.699 82.072 186.905 92.006 144.312 82.967 129.077 74.247"/>
    <polygon stroke="#152E5F" stroke-linejoin="round" stroke-width="5.12" points="169.699 82.072 186.905 92.006 144.312 82.967 129.077 74.247"/>
  </g>
</svg>
