<svg xmlns="http://www.w3.org/2000/svg" viewBox="0 0 256 256">
  <g fill="none" fill-rule="evenodd" transform="translate(21.504 44.032)">
    <path fill="#FFF" d="M169.778483,48.0828416 L169.778483,46.4823296 C169.778483,29.7460736 141.875507,16.1924096 107.491635,16.1924096 C73.1077632,16.1924096 45.2047872,29.7460736 45.2047872,46.4823296 L45.2047872,48.0828416 L45.2047872,120.222618 C45.7147392,136.65065 73.3770752,150.038426 107.461939,150.038426 C141.545779,150.038426 169.748787,136.46633 169.748787,119.74953 L169.748787,118.743962 L169.778483,48.0828416 Z"/>
    <path stroke="#152E5F" stroke-linejoin="round" stroke-width="5.12" d="M169.778483,48.0828416 L169.778483,46.4823296 C169.778483,29.7460736 141.875507,16.1924096 107.491635,16.1924096 C73.1077632,16.1924096 45.2047872,29.7460736 45.2047872,46.4823296 L45.2047872,48.0828416 L45.2047872,120.222618 C45.7147392,136.65065 73.3770752,150.038426 107.461939,150.038426 C141.545779,150.038426 169.748787,136.46633 169.748787,119.74953 L169.748787,118.743962 L169.778483,48.0828416 Z"/>
    <polygon fill="#FFF" points="213.632 60.367 106.533 122.201 0 61.802 107.099 0"/>
    <polygon stroke="#152E5F" stroke-linejoin="round" stroke-width="5.12" points="213.632 60.367 106.533 122.201 0 61.802 107.099 0"/>
    <polyline stroke="#152E5F" stroke-linejoin="round" stroke-width="5.12" points="110.665 62.383 157.805 92.599 157.805 156.367"/>
    <path fill="#FFF" d="M110.896538,55.4058752 C115.156378,55.4058752 118.61033,57.8593792 118.61033,60.8863232 C118.61033,63.9122432 115.156378,66.3647232 110.896538,66.3647232 C106.635674,66.3647232 103.182746,63.9122432 103.182746,60.8863232 C103.182746,57.8593792 106.635674,55.4058752 110.896538,55.4058752"/>
    <path stroke="#152E5F" stroke-linejoin="round" stroke-width="5.12" d="M110.896538,55.4058752 C115.156378,55.4058752 118.61033,57.8593792 118.61033,60.8863232 C118.61033,63.9122432 115.156378,66.3647232 110.896538,66.3647232 C106.635674,66.3647232 103.182746,63.9122432 103.182746,60.8863232 C103.182746,57.8593792 106.635674,55.4058752 110.896538,55.4058752 Z"/>
    <polygon fill="#FFF" points="165.838 163.143 157.536 167.936 149.278 163.253 157.58 137.9"/>
    <polygon stroke="#152E5F" stroke-linejoin="round" stroke-width="5.12" points="165.838 163.143 157.536 167.936 149.278 163.253 157.58 137.9"/>
  </g>
</svg>
