<svg xmlns="http://www.w3.org/2000/svg" xmlns:xlink="http://www.w3.org/1999/xlink" viewBox="0 0 256 256">
  <defs>
    <polygon id="no-deductible-a" points="0 78.937 59.148 112.598 195.841 33.661 140.534 0"/>
    <polygon id="no-deductible-c" points="0 78.937 59.148 112.598 195.841 33.661 140.534 0"/>
    <polygon id="no-deductible-e" points="0 78.937 59.148 112.598 195.841 33.661 140.534 0"/>
    <polygon id="no-deductible-g" points="0 78.937 59.148 112.598 195.841 33.661 140.534 0"/>
  </defs>
  <g fill="none" fill-rule="evenodd" transform="translate(26.624 60.416)">
    <line x1="89.17" x2="117.508" y1="76.88" y2="95.199" stroke="#152E5F" stroke-linecap="round" stroke-linejoin="round" stroke-width="5.12"/>
    <polygon fill="#FFF" points="1.321 97.295 62.07 131.864 202.473 50.8 145.666 16.221"/>
    <polygon stroke="#152E5F" stroke-linejoin="round" stroke-width="5.12" points="1.321 97.295 62.07 131.864 202.473 50.8 145.666 16.221"/>
    <line x1="89.17" x2="117.508" y1="62.373" y2="80.692" stroke="#152E5F" stroke-linecap="round" stroke-linejoin="round" stroke-width="5.12"/>
    <polygon fill="#FFF" points="0 81.074 60.75 115.654 201.153 34.579 144.354 0"/>
    <polygon stroke="#152E5F" stroke-linejoin="round" stroke-width="5.12" points="0 81.074 60.75 115.654 201.153 34.579 144.354 0"/>
    <g transform="translate(73.834 36.543)">
      <path fill="#FFF" d="M0.00849499222,18.7353742 C0.397614992,7.81851025 14.055727,-0.556785754 30.514479,0.0289422455 C46.973231,0.615694246 60.000559,9.94126225 59.612463,20.8581262 C59.223343,31.7749902 45.565231,40.1502862 29.106479,39.5635342 C12.646703,38.9778062 -0.380625008,29.6522382 0.00849499222,18.7353742"/>
      <path stroke="#152E5F" stroke-linejoin="round" stroke-width="5.12" d="M0.00849499222,18.7353742 C0.397614992,7.81851025 14.055727,-0.556785754 30.514479,0.0289422455 C46.973231,0.615694246 60.000559,9.94126225 59.612463,20.8581262 C59.223343,31.7749902 45.565231,40.1502862 29.106479,39.5635342 C12.646703,38.9778062 -0.380625008,29.6522382 0.00849499222,18.7353742 Z"/>
      <line x1="16.101" x2="44.441" y1="9.478" y2="27.806" stroke="#152E5F" stroke-linecap="round" stroke-linejoin="round" stroke-width="5.12"/>
      <path stroke="#152E5F" stroke-linecap="round" stroke-linejoin="round" stroke-width="5.12" d="M26.9694934,9.89241745 C20.9340374,10.8273294 16.9445334,13.6658574 16.7571414,16.6508174 C16.6731734,17.9799694 17.3162454,19.8006414 18.7733974,20.6823054 C23.9568854,23.8218894 33.3223894,11.4007694 39.9435734,14.6335374 C41.5891414,15.4373774 42.8036054,17.0798734 42.9684694,18.6660494 C43.3483734,22.3278734 38.2406614,26.6911374 29.7824214,29.2480654"/>
    </g>
    <g transform="translate(1.945 .968)">
      <mask id="no-deductible-b" fill="#fff">
        <use xlink:href="#no-deductible-a"/>
      </mask>
      <path stroke="#152E5F" stroke-linejoin="round" stroke-width="5.12" d="M35.0275584,110.934835 C35.3460224,102.003507 46.5147904,95.1529472 59.9752704,95.6321792 C73.4347264,96.1114112 84.0884224,103.740211 83.7699584,112.670515 C83.4525184,121.600819 72.2827264,128.451379 58.8232704,127.973171 C45.3627904,127.492915 34.7090944,119.865139 35.0275584,110.934835 Z" mask="url(#no-deductible-b)"/>
      <mask id="no-deductible-d" fill="#fff">
        <use xlink:href="#no-deductible-c"/>
      </mask>
      <path stroke="#152E5F" stroke-linejoin="round" stroke-width="5.12" d="M-22.1739008,79.2648704 C-21.8554368,70.3335424 -10.6866688,63.4829824 2.7738112,63.9622144 C16.2332672,64.4414464 26.8869632,72.0702464 26.5684992,81.0005504 C26.2510592,89.9308544 15.0812672,96.7814144 1.6218112,96.3032064 C-11.8386688,95.8239744 -22.4923648,88.1951744 -22.1739008,79.2648704 Z" mask="url(#no-deductible-d)"/>
      <mask id="no-deductible-f" fill="#fff">
        <use xlink:href="#no-deductible-e"/>
      </mask>
      <path stroke="#152E5F" stroke-linejoin="round" stroke-width="5.12" d="M176.934605,35.3369088 C177.291981,26.3994368 188.500685,19.5929088 201.968333,20.1315328 C215.437005,20.6701568 226.065101,28.3511808 225.708749,37.2876288 C225.351373,46.2240768 214.142669,53.0306048 200.675021,52.4930048 C187.206349,51.9543808 176.577229,44.2733568 176.934605,35.3369088 Z" mask="url(#no-deductible-f)"/>
      <mask id="no-deductible-h" fill="#fff">
        <use xlink:href="#no-deductible-g"/>
      </mask>
      <path stroke="#152E5F" stroke-linejoin="round" stroke-width="5.12" d="M116.147098,-0.8751104 C116.465562,-9.8054144 127.63433,-16.6559744 141.093786,-16.1767424 C154.554266,-15.6985344 165.207962,-8.0687104 164.889498,0.8605696 C164.572058,9.7918976 153.402266,16.6424576 139.941786,16.1642496 C126.48233,15.6839936 115.828634,8.0562176 116.147098,-0.8751104 Z" mask="url(#no-deductible-h)"/>
    </g>
    <g transform="translate(99.89 48.383)">
      <path fill="#FFF" d="M67.0569963,80.8257003 C46.5923563,93.6871403 19.5761643,87.5216363 6.71574828,67.0580203 C-6.14569172,46.5923563 0.0187882806,19.5771883 20.4834283,6.71574828 C40.9480683,-6.14569172 67.9642603,0.0187882806 80.8257003,20.4834283 C93.6861163,40.9490923 87.5216363,67.9642603 67.0569963,80.8257003"/>
      <path stroke="#152E5F" stroke-linejoin="round" stroke-width="5.12" d="M67.0569963,80.8257003 C46.5923563,93.6871403 19.5761643,87.5216363 6.71574828,67.0580203 C-6.14569172,46.5923563 0.0187882806,19.5771883 20.4834283,6.71574828 C40.9480683,-6.14569172 67.9642603,0.0187882806 80.8257003,20.4834283 C93.6861163,40.9490923 87.5216363,67.9642603 67.0569963,80.8257003 Z"/>
      <path fill="#FFF" d="M74.3835115,33.7156587 L21.8195435,66.7488747 C32.4517355,75.2183787 47.6704235,76.5393387 59.8314475,68.8962027 C71.9934955,61.2551147 77.4032875,46.9692907 74.3835115,33.7156587"/>
      <path stroke="#152E5F" stroke-linejoin="round" stroke-width="5.12" d="M74.3835115,33.7156587 L21.8195435,66.7488747 C32.4517355,75.2183787 47.6704235,76.5393387 59.8314475,68.8962027 C71.9934955,61.2551147 77.4032875,46.9692907 74.3835115,33.7156587 Z"/>
      <path fill="#FFF" d="M65.7209835,20.7916523 C55.0887915,12.3221483 39.8711275,11.0011883 27.7101035,18.6433003 C15.5480555,26.2864363 10.1372395,40.5702123 13.1570155,53.8248683 L65.7209835,20.7916523 Z"/>
      <path stroke="#152E5F" stroke-linejoin="round" stroke-width="5.12" d="M65.7209835,20.7916523 C55.0887915,12.3221483 39.8711275,11.0011883 27.7101035,18.6433003 C15.5480555,26.2864363 10.1372395,40.5702123 13.1570155,53.8248683 L65.7209835,20.7916523 Z"/>
    </g>
  </g>
</svg>
