<svg xmlns="http://www.w3.org/2000/svg" viewBox="0 0 256 256">
  <g fill="none" fill-rule="evenodd" transform="translate(69.632 48.111)">
    <path fill="#FFF" d="M96.2892001 21.7530368C96.2892001 30.8021248 89.6413921 38.1370368 81.4412001 38.1370368 73.2410081 38.1370368 66.5932001 30.8021248 66.5932001 21.7530368 66.5932001 12.7039488 73.2410081 5.3690368 81.4412001 5.3690368 89.6413921 5.3690368 96.2892001 12.7039488 96.2892001 21.7530368M55.9232225 164.15703L101.829142 139.00759C116.437526 131.009126 121.797142 112.681574 113.797654 98.0742144 111.225366 93.3750784 107.44783 89.4459904 102.853142 86.6924544 90.0572385 79.0226944 74.1258465 78.8271104 61.1456225 86.1804544L14.2771425 112.804454C1.09826248 120.277606-3.52714552 137.020006 3.94703048 150.198886 6.28277448 154.317414 9.64354248 157.760102 13.7037025 160.19415L19.1616225 163.47095C30.4184545 170.231398 44.4216545 170.492518 55.9232225 164.15703"/>
    <path stroke="#152E5F" stroke-width="5.12" d="M55.9232225,164.15703 L101.829142,139.00759 C116.437526,131.009126 121.797142,112.681574 113.797654,98.0742144 C111.225366,93.3750784 107.44783,89.4459904 102.853142,86.6924544 C90.0572385,79.0226944 74.1258465,78.8271104 61.1456225,86.1804544 L14.2771425,112.804454 C1.09826248,120.277606 -3.52714552,137.020006 3.94703048,150.198886 C6.28277448,154.317414 9.64354248,157.760102 13.7037025,160.19415 L19.1616225,163.47095 C30.4184545,170.231398 44.4216545,170.492518 55.9232225,164.15703 Z"/>
    <g transform="translate(0 67.522)">
      <path fill="#FFF" d="M0.0436448751,71.024938 C-0.263555125,61.952298 0.821884875,46.448938 10.7956449,32.696618 C18.9876449,21.350698 29.8215649,16.722218 51.4586849,7.45501798 C70.9966049,-0.91106202 79.0145249,-0.39906202 83.7146849,0.44061798 C91.1110369,1.69296998 97.9749089,5.09776998 103.447165,10.230058 C111.403645,17.910058 114.066045,27.904298 115.264125,32.399658 C115.612285,33.700138 115.858045,34.795818 116.011645,35.574058"/>
      <path stroke="#152E5F" stroke-width="5.12" d="M0.0436448751,71.024938 C-0.263555125,61.952298 0.821884875,46.448938 10.7956449,32.696618 C18.9876449,21.350698 29.8215649,16.722218 51.4586849,7.45501798 C70.9966049,-0.91106202 79.0145249,-0.39906202 83.7146849,0.44061798 C91.1110369,1.69296998 97.9749089,5.09776998 103.447165,10.230058 C111.403645,17.910058 114.066045,27.904298 115.264125,32.399658 C115.612285,33.700138 115.858045,34.795818 116.011645,35.574058"/>
    </g>
    <path fill="#FFF" d="M51.3336545,55.9410176 C60.1605345,51.5398656 72.4485345,58.2665216 78.7799265,70.9651456 C85.1113185,83.6637696 83.0878945,97.5256576 74.2620385,101.925786 C65.4351585,106.326938 53.1471585,99.6013056 46.8157665,86.9016576 C40.4843745,74.2030336 42.5067745,60.3421696 51.3336545,55.9410176"/>
    <path stroke="#152E5F" stroke-width="5.12" d="M51.3336545,55.9410176 C60.1605345,51.5398656 72.4485345,58.2665216 78.7799265,70.9651456 C85.1113185,83.6637696 83.0878945,97.5256576 74.2620385,101.925786 C65.4351585,106.326938 53.1471585,99.6013056 46.8157665,86.9016576 C40.4843745,74.2030336 42.5067745,60.3421696 51.3336545,55.9410176 Z"/>
    <path fill="#FFF" d="M53.4246625,0 C77.8163425,0 97.5897825,19.77344 97.5897825,44.16512 C97.5897825,68.5568 77.8163425,88.33024 53.4246625,88.33024 C29.0329825,88.33024 9.25954248,68.5568 9.25954248,44.16512 C9.25954248,19.77344 29.0329825,0 53.4246625,0"/>
    <path stroke="#152E5F" stroke-width="5.12" d="M53.4246625,0 C77.8163425,0 97.5897825,19.77344 97.5897825,44.16512 C97.5897825,68.5568 77.8163425,88.33024 53.4246625,88.33024 C29.0329825,88.33024 9.25954248,68.5568 9.25954248,44.16512 C9.25954248,19.77344 29.0329825,0 53.4246625,0 Z"/>
    <path fill="#FFF" d="M59.4252001,77.5159808 C54.3348961,77.5159808 50.2092001,74.7849728 50.2092001,71.4170368 C50.2092001,68.0491008 54.3348961,65.3180928 59.4252001,65.3180928 C64.5155041,65.3180928 68.6412001,68.0491008 68.6412001,71.4170368 C68.6412001,74.7849728 64.5155041,77.5159808 59.4252001,77.5159808"/>
  </g>
</svg>
