<svg xmlns="http://www.w3.org/2000/svg" viewBox="0 0 256 256">
  <g fill="none" fill-rule="evenodd" transform="translate(26.624 48.128)">
    <path fill="#FFF" d="M127.232,67.4742272 L127.236096,67.4742272 L127.236096,51.1322112 L127.289344,47.7366272 C123.795456,58.6217472 113.160192,71.4043392 100.820992,77.7306112 C90.363904,83.0922752 77.529088,86.2584832 63.644672,86.2584832 C49.760256,86.2584832 36.92544,83.0922752 26.468352,77.7306112 C14.130176,71.4043392 3.508224,60.7270912 0.014336,49.8409472 L0,51.1322112 L0,67.4742272 L0.058368,67.4742272 C0.03072,68.0118272 0,68.5504512 0,69.0941952 C0,94.0654592 28.494848,114.308915 63.644672,114.308915 C98.794496,114.308915 127.289344,94.0654592 127.289344,69.0941952 C127.289344,68.5504512 127.2576,68.0118272 127.232,67.4742272"/>
    <path stroke="#152E5F" stroke-linecap="round" stroke-linejoin="round" stroke-width="5.12" d="M127.232,67.4742272 L127.236096,67.4742272 L127.236096,51.1322112 L127.289344,47.7366272 C123.795456,58.6217472 113.160192,71.4043392 100.820992,77.7306112 C90.363904,83.0922752 77.529088,86.2584832 63.644672,86.2584832 C49.760256,86.2584832 36.92544,83.0922752 26.468352,77.7306112 C14.130176,71.4043392 3.508224,60.7270912 0.014336,49.8409472 L0,51.1322112 L0,67.4742272 L0.058368,67.4742272 C0.03072,68.0118272 0,68.5504512 0,69.0941952 C0,94.0654592 28.494848,114.308915 63.644672,114.308915 C98.794496,114.308915 127.289344,94.0654592 127.289344,69.0941952 C127.289344,68.5504512 127.2576,68.0118272 127.232,67.4742272 Z"/>
    <path fill="#FFF" d="M127.172096,46.729216 C127.172096,72.537088 98.730496,93.458432 63.645184,93.458432 C28.559872,93.458432 0.118272,72.537088 0.118272,46.729216 C0.118272,20.921344 28.559872,0 63.645184,0 C98.730496,0 127.172096,20.921344 127.172096,46.729216"/>
    <path stroke="#152E5F" stroke-linecap="round" stroke-linejoin="round" stroke-width="5.12" d="M127.172096,46.729216 C127.172096,72.537088 98.730496,93.458432 63.645184,93.458432 C28.559872,93.458432 0.118272,72.537088 0.118272,46.729216 C0.118272,20.921344 28.559872,0 63.645184,0 C98.730496,0 127.172096,20.921344 127.172096,46.729216 Z"/>
    <polygon fill="#FFF" points="96.392 94.85 150.828 126.279 164.437 118.422 110.001 86.993"/>
    <polygon stroke="#152E5F" stroke-linecap="round" stroke-linejoin="round" stroke-width="5.12" points="96.392 94.85 150.828 126.279 164.437 118.422 110.001 86.993"/>
    <g transform="translate(.118 20.85)">
      <path fill="#FFF" d="M0,46.73024 C0,20.922368 28.4416,0 63.526912,0 C98.612224,0 127.053824,20.922368 127.053824,46.73024"/>
      <path stroke="#152E5F" stroke-linecap="round" stroke-linejoin="round" stroke-width="5.12" d="M0,46.73024 C0,20.922368 28.4416,0 63.526912,0 C98.612224,0 127.053824,20.922368 127.053824,46.73024"/>
    </g>
    <path fill="#FFF" d="M63.940096,84.1192448 C34.589184,84.1192448 10.79552,67.3788928 10.79552,46.7289088 C10.79552,26.0789248 34.589184,9.3395968 63.940096,9.3395968 C93.291008,9.3395968 117.084672,26.0789248 117.084672,46.7289088 C117.084672,67.3788928 93.291008,84.1192448 63.940096,84.1192448 M63.645184,0.0007168 C28.558848,0.0007168 0.118272,20.9210368 0.118272,46.7289088 C0.118272,72.5367808 28.558848,93.4591488 63.645184,93.4591488 C98.730496,93.4591488 127.172096,72.5367808 127.172096,46.7289088 C127.172096,20.9210368 98.730496,0.0007168 63.645184,0.0007168"/>
    <path stroke="#152E5F" stroke-linecap="round" stroke-linejoin="round" stroke-width="5.12" d="M63.940096,84.1192448 C34.589184,84.1192448 10.79552,67.3788928 10.79552,46.7289088 C10.79552,26.0789248 34.589184,9.3395968 63.940096,9.3395968 C93.291008,9.3395968 117.084672,26.0789248 117.084672,46.7289088 C117.084672,67.3788928 93.291008,84.1192448 63.940096,84.1192448 Z M63.645184,0.0007168 C28.558848,0.0007168 0.118272,20.9210368 0.118272,46.7289088 C0.118272,72.5367808 28.558848,93.4591488 63.645184,93.4591488 C98.730496,93.4591488 127.172096,72.5367808 127.172096,46.7289088 C127.172096,20.9210368 98.730496,0.0007168 63.645184,0.0007168 Z"/>
    <path fill="#FFF" d="M184.103014,157.636198 L125.889638,117.593702 C120.55255,113.922662 119.19063,106.552934 122.860646,101.21687 C126.531686,95.8808064 133.901414,94.5178624 139.237478,98.1878784 L197.450854,138.231398 C202.786918,141.902438 204.149862,149.271142 200.479846,154.607206 C196.808806,159.944294 189.440102,161.306214 184.103014,157.636198"/>
    <path stroke="#152E5F" stroke-linecap="round" stroke-linejoin="round" stroke-width="5.12" d="M184.103014,157.636198 L125.889638,117.593702 C120.55255,113.922662 119.19063,106.552934 122.860646,101.21687 C126.531686,95.8808064 133.901414,94.5178624 139.237478,98.1878784 L197.450854,138.231398 C202.786918,141.902438 204.149862,149.271142 200.479846,154.607206 C196.808806,159.944294 189.440102,161.306214 184.103014,157.636198 Z"/>
    <path fill="#FFF" d="M83.7240832,34.4361984 C81.7508352,32.8459264 78.8355072,33.1592704 77.2452352,35.1325184 L57.1860992,63.1880704 L48.3510272,53.2747264 C46.3777792,51.6854784 43.4624512,51.9967744 41.8721792,53.9700224 C40.2808832,55.9432704 40.5942272,58.8596224 42.5674752,60.4498944 L54.9896192,73.2550144 C56.9628672,74.8463104 59.8792192,74.5329664 61.4694912,72.5597184 L84.4204032,40.9160704 C86.0096512,38.9428224 85.6973312,36.0274944 83.7240832,34.4361984"/>
    <path stroke="#152E5F" stroke-linecap="round" stroke-linejoin="round" stroke-width="5.12" d="M83.7240832,34.4361984 C81.7508352,32.8459264 78.8355072,33.1592704 77.2452352,35.1325184 L57.1860992,63.1880704 L48.3510272,53.2747264 C46.3777792,51.6854784 43.4624512,51.9967744 41.8721792,53.9700224 C40.2808832,55.9432704 40.5942272,58.8596224 42.5674752,60.4498944 L54.9896192,73.2550144 C56.9628672,74.8463104 59.8792192,74.5329664 61.4694912,72.5597184 L84.4204032,40.9160704 C86.0096512,38.9428224 85.6973312,36.0274944 83.7240832,34.4361984 Z"/>
  </g>
</svg>
