<svg xmlns="http://www.w3.org/2000/svg" xmlns:xlink="http://www.w3.org/1999/xlink" viewBox="0 0 256 256">
  <defs>
    <polyline id="draft-a" points="0 8.849 7.753 22.846 41.967 13.474 32.657 0"/>
    <polygon id="draft-c" points="0 8.849 7.753 22.846 41.967 13.474 32.657 0"/>
    <polyline id="draft-e" points="0 8.85 7.753 22.847 41.967 13.475 32.657 0"/>
    <polygon id="draft-g" points="0 8.85 7.753 22.847 41.967 13.475 32.657 0"/>
  </defs>
  <g fill="none" fill-rule="evenodd" transform="translate(24.576 43.008)">
    <polygon fill="#FFF" points="207.36 121.559 121.886 170.907 0 100.177 85.474 50.853"/>
    <polygon stroke="#152E5F" stroke-linejoin="round" stroke-width="5.12" points="207.36 121.559 121.886 170.907 0 100.177 85.474 50.853"/>
    <polygon fill="#FFF" points="207.36 105.414 121.886 154.762 0 84.032 85.474 34.708"/>
    <polygon stroke="#152E5F" stroke-linejoin="round" stroke-width="5.12" points="207.36 105.414 121.886 154.762 0 84.032 85.474 34.708"/>
    <line x1="54.7" x2="90.582" y1="75.315" y2="54.923" stroke="#152E5F" stroke-linecap="round" stroke-linejoin="round" stroke-width="5.12"/>
    <line x1="49.197" x2="104.951" y1="95.095" y2="62.208" stroke="#152E5F" stroke-linecap="round" stroke-linejoin="round" stroke-width="5.12"/>
    <line x1="62.509" x2="117.078" y1="104.311" y2="72.304" stroke="#152E5F" stroke-linecap="round" stroke-linejoin="round" stroke-width="5.12"/>
    <line x1="75.821" x2="102.445" y1="112.503" y2="97.143" stroke="#152E5F" stroke-linecap="round" stroke-linejoin="round" stroke-width="5.12"/>
    <polygon fill="#FFF" points="50.285 83.474 41.602 88.488 32.338 83.571 41.021 78.56"/>
    <polygon stroke="#152E5F" stroke-linejoin="round" stroke-width="5.12" points="50.285 83.474 41.602 88.488 32.338 83.571 41.021 78.56"/>
    <g transform="translate(118.098)">
      <path fill="#FFF" d="M23.6996453,90.2491364 L41.5080293,112.613296 L42.0364133,85.2038884 C32.8705893,56.1601764 27.8110053,36.2095844 18.6451813,7.16587236 C18.6287973,7.16280036 18.5919333,7.15460836 18.5704293,7.14948836 C18.1352293,5.41380836 17.2136293,3.78052836 15.7953893,2.48107236 C11.9461733,-1.04353564 5.96806133,-0.781391644 2.44345333,3.06680036 C0.512189325,5.17521636 -0.241474675,7.91748836 0.0667493251,10.5491684 C0.0565093251,10.5501924 0.0391013251,10.5614564 0.0288613251,10.5594084 L0.103613325,10.8072164 C0.240829325,11.7595364 0.498877325,12.6913764 0.924861325,13.5699684 L23.6996453,90.2491364 Z"/>
      <path stroke="#152E5F" stroke-linejoin="round" stroke-width="5.12" d="M23.6996453,90.2491364 L41.5080293,112.613296 L42.0364133,85.2038884 C32.8705893,56.1601764 27.8110053,36.2095844 18.6451813,7.16587236 C18.6287973,7.16280036 18.5919333,7.15460836 18.5704293,7.14948836 C18.1352293,5.41380836 17.2136293,3.78052836 15.7953893,2.48107236 C11.9461733,-1.04353564 5.96806133,-0.781391644 2.44345333,3.06680036 C0.512189325,5.17521636 -0.241474675,7.91748836 0.0667493251,10.5491684 C0.0565093251,10.5501924 0.0391013251,10.5614564 0.0288613251,10.5594084 L0.103613325,10.8072164 C0.240829325,11.7595364 0.498877325,12.6913764 0.924861325,13.5699684 L23.6996453,90.2491364 Z"/>
    </g>
    <g transform="translate(127.039 69.299)">
      <mask id="draft-b" fill="#fff">
        <use xlink:href="#draft-a"/>
      </mask>
      <path fill="#FFF" d="M31.1256064,25.3111296 C27.6009984,29.1603456 21.6228864,29.4224896 17.7736704,25.8968576 C13.9244544,22.3722496 13.6623104,16.3941376 17.1879424,12.5449216 C20.7125504,8.6957056 26.6906624,8.4345856 30.5398784,11.9591936 C34.3890944,15.4838016 34.6512384,21.4619136 31.1256064,25.3111296" mask="url(#draft-b)"/>
      <mask id="draft-d" fill="#fff">
        <use xlink:href="#draft-c"/>
      </mask>
      <path stroke="#152E5F" stroke-linejoin="round" stroke-width="5.12" d="M31.1256064,25.3111296 C27.6009984,29.1603456 21.6228864,29.4224896 17.7736704,25.8968576 C13.9244544,22.3722496 13.6623104,16.3941376 17.1879424,12.5449216 C20.7125504,8.6957056 26.6906624,8.4345856 30.5398784,11.9591936 C34.3890944,15.4838016 34.6512384,21.4619136 31.1256064,25.3111296 Z" mask="url(#draft-d)"/>
    </g>
    <g transform="translate(106.939 2.66)">
      <mask id="draft-f" fill="#fff">
        <use xlink:href="#draft-e"/>
      </mask>
      <path fill="#FFF" d="M31.1251968,25.3119488 C27.6005888,29.1611648 21.6224768,29.4233088 17.7732608,25.8976768 C13.9240448,22.3730688 13.6619008,16.3949568 17.1865088,12.5457408 C20.7121408,8.6965248 26.6902528,8.4354048 30.5384448,11.9600128 C34.3876608,15.4846208 34.6498048,21.4627328 31.1251968,25.3119488" mask="url(#draft-f)"/>
      <mask id="draft-h" fill="#fff">
        <use xlink:href="#draft-g"/>
      </mask>
      <path stroke="#152E5F" stroke-linejoin="round" stroke-width="5.12" d="M31.1251968,25.3119488 C27.6005888,29.1611648 21.6224768,29.4233088 17.7732608,25.8976768 C13.9240448,22.3730688 13.6619008,16.3949568 17.1865088,12.5457408 C20.7121408,8.6965248 26.6902528,8.4354048 30.5384448,11.9600128 C34.3876608,15.4846208 34.6498048,21.4627328 31.1251968,25.3119488 Z" mask="url(#draft-h)"/>
    </g>
    <g transform="translate(147.355 94.824)">
      <line x2="11.828" y1="2.405" fill="#FFF"/>
      <line x2="11.828" y1="2.405" stroke="#152E5F" stroke-linejoin="round" stroke-width="5.12"/>
    </g>
  </g>
</svg>
