<svg xmlns="http://www.w3.org/2000/svg" viewBox="0 0 256 256">
  <g fill="none" fill-rule="evenodd" transform="translate(60.416 32.768)">
    <path fill="#FFF" d="M21.1338132,70.8862196 L22.1485972,124.898124 C22.3523732,135.745356 34.1314452,142.383948 43.5164052,136.940364 L122.736117,90.9893876 C131.217909,86.0690676 136.349173,76.9226996 136.126965,67.1189236 L134.920693,13.9272436 C134.675957,3.14554764 122.994165,-3.45720436 113.631733,1.89626764 L34.6731412,47.0372596 C26.1411732,51.9155956 20.9494932,61.0599156 21.1338132,70.8862196"/>
    <path stroke="#152E5F" stroke-linejoin="round" stroke-width="5.12" d="M21.1338132,70.8862196 L22.1485972,124.898124 C22.3523732,135.745356 34.1314452,142.383948 43.5164052,136.940364 L122.736117,90.9893876 C131.217909,86.0690676 136.349173,76.9226996 136.126965,67.1189236 L134.920693,13.9272436 C134.675957,3.14554764 122.994165,-3.45720436 113.631733,1.89626764 L34.6731412,47.0372596 C26.1411732,51.9155956 20.9494932,61.0599156 21.1338132,70.8862196 Z"/>
    <line x1="85.953" x2="135.692" y1="18.453" y2="47.946" stroke="#152E5F" stroke-linejoin="round" stroke-width="5.12"/>
    <line x1="61.392" x2="134.759" y1="33.2" y2="73.728" stroke="#152E5F" stroke-linejoin="round" stroke-width="5.12"/>
    <line x1="109.82" x2="135.058" y1="5.449" y2="20.021" stroke="#152E5F" stroke-linejoin="round" stroke-width="5.12"/>
    <line x1="37.524" x2="118.137" y1="46.389" y2="92.931" stroke="#152E5F" stroke-linejoin="round" stroke-width="5.12"/>
    <g transform="translate(102.744 86.017)">
      <polyline fill="#FFF" points="0 .495 23.913 27.582 22.799 0"/>
      <polyline stroke="#152E5F" stroke-linejoin="round" stroke-width="5.12" points="0 .495 23.913 27.582 22.799 0"/>
    </g>
    <line x1="22.666" x2="72.486" y1="65.371" y2="94.218" stroke="#152E5F" stroke-linejoin="round" stroke-width="5.12"/>
    <path fill="#FFF" d="M0.00480203188,105.491276 L1.01958603,159.50318 C1.22233803,170.350412 13.002434,176.98798 22.38637,171.54542 L101.606082,125.59342 C110.087874,120.6731 115.219138,111.527756 114.99693,101.72398 L113.790658,48.5322996 C113.545922,37.7506036 101.86413,31.1478516 92.501698,36.5013236 L13.543106,81.6423156 C5.01113803,86.5206516 -0.180541968,95.6639476 0.00480203188,105.491276"/>
    <path stroke="#152E5F" stroke-linejoin="round" stroke-width="5.12" d="M0.00480203188,105.491276 L1.01958603,159.50318 C1.22233803,170.350412 13.002434,176.98798 22.38637,171.54542 L101.606082,125.59342 C110.087874,120.6731 115.219138,111.527756 114.99693,101.72398 L113.790658,48.5322996 C113.545922,37.7506036 101.86413,31.1478516 92.501698,36.5013236 L13.543106,81.6423156 C5.01113803,86.5206516 -0.180541968,95.6639476 0.00480203188,105.491276 Z"/>
    <g transform="translate(30.87 152.26)">
      <polyline fill="#FFF" points="19.964 0 2.784 37.479 0 11.275"/>
      <polyline stroke="#152E5F" stroke-linejoin="round" stroke-width="5.12" points="19.964 0 2.784 37.479 0 11.275"/>
    </g>
    <path fill="#FFF" d="M44.162754,117.56526 C44.162754,121.26702 41.162434,124.26734 37.461698,124.26734 C33.759938,124.26734 30.759618,121.26702 30.759618,117.56526 C30.759618,113.864524 33.759938,110.86318 37.461698,110.86318 C41.162434,110.86318 44.162754,113.864524 44.162754,117.56526"/>
    <path stroke="#152E5F" stroke-linejoin="round" stroke-width="5.12" d="M44.162754,117.56526 C44.162754,121.26702 41.162434,124.26734 37.461698,124.26734 C33.759938,124.26734 30.759618,121.26702 30.759618,117.56526 C30.759618,113.864524 33.759938,110.86318 37.461698,110.86318 C41.162434,110.86318 44.162754,113.864524 44.162754,117.56526 Z"/>
    <path fill="#FFF" d="M68.0307604,104.162226 C68.0307604,107.862962 65.0304404,110.863282 61.3286804,110.863282 C57.6279444,110.863282 54.6276244,107.862962 54.6276244,104.162226 C54.6276244,100.460466 57.6279444,97.460146 61.3286804,97.460146 C65.0304404,97.460146 68.0307604,100.460466 68.0307604,104.162226"/>
    <path stroke="#152E5F" stroke-linejoin="round" stroke-width="5.12" d="M68.0307604,104.162226 C68.0307604,107.862962 65.0304404,110.863282 61.3286804,110.863282 C57.6279444,110.863282 54.6276244,107.862962 54.6276244,104.162226 C54.6276244,100.460466 57.6279444,97.460146 61.3286804,97.460146 C65.0304404,97.460146 68.0307604,100.460466 68.0307604,104.162226 Z"/>
    <path fill="#FFF" d="M91.8982548,90.5252084 C91.8982548,94.2259444 88.8979348,97.2272884 85.1971988,97.2272884 C81.4954388,97.2272884 78.4951188,94.2259444 78.4951188,90.5252084 C78.4951188,86.8244724 81.4954388,83.8231284 85.1971988,83.8231284 C88.8979348,83.8231284 91.8982548,86.8244724 91.8982548,90.5252084"/>
    <path stroke="#152E5F" stroke-linejoin="round" stroke-width="5.12" d="M91.8982548,90.5252084 C91.8982548,94.2259444 88.8979348,97.2272884 85.1971988,97.2272884 C81.4954388,97.2272884 78.4951188,94.2259444 78.4951188,90.5252084 C78.4951188,86.8244724 81.4954388,83.8231284 85.1971988,83.8231284 C88.8979348,83.8231284 91.8982548,86.8244724 91.8982548,90.5252084 Z"/>
    <polygon fill="#FFF" points="129.64 81.92 121.743 91.408 120.424 84.992"/>
    <polygon fill="#FFF" points="52.84 151.552 26.216 166.912 26.216 155.648 49.768 146.432"/>
  </g>
</svg>
