<svg xmlns="http://www.w3.org/2000/svg" viewBox="0 0 256 256">
  <g fill="none" fill-rule="evenodd" transform="translate(61.44 24.576)">
    <path fill="#FFF" d="M1.4412019,67.8322858 L0,199.441886 C-0.0210701011,200.851934 0.758193899,202.152414 2.0115699,202.797534 L8.1658099,205.967838 L131.745202,4.77743775 C132.237746,4.12924575 131.991986,3.19023775 131.243442,2.86767775 L125.899186,0.563677754 C123.98021,-0.263714246 121.790898,-0.176674246 119.94565,0.801245754 L5.3313779,61.4804138 C2.9731059,62.7296938 1.4821619,65.1637418 1.4412019,67.8322858"/>
    <path stroke="#152E5F" stroke-linejoin="round" stroke-width="4.096" d="M1.4412019,67.8322858 L0,199.441886 C-0.0210701011,200.851934 0.758193899,202.152414 2.0115699,202.797534 L8.1658099,205.967838 L131.745202,4.77743775 C132.237746,4.12924575 131.991986,3.19023775 131.243442,2.86767775 L125.899186,0.563677754 C123.98021,-0.263714246 121.790898,-0.176674246 119.94565,0.801245754 L5.3313779,61.4804138 C2.9731059,62.7296938 1.4821619,65.1637418 1.4412019,67.8322858 Z"/>
    <path fill="#FFF" d="M9.8312435,71.126289 L8.40673477,205.334801 C8.3945715,206.179601 9.2926195,206.726417 10.0360435,206.327057 L129.065803,142.549265 C130.643787,141.703441 131.636043,140.066065 131.656523,138.276113 L132.697997,5.10286495 C132.706123,4.37992095 131.939147,3.91195295 131.300171,4.24884895 L12.3400435,67.034385 C10.8194035,67.837201 9.8568435,69.405969 9.8312435,71.126289"/>
    <path stroke="#152E5F" stroke-linejoin="round" stroke-width="4.096" d="M9.8312435,71.126289 L8.40673477,205.334801 C8.3945715,206.179601 9.2926195,206.726417 10.0360435,206.327057 L129.065803,142.549265 C130.643787,141.703441 131.636043,140.066065 131.656523,138.276113 L132.697997,5.10286495 C132.706123,4.37992095 131.939147,3.91195295 131.300171,4.24884895 L12.3400435,67.034385 C10.8194035,67.837201 9.8568435,69.405969 9.8312435,71.126289 Z"/>
    <g transform="translate(1.507 63.505)">
      <line x2="8.366" y2="4.831" fill="#FFF"/>
      <line x2="8.366" y2="4.831" stroke="#152E5F" stroke-linejoin="round" stroke-width="4.096"/>
    </g>
    <g transform="translate(9.679 32.023)">
      <line x2="121.856" y1="63.488" fill="#FFF"/>
      <line x2="121.856" y1="63.488" stroke="#152E5F" stroke-linejoin="round" stroke-width="4.096"/>
    </g>
    <path stroke="#152E5F" stroke-linecap="round" stroke-linejoin="round" stroke-width="4.096" d="M22.9906675 49.943313C22.9906675 41.176849 30.0962035 34.071313 38.8626675 34.071313 47.6291315 34.071313 54.7346675 41.176849 54.7346675 49.943313 54.7346675 58.709777 47.6291315 65.815313 38.8626675 65.815313M82.3826675 20.247313C82.3826675 11.480849 89.4882035 4.37531295 98.2546675 4.37531295 107.021131 4.37531295 114.126667 11.480849 114.126667 20.247313 114.126667 29.013777 107.021131 36.119313 98.2546675 36.119313"/>
    <path fill="#FFF" d="M24.7571699,107.274308 L24.5636084,125.552708 C24.5615859,125.667396 24.6834419,125.742148 24.7848179,125.687876 L40.9967859,117.001284 C41.2118259,116.886596 41.3469939,116.663364 41.3490419,116.419652 L41.4913854,98.2815402 C41.4924019,98.1832362 41.3879539,98.1197482 41.3009139,98.1648042 L25.0991859,106.716228 C24.8913139,106.82682 24.7602419,107.039812 24.7571699,107.274308"/>
    <path stroke="#152E5F" stroke-linejoin="round" stroke-width="4.096" d="M24.7571699,107.274308 L24.5636084,125.552708 C24.5615859,125.667396 24.6834419,125.742148 24.7848179,125.687876 L40.9967859,117.001284 C41.2118259,116.886596 41.3469939,116.663364 41.3490419,116.419652 L41.4913854,98.2815402 C41.4924019,98.1832362 41.3879539,98.1197482 41.3009139,98.1648042 L25.0991859,106.716228 C24.8913139,106.82682 24.7602419,107.039812 24.7571699,107.274308 Z"/>
    <path fill="#FFF" d="M50.3571699,93.9623082 L50.1636084,112.240708 C50.1615859,112.355396 50.2834419,112.430148 50.3848179,112.375876 L66.5967859,103.689284 C66.8118259,103.574596 66.9469939,103.351364 66.9490419,103.107652 L67.0913854,84.9695402 C67.0924019,84.8712362 66.9879539,84.8077482 66.9009139,84.8528042 L50.6991859,93.4042282 C50.4913139,93.5148202 50.3602419,93.7278122 50.3571699,93.9623082"/>
    <path stroke="#152E5F" stroke-linejoin="round" stroke-width="4.096" d="M50.3571699,93.9623082 L50.1636084,112.240708 C50.1615859,112.355396 50.2834419,112.430148 50.3848179,112.375876 L66.5967859,103.689284 C66.8118259,103.574596 66.9469939,103.351364 66.9490419,103.107652 L67.0913854,84.9695402 C67.0924019,84.8712362 66.9879539,84.8077482 66.9009139,84.8528042 L50.6991859,93.4042282 C50.4913139,93.5148202 50.3602419,93.7278122 50.3571699,93.9623082 Z"/>
    <path fill="#FFF" d="M75.9571699,80.6503082 L75.7636084,98.9287082 C75.7615859,99.0433962 75.8834419,99.1181482 75.9848179,99.0638762 L92.1967859,90.3772842 C92.4118259,90.2625962 92.5469939,90.0393642 92.5490419,89.7956522 L92.6913854,71.6575402 C92.6924019,71.5592362 92.5879539,71.4957482 92.5009139,71.5408042 L76.2991859,80.0922282 C76.0913139,80.2028202 75.9602419,80.4158122 75.9571699,80.6503082"/>
    <path stroke="#152E5F" stroke-linejoin="round" stroke-width="4.096" d="M75.9571699,80.6503082 L75.7636084,98.9287082 C75.7615859,99.0433962 75.8834419,99.1181482 75.9848179,99.0638762 L92.1967859,90.3772842 C92.4118259,90.2625962 92.5469939,90.0393642 92.5490419,89.7956522 L92.6913854,71.6575402 C92.6924019,71.5592362 92.5879539,71.4957482 92.5009139,71.5408042 L76.2991859,80.0922282 C76.0913139,80.2028202 75.9602419,80.4158122 75.9571699,80.6503082 Z"/>
    <path fill="#FFF" d="M101.55717,66.3143082 L101.363608,84.5927082 C101.361586,84.7073962 101.483442,84.7821482 101.584818,84.7278762 L117.796786,76.0412842 C118.011826,75.9265962 118.146994,75.7033642 118.149042,75.4596522 L118.291385,57.3215402 C118.292402,57.2232362 118.187954,57.1597482 118.100914,57.2048042 L101.899186,65.7562282 C101.691314,65.8668202 101.560242,66.0798122 101.55717,66.3143082"/>
    <path stroke="#152E5F" stroke-linejoin="round" stroke-width="4.096" d="M101.55717,66.3143082 L101.363608,84.5927082 C101.361586,84.7073962 101.483442,84.7821482 101.584818,84.7278762 L117.796786,76.0412842 C118.011826,75.9265962 118.146994,75.7033642 118.149042,75.4596522 L118.291385,57.3215402 C118.292402,57.2232362 118.187954,57.1597482 118.100914,57.2048042 L101.899186,65.7562282 C101.691314,65.8668202 101.560242,66.0798122 101.55717,66.3143082 Z"/>
    <path fill="#FFF" d="M24.7571699,134.922308 L24.5636084,153.200708 C24.5615859,153.315396 24.6834419,153.390148 24.7848179,153.335876 L40.9967859,144.649284 C41.2118259,144.534596 41.3469939,144.311364 41.3490419,144.067652 L41.4913854,125.92954 C41.4924019,125.831236 41.3879539,125.767748 41.3009139,125.812804 L25.0991859,134.364228 C24.8913139,134.47482 24.7602419,134.687812 24.7571699,134.922308"/>
    <path stroke="#152E5F" stroke-linejoin="round" stroke-width="4.096" d="M24.7571699,134.922308 L24.5636084,153.200708 C24.5615859,153.315396 24.6834419,153.390148 24.7848179,153.335876 L40.9967859,144.649284 C41.2118259,144.534596 41.3469939,144.311364 41.3490419,144.067652 L41.4913854,125.92954 C41.4924019,125.831236 41.3879539,125.767748 41.3009139,125.812804 L25.0991859,134.364228 C24.8913139,134.47482 24.7602419,134.687812 24.7571699,134.922308 Z"/>
    <path fill="#FFF" d="M50.3571699,121.610308 L50.1636084,139.888708 C50.1615859,140.003396 50.2834419,140.078148 50.3848179,140.023876 L66.5967859,131.337284 C66.8118259,131.222596 66.9469939,130.999364 66.9490419,130.755652 L67.0913854,112.61754 C67.0924019,112.519236 66.9879539,112.455748 66.9009139,112.500804 L50.6991859,121.052228 C50.4913139,121.16282 50.3602419,121.375812 50.3571699,121.610308"/>
    <path stroke="#152E5F" stroke-linejoin="round" stroke-width="4.096" d="M50.3571699,121.610308 L50.1636084,139.888708 C50.1615859,140.003396 50.2834419,140.078148 50.3848179,140.023876 L66.5967859,131.337284 C66.8118259,131.222596 66.9469939,130.999364 66.9490419,130.755652 L67.0913854,112.61754 C67.0924019,112.519236 66.9879539,112.455748 66.9009139,112.500804 L50.6991859,121.052228 C50.4913139,121.16282 50.3602419,121.375812 50.3571699,121.610308 Z"/>
    <path fill="#FFF" d="M24.7571699,162.570308 L24.5636084,180.848708 C24.5615859,180.963396 24.6834419,181.038148 24.7848179,180.983876 L40.9967859,172.297284 C41.2118259,172.182596 41.3469939,171.959364 41.3490419,171.715652 L41.4913854,153.57754 C41.4924019,153.479236 41.3879539,153.415748 41.3009139,153.460804 L25.0991859,162.012228 C24.8913139,162.12282 24.7602419,162.335812 24.7571699,162.570308"/>
    <path stroke="#152E5F" stroke-linejoin="round" stroke-width="4.096" d="M24.7571699,162.570308 L24.5636084,180.848708 C24.5615859,180.963396 24.6834419,181.038148 24.7848179,180.983876 L40.9967859,172.297284 C41.2118259,172.182596 41.3469939,171.959364 41.3490419,171.715652 L41.4913854,153.57754 C41.4924019,153.479236 41.3879539,153.415748 41.3009139,153.460804 L25.0991859,162.012228 C24.8913139,162.12282 24.7602419,162.335812 24.7571699,162.570308 Z"/>
    <path fill="#FFF" d="M50.3571699,149.258308 L50.1636084,167.536708 C50.1615859,167.651396 50.2834419,167.726148 50.3848179,167.671876 L66.5967859,158.985284 C66.8118259,158.870596 66.9469939,158.647364 66.9490419,158.403652 L67.0913854,140.26554 C67.0924019,140.167236 66.9879539,140.103748 66.9009139,140.148804 L50.6991859,148.700228 C50.4913139,148.81082 50.3602419,149.023812 50.3571699,149.258308"/>
    <path stroke="#152E5F" stroke-linejoin="round" stroke-width="4.096" d="M50.3571699,149.258308 L50.1636084,167.536708 C50.1615859,167.651396 50.2834419,167.726148 50.3848179,167.671876 L66.5967859,158.985284 C66.8118259,158.870596 66.9469939,158.647364 66.9490419,158.403652 L67.0913854,140.26554 C67.0924019,140.167236 66.9879539,140.103748 66.9009139,140.148804 L50.6991859,148.700228 C50.4913139,148.81082 50.3602419,149.023812 50.3571699,149.258308 Z"/>
    <path fill="#FFF" d="M75.9571699,134.922308 L75.7636084,153.200708 C75.7615859,153.315396 75.8834419,153.390148 75.9848179,153.335876 L92.1967859,144.649284 C92.4118259,144.534596 92.5469939,144.311364 92.5490419,144.067652 L92.6913854,125.92954 C92.6924019,125.831236 92.5879539,125.767748 92.5009139,125.812804 L76.2991859,134.364228 C76.0913139,134.47482 75.9602419,134.687812 75.9571699,134.922308"/>
    <path stroke="#152E5F" stroke-linejoin="round" stroke-width="4.096" d="M75.9571699,134.922308 L75.7636084,153.200708 C75.7615859,153.315396 75.8834419,153.390148 75.9848179,153.335876 L92.1967859,144.649284 C92.4118259,144.534596 92.5469939,144.311364 92.5490419,144.067652 L92.6913854,125.92954 C92.6924019,125.831236 92.5879539,125.767748 92.5009139,125.812804 L76.2991859,134.364228 C76.0913139,134.47482 75.9602419,134.687812 75.9571699,134.922308 Z"/>
    <path fill="#FFF" d="M75.9571699,108.298308 L75.7636084,126.576708 C75.7615859,126.691396 75.8834419,126.766148 75.9848179,126.711876 L92.1967859,118.025284 C92.4118259,117.910596 92.5469939,117.687364 92.5490419,117.443652 L92.6913854,99.3055402 C92.6924019,99.2072362 92.5879539,99.1437482 92.5009139,99.1888042 L76.2991859,107.740228 C76.0913139,107.85082 75.9602419,108.063812 75.9571699,108.298308"/>
    <path stroke="#152E5F" stroke-linejoin="round" stroke-width="4.096" d="M75.9571699,108.298308 L75.7636084,126.576708 C75.7615859,126.691396 75.8834419,126.766148 75.9848179,126.711876 L92.1967859,118.025284 C92.4118259,117.910596 92.5469939,117.687364 92.5490419,117.443652 L92.6913854,99.3055402 C92.6924019,99.2072362 92.5879539,99.1437482 92.5009139,99.1888042 L76.2991859,107.740228 C76.0913139,107.85082 75.9602419,108.063812 75.9571699,108.298308 Z"/>
    <path fill="#FFF" d="M101.55717,93.9623082 L101.363608,112.240708 C101.361586,112.355396 101.483442,112.430148 101.584818,112.375876 L117.796786,103.689284 C118.011826,103.574596 118.146994,103.351364 118.149042,103.107652 L118.291385,84.9695402 C118.292402,84.8712362 118.187954,84.8077482 118.100914,84.8528042 L101.899186,93.4042282 C101.691314,93.5148202 101.560242,93.7278122 101.55717,93.9623082"/>
    <path stroke="#152E5F" stroke-linejoin="round" stroke-width="4.096" d="M101.55717,93.9623082 L101.363608,112.240708 C101.361586,112.355396 101.483442,112.430148 101.584818,112.375876 L117.796786,103.689284 C118.011826,103.574596 118.146994,103.351364 118.149042,103.107652 L118.291385,84.9695402 C118.292402,84.8712362 118.187954,84.8077482 118.100914,84.8528042 L101.899186,93.4042282 C101.691314,93.5148202 101.560242,93.7278122 101.55717,93.9623082 Z"/>
  </g>
</svg>
