<svg xmlns="http://www.w3.org/2000/svg" viewBox="0 0 256 256">
  <g fill="none" fill-rule="evenodd" transform="translate(25.6 62.464)">
    <polygon fill="#FFF" points="0 87.27 75.319 130.756 204.407 56.228 129.087 12.763"/>
    <polygon stroke="#152E5F" stroke-linecap="round" stroke-linejoin="round" stroke-width="5.12" points="0 87.27 75.319 130.756 204.407 56.228 129.087 12.763"/>
    <polygon fill="#FFF" points="0 75.144 75.319 118.63 204.407 45.163 127.246 .637"/>
    <polygon stroke="#152E5F" stroke-linecap="round" stroke-linejoin="round" stroke-width="5.12" points="0 75.144 75.319 118.63 204.407 45.163 127.246 .637"/>
    <path fill="#FFF" d="M127.587021,0 C152.693453,14.487552 179.280589,30.568448 204.387021,45.056 C197.853901,44.95872 188.695245,44.626944 179.608269,47.1808 C171.947725,49.335296 162.879181,51.884032 154.450637,59.677696 C147.324621,66.26816 143.623885,73.865216 141.661901,79.414272 C116.555469,64.918528 91.4480128,50.423808 66.3415808,35.929088 C71.1390208,27.766784 76.4146688,22.718464 80.0877568,19.743744 C89.8034688,11.877376 100.481741,8.66304 116.886221,3.726336 C121.623245,2.299904 125.009613,0.641024 127.587021,0"/>
    <path stroke="#152E5F" stroke-linecap="round" stroke-linejoin="round" stroke-width="5.12" d="M127.587021,0 C152.693453,14.487552 179.280589,30.568448 204.387021,45.056 C197.853901,44.95872 188.695245,44.626944 179.608269,47.1808 C171.947725,49.335296 162.879181,51.884032 154.450637,59.677696 C147.324621,66.26816 143.623885,73.865216 141.661901,79.414272 C116.555469,64.918528 91.4480128,50.423808 66.3415808,35.929088 C71.1390208,27.766784 76.4146688,22.718464 80.0877568,19.743744 C89.8034688,11.877376 100.481741,8.66304 116.886221,3.726336 C121.623245,2.299904 125.009613,0.641024 127.587021,0 Z"/>
    <path fill="#FFF" d="M66.9955072,36.4749824 C92.0988672,50.9686784 117.202227,65.4623744 142.305587,79.9550464 C131.922227,76.9926144 124.361011,78.1087744 119.797043,79.3805824 C109.328691,82.2989824 101.208371,90.7398144 85.3957632,107.502694 C81.1308032,112.02263 77.6963072,115.895398 75.3196032,118.629478 C50.2131712,104.133734 25.1067392,89.6390144 0.0003072,75.1442944 C2.9965312,72.3620864 7.7171712,68.0408064 13.6399872,62.8870144 C36.1311232,43.3163264 43.3032192,40.1562624 48.8676352,38.5106944 C52.6267392,37.3976064 58.7758592,36.0541184 66.9955072,36.4749824"/>
    <path stroke="#152E5F" stroke-linecap="round" stroke-linejoin="round" stroke-width="5.12" d="M66.9955072,36.4749824 C92.0988672,50.9686784 117.202227,65.4623744 142.305587,79.9550464 C131.922227,76.9926144 124.361011,78.1087744 119.797043,79.3805824 C109.328691,82.2989824 101.208371,90.7398144 85.3957632,107.502694 C81.1308032,112.02263 77.6963072,115.895398 75.3196032,118.629478 C50.2131712,104.133734 25.1067392,89.6390144 0.0003072,75.1442944 C2.9965312,72.3620864 7.7171712,68.0408064 13.6399872,62.8870144 C36.1311232,43.3163264 43.3032192,40.1562624 48.8676352,38.5106944 C52.6267392,37.3976064 58.7758592,36.0541184 66.9955072,36.4749824 Z"/>
    <polygon fill="#FFF" points="182.122 58.457 182.122 84.689 176.082 75.368 167.627 97.111 167.627 66.965"/>
    <polygon stroke="#152E5F" stroke-linecap="round" stroke-linejoin="round" stroke-width="5.12" points="182.122 58.457 182.122 84.689 176.082 75.368 167.627 97.111 167.627 66.965"/>
    <g transform="translate(96.312 14.903)">
      <path fill="#FFF" d="M0,21.492736 C3.910656,15.186944 8.242176,11.788288 11.242496,9.919488 C13.126656,8.74496 15.515648,7.532544 28.105728,3.637248 C33.144832,2.077696 37.359616,0.84992 40.339456,0"/>
      <path stroke="#152E5F" stroke-linecap="round" stroke-linejoin="round" stroke-width="5.12" d="M0,21.492736 C3.910656,15.186944 8.242176,11.788288 11.242496,9.919488 C13.126656,8.74496 15.515648,7.532544 28.105728,3.637248 C33.144832,2.077696 37.359616,0.84992 40.339456,0"/>
    </g>
    <g transform="translate(105.672 21.971)">
      <path fill="#FFF" d="M0,21.491712 C3.910656,15.186944 8.242176,11.788288 11.242496,9.919488 C13.126656,8.74496 15.515648,7.53152 28.104704,3.636224 C33.144832,2.077696 37.359616,0.84992 40.339456,0"/>
      <path stroke="#152E5F" stroke-linecap="round" stroke-linejoin="round" stroke-width="5.12" d="M0,21.491712 C3.910656,15.186944 8.242176,11.788288 11.242496,9.919488 C13.126656,8.74496 15.515648,7.53152 28.104704,3.636224 C33.144832,2.077696 37.359616,0.84992 40.339456,0"/>
    </g>
  </g>
</svg>
