<svg xmlns="http://www.w3.org/2000/svg" viewBox="0 0 256 256">
  <g fill="none" fill-rule="evenodd" transform="translate(32.768 46.08)">
    <path fill="#FFF" d="M170.502619,14.5880898 C166.079963,11.2344898 161.205723,8.81989781 156.078555,7.28184981 C156.072411,7.27570581 156.067291,7.27058581 156.061147,7.26444181 C141.767131,-6.54931819 101.635547,0.713913806 82.2962829,26.5873218 C63.6052109,51.5934018 66.8174989,90.6641218 87.2503949,105.92889 C88.1044109,106.567866 92.7615629,109.941946 99.4994829,111.829178 C122.329563,127.471802 155.871707,119.753914 175.455707,93.9306818 C195.554779,67.4295618 193.336795,31.9059778 170.502619,14.5880898"/>
    <g transform="translate(69.86)">
      <path fill="#FFF" d="M87.5004557,6.64809621 C64.7594637,-7.07350379 32.7000717,0.964896206 13.7355917,25.9720002 C-6.36348034,52.4731202 -4.14549634,87.9956802 18.6886797,105.314592"/>
      <path stroke="#152E5F" stroke-linejoin="round" stroke-width="5.12" d="M87.5004557,6.64809621 C64.7594637,-7.07350379 32.7000717,0.964896206 13.7355917,25.9720002 C-6.36348034,52.4731202 -4.14549634,87.9956802 18.6886797,105.314592"/>
    </g>
    <path fill="#FFF" d="M96.4276877,132.423149 C116.52676,105.922029 114.308776,70.399469 91.4745997,53.081581 C68.6393997,35.762669 33.8346637,43.208173 13.7355917,69.709293 C-6.36348034,96.210413 -4.14549634,131.732973 18.6886797,149.050861 C41.5238797,166.368749 76.3286157,158.925293 96.4276877,132.423149"/>
    <path stroke="#152E5F" stroke-linejoin="round" stroke-width="5.12" d="M96.4276877,132.423149 C116.52676,105.922029 114.308776,70.399469 91.4745997,53.081581 C68.6393997,35.762669 33.8346637,43.208173 13.7355917,69.709293 C-6.36348034,96.210413 -4.14549634,131.732973 18.6886797,149.050861 C41.5238797,166.368749 76.3286157,158.925293 96.4276877,132.423149 Z"/>
    <path fill="#FFF" d="M106.894606,137.053165 C126.993678,110.551021 124.775694,75.028461 101.941518,57.710573 C79.1063181,40.391661 44.3026061,47.837165 24.2035341,74.338285 C4.10446206,100.839405 6.32142206,136.361965 29.1566221,153.679853 C51.9907981,170.997741 86.7965581,163.554285 106.894606,137.053165"/>
    <path stroke="#152E5F" stroke-linejoin="round" stroke-width="5.12" d="M106.894606,137.053165 C126.993678,110.551021 124.775694,75.028461 101.941518,57.710573 C79.1063181,40.391661 44.3026061,47.837165 24.2035341,74.338285 C4.10446206,100.839405 6.32142206,136.361965 29.1566221,153.679853 C51.9907981,170.997741 86.7965581,163.554285 106.894606,137.053165 Z"/>
    <path stroke="#152E5F" stroke-linejoin="round" stroke-width="5.12" d="M176.753627,93.3151554 C196.852699,66.8140354 194.634715,31.2914754 171.800539,13.9735874 C148.965339,-3.34532459 114.160603,4.09915541 94.0625549,30.6012994 C73.9634829,57.1024194 76.1804429,92.6249794 99.0156429,109.942867 C121.849819,127.260755 156.654555,119.816275 176.753627,93.3151554 Z"/>
    <g transform="translate(83.898 49.462)">
      <path fill="#FFF" d="M32.874496,69.538816 C41.192448,46.671872 35.974144,21.84704 18.043904,8.24832 C12.59008,4.112384 6.455296,1.388544 0,0"/>
      <path stroke="#152E5F" stroke-linejoin="round" stroke-width="5.12" d="M32.874496,69.538816 C41.192448,46.671872 35.974144,21.84704 18.043904,8.24832 C12.59008,4.112384 6.455296,1.388544 0,0"/>
    </g>
    <g transform="translate(83.577 52.85)">
      <line x1="9.662" y2="36.172" fill="#FFF"/>
      <line x1="9.662" y2="36.172" stroke="#152E5F" stroke-linejoin="round" stroke-width="5.12"/>
    </g>
    <g transform="translate(90.486 58.734)">
      <line x1="11.565" y2="42.628" fill="#FFF"/>
      <line x1="11.565" y2="42.628" stroke="#152E5F" stroke-linejoin="round" stroke-width="5.12"/>
    </g>
    <g transform="translate(98 66.483)">
      <line x1="12.424" y2="43.547" fill="#FFF"/>
      <line x1="12.424" y2="43.547" stroke="#152E5F" stroke-linejoin="round" stroke-width="5.12"/>
    </g>
    <g transform="translate(107.463 78.131)">
      <line x1="9.765" y2="37.26" fill="#FFF"/>
      <line x1="9.765" y2="37.26" stroke="#152E5F" stroke-linejoin="round" stroke-width="5.12"/>
    </g>
  </g>
</svg>
