<svg xmlns="http://www.w3.org/2000/svg" viewBox="0 0 256 256">
  <g fill="none" fill-rule="evenodd" transform="translate(41.984 35.84)">
    <path fill="#FFF" d="M11.9062106,136.332363 L105.487523,92.1375471 C110.260387,89.3829871 116.143267,89.3973231 120.901795,92.1754351 L169.972899,110.752843 C172.784803,112.394315 172.778659,126.531659 169.962659,128.163915 L77.8169946,181.610571 C73.0635866,184.367179 67.1981146,184.373323 62.4385626,181.624907 L12.9885786,153.075787 C10.0814426,151.397451 8.99907463,138.010699 11.9062106,136.332363"/>
    <path stroke="#152E5F" stroke-linejoin="round" stroke-width="5.12" d="M11.9062106,136.332363 L105.487523,92.1375471 C110.260387,89.3829871 116.143267,89.3973231 120.901795,92.1754351 L169.972899,110.752843 C172.784803,112.394315 172.778659,126.531659 169.962659,128.163915 L77.8169946,181.610571 C73.0635866,184.367179 67.1981146,184.373323 62.4385626,181.624907 L12.9885786,153.075787 C10.0814426,151.397451 8.99907463,138.010699 11.9062106,136.332363 Z"/>
    <path fill="#FFF" d="M12.9892954,135.451314 L105.488239,82.0650735 C110.260079,79.3115375 116.142959,79.3258735 120.901487,82.1039855 L169.972591,110.752434 C172.784495,112.393906 172.778351,116.459186 169.962351,118.09349 L77.8177114,171.538098 C73.0632794,174.296754 67.1978074,174.301874 62.4392794,171.554482 L12.9892954,143.004338 C10.0821594,141.324978 10.0821594,137.12965 12.9892954,135.451314"/>
    <path stroke="#152E5F" stroke-linejoin="round" stroke-width="5.12" d="M12.9892954,135.451314 L105.488239,82.0650735 C110.260079,79.3115375 116.142959,79.3258735 120.901487,82.1039855 L169.972591,110.752434 C172.784495,112.393906 172.778351,116.459186 169.962351,118.09349 L77.8177114,171.538098 C73.0632794,174.296754 67.1978074,174.301874 62.4392794,171.554482 L12.9892954,143.004338 C10.0821594,141.324978 10.0821594,137.12965 12.9892954,135.451314 Z"/>
    <path fill="#FFF" d="M10.6537562,133.198309 L99.0433882,74.8845807 C103.80806,72.1156847 106.722364,67.0049007 106.68038,61.4947567 L112.541756,7.69174873 C112.785468,-1.45359527 103.711804,-0.598555273 100.893756,1.03165273 L7.66572423,54.3656687 C2.90822023,57.1171567 -0.0152997712,62.2013167 0,67.6971247 L0.158780229,126.739941 C0.167996229,130.096613 2.40236423,136.604133 10.6537562,133.198309"/>
    <path stroke="#152E5F" stroke-linejoin="round" stroke-width="5.12" d="M10.6537562,133.198309 L99.0433882,74.8845807 C103.80806,72.1156847 106.722364,67.0049007 106.68038,61.4947567 L112.541756,7.69174873 C112.785468,-1.45359527 103.711804,-0.598555273 100.893756,1.03165273 L7.66572423,54.3656687 C2.90822023,57.1171567 -0.0152997712,62.2013167 0,67.6971247 L0.158780229,126.739941 C0.167996229,130.096613 2.40236423,136.604133 10.6537562,133.198309 Z"/>
    <path fill="#FFF" d="M14.2632538,133.562341 L106.597334,79.8914287 C111.360982,77.1225327 114.275286,72.0127727 114.233749,66.5026287 L113.80015,9.68189273 C113.775574,6.42659673 110.24687,4.40829273 107.427798,6.03952473 L15.2186458,59.3735407 C10.4611418,62.1240047 7.53762183,67.2091887 7.5529216,72.7039727 L7.71170183,129.804261 C7.72091783,133.160933 11.3612378,135.248869 14.2632538,133.562341"/>
    <path stroke="#152E5F" stroke-linejoin="round" stroke-width="5.12" d="M14.2632538,133.562341 L106.597334,79.8914287 C111.360982,77.1225327 114.275286,72.0127727 114.233749,66.5026287 L113.80015,9.68189273 C113.775574,6.42659673 110.24687,4.40829273 107.427798,6.03952473 L15.2186458,59.3735407 C10.4611418,62.1240047 7.53762183,67.2091887 7.5529216,72.7039727 L7.71170183,129.804261 C7.72091783,133.160933 11.3612378,135.248869 14.2632538,133.562341 Z"/>
    <path fill="#FFF" d="M28.4912218,139.466315 L109.612502,91.7110511 C111.320534,90.7065071 113.43919,90.7085551 115.145174,91.7182191 L139.660758,106.234443 C139.748822,106.287691 139.747798,106.414667 139.659734,106.464843 L57.8769498,153.338443 C56.2068058,154.294859 54.1547098,154.298955 52.4814938,153.346635 L28.4922458,139.697739 C28.4041818,139.646539 28.4031578,139.518539 28.4912218,139.466315"/>
    <path stroke="#152E5F" stroke-linejoin="round" stroke-width="5.12" d="M28.4912218,139.466315 L109.612502,91.7110511 C111.320534,90.7065071 113.43919,90.7085551 115.145174,91.7182191 L139.660758,106.234443 C139.748822,106.287691 139.747798,106.414667 139.659734,106.464843 L57.8769498,153.338443 C56.2068058,154.294859 54.1547098,154.298955 52.4814938,153.346635 L28.4922458,139.697739 C28.4041818,139.646539 28.4031578,139.518539 28.4912218,139.466315 Z"/>
    <path fill="#FFF" d="M88.086793,144.408344 L127.250697,121.379608 C128.742665,120.50204 130.596105,120.518424 132.072713,121.421592 L132.963593,121.96636 C136.019209,123.834136 135.936265,128.300824 132.813065,130.052888 L92.758281,152.536856 C91.348233,153.329432 89.629961,153.338648 88.211721,152.561432 C85.019913,150.814488 84.950281,146.253592 88.086793,144.408344"/>
    <path stroke="#152E5F" stroke-linejoin="round" stroke-width="5.12" d="M88.086793,144.408344 L127.250697,121.379608 C128.742665,120.50204 130.596105,120.518424 132.072713,121.421592 L132.963593,121.96636 C136.019209,123.834136 135.936265,128.300824 132.813065,130.052888 L92.758281,152.536856 C91.348233,153.329432 89.629961,153.338648 88.211721,152.561432 C85.019913,150.814488 84.950281,146.253592 88.086793,144.408344 Z"/>
    <path fill="#FFF" d="M60.2492506,87.5753199 C54.8179546,97.9085039 43.9717466,102.897432 36.0234586,98.7195119 C28.0751706,94.5405679 26.0343386,82.7768559 31.4666586,72.4457199 C36.8979546,62.1125359 47.7441626,57.1236079 55.6924506,61.3015279 C63.6407386,65.4794479 65.6805466,77.2421359 60.2492506,87.5753199"/>
    <path stroke="#152E5F" stroke-linejoin="round" stroke-width="5.12" d="M60.2492506,87.5753199 C54.8179546,97.9085039 43.9717466,102.897432 36.0234586,98.7195119 C28.0751706,94.5405679 26.0343386,82.7768559 31.4666586,72.4457199 C36.8979546,62.1125359 47.7441626,57.1236079 55.6924506,61.3015279 C63.6407386,65.4794479 65.6805466,77.2421359 60.2492506,87.5753199 Z"/>
    <g transform="translate(34.54 77.325)">
      <polyline fill="#FFF" points="0 20.479 13.639 2.685 28.694 0"/>
      <polyline stroke="#152E5F" stroke-linejoin="round" stroke-width="5.12" points="0 20.479 13.639 2.685 28.694 0"/>
    </g>
    <g transform="translate(45.858 60.536)">
      <line x2="2.32" y2="19.474" fill="#FFF"/>
      <line x2="2.32" y2="19.474" stroke="#152E5F" stroke-linejoin="round" stroke-width="5.12"/>
    </g>
    <g transform="translate(71.303 48.385)">
      <line x2="19.833" y1="12.012" fill="#FFF"/>
      <line x2="19.833" y1="12.012" stroke="#152E5F" stroke-linecap="round" stroke-linejoin="round" stroke-width="5.12"/>
    </g>
    <g transform="translate(73.28 62.02)">
      <line x2="12.904" y1="7.791" fill="#FFF"/>
      <line x2="12.904" y1="7.791" stroke="#152E5F" stroke-linecap="round" stroke-linejoin="round" stroke-width="5.12"/>
    </g>
  </g>
</svg>
