<svg xmlns="http://www.w3.org/2000/svg" viewBox="0 0 256 256">
  <g fill="#FFF" fill-rule="evenodd" stroke="#152E5F" stroke-width="5.12" transform="translate(58.368 59.392)">
    <path d="M44.544,0 C55.9161979,0 66.2931767,4.26184828 74.1648599,11.2754682 C70.3268303,13.016675 66.3639073,15.1476837 62.3490967,17.6417782 C57.2462545,14.2591427 51.1253082,12.288 44.544,12.288 C26.729472,12.288 12.288,26.730496 12.288,44.544 C12.288,51.0115053 14.1914278,57.0344321 17.468653,62.0831499 C14.9321536,66.1011527 12.7785164,70.0641337 11.0372998,73.8957915 C4.16559818,66.057355 0,55.787049 0,44.544 C0,19.943424 19.943424,0 44.544,0 Z"/>
    <path d="M109.383578,10.5606144 C119.671214,21.0921882 111.882411,45.9308683 92.1005104,69.676813 L91.8629717,69.959563 L91.4444975,69.526813 L91.0522007,69.1092553 L90.6863273,68.7088419 L90.3471231,68.3275247 L90.0348342,67.9672554 L89.6174048,67.470586 L89.2619181,67.0322539 L88.809345,66.4492305 L88.4426752,65.9462144 C87.5159552,64.6395904 86.6813952,63.2705024 85.9441152,61.8502144 C84.6639416,59.4367679 83.8521782,57.3533171 83.2956165,55.5613864 L83.098452,54.9030023 C83.0674462,54.795524 83.0373332,54.6891658 83.0080609,54.5839181 L82.8420994,53.9656835 L82.6938167,53.3736518 L82.5607143,52.807372 L82.3300562,51.7502646 L82.0354578,50.3464707 L81.9409678,49.9252338 L81.8441684,49.5265926 C81.8277039,49.4620103 81.8110391,49.3983507 81.7941218,49.3356045 L81.6891735,48.9700114 C81.3808788,47.9647912 80.9695579,47.2180875 80.1994752,46.6837504 C77.8456405,45.0453504 73.7500046,46.3024765 69.5405788,48.7102983 L68.908515,49.0798837 C68.8030966,49.1428469 68.697658,49.2064748 68.5922246,49.2707401 L67.9598899,49.6637624 C67.854579,49.7304682 67.7493242,49.7977569 67.6441509,49.8656012 L67.0142926,50.2791162 L66.3876115,50.7046571 L65.7653286,51.1409153 L65.1486649,51.5865822 L64.5388414,52.0403492 L63.9370791,52.5009076 L63.344599,52.9669489 L62.7626222,53.4371643 L62.1923697,53.9102454 L61.6350623,54.3848834 L61.0919213,54.8597698 L60.5641675,55.3335958 L60.053022,55.805053 L59.5597058,56.2728326 L59.0822094,56.7387398 L58.6024187,57.220438 L58.1184459,57.719926 L57.631639,58.2360118 C57.5503433,58.323343 57.4689856,58.4113162 57.3875941,58.4999064 L56.8990637,59.0386539 L56.4110692,59.5910191 L55.9249586,60.1558102 C55.844172,60.2509113 55.7635202,60.3464805 55.683031,60.4424929 L55.2022739,61.0236877 C55.1225481,61.1213738 55.0430412,61.2194534 54.9637813,61.3179018 L54.4914106,61.9128183 L54.0263158,62.5153926 L53.569845,63.1244327 C53.4945601,63.226412 53.4196907,63.328611 53.3452648,63.4310049 L52.9042575,64.0475088 C52.6866399,64.3567315 52.4735201,64.6672613 52.2656563,64.9784279 L51.8571614,65.6014113 C48.9830582,70.0693618 47.2926208,74.5762816 49.0186752,77.1477504 C49.4560447,77.8038046 50.0369801,78.2148743 50.7861078,78.5266244 L51.1175318,78.6545755 C51.2314869,78.6954821 51.3489462,78.7347864 51.4699816,78.7729131 L51.8438879,78.8841852 L52.2396815,78.99094 L52.875353,79.1481761 L54.5620369,79.5461365 L55.0982009,79.6792968 L55.6592677,79.8257763 L56.245668,79.9881231 L56.8578327,80.1688852 L57.4961926,80.3706107 C59.2337953,80.9387616 61.2554079,81.7577017 63.5977905,83.0448668 L64.0407552,83.2917504 C65.2251819,83.9351637 66.3726308,84.6439993 67.4783611,85.4141089 L68.2225954,85.9467922 L68.5540524,86.2013388 L69.1047254,86.6463064 L69.6816093,87.1361471 L70.0098715,87.424842 L70.3619515,87.7423089 L70.7358029,88.0882398 L71.1293788,88.4623262 C71.1965048,88.5270031 71.2643674,88.5928403 71.3329239,88.6598314 L71.7522492,89.0755733 L72.1861825,89.5187002 C47.2681185,110.170194 20.9437257,118.207645 10.3207936,107.333734 C-1.6415744,95.0877184 10.8368896,63.4983424 38.1920256,36.7750144 C65.5471616,10.0516864 97.4212096,-1.6843776 109.383578,10.5606144 Z"/>
    <path d="M139.038515,105.831014 C139.038515,105.452134 138.946355,105.083494 138.895155,104.71383 C138.895155,104.602214 138.895155,104.48855 138.843955,104.376934 C138.843955,104.01751 138.731315,103.660134 138.659635,103.352934 C138.659635,103.21879 138.598195,103.076454 138.577715,102.943334 C138.506035,102.62487 138.434355,102.308454 138.352435,101.991014 C138.270515,101.67255 138.270515,101.653094 138.219315,101.479014 C138.168115,101.304934 138.075955,100.936294 137.994035,100.65879 C137.912115,100.383334 137.871155,100.250214 137.799475,100.045414 L137.574195,99.3593344 L137.307955,98.6517504 C137.236275,98.4684544 137.164595,98.2738944 137.082675,98.0885504 C137.000755,97.9052544 136.867635,97.5673344 136.754995,97.3113344 L136.539955,96.8300544 C136.417075,96.5627904 136.283955,96.2873344 136.140595,96.0210944 C135.997235,95.7548544 136.007475,95.7435904 135.935795,95.6012544 C135.864115,95.4578944 135.638835,95.0482944 135.485235,94.7820544 L135.270195,94.4031744 C135.106355,94.1256704 134.942515,93.8604544 134.768435,93.5942144 L134.543155,93.2245504 L134.010675,92.4565504 L133.744435,92.0776704 L133.211955,91.3721344 C133.109555,91.2390144 133.007155,91.0946304 132.894515,90.9615104 C132.781875,90.8294144 132.556595,90.5416704 132.372275,90.3378944 L131.993395,89.8873344 L131.491635,89.3435904 L131.030835,88.8633344 L130.559795,88.3922944 L130.027315,87.8802944 L129.586995,87.4809344 L128.972595,86.9484544 L128.573235,86.6197504 L127.876915,86.0678144 L127.508275,85.7913344 L126.750515,85.2475904 L126.381875,85.0130944 L125.593395,84.5010944 L125.214515,84.2758144 C124.948275,84.1119744 124.682035,83.9481344 124.405555,83.8037504 L123.995955,83.5794944 L123.186995,83.1698944 L122.715955,82.9435904 L121.947955,82.5964544 L121.384755,82.3496704 L120.688435,82.0742144 L120.002355,81.8284544 L119.398195,81.6226304 L118.558515,81.3471744 L118.056755,81.1925504 L117.104435,80.9580544 L116.705075,80.8658944 L115.681075,80.6498304 L115.343155,80.5894144 L114.237235,80.4347904 L113.909555,80.3835904 L112.834355,80.2822144 L112.527155,80.2822144 C97.5460352,79.2582144 88.4426752,65.9462144 88.4426752,65.9462144 C87.5159552,64.6395904 86.6813952,63.2705024 85.9441152,61.8502144 C81.2234752,52.9506304 82.8721152,48.5382144 80.1994752,46.6837504 C75.7860352,43.6117504 65.2490752,50.7193344 59.3201152,56.5049344 C53.3911552,62.2895104 46.0081152,72.6626304 49.0186752,77.1477504 C50.8618752,79.9125504 55.2548352,78.3263744 64.0407552,83.2917504 C65.4620672,84.0638464 66.8301312,84.9301504 68.1367552,85.8834944 C68.1367552,85.8834944 81.2337152,95.3042944 81.9300352,110.305894 L81.9300352,110.613094 C81.9300352,110.971494 81.9300352,111.329894 82.0017152,111.637094 L82.0017152,111.96375 C82.0017152,112.34263 82.0836352,112.712294 82.1348352,113.080934 C82.1348352,113.19255 82.1348352,113.306214 82.1860352,113.418854 L82.3703552,114.442854 L82.4625152,114.852454 C82.5239552,115.172966 82.5956352,115.490406 82.6775552,115.80375 L82.8106752,116.30551 C82.8823552,116.583014 82.9540352,116.859494 83.0359552,117.135974 C83.1178752,117.412454 83.1690752,117.54455 83.2305152,117.740134 L83.4660352,118.436454 C83.5479552,118.671974 83.6401152,118.907494 83.7220352,119.13175 C83.8039552,119.358054 83.8756352,119.521894 83.9473152,119.706214 C84.0189952,119.88951 84.1623552,120.228454 84.2749952,120.484454 L84.4900352,120.955494 L84.8893952,121.77367 C84.9610752,121.907814 85.0225152,122.051174 85.0941952,122.184294 C85.1658752,122.317414 85.3911552,122.737254 85.5549952,123.01271 C85.7188352,123.290214 85.6881152,123.26871 85.7700352,123.39159 C85.8519552,123.515494 86.0874752,123.935334 86.2615552,124.20055 L86.4970752,124.570214 C86.6609152,124.829286 86.8349952,125.085286 87.0193152,125.338214 L87.2855552,125.717094 L87.8180352,126.42263 L88.1354752,126.823014 L88.6577152,127.457894 C88.7805952,127.611494 88.9137152,127.754854 89.0365952,127.898214 L89.5485952,128.451174 C89.6919552,128.615014 89.8455552,128.778854 89.9991552,128.932454 C90.1527552,129.086054 90.3165952,129.249894 90.4701952,129.403494 L91.0129152,129.915494 L91.4429952,130.314854 L92.0676352,130.847334 L92.4567552,131.175014 L93.1530752,131.727974 L93.5319552,132.004454 C93.7777152,132.18775 94.0337152,132.362854 94.2897152,132.536934 L94.6481152,132.78167 C94.9041152,132.95575 95.1703552,133.130854 95.4468352,133.29367 L95.8154752,133.519974 C96.0817152,133.68279 96.3581952,133.837414 96.6346752,133.991014 L97.0340352,134.216294 L97.8429952,134.625894 L98.3140352,134.851174 L99.0820352,135.199334 L99.6452352,135.434854 L100.341555,135.711334 C100.566835,135.803494 100.802355,135.885414 101.027635,135.957094 L101.642035,136.172134 L102.450995,136.417894 L102.962995,136.561254 C103.270195,136.653414 103.587635,136.725094 103.905075,136.79575 L104.314675,136.899174 L105.338675,137.103974 L105.676595,137.165414 L106.782515,137.329254 L107.120435,137.329254 C107.468595,137.329254 107.826995,137.411174 108.144435,137.43063 L108.451635,137.43063 L108.564275,137.43063 L109.465395,137.43063 L110.100275,137.43063 L110.724915,137.43063 L111.636275,137.43063 L111.748915,137.43063 L112.045875,137.43063 L113.131315,137.34871 L113.448755,137.34871 C113.827635,137.34871 114.206515,137.26679 114.575155,137.206374 L114.902835,137.206374 L115.978035,137.022054 L116.377395,136.940134 L117.339955,136.725094 L117.841715,136.591974 L118.671155,136.356454 L119.275315,136.16087 L119.971635,135.93559 L120.667955,135.670374 L121.241395,135.445094 L122.009395,135.117414 L122.490675,134.902374 L123.299635,134.513254 L123.719475,134.298214 L124.538675,133.84663 L124.927795,133.63159 L125.736755,133.141094 L126.095155,132.90455 L126.863155,132.383334 L127.252275,132.10583 C127.487795,131.943014 127.723315,131.75767 127.948595,131.58359 L128.358195,131.267174 L128.993075,130.73367 L129.433395,130.35479 L129.986355,129.854054 L130.467635,129.393254 C130.621235,129.23863 130.785075,129.086054 130.938675,128.922214 L131.450675,128.38871 C131.583795,128.246374 131.716915,128.10199 131.839795,127.949414 L132.382515,127.335014 L132.710195,126.93463 C132.894515,126.710374 133.078835,126.47383 133.252915,126.239334 C133.426995,126.00279 133.437235,125.99255 133.529395,125.86967 C133.621555,125.74679 133.898035,125.36791 134.072115,125.11191 L134.317875,124.75351 C134.491955,124.488294 134.666035,124.222054 134.829875,123.95479 L135.055155,123.57591 C135.218995,123.30967 135.372595,123.044454 135.526195,122.767974 C135.679795,122.491494 135.669555,122.491494 135.751475,122.358374 L136.161075,121.55863 C136.232755,121.39479 136.314675,121.23095 136.386355,121.078374 C136.458035,120.92375 136.621875,120.57559 136.734515,120.31959 L136.970035,119.747174 L137.246515,119.04983 C137.338675,118.82455 137.410355,118.590054 137.492275,118.36375 C137.574195,118.139494 137.635635,117.965414 137.697075,117.75959 C137.758515,117.55479 137.871155,117.21687 137.953075,116.941414 C138.034995,116.664934 138.055475,116.61271 138.096435,116.43863 C138.137395,116.26455 138.260275,115.80375 138.331955,115.487334 C138.331955,115.354214 138.403635,115.221094 138.434355,115.087974 C138.506035,114.73879 138.577715,114.381414 138.639155,114.063974 L138.700595,113.736294 C138.762035,113.36663 138.813235,112.98775 138.864435,112.620134 L138.864435,112.292454 C138.864435,111.934054 138.936115,111.57463 138.966835,111.207014 L138.966835,110.920294 L138.966835,110.797414 L138.966835,109.896294 L138.966835,109.27063 L138.966835,108.62551 L138.966835,107.73463 L138.966835,107.61175 C138.961715,107.513446 138.961715,107.414118 138.966835,107.31479 C138.966835,106.957414 138.915635,106.599014 138.884915,106.29079 L139.038515,105.831014 Z"/>
  </g>
</svg>
