<svg xmlns="http://www.w3.org/2000/svg" viewBox="0 0 256 256">
  <g fill="none" fill-rule="evenodd" transform="translate(15.36 61.44)">
    <polygon fill="#FFF" points="87.213 112.457 88.329 132.722 168.969 48.949 162.846 27.701"/>
    <polygon stroke="#152E5F" stroke-linejoin="round" stroke-width="5.12" points="87.213 112.457 88.329 132.722 168.969 48.949 162.846 27.701"/>
    <polygon fill="#FFF" points="19.752 97.087 87.438 112.591 162.928 27.957 102.778 12.955"/>
    <polygon stroke="#152E5F" stroke-linejoin="round" stroke-width="5.12" points="19.752 97.087 87.438 112.591 162.928 27.957 102.778 12.955"/>
    <path fill="#FFF" d="M87.0084659,112.519265 L88.5956659,132.650081 L7.37198594,113.041505 C4.00814594,112.231521 1.33755394,109.678689 0.37806594,106.353761 C-1.09239806,101.245025 1.85672194,95.912033 6.96545794,94.441569 C8.56596994,93.980769 10.2586419,93.942881 11.8775859,94.332001 L87.0084659,112.519265 Z"/>
    <path stroke="#152E5F" stroke-linejoin="round" stroke-width="5.12" d="M87.0084659,112.519265 L88.5956659,132.650081 L7.37198594,113.041505 C4.00814594,112.231521 1.33755394,109.678689 0.37806594,106.353761 C-1.09239806,101.245025 1.85672194,95.912033 6.96545794,94.441569 C8.56596994,93.980769 10.2586419,93.942881 11.8775859,94.332001 L87.0084659,112.519265 Z"/>
    <polygon fill="#FFF" points="87.213 112.457 88.329 132.722 168.969 48.949 162.846 27.701"/>
    <polygon stroke="#152E5F" stroke-linejoin="round" stroke-width="5.12" points="87.213 112.457 88.329 132.722 168.969 48.949 162.846 27.701"/>
    <path fill="#FFF" d="M3.26543874,95.9602634 L23.2436787,99.0322634 L105.880479,13.5395274 L95.6404787,10.5381834 C91.0550067,9.18547935 86.0978227,10.4859594 82.7687987,13.9184074 L3.26543874,95.9602634 Z"/>
    <path stroke="#152E5F" stroke-linejoin="round" stroke-width="5.12" d="M3.26543874,95.9602634 L23.2436787,99.0322634 L105.880479,13.5395274 L95.6404787,10.5381834 C91.0550067,9.18547935 86.0978227,10.4859594 82.7687987,13.9184074 L3.26543874,95.9602634 Z"/>
    <path fill="#FFF" d="M87.0084659,112.519265 L88.5956659,132.650081 L7.37198594,113.041505 C4.00814594,112.231521 1.33755394,109.678689 0.37806594,106.353761 C-1.09239806,101.245025 1.85672194,95.912033 6.96545794,94.441569 C8.56596994,93.980769 10.2586419,93.942881 11.8775859,94.332001 L87.0084659,112.519265 Z"/>
    <path stroke="#152E5F" stroke-linejoin="round" stroke-width="5.12" d="M87.0084659,112.519265 L88.5956659,132.650081 L7.37198594,113.041505 C4.00814594,112.231521 1.33755394,109.678689 0.37806594,106.353761 C-1.09239806,101.245025 1.85672194,95.912033 6.96545794,94.441569 C8.56596994,93.980769 10.2586419,93.942881 11.8775859,94.332001 L87.0084659,112.519265 Z"/>
    <polygon fill="#FFF" points="124.282 95.059 124.046 117.413 224.716 59.219 224.716 37.101"/>
    <polygon stroke="#152E5F" stroke-linejoin="round" stroke-width="5.12" points="124.282 95.059 124.046 117.413 224.716 59.219 224.716 37.101"/>
    <polygon fill="#FFF" points="67.993 64.196 124.467 95.254 224.716 37.367 171.059 6.309"/>
    <polygon stroke="#152E5F" stroke-linejoin="round" stroke-width="5.12" points="67.993 64.196 124.467 95.254 224.716 37.367 171.059 6.309"/>
    <path fill="#FFF" d="M124.046444,95.0592458 L124.281964,117.413166 L51.6496435,76.0947658 C48.6452275,74.3857098 46.7887155,71.1959498 46.7856435,67.7389258 C46.8010035,62.4233418 51.1233075,58.1266378 56.4399155,58.1419567 C58.0793395,58.1460938 59.6911155,58.5700298 61.1216435,59.3728458 L124.046444,95.0592458 Z"/>
    <path stroke="#152E5F" stroke-linejoin="round" stroke-width="5.12" d="M124.046444,95.0592458 L124.281964,117.413166 L51.6496435,76.0947658 C48.6452275,74.3857098 46.7887155,71.1959498 46.7856435,67.7389258 C46.8010035,62.4233418 51.1233075,58.1266378 56.4399155,58.1419567 C58.0793395,58.1460938 59.6911155,58.5700298 61.1216435,59.3728458 L124.046444,95.0592458 Z"/>
    <polygon fill="#FFF" points="124.282 95.059 124.046 117.413 224.716 59.219 224.716 37.101"/>
    <polygon stroke="#152E5F" stroke-linejoin="round" stroke-width="5.12" points="124.282 95.059 124.046 117.413 224.716 59.219 224.716 37.101"/>
    <path fill="#FFF" d="M52.4689459,58.543201 L70.7985459,67.021921 L173.864146,7.72208095 L164.893906,2.01942495 C160.861394,-0.557983046 155.729106,-0.676767046 151.581906,1.71222495 L52.4689459,58.543201 Z"/>
    <path stroke="#152E5F" stroke-linejoin="round" stroke-width="5.12" d="M52.4689459,58.543201 L70.7985459,67.021921 L173.864146,7.72208095 L164.893906,2.01942495 C160.861394,-0.557983046 155.729106,-0.676767046 151.581906,1.71222495 L52.4689459,58.543201 Z"/>
    <path fill="#FFF" d="M124.046444,95.0592458 L124.281964,117.413166 L51.6496435,76.0947658 C48.6452275,74.3857098 46.7887155,71.1959498 46.7856435,67.7389258 C46.8010035,62.4233418 51.1233075,58.1266378 56.4399155,58.1419567 C58.0793395,58.1460938 59.6911155,58.5700298 61.1216435,59.3728458 L124.046444,95.0592458 Z"/>
    <path stroke="#152E5F" stroke-linejoin="round" stroke-width="5.12" d="M124.046444,95.0592458 L124.281964,117.413166 L51.6496435,76.0947658 C48.6452275,74.3857098 46.7887155,71.1959498 46.7856435,67.7389258 C46.8010035,62.4233418 51.1233075,58.1266378 56.4399155,58.1419567 C58.0793395,58.1460938 59.6911155,58.5700298 61.1216435,59.3728458 L124.046444,95.0592458 Z"/>
    <line x1="156.272" x2="178.37" y1="33.384" y2="46.461" stroke="#152E5F" stroke-linecap="round" stroke-linejoin="round" stroke-width="5.12"/>
    <line x1="164.741" x2="186.838" y1="27.731" y2="40.818" stroke="#152E5F" stroke-linecap="round" stroke-linejoin="round" stroke-width="5.12"/>
    <polygon fill="#FFF" points="173.209 80.59 173.209 112.334 166.154 103.61 156.272 125.769 156.272 90.533"/>
    <polygon stroke="#152E5F" stroke-linejoin="round" stroke-width="5.12" points="173.209 80.59 173.209 112.334 166.154 103.61 156.272 125.769 156.272 90.533"/>
  </g>
</svg>
