<svg xmlns="http://www.w3.org/2000/svg" viewBox="0 0 256 256">
  <g fill="none" fill-rule="evenodd" transform="translate(37.888 51.2)">
    <path fill="#FFF" d="M64.0698368,147.361823 C45.9798528,158.731295 22.1001728,153.281567 10.7307008,135.191583 C-0.6367232,117.101599 4.8119808,93.2208951 22.9019648,81.8524471 C40.9919488,70.4850231 64.8716288,75.9327031 76.2411008,94.0226871 C87.6085248,112.112671 82.1598208,135.993375 64.0698368,147.361823"/>
    <path stroke="#152E5F" stroke-linecap="round" stroke-linejoin="round" stroke-width="5.12" d="M64.0698368,147.361823 C45.9798528,158.731295 22.1001728,153.281567 10.7307008,135.191583 C-0.6367232,117.101599 4.8119808,93.2208951 22.9019648,81.8524471 C40.9919488,70.4850231 64.8716288,75.9327031 76.2411008,94.0226871 C87.6085248,112.112671 82.1598208,135.993375 64.0698368,147.361823 Z"/>
    <g transform="translate(31.579 102.273)">
      <line x2="24.54" y2="24.54" fill="#FFF"/>
      <line x2="24.54" y2="24.54" stroke="#152E5F" stroke-linecap="round" stroke-linejoin="round" stroke-width="5.12"/>
    </g>
    <g transform="translate(31.579 102.273)">
      <line x1="24.54" y2="24.54" fill="#FFF"/>
      <line x1="24.54" y2="24.54" stroke="#152E5F" stroke-linecap="round" stroke-linejoin="round" stroke-width="5.12"/>
    </g>
    <path fill="#FFF" d="M27.1268864,42.7769143 C18.9225984,29.7219383 22.8557824,12.4890423 35.9097344,4.28373034 C48.9647104,-3.92055766 66.1986304,0.0126263442 74.4029184,13.0665783 C82.6072064,26.1215543 78.6740224,43.3544503 65.6200704,51.5597623 C52.5650944,59.7640503 35.3321984,55.8308663 27.1268864,42.7769143"/>
    <path stroke="#152E5F" stroke-linecap="round" stroke-linejoin="round" stroke-width="5.12" d="M27.1268864,42.7769143 C18.9225984,29.7219383 22.8557824,12.4890423 35.9097344,4.28373034 C48.9647104,-3.92055766 66.1986304,0.0126263442 74.4029184,13.0665783 C82.6072064,26.1215543 78.6740224,43.3544503 65.6200704,51.5597623 C52.5650944,59.7640503 35.3321984,55.8308663 27.1268864,42.7769143 Z"/>
    <g transform="translate(43.583 20.956)">
      <line x1="14.457" y2="14.456" fill="#FFF"/>
      <line x1="14.457" y2="14.456" stroke="#152E5F" stroke-linecap="round" stroke-linejoin="round" stroke-width="5.12"/>
    </g>
    <g transform="translate(43.583 20.956)">
      <line x1="14.457" y1="14.456" fill="#FFF"/>
      <line x1="14.457" y1="14.456" stroke="#152E5F" stroke-linecap="round" stroke-linejoin="round" stroke-width="5.12"/>
    </g>
    <path fill="#FFF" d="M105.209856,50.5889079 C95.637504,44.8350519 83.214336,47.9306039 77.459456,57.5029559 C71.706624,67.0753079 74.802176,79.4984759 84.373504,85.2533559 C93.94688,91.0061879 106.371072,87.9106359 112.123904,78.3393079 C117.87776,68.7659319 114.782208,56.3427639 105.209856,50.5889079"/>
    <path stroke="#152E5F" stroke-linecap="round" stroke-linejoin="round" stroke-width="5.12" d="M105.209856,50.5889079 C95.637504,44.8350519 83.214336,47.9306039 77.459456,57.5029559 C71.706624,67.0753079 74.802176,79.4984759 84.373504,85.2533559 C93.94688,91.0061879 106.371072,87.9106359 112.123904,78.3393079 C117.87776,68.7659319 114.782208,56.3427639 105.209856,50.5889079 Z"/>
    <g transform="translate(89.724 62.478)">
      <line x2="10.518" y1="10.943" fill="#FFF"/>
      <line x2="10.518" y1="10.943" stroke="#152E5F" stroke-linecap="round" stroke-linejoin="round" stroke-width="5.12"/>
    </g>
    <g transform="translate(89.51 62.691)">
      <line x1="10.943" y1="10.518" fill="#FFF"/>
      <line x1="10.943" y1="10.518" stroke="#152E5F" stroke-linecap="round" stroke-linejoin="round" stroke-width="5.12"/>
    </g>
    <g transform="translate(8.536 34.284)">
      <polyline fill="#FFF" points="13.622 0 0 10.398 16.454 8.396"/>
      <polyline stroke="#152E5F" stroke-linecap="round" stroke-linejoin="round" stroke-width="5.12" points="13.622 0 0 10.398 16.454 8.396"/>
    </g>
    <polygon fill="#FFF" points="29.651 30.984 22.756 36.054 14.012 42.588 30.782 39.93"/>
    <path fill="#FFF" d="M180.178842,107.606866 C180.198298,105.43189 179.347354,102.942546 178.011034,99.1455543 C175.942554,93.2708663 167.23241,68.5279543 150.590362,68.1787703 C132.23209,67.7947703 122.581914,97.4805303 121.987994,99.3820983 C120.791962,103.210834 120.008602,105.811794 120.177562,108.144466 C119.958426,109.192018 119.84169,110.263122 119.84169,111.353682 C119.84169,123.282258 133.452698,132.950866 150.243226,132.950866 C167.03273,132.950866 180.643738,123.282258 180.643738,111.353682 C180.643738,110.074706 180.478874,108.824402 180.178842,107.606866"/>
    <path stroke="#152E5F" stroke-linecap="round" stroke-linejoin="round" stroke-width="5.12" d="M180.178842,107.606866 C180.198298,105.43189 179.347354,102.942546 178.011034,99.1455543 C175.942554,93.2708663 167.23241,68.5279543 150.590362,68.1787703 C132.23209,67.7947703 122.581914,97.4805303 121.987994,99.3820983 C120.791962,103.210834 120.008602,105.811794 120.177562,108.144466 C119.958426,109.192018 119.84169,110.263122 119.84169,111.353682 C119.84169,123.282258 133.452698,132.950866 150.243226,132.950866 C167.03273,132.950866 180.643738,123.282258 180.643738,111.353682 C180.643738,110.074706 180.478874,108.824402 180.178842,107.606866 Z"/>
    <path fill="#FFF" d="M167.67785,62.2008631 C167.67785,72.4633911 159.35785,80.7833911 149.095322,80.7833911 C138.830746,80.7833911 130.510746,72.4633911 130.510746,62.2008631 C130.510746,51.9373111 138.830746,43.6173111 149.095322,43.6173111 C159.35785,43.6173111 167.67785,51.9373111 167.67785,62.2008631"/>
    <path stroke="#152E5F" stroke-linecap="round" stroke-linejoin="round" stroke-width="5.12" d="M167.67785,62.2008631 C167.67785,72.4633911 159.35785,80.7833911 149.095322,80.7833911 C138.830746,80.7833911 130.510746,72.4633911 130.510746,62.2008631 C130.510746,51.9373111 138.830746,43.6173111 149.095322,43.6173111 C159.35785,43.6173111 167.67785,51.9373111 167.67785,62.2008631 Z"/>
    <g transform="translate(58.335 61.463)">
      <polyline fill="#FFF" points="16.551 0 0 4.443 15.98 8.842"/>
      <polyline stroke="#152E5F" stroke-linecap="round" stroke-linejoin="round" stroke-width="5.12" points="16.551 0 0 4.443 15.98 8.842"/>
    </g>
    <polygon fill="#FFF" points="84.209 61.087 75.905 63.157 65.333 65.88 81.858 69.793"/>
    <g transform="translate(0 78.558)">
      <polyline fill="#FFF" points="15.823 6.582 0 0 9.974 13.237"/>
      <polyline stroke="#152E5F" stroke-linecap="round" stroke-linejoin="round" stroke-width="5.12" points="15.823 6.582 0 0 9.974 13.237"/>
    </g>
    <polygon fill="#FFF" points="22.296 90.208 14.454 86.779 4.419 82.484 15.12 95.669"/>
  </g>
</svg>
