<svg xmlns="http://www.w3.org/2000/svg" viewBox="0 0 256 256">
  <g fill="none" fill-rule="evenodd" transform="translate(51.2 16.384)">
    <path fill="#FFF" d="M129.69687,18.495488 L129.69687,17.56672 C129.69687,7.860224 113.513574,0 93.5711744,0 C73.6287744,0 57.4454784,7.860224 57.4454784,17.56672 L57.4454784,18.495488 L57.4454784,60.335104 C57.7414144,69.863424 73.7854464,77.628416 93.5537664,77.628416 C113.322086,77.628416 129.679462,69.756928 129.679462,60.061696 L129.679462,59.476992 L129.69687,18.495488 Z"/>
    <path stroke="#152E5F" stroke-linejoin="round" stroke-width="5.12" d="M129.69687,18.495488 L129.69687,17.56672 C129.69687,7.860224 113.513574,0 93.5711744,0 C73.6287744,0 57.4454784,7.860224 57.4454784,17.56672 L57.4454784,18.495488 L57.4454784,60.335104 C57.7414144,69.863424 73.7854464,77.628416 93.5537664,77.628416 C113.322086,77.628416 129.679462,69.756928 129.679462,60.061696 L129.679462,59.476992 L129.69687,18.495488 Z"/>
    <path fill="#FFF" d="M129.66185,45.7454592 L129.66185,45.7454592 L129.66185,21.7940992 L129.66185,20.4721152 C126.875546,25.4733312 121.534362,29.6113152 114.626458,32.1201152 C101.306266,36.5509632 85.7496576,36.5509632 72.4284416,32.1201152 C65.4683136,29.6676352 59.3949696,25.5224832 57.4104576,21.2943872 L57.4104576,45.7454592 L57.4104576,46.3762432 C57.4104576,56.0837632 73.5763456,63.9439872 93.5371776,63.9439872 C113.495962,63.9439872 129.66185,56.0837632 129.66185,46.3762432 C129.696666,46.1622272 129.680282,45.9604992 129.66185,45.7454592"/>
    <path stroke="#152E5F" stroke-linejoin="round" stroke-width="5.12" d="M129.66185,45.7454592 L129.66185,45.7454592 L129.66185,21.7940992 L129.66185,20.4721152 C126.875546,25.4733312 121.534362,29.6113152 114.626458,32.1201152 C101.306266,36.5509632 85.7496576,36.5509632 72.4284416,32.1201152 C65.4683136,29.6676352 59.3949696,25.5224832 57.4104576,21.2943872 L57.4104576,45.7454592 L57.4104576,46.3762432 C57.4104576,56.0837632 73.5763456,63.9439872 93.5371776,63.9439872 C113.495962,63.9439872 129.66185,56.0837632 129.66185,46.3762432 C129.696666,46.1622272 129.680282,45.9604992 129.66185,45.7454592 Z"/>
    <path fill="#FFF" d="M129.66185,30.846464 L129.66185,30.846464 L129.66185,21.139968 L129.66185,19.81696 C126.870426,24.8192 121.53129,28.960256 114.626458,31.477248 C101.301146,35.892736 85.7547776,35.892736 72.4284416,31.477248 C65.4683136,29.01248 59.3949696,24.867328 57.4104576,20.639232 L57.4104576,30.846464 L57.4104576,31.477248 C57.4104576,41.17248 73.5763456,49.043968 93.5371776,49.043968 C113.495962,49.043968 129.66185,41.17248 129.66185,31.477248 C129.696666,31.263232 129.680282,31.036928 129.66185,30.846464"/>
    <path stroke="#152E5F" stroke-linejoin="round" stroke-width="5.12" d="M129.66185,30.846464 L129.66185,30.846464 L129.66185,21.139968 L129.66185,19.81696 C126.870426,24.8192 121.53129,28.960256 114.626458,31.477248 C101.301146,35.892736 85.7547776,35.892736 72.4284416,31.477248 C65.4683136,29.01248 59.3949696,24.867328 57.4104576,20.639232 L57.4104576,30.846464 L57.4104576,31.477248 C57.4104576,41.17248 73.5763456,49.043968 93.5371776,49.043968 C113.495962,49.043968 129.66185,41.17248 129.66185,31.477248 C129.696666,31.263232 129.680282,31.036928 129.66185,30.846464 Z"/>
    <polyline stroke="#152E5F" stroke-linejoin="round" stroke-width="5.12" points="29.092 182.186 0 182.186 0 59.391 66.34 59.231"/>
    <path fill="#FFF" d="M77.605376,60.6434304 C77.605376,59.9133184 77.566464,59.1913984 77.49376,58.4807424 L80.963072,55.3483264 C80.34048,52.5435904 79.236608,49.9221504 77.73952,47.5730944 L73.160192,47.8075904 C72.231424,46.6269184 71.181824,45.5465984 70.022656,44.5922304 L70.253056,40.0876544 C67.904,38.5905664 65.28256,37.4856704 62.477824,36.8630784 L59.59936,40.0528384 C58.690048,39.9309824 57.765376,39.8623744 56.82432,39.8623744 C56.104448,39.8623744 55.393792,39.8992384 54.692352,39.9709184 L51.886592,36.8630784 C49.08288,37.4856704 46.460416,38.5905664 44.112384,40.0876544 L44.314112,44.0515584 C42.893824,45.1236864 41.618944,46.3760384 40.516096,47.7717504 L36.624896,47.5730944 C35.128832,49.9221504 34.023936,52.5435904 33.402368,55.3483264 L36.228608,57.9001344 C36.109824,58.7981824 36.043264,59.7136384 36.043264,60.6434304 C36.043264,61.5742464 36.109824,62.4897024 36.228608,63.3877504 L33.402368,65.9395584 C34.023936,68.7442944 35.128832,71.3657344 36.624896,73.7147904 L40.516096,73.5151104 C41.618944,74.9118464 42.893824,76.1641984 44.314112,77.2363264 L44.112384,81.2002304 C46.460416,82.6973184 49.08288,83.8022144 51.886592,84.4248064 L54.692352,81.3169664 C55.393792,81.3886464 56.104448,81.4255104 56.82432,81.4255104 C57.765376,81.4255104 58.690048,81.3569024 59.59936,81.2350464 L62.477824,84.4248064 C65.28256,83.8022144 67.904,82.6973184 70.253056,81.2002304 L70.022656,76.6956544 C71.181824,75.7412864 72.231424,74.6609664 73.160192,73.4802944 L77.73952,73.7147904 C79.236608,71.3657344 80.34048,68.7442944 80.963072,65.9395584 L77.49376,62.8071424 C77.566464,62.0954624 77.605376,61.3745664 77.605376,60.6434304"/>
    <path stroke="#152E5F" stroke-linejoin="round" stroke-width="5.12" d="M77.605376,60.6434304 C77.605376,59.9133184 77.566464,59.1913984 77.49376,58.4807424 L80.963072,55.3483264 C80.34048,52.5435904 79.236608,49.9221504 77.73952,47.5730944 L73.160192,47.8075904 C72.231424,46.6269184 71.181824,45.5465984 70.022656,44.5922304 L70.253056,40.0876544 C67.904,38.5905664 65.28256,37.4856704 62.477824,36.8630784 L59.59936,40.0528384 C58.690048,39.9309824 57.765376,39.8623744 56.82432,39.8623744 C56.104448,39.8623744 55.393792,39.8992384 54.692352,39.9709184 L51.886592,36.8630784 C49.08288,37.4856704 46.460416,38.5905664 44.112384,40.0876544 L44.314112,44.0515584 C42.893824,45.1236864 41.618944,46.3760384 40.516096,47.7717504 L36.624896,47.5730944 C35.128832,49.9221504 34.023936,52.5435904 33.402368,55.3483264 L36.228608,57.9001344 C36.109824,58.7981824 36.043264,59.7136384 36.043264,60.6434304 C36.043264,61.5742464 36.109824,62.4897024 36.228608,63.3877504 L33.402368,65.9395584 C34.023936,68.7442944 35.128832,71.3657344 36.624896,73.7147904 L40.516096,73.5151104 C41.618944,74.9118464 42.893824,76.1641984 44.314112,77.2363264 L44.112384,81.2002304 C46.460416,82.6973184 49.08288,83.8022144 51.886592,84.4248064 L54.692352,81.3169664 C55.393792,81.3886464 56.104448,81.4255104 56.82432,81.4255104 C57.765376,81.4255104 58.690048,81.3569024 59.59936,81.2350464 L62.477824,84.4248064 C65.28256,83.8022144 67.904,82.6973184 70.253056,81.2002304 L70.022656,76.6956544 C71.181824,75.7412864 72.231424,74.6609664 73.160192,73.4802944 L77.73952,73.7147904 C79.236608,71.3657344 80.34048,68.7442944 80.963072,65.9395584 L77.49376,62.8071424 C77.566464,62.0954624 77.605376,61.3745664 77.605376,60.6434304 Z"/>
    <path fill="#FFF" d="M70.7228672,60.6434304 C70.7228672,68.3500544 64.4754432,74.5985024 56.7688192,74.5985024 C49.0621952,74.5985024 42.8137472,68.3500544 42.8137472,60.6434304 C42.8137472,52.9378304 49.0621952,46.6893824 56.7688192,46.6893824 C64.4754432,46.6893824 70.7228672,52.9378304 70.7228672,60.6434304"/>
    <path stroke="#152E5F" stroke-linejoin="round" stroke-width="5.12" d="M70.7228672,60.6434304 C70.7228672,68.3500544 64.4754432,74.5985024 56.7688192,74.5985024 C49.0621952,74.5985024 42.8137472,68.3500544 42.8137472,60.6434304 C42.8137472,52.9378304 49.0621952,46.6893824 56.7688192,46.6893824 C64.4754432,46.6893824 70.7228672,52.9378304 70.7228672,60.6434304 Z"/>
    <path fill="#FFF" d="M41.3928448,137.657446 L40.1544573,217.317478 C40.1363968,218.52887 40.8050688,219.646054 41.8823168,220.200038 L47.1723008,222.925926 L153.369293,83.4724864 C153.793229,82.9154304 153.581261,82.1085184 152.938189,81.8299904 L148.344525,79.8505984 C146.696909,79.1399424 144.814797,79.2157184 143.228621,80.0553984 L44.7362048,132.199526 C42.7097088,133.272678 41.4276608,135.36471 41.3928448,137.657446"/>
    <path stroke="#152E5F" stroke-linejoin="round" stroke-width="5.12" d="M41.3928448,137.657446 L40.1544573,217.317478 C40.1363968,218.52887 40.8050688,219.646054 41.8823168,220.200038 L47.1723008,222.925926 L153.369293,83.4724864 C153.793229,82.9154304 153.581261,82.1085184 152.938189,81.8299904 L148.344525,79.8505984 C146.696909,79.1399424 144.814797,79.2157184 143.228621,80.0553984 L44.7362048,132.199526 C42.7097088,133.272678 41.4276608,135.36471 41.3928448,137.657446 Z"/>
    <path fill="#FFF" d="M48.6028288,140.488499 L47.378024,222.381875 C47.3678848,223.107891 48.1399808,223.577907 48.7789568,223.234867 L151.067341,168.426291 C152.423117,167.700275 153.275085,166.293299 153.291469,164.755251 L154.187527,83.7527552 C154.194637,83.1311872 153.536205,82.7287552 152.986317,83.0185472 L50.7583488,136.972083 C49.4517248,137.662259 48.6243328,139.010867 48.6028288,140.488499"/>
    <path stroke="#152E5F" stroke-linejoin="round" stroke-width="5.12" d="M48.6028288,140.488499 L47.378024,222.381875 C47.3678848,223.107891 48.1399808,223.577907 48.7789568,223.234867 L151.067341,168.426291 C152.423117,167.700275 153.275085,166.293299 153.291469,164.755251 L154.187527,83.7527552 C154.194637,83.1311872 153.536205,82.7287552 152.986317,83.0185472 L50.7583488,136.972083 C49.4517248,137.662259 48.6243328,139.010867 48.6028288,140.488499 Z"/>
    <path fill="#FFF" d="M103.642829,140.138496 L149.790413,165.3504 C151.287501,166.168576 151.283405,168.321024 149.783245,169.133056 L49.1148288,223.633408 C48.6120448,223.905792 48.0816128,223.323136 48.3980288,222.848 L103.642829,140.138496 Z"/>
    <path stroke="#152E5F" stroke-linejoin="round" stroke-width="5.12" d="M103.642829,140.138496 L149.790413,165.3504 C151.287501,166.168576 151.283405,168.321024 149.783245,169.133056 L49.1148288,223.633408 C48.6120448,223.905792 48.0816128,223.323136 48.3980288,222.848 L103.642829,140.138496 Z"/>
    <path fill="#FFF" d="M108.924826,168.188416 L153.53641,83.638784 C153.740186,83.254784 153.324442,82.83904 152.940442,83.042816 L48.6388736,138.091008 L108.924826,168.188416 Z"/>
    <path stroke="#152E5F" stroke-linejoin="round" stroke-width="5.12" d="M108.924826,168.188416 L153.53641,83.638784 C153.740186,83.254784 153.324442,82.83904 152.940442,83.042816 L48.6388736,138.091008 L108.924826,168.188416 Z"/>
    <g transform="translate(41.45 133.94)">
      <line x2="7.19" y2="4.152" fill="#FFF"/>
      <line x2="7.19" y2="4.152" stroke="#152E5F" stroke-linejoin="round" stroke-width="5.12"/>
    </g>
    <polyline stroke="#152E5F" stroke-linejoin="round" stroke-width="5.12" points="19.412 170.225 29.092 182.544 18.864 196.247"/>
  </g>
</svg>
