<svg xmlns="http://www.w3.org/2000/svg" viewBox="0 0 256 256">
  <g fill="none" fill-rule="evenodd" transform="translate(48.128 35.84)">
    <polygon fill="#FFF" points="70.789 183.839 70.789 121.18 118.159 37.325 150.968 82.012 150.968 138.404"/>
    <polygon stroke="#152E5F" stroke-linejoin="round" stroke-width="5.12" points="70.789 183.839 70.789 121.18 118.159 37.325 150.968 82.012 150.968 138.404"/>
    <polygon fill="#FFF" points="10.906 149.238 10.906 86.2 70.789 121.18 70.789 183.839"/>
    <polygon stroke="#152E5F" stroke-linejoin="round" stroke-width="5.12" points="10.906 149.238 10.906 86.2 70.789 121.18 70.789 183.839"/>
    <path fill="#FFF" d="M0.2562048,98.6522823 L54.7739648,4.0449223 C56.9919488,0.185466301 61.9173888,-1.1447097 65.7768448,1.0732743 C65.7952768,1.0835143 65.8137088,1.0947783 65.8331648,1.1060423 L118.712525,31.9898823 L60.1397248,133.253242 L0.2562048,98.6522823 Z"/>
    <path stroke="#152E5F" stroke-linejoin="round" stroke-width="5.12" d="M0.2562048,98.6522823 L54.7739648,4.0449223 C56.9919488,0.185466301 61.9173888,-1.1447097 65.7768448,1.0732743 C65.7952768,1.0835143 65.8137088,1.0947783 65.8331648,1.1060423 L118.712525,31.9898823 L60.1397248,133.253242 L0.2562048,98.6522823 Z"/>
    <path fill="#FFF" d="M159.98976,92.3237575 L159.20128,81.7970375 C159.039488,79.6435655 158.221312,77.5924935 156.85632,75.9192775 L123.46368,34.9592775 C121.268224,32.2548935 117.295104,31.8432455 114.59072,34.0397255 C113.99168,34.5271495 113.485824,35.1190215 113.1008,35.7887175 L61.29664,128.337838 C60.52864,129.711022 58.800128,130.212782 57.41568,129.464238 L0.79872,98.9797575 C0.534528,98.8384455 0.205824,98.9377735 0.064512,99.2019655 C0.023552,99.2787655 0,99.3637575 0,99.4507975 L0,111.605678 C0,113.845166 1.248256,115.898286 3.23584,116.930478 L57.82528,145.479598 C60.694528,146.984878 64.24064,145.932206 65.82272,143.103918 L118.13888,50.2066375 C118.9888,48.7382215 120.86784,48.2364615 122.336256,49.0863815 C122.667008,49.2778695 122.958848,49.5287495 123.19744,49.8277575 L157.85984,93.2146375 C158.26944,93.7338055 159.023104,93.8239175 159.542272,93.4143175 C159.873024,93.1552455 160.041984,92.7405255 159.98976,92.3237575"/>
    <path stroke="#152E5F" stroke-linejoin="round" stroke-width="5.12" d="M159.98976,92.3237575 L159.20128,81.7970375 C159.039488,79.6435655 158.221312,77.5924935 156.85632,75.9192775 L123.46368,34.9592775 C121.268224,32.2548935 117.295104,31.8432455 114.59072,34.0397255 C113.99168,34.5271495 113.485824,35.1190215 113.1008,35.7887175 L61.29664,128.337838 C60.52864,129.711022 58.800128,130.212782 57.41568,129.464238 L0.79872,98.9797575 C0.534528,98.8384455 0.205824,98.9377735 0.064512,99.2019655 C0.023552,99.2787655 0,99.3637575 0,99.4507975 L0,111.605678 C0,113.845166 1.248256,115.898286 3.23584,116.930478 L57.82528,145.479598 C60.694528,146.984878 64.24064,145.932206 65.82272,143.103918 L118.13888,50.2066375 C118.9888,48.7382215 120.86784,48.2364615 122.336256,49.0863815 C122.667008,49.2778695 122.958848,49.5287495 123.19744,49.8277575 L157.85984,93.2146375 C158.26944,93.7338055 159.023104,93.8239175 159.542272,93.4143175 C159.873024,93.1552455 160.041984,92.7405255 159.98976,92.3237575 Z"/>
    <path fill="#FFF" d="M106.168218,109.87522 L105.789338,163.69666 L130.191288,149.22754 L130.191288,99.1232199 C130.198426,97.5677639 128.944026,96.3010759 127.38857,96.2938571 C126.879642,96.2908359 126.37993,96.4270279 125.941658,96.6860999 L107.571098,107.45858 C106.711962,107.961364 106.179482,108.878868 106.168218,109.87522"/>
    <path stroke="#152E5F" stroke-linejoin="round" stroke-width="5.12" d="M106.168218,109.87522 L105.789338,163.69666 L130.191288,149.22754 L130.191288,99.1232199 C130.198426,97.5677639 128.944026,96.3010759 127.38857,96.2938571 C126.879642,96.2908359 126.37993,96.4270279 125.941658,96.6860999 L107.571098,107.45858 C106.711962,107.961364 106.179482,108.878868 106.168218,109.87522 Z"/>
    <path fill="#FFF" d="M22.6407424,40.6937799 L35.0106624,47.7696199 C36.6951424,48.7260359 38.7615744,48.7065799 40.4276224,47.7184199 L53.1047424,40.2022599 L40.9805824,33.3312199 C39.4077184,32.4567239 37.4948864,32.4567239 35.9220224,33.3312199 L22.6407424,40.6937799 Z"/>
    <path stroke="#152E5F" stroke-linejoin="round" stroke-width="5.12" d="M22.6407424,40.6937799 L35.0106624,47.7696199 C36.6951424,48.7260359 38.7615744,48.7065799 40.4276224,47.7184199 L53.1047424,40.2022599 L40.9805824,33.3312199 C39.4077184,32.4567239 37.4948864,32.4567239 35.9220224,33.3312199 L22.6407424,40.6937799 Z"/>
    <path fill="#FFF" d="M53.1047424,40.6937799 L37.9802624,49.5718599 L37.8778624,81.2441799 L37.7447424,49.5718599 L22.6202624,40.6937799 L22.6202624,75.3664199 L35.4919424,83.0156999 C36.9634304,83.8850759 38.7922944,83.8850759 40.2637824,83.0156999 L53.1047424,75.3664199 L53.1047424,40.6937799 Z"/>
    <path stroke="#152E5F" stroke-linejoin="round" stroke-width="5.12" d="M53.1047424,40.6937799 L37.9802624,49.5718599 L37.8778624,81.2441799 L37.7447424,49.5718599 L22.6202624,40.6937799 L22.6202624,75.3664199 L35.4919424,83.0156999 C36.9634304,83.8850759 38.7922944,83.8850759 40.2637824,83.0156999 L53.1047424,75.3664199 L53.1047424,40.6937799 Z"/>
    <circle cx="114.176" cy="137.728" r="1.536" fill="#FFF" stroke="#152E5F" stroke-width="3.072"/>
  </g>
</svg>
