<svg xmlns="http://www.w3.org/2000/svg" xmlns:xlink="http://www.w3.org/1999/xlink" viewBox="0 0 256 256">
  <defs>
    <polygon id="lack-of-knowledge-a" points=".256 .256 .768 .256 .768 .768 .256 .768"/>
  </defs>
  <g fill="none" fill-rule="evenodd" transform="translate(10.24 49.152)">
    <polygon fill="#FFF" points="30.877 110.482 106.197 153.967 235.284 79.44 159.964 35.974"/>
    <polygon stroke="#152E5F" stroke-linecap="round" stroke-linejoin="round" stroke-width="5.12" points="30.877 110.482 106.197 153.967 235.284 79.44 159.964 35.974"/>
    <polygon fill="#FFF" points="30.877 98.355 106.197 141.841 235.284 68.376 158.123 23.848"/>
    <polygon stroke="#152E5F" stroke-linecap="round" stroke-linejoin="round" stroke-width="5.12" points="30.877 98.355 106.197 141.841 235.284 68.376 158.123 23.848"/>
    <path fill="#FFF" d="M158.464,23.211282 C183.571456,37.698834 210.156544,53.77973 235.264,68.267282 C228.73088,68.170002 219.572224,67.838226 210.486272,70.393106 C202.824704,72.546578 193.75616,75.095314 185.327616,82.888978 C178.2016,89.479442 174.500864,97.076498 172.53888,102.625554 C147.432448,88.12981 122.326016,73.63509 97.21856,59.14037 C102.014976,50.97909 107.290624,45.93077 110.963712,42.95605 C120.680448,35.088658 131.35872,31.874322 147.764224,26.937618 C152.500224,25.511186 155.886592,23.852306 158.464,23.211282"/>
    <path stroke="#152E5F" stroke-linecap="round" stroke-linejoin="round" stroke-width="5.12" d="M158.464,23.211282 C183.571456,37.698834 210.156544,53.77973 235.264,68.267282 C228.73088,68.170002 219.572224,67.838226 210.486272,70.393106 C202.824704,72.546578 193.75616,75.095314 185.327616,82.888978 C178.2016,89.479442 174.500864,97.076498 172.53888,102.625554 C147.432448,88.12981 122.326016,73.63509 97.21856,59.14037 C102.014976,50.97909 107.290624,45.93077 110.963712,42.95605 C120.680448,35.088658 131.35872,31.874322 147.764224,26.937618 C152.500224,25.511186 155.886592,23.852306 158.464,23.211282 Z"/>
    <path fill="#FFF" d="M97.8729984,59.6862644 C122.976358,74.1799604 148.078694,88.6736564 173.183078,103.166328 C162.799718,100.20492 155.238502,101.320056 150.67351,102.591864 C140.205158,105.510264 132.084838,113.951096 116.273254,130.713976 C112.008294,135.234936 108.572774,139.10668 106.197094,141.84076 C81.0896384,127.345016 55.9842304,112.850296 30.8767744,98.3555764 C33.8729984,95.5743924 38.5936384,91.2520884 44.5185024,86.0982964 C67.0086144,66.5276084 74.1796864,63.3685684 79.7441024,61.7219764 C83.5042304,60.6088884 89.6523264,59.2654004 97.8729984,59.6862644"/>
    <path stroke="#152E5F" stroke-linecap="round" stroke-linejoin="round" stroke-width="5.12" d="M97.8729984,59.6862644 C122.976358,74.1799604 148.078694,88.6736564 173.183078,103.166328 C162.799718,100.20492 155.238502,101.320056 150.67351,102.591864 C140.205158,105.510264 132.084838,113.951096 116.273254,130.713976 C112.008294,135.234936 108.572774,139.10668 106.197094,141.84076 C81.0896384,127.345016 55.9842304,112.850296 30.8767744,98.3555764 C33.8729984,95.5743924 38.5936384,91.2520884 44.5185024,86.0982964 C67.0086144,66.5276084 74.1796864,63.3685684 79.7441024,61.7219764 C83.5042304,60.6088884 89.6523264,59.2654004 97.8729984,59.6862644 Z"/>
    <polygon fill="#FFF" points="212.998 81.668 212.998 107.9 206.96 98.58 198.503 120.322 198.503 90.177"/>
    <polygon stroke="#152E5F" stroke-linecap="round" stroke-linejoin="round" stroke-width="5.12" points="212.998 81.668 212.998 107.9 206.96 98.58 198.503 120.322 198.503 90.177"/>
    <g transform="translate(127.189 38.116)">
      <path fill="#FFF" d="M0,21.491712 C3.910656,15.186944 8.2432,11.788288 11.242496,9.918464 C13.126656,8.74496 15.515648,7.53152 28.104704,3.636224 C33.144832,2.076672 37.359616,0.848896 40.339456,0"/>
      <path stroke="#152E5F" stroke-linecap="round" stroke-linejoin="round" stroke-width="5.12" d="M0,21.491712 C3.910656,15.186944 8.2432,11.788288 11.242496,9.918464 C13.126656,8.74496 15.515648,7.53152 28.104704,3.636224 C33.144832,2.076672 37.359616,0.848896 40.339456,0"/>
    </g>
    <g transform="translate(136.549 45.183)">
      <path fill="#FFF" d="M0,21.492736 C3.910656,15.186944 8.242176,11.788288 11.242496,9.919488 C13.126656,8.74496 15.515648,7.53152 28.104704,3.637248 C33.143808,2.077696 37.358592,0.84992 40.339456,0"/>
      <path stroke="#152E5F" stroke-linecap="round" stroke-linejoin="round" stroke-width="5.12" d="M0,21.492736 C3.910656,15.186944 8.242176,11.788288 11.242496,9.919488 C13.126656,8.74496 15.515648,7.53152 28.104704,3.637248 C33.143808,2.077696 37.358592,0.84992 40.339456,0"/>
    </g>
    <path fill="#FFF" d="M67.7019648,78.208274 C47.8998528,90.652946 21.7591808,84.688146 9.3134848,64.886034 C-3.1311872,45.082898 2.8336128,18.942226 22.6357248,6.49857797 C42.4388608,-5.94711803 68.5795328,0.0187059729 81.0242048,19.819794 C93.4688768,39.621906 87.5040768,65.764626 67.7019648,78.208274"/>
    <path stroke="#152E5F" stroke-linejoin="round" stroke-width="5.12" d="M67.7019648,78.208274 C47.8998528,90.652946 21.7591808,84.688146 9.3134848,64.886034 C-3.1311872,45.082898 2.8336128,18.942226 22.6357248,6.49857797 C42.4388608,-5.94711803 68.5795328,0.0187059729 81.0242048,19.819794 C93.4688768,39.621906 87.5040768,65.764626 67.7019648,78.208274 Z"/>
    <g transform="translate(32.948 19.702)">
      <path fill="#FFF" d="M0,12.22144 C0,5.471232 5.472256,0 12.22144,0 C18.970624,0 24.441856,5.471232 24.441856,12.22144 C24.441856,18.971648 18.970624,24.44288 12.22144,24.44288"/>
      <path stroke="#152E5F" stroke-linecap="round" stroke-linejoin="round" stroke-width="5.12" d="M0,12.22144 C0,5.471232 5.472256,0 12.22144,0 C18.970624,0 24.441856,5.471232 24.441856,12.22144 C24.441856,18.971648 18.970624,24.44288 12.22144,24.44288"/>
    </g>
    <g transform="translate(44.657 44.145)">
      <line x1=".512" x2=".512" y1="12.619" fill="#FFF"/>
      <line x1=".512" x2=".512" y1="12.619" stroke="#152E5F" stroke-linecap="round" stroke-linejoin="round" stroke-width="5.12"/>
    </g>
    <g transform="translate(0 155.76)">
      <mask id="lack-of-knowledge-b" fill="#fff">
        <use xlink:href="#lack-of-knowledge-a"/>
      </mask>
      <path fill="#FFF" mask="url(#lack-of-knowledge-b)"/>
    </g>
    <line x1="45.165" x2="45.165" y1="65.004" y2="65.004" stroke="#152E5F" stroke-linecap="round" stroke-linejoin="round" stroke-width="5.12"/>
    <polyline fill="#FFF" points="72.059 71.461 90.431 80.299 81.474 58.558"/>
    <path fill="#152E5F" d="M90.430976,82.217234 C90.149376,82.217234 89.864704,82.15477 89.599488,82.02677 L71.227904,73.18965 L74.4576,70.487314 L86.75072,76.39989 L80.495104,61.218066 L82.411008,58.17269 L83.246592,57.828626 L92.20352,79.568146 C92.506624,80.303378 92.325376,81.148178 91.74784,81.692946 C91.38432,82.03701 90.910208,82.217234 90.430976,82.217234"/>
  </g>
</svg>
