<svg xmlns="http://www.w3.org/2000/svg" viewBox="0 0 256 256">
  <g fill="none" fill-rule="evenodd" transform="translate(61.44 22.528)">
    <path fill="#FFF" d="M65.7358067,9.54665265 L123.243647,40.8882206 L2.8232947,106.415005 C2.0983027,106.806173 1.3333747,105.967517 1.7911027,105.282461 L65.7358067,9.54665265 Z"/>
    <path stroke="#152E5F" stroke-linejoin="round" stroke-width="5.12" d="M65.7358067,9.54665265 L123.243647,40.8882206 L2.8232947,106.415005 C2.0983027,106.806173 1.3333747,105.967517 1.7911027,105.282461 L65.7358067,9.54665265 Z"/>
    <path fill="#FFF" d="M1.4412019,109.964598 L-6.82121026e-15,202.662198 C-0.0210700986,204.072246 0.758193901,205.372726 2.0105459,206.01887 L8.1658099,209.18815 L131.745202,46.9107742 C132.237746,46.2615582 131.991986,45.3225502 131.243442,44.9999902 L125.899186,42.6959902 C123.98021,41.8685982 121.790898,41.9566622 119.94565,42.9335582 L5.3313779,103.612726 C2.9731059,104.862006 1.4821619,107.296054 1.4412019,109.964598"/>
    <path stroke="#152E5F" stroke-linejoin="round" stroke-width="5.12" d="M1.4412019,109.964598 L-6.82121026e-15,202.662198 C-0.0210700986,204.072246 0.758193901,205.372726 2.0105459,206.01887 L8.1658099,209.18815 L131.745202,46.9107742 C132.237746,46.2615582 131.991986,45.3225502 131.243442,44.9999902 L125.899186,42.6959902 C123.98021,41.8685982 121.790898,41.9566622 119.94565,42.9335582 L5.3313779,103.612726 C2.9731059,104.862006 1.4821619,107.296054 1.4412019,109.964598 Z"/>
    <path fill="#FFF" d="M9.8312435,113.258601 L8.40671341,208.556137 C8.3935475,209.399913 9.2926195,209.946729 10.0360435,209.548393 L129.065804,145.769577 C130.643788,144.923753 131.636044,143.286377 131.656524,141.497449 L132.697997,46.2111774 C132.706124,45.4892574 131.939148,45.0202654 131.300172,45.3571614 L12.3400435,109.166697 C10.8183795,109.969513 9.8568435,111.538281 9.8312435,113.258601"/>
    <path stroke="#152E5F" stroke-linejoin="round" stroke-width="5.12" d="M9.8312435,113.258601 L8.40671341,208.556137 C8.3935475,209.399913 9.2926195,209.946729 10.0360435,209.548393 L129.065804,145.769577 C130.643788,144.923753 131.636044,143.286377 131.656524,141.497449 L132.697997,46.2111774 C132.706124,45.4892574 131.939148,45.0202654 131.300172,45.3571614 L12.3400435,109.166697 C10.8183795,109.969513 9.8568435,111.538281 9.8312435,113.258601 Z"/>
    <path fill="#FFF" d="M73.8802931,112.851664 L127.580901,142.189264 C129.323749,143.142608 129.318629,145.646288 127.572709,146.592464 L10.4260851,210.01288 C9.8413811,210.328272 9.2239091,209.651408 9.5935731,209.098448 L73.8802931,112.851664 Z"/>
    <path stroke="#152E5F" stroke-linejoin="round" stroke-width="5.12" d="M73.8802931,112.851664 L127.580901,142.189264 C129.323749,143.142608 129.318629,145.646288 127.572709,146.592464 L10.4260851,210.01288 C9.8413811,210.328272 9.2239091,209.651408 9.5935731,209.098448 L73.8802931,112.851664 Z"/>
    <polygon fill="#FFF" points="80.026 145.493 132.46 44.985 123.244 40.889 2.412 105.401 9.873 110.47"/>
    <polygon stroke="#152E5F" stroke-linejoin="round" stroke-width="5.12" points="80.026 145.493 132.46 44.985 123.244 40.889 2.412 105.401 9.873 110.47"/>
    <g transform="translate(1.507 105.638)">
      <line x2="8.366" y2="4.832" fill="#FFF"/>
      <line x2="8.366" y2="4.832" stroke="#152E5F" stroke-linejoin="round" stroke-width="5.12"/>
    </g>
    <path fill="#FFF" d="M24.1082611,44.7576094 L22.8917491,116.664937 L24.9397491,117.688937 L79.7237491,144.824937 L115.563749,78.2649374 C116.762853,77.6228894 116.662501,67.5743774 116.676837,66.2145054 L117.469461,0.733801447 C117.475557,0.184937447 116.891877,-0.171414553 116.406501,0.0845854474 L26.0149491,41.6487454 C24.8588531,42.2590494 24.1277171,43.4509854 24.1082611,44.7576094"/>
    <path stroke="#152E5F" stroke-linejoin="round" stroke-width="5.12" d="M24.1082611,44.7576094 L22.8917491,116.664937 L24.9397491,117.688937 L79.7237491,144.824937 L115.563749,78.2649374 C116.762853,77.6228894 116.662501,67.5743774 116.676837,66.2145054 L117.469461,0.733801447 C117.475557,0.184937447 116.891877,-0.171414553 116.406501,0.0845854474 L26.0149491,41.6487454 C24.8588531,42.2590494 24.1277171,43.4509854 24.1082611,44.7576094 Z"/>
    <g transform="translate(41.906 56.343)">
      <line x2="61.882" y1="27.281" fill="#FFF"/>
      <line x2="61.882" y1="27.281" stroke="#152E5F" stroke-linecap="round" stroke-linejoin="round" stroke-width="5.12"/>
    </g>
    <g transform="translate(41.906 37.911)">
      <line x2="61.882" y1="28.305" fill="#FFF"/>
      <line x2="61.882" y1="28.305" stroke="#152E5F" stroke-linecap="round" stroke-linejoin="round" stroke-width="5.12"/>
    </g>
    <g transform="translate(41.906 79.72)">
      <line x2="50.908" y1="23.244" fill="#FFF"/>
      <line x2="50.908" y1="23.244" stroke="#152E5F" stroke-linecap="round" stroke-linejoin="round" stroke-width="5.12"/>
    </g>
  </g>
</svg>
