<svg xmlns="http://www.w3.org/2000/svg" viewBox="0 0 256 256">
  <g fill="none" fill-rule="evenodd" transform="translate(23.552 63.488)">
    <g transform="translate(25.752 87.65)">
      <line x1="40.198" y1="23.523" fill="#FFF"/>
      <line x1="40.198" y1="23.523" stroke="#152E5F" stroke-dasharray="6.772 13.543" stroke-linecap="round" stroke-linejoin="round" stroke-width="5.12"/>
    </g>
    <g transform="translate(30.95 58.925)">
      <line x2="130.79" y1="19.306" fill="#FFF"/>
      <line x2="130.79" y1="19.306" stroke="#152E5F" stroke-linejoin="round" stroke-width="5.12"/>
    </g>
    <g transform="translate(142.126 18.527)">
      <line x1="41.578" y1="23.387" fill="#FFF"/>
      <line x1="41.578" y1="23.387" stroke="#152E5F" stroke-dasharray="6.772 13.543" stroke-linecap="round" stroke-linejoin="round" stroke-width="5.12"/>
    </g>
    <path fill="#FFF" d="M30.9504,78.0048384 C30.9504,84.2921984 24.022016,89.3876224 15.474688,89.3876224 C6.928384,89.3876224 0,84.2921984 0,78.0048384 C0,71.7174784 6.928384,66.6210304 15.474688,66.6210304 C24.022016,66.6210304 30.9504,71.7174784 30.9504,78.0048384"/>
    <path stroke="#152E5F" stroke-linejoin="round" stroke-width="5.12" d="M30.9504,78.0048384 C30.9504,84.2921984 24.022016,89.3876224 15.474688,89.3876224 C6.928384,89.3876224 0,84.2921984 0,78.0048384 C0,71.7174784 6.928384,66.6210304 15.474688,66.6210304 C24.022016,66.6210304 30.9504,71.7174784 30.9504,78.0048384 Z"/>
    <path fill="#FFF" d="M94.7734528,117.121843 C94.7734528,123.409203 87.8450688,128.504627 79.2977408,128.504627 C70.7514368,128.504627 63.8220288,123.409203 63.8220288,117.121843 C63.8220288,110.834483 70.7514368,105.738035 79.2977408,105.738035 C87.8450688,105.738035 94.7734528,110.834483 94.7734528,117.121843"/>
    <path stroke="#152E5F" stroke-linejoin="round" stroke-width="5.12" d="M94.7734528,117.121843 C94.7734528,123.409203 87.8450688,128.504627 79.2977408,128.504627 C70.7514368,128.504627 63.8220288,123.409203 63.8220288,117.121843 C63.8220288,110.834483 70.7514368,105.738035 79.2977408,105.738035 C87.8450688,105.738035 94.7734528,110.834483 94.7734528,117.121843 Z"/>
    <g transform="translate(85.77 22.644)">
      <line x2="35.767" y1="80.718" fill="#FFF"/>
      <line x2="35.767" y1="80.718" stroke="#152E5F" stroke-dasharray="6.772 13.543" stroke-linecap="round" stroke-linejoin="round" stroke-width="5.12"/>
    </g>
    <g transform="translate(142.126 47.35)">
      <line x2="19.615" y2="11.576" fill="#FFF"/>
      <line x2="19.615" y2="11.576" stroke="#152E5F" stroke-linecap="round" stroke-linejoin="round" stroke-width="5.12"/>
    </g>
    <g transform="translate(150.274 59.09)">
      <line x2="12.004" y1="17.037" fill="#FFF"/>
      <line x2="12.004" y1="17.037" stroke="#152E5F" stroke-linecap="round" stroke-linejoin="round" stroke-width="5.12"/>
    </g>
    <path fill="#FFF" d="M145.196954,11.383808 C145.196954,17.671168 138.26857,22.766592 129.722266,22.766592 C121.174938,22.766592 114.24553,17.671168 114.24553,11.383808 C114.24553,5.096448 121.174938,0 129.722266,0 C138.26857,0 145.196954,5.096448 145.196954,11.383808"/>
    <path stroke="#152E5F" stroke-linejoin="round" stroke-width="5.12" d="M145.196954,11.383808 C145.196954,17.671168 138.26857,22.766592 129.722266,22.766592 C121.174938,22.766592 114.24553,17.671168 114.24553,11.383808 C114.24553,5.096448 121.174938,0 129.722266,0 C138.26857,0 145.196954,5.096448 145.196954,11.383808 Z"/>
    <path fill="#FFF" d="M209.019904,50.5008128 C209.019904,56.7881728 202.090496,61.8835968 193.545216,61.8835968 C184.997888,61.8835968 178.06848,56.7881728 178.06848,50.5008128 C178.06848,44.2134528 184.997888,39.1170048 193.545216,39.1170048 C202.090496,39.1170048 209.019904,44.2134528 209.019904,50.5008128"/>
    <path stroke="#152E5F" stroke-linejoin="round" stroke-width="5.12" d="M209.019904,50.5008128 C209.019904,56.7881728 202.090496,61.8835968 193.545216,61.8835968 C184.997888,61.8835968 178.06848,56.7881728 178.06848,50.5008128 C178.06848,44.2134528 184.997888,39.1170048 193.545216,39.1170048 C202.090496,39.1170048 209.019904,44.2134528 209.019904,50.5008128 Z"/>
  </g>
</svg>
