<svg xmlns="http://www.w3.org/2000/svg" viewBox="0 0 256 256">
  <g fill="none" fill-rule="evenodd" transform="translate(28.672 59.392)">
    <polygon fill="#FFF" points="0 50.471 .245 74.542 38.135 96.616 37.248 29.197"/>
    <polygon stroke="#152E5F" stroke-linejoin="round" stroke-width="5.12" points="0 50.471 .245 74.542 38.135 96.616 37.248 29.197"/>
    <polygon fill="#FFF" points="198.883 85.967 108.748 137.378 2.707 76.162 25.512 62.895 2.319 49.119 57.413 17.706 69.094 11.039 80.806 17.795"/>
    <g transform="translate(2.319)">
      <polygon stroke="#152E5F" stroke-linejoin="round" stroke-width="5.12" points="196.564 85.967 106.429 137.378 .388 76.162 23.194 62.895 0 49.119 55.094 17.706 66.775 11.039 78.488 17.795"/>
      <path fill="#FFF" d="M68.416512,77.5145073 C59.398144,63.0945393 57.324544,48.1646193 63.802368,44.1157233 C64.514048,43.6825713 65.30048,43.3856113 66.120704,43.2391793 L65.97632,42.9954673 L73.352192,38.6690673 L78.821376,47.9874673 C83.984384,52.1520753 88.385536,57.1819633 91.83232,62.8508273 C96.513024,70.3260273 99.319808,77.9589233 100.02944,84.1367153 L104.466432,91.6129393 L97.089536,95.9383153 L97.089536,95.8492273 C96.917504,95.9915633 96.736256,96.1216113 96.545792,96.2383473 C89.979904,100.286219 77.43488,91.9344753 68.416512,77.5145073"/>
      <path stroke="#152E5F" stroke-linejoin="round" stroke-width="5.12" d="M68.416512,77.5145073 C59.398144,63.0945393 57.324544,48.1646193 63.802368,44.1157233 C64.514048,43.6825713 65.30048,43.3856113 66.120704,43.2391793 L65.97632,42.9954673 L73.352192,38.6690673 L78.821376,47.9874673 C83.984384,52.1520753 88.385536,57.1819633 91.83232,62.8508273 C96.513024,70.3260273 99.319808,77.9589233 100.02944,84.1367153 L104.466432,91.6129393 L97.089536,95.9383153 L97.089536,95.8492273 C96.917504,95.9915633 96.736256,96.1216113 96.545792,96.2383473 C89.979904,100.286219 77.43488,91.9344753 68.416512,77.5145073 Z"/>
      <path fill="#FFF" d="M73.6009216,38.5025649 C80.0644096,34.4546929 92.6114816,42.8392049 101.625754,57.2305009 C110.639002,71.6228209 112.706458,86.5701489 106.24297,90.6200689 C99.7784576,94.6679409 87.2324096,86.2824049 78.2181376,71.8911089 C69.2048896,57.4998129 67.1374336,42.5514609 73.6009216,38.5025649"/>
      <path stroke="#152E5F" stroke-linejoin="round" stroke-width="5.12" d="M73.6009216,38.5025649 C80.0644096,34.4546929 92.6114816,42.8392049 101.625754,57.2305009 C110.639002,71.6228209 112.706458,86.5701489 106.24297,90.6200689 C99.7784576,94.6679409 87.2324096,86.2824049 78.2181376,71.8911089 C69.2048896,57.4998129 67.1374336,42.5514609 73.6009216,38.5025649 Z"/>
      <path fill="#FFF" d="M101.215949,83.2265841 L154.458829,52.3468401 C150.975181,37.1056241 147.495629,21.8572401 144.020173,6.60271212 L79.5747328,45.5024241 C81.1516928,60.5644401 89.0139648,74.2604401 101.227213,83.2153201 L101.215949,83.2265841 Z"/>
      <path stroke="#152E5F" stroke-linejoin="round" stroke-width="5.12" d="M101.215949,83.2265841 L154.458829,52.3468401 C150.975181,37.1056241 147.495629,21.8572401 144.020173,6.60271212 L79.5747328,45.5024241 C81.1516928,60.5644401 89.0139648,74.2604401 101.227213,83.2153201 L101.215949,83.2265841 Z"/>
      <path fill="#FFF" d="M166.293504,135.19356 L166.293504,135.19356 C162.366464,137.660376 157.184,136.475608 154.717184,132.548568 C154.71616,132.54652 154.714112,132.544472 154.713088,132.542424 L121.081856,72.9005681 L131.42016,66.3889521 L168.955904,123.613144 C171.419648,127.542232 170.231808,132.724696 166.30272,135.18844 C166.299648,135.189464 166.296576,135.191512 166.293504,135.19356"/>
      <path stroke="#152E5F" stroke-linejoin="round" stroke-width="5.12" d="M166.293504,135.19356 L166.293504,135.19356 C162.366464,137.660376 157.184,136.475608 154.717184,132.548568 C154.71616,132.54652 154.714112,132.544472 154.713088,132.542424 L121.081856,72.9005681 L131.42016,66.3889521 L168.955904,123.613144 C171.419648,127.542232 170.231808,132.724696 166.30272,135.18844 C166.299648,135.189464 166.296576,135.191512 166.293504,135.19356 Z"/>
      <path fill="#FFF" d="M131.852493,40.0345713 C122.834125,25.6146033 120.760525,10.6959473 127.238349,6.63578732 C127.950029,6.20263532 128.736461,5.90567532 129.556685,5.75924332 L129.412301,5.51553132 L136.788173,1.18913132 L142.257357,10.5065073 C147.417293,14.6793073 151.819469,19.7112433 155.268301,25.3811313 C159.949005,32.8573553 162.755789,40.4882033 163.465421,46.6680433 L167.902413,54.1432433 L160.525517,58.4696433 L160.470221,58.3805553 C160.299213,58.5239153 160.117965,58.6539633 159.927501,58.7686513 C153.415885,62.8062833 140.870861,54.4207473 131.852493,40.0345713"/>
      <path stroke="#152E5F" stroke-linejoin="round" stroke-width="5.12" d="M131.852493,40.0345713 C122.834125,25.6146033 120.760525,10.6959473 127.238349,6.63578732 C127.950029,6.20263532 128.736461,5.90567532 129.556685,5.75924332 L129.412301,5.51553132 L136.788173,1.18913132 L142.257357,10.5065073 C147.417293,14.6793073 151.819469,19.7112433 155.268301,25.3811313 C159.949005,32.8573553 162.755789,40.4882033 163.465421,46.6680433 L167.902413,54.1432433 L160.525517,58.4696433 L160.470221,58.3805553 C160.299213,58.5239153 160.117965,58.6539633 159.927501,58.7686513 C153.415885,62.8062833 140.870861,54.4207473 131.852493,40.0345713 Z"/>
      <path fill="#FFF" d="M137.039462,1.01853292 C143.50295,-3.03036308 156.050022,5.35414892 165.064294,19.7464689 C174.077542,34.1377649 176.144998,49.0861169 169.68151,53.1350129 C163.216998,57.1839089 150.67095,48.7983729 141.656678,34.4060529 C132.64343,20.0157809 130.575974,5.06640492 137.039462,1.01853292"/>
      <path stroke="#152E5F" stroke-linejoin="round" stroke-width="5.12" d="M137.039462,1.01853292 C143.50295,-3.03036308 156.050022,5.35414892 165.064294,19.7464689 C174.077542,34.1377649 176.144998,49.0861169 169.68151,53.1350129 C163.216998,57.1839089 150.67095,48.7983729 141.656678,34.4060529 C132.64343,20.0157809 130.575974,5.06640492 137.039462,1.01853292 Z"/>
    </g>
  </g>
</svg>
