<svg xmlns="http://www.w3.org/2000/svg" viewBox="0 0 256 256">
  <g fill="none" fill-rule="evenodd" transform="translate(10.24 73.728)">
    <path fill="#FFF" d="M6.54981983,26.1776407 C-1.76506017,43.4330647 -2.22586017,60.4417047 5.52581983,64.1690647 C6.36549983,64.5776407 8.10629983,65.1930647 8.10629983,65.1930647 L28.5862998,73.8868247 L31.9757398,62.4886807 C37.2462678,57.1874327 41.5593558,51.0137367 44.7245398,44.2420247 C49.0458198,35.2717847 51.2371798,26.3722007 51.2678998,19.3690647 L57.4938198,11.6378647 L35.6211798,1.76548075 C27.8797398,-2.02229525 14.8544598,8.93348075 6.54981983,26.1776407"/>
    <path stroke="#152E5F" stroke-linejoin="round" stroke-width="5.12" d="M6.54981983,26.1776407 C-1.76506017,43.4330647 -2.22586017,60.4417047 5.52581983,64.1690647 C6.36549983,64.5776407 8.10629983,65.1930647 8.10629983,65.1930647 L28.5862998,73.8868247 L31.9757398,62.4886807 C37.2462678,57.1874327 41.5593558,51.0137367 44.7245398,44.2420247 C49.0458198,35.2717847 51.2371798,26.3722007 51.2678998,19.3690647 L57.4938198,11.6378647 L35.6211798,1.76548075 C27.8797398,-2.02229525 14.8544598,8.93348075 6.54981983,26.1776407 Z"/>
    <path fill="#FFF" d="M30.5288278,36.4596247 C38.8426838,19.2093207 51.8628438,8.25252075 59.6124758,11.9870487 C67.3610838,15.7205527 66.9033558,32.7322647 58.5905238,49.9825687 C50.2776918,67.2338967 37.2565078,78.1906967 29.5068758,74.4561687 C21.7582678,70.7216407 22.2159958,53.7109527 30.5288278,36.4596247"/>
    <path stroke="#152E5F" stroke-linejoin="round" stroke-width="5.12" d="M30.5288278,36.4596247 C38.8426838,19.2093207 51.8628438,8.25252075 59.6124758,11.9870487 C67.3610838,15.7205527 66.9033558,32.7322647 58.5905238,49.9825687 C50.2776918,67.2338967 37.2565078,78.1906967 29.5068758,74.4561687 C21.7582678,70.7216407 22.2159958,53.7109527 30.5288278,36.4596247 Z"/>
    <path fill="#FFF" d="M228.040815,25.1746327 C236.345455,42.4290327 236.806255,59.4376727 229.064815,63.1650327 C228.225135,63.5746327 226.484335,64.1890327 226.484335,64.1890327 L206.004335,72.8827927 L202.614895,61.4549527 C197.345391,56.1547287 193.029231,49.9851287 189.855855,43.2175127 C185.534575,34.2472727 183.343215,25.3487127 183.322735,18.3445527 L177.086575,10.6133527 L198.959215,0.74199275 C206.710895,-3.02632725 219.725935,7.93047275 228.040815,25.1746327"/>
    <path stroke="#152E5F" stroke-linejoin="round" stroke-width="5.12" d="M228.040815,25.1746327 C236.345455,42.4290327 236.806255,59.4376727 229.064815,63.1650327 C228.225135,63.5746327 226.484335,64.1890327 226.484335,64.1890327 L206.004335,72.8827927 L202.614895,61.4549527 C197.345391,56.1547287 193.029231,49.9851287 189.855855,43.2175127 C185.534575,34.2472727 183.343215,25.3487127 183.322735,18.3445527 L177.086575,10.6133527 L198.959215,0.74199275 C206.710895,-3.02632725 219.725935,7.93047275 228.040815,25.1746327 Z"/>
    <path fill="#FFF" d="M174.967305,10.9766679 C182.715913,7.24316395 195.737097,18.1999639 204.049929,35.4492439 C212.363785,52.7005719 212.821513,69.7112599 205.071881,73.4468119 C197.323273,77.1803159 184.302089,66.2235159 175.989257,48.9721879 C167.675401,31.7229079 167.218697,14.7101719 174.967305,10.9766679"/>
    <path stroke="#152E5F" stroke-linejoin="round" stroke-width="5.12" d="M174.967305,10.9766679 C182.715913,7.24316395 195.737097,18.1999639 204.049929,35.4492439 C212.363785,52.7005719 212.821513,69.7112599 205.071881,73.4468119 C197.323273,77.1803159 184.302089,66.2235159 175.989257,48.9721879 C167.675401,31.7229079 167.218697,14.7101719 174.967305,10.9766679 Z"/>
    <path fill="#FFF" d="M33.4908502,31.5646999 C36.4235862,26.9136919 39.9871062,22.6927639 44.0790102,19.0206999 C49.8850902,20.7502359 59.1932502,22.8197399 66.6070102,20.6898199 C67.6310102,20.3928599 67.8767702,20.3211799 71.6450902,19.0309399 C85.7455702,14.2181399 92.7906902,11.8014999 96.5282902,11.2372759 C96.5282902,11.2372759 108.68317,9.30293995 118.85149,12.8142359 C120.34653,13.3374999 130.97565,17.0023959 130.64797,20.7911959 C130.28957,24.8871959 117.25405,27.0078999 114.68381,27.3970199 L114.36637,27.4471959 C109.46141,28.2172439 105.035682,30.8325399 101.99645,34.7595799 C101.99645,34.7595799 104.24925,35.0667799 106.82973,35.5572759 C112.45149,36.6539799 134.67229,48.5016599 134.67229,48.5016599 C153.67773,60.3892759 152.26461,61.2606999 158.54173,63.2984599 C166.73373,65.9393559 172.87773,65.6946199 173.73789,69.0226199 C174.54685,72.0229399 170.61469,76.4056599 166.34461,78.3502359 C159.52477,81.4222359 151.85501,78.3502359 138.87069,72.7602199 C134.919074,71.1064599 131.053474,69.2550679 127.28925,67.2101399 C131.889058,69.7701399 136.631202,72.0638999 141.49213,74.0811799 C153.59581,79.1294999 159.15613,79.4059799 159.73981,82.6520599 C160.27229,85.6114199 156.37085,89.4104599 152.57181,90.9771799 C146.14109,93.5873559 138.99357,90.4549399 125.62013,84.1880599 C121.72893,82.3643159 117.92989,80.4504599 117.92989,80.4606999 C117.92989,80.4709399 121.31933,82.1492759 125.62013,84.1880599 C125.98877,84.3621399 128.37469,85.4885399 130.60701,86.5125399 C142.03485,91.7246999 144.83037,92.0114199 145.19901,93.9979799 C145.62909,96.3736599 142.29085,99.3637399 139.31101,100.74614 C132.85981,103.72598 125.06717,100.56182 115.54397,96.6501399 C113.93629,95.9845399 109.62525,94.1403159 109.65597,94.0901399 C109.68669,94.0389399 113.41405,96.2507799 118.22685,98.1861399 C125.94781,101.36054 129.19389,101.31958 129.41917,102.9887 C129.70589,105.09814 124.81117,107.81174 120.70493,108.814236 C118.100898,109.442972 115.394466,109.519772 112.75869,109.04054 C101.56637,106.99254 88.1826902,100.7871 83.7999702,98.8005399 C66.9244502,90.9669399 63.9241302,89.7278999 58.3126102,85.9800599 C54.9846102,83.7579799 52.7932502,81.7509399 47.5298902,78.0030999 C39.3133142,72.1519639 31.5216982,65.7253399 24.2134102,58.7713559 C24.5892182,55.7618199 25.1606102,52.7789079 25.9234902,49.8430999 C27.4533462,43.3847319 30.0082262,37.2141079 33.4908502,31.5646999"/>
    <path stroke="#152E5F" stroke-linejoin="round" stroke-width="5.12" d="M33.4908502,31.5646999 C36.4235862,26.9136919 39.9871062,22.6927639 44.0790102,19.0206999 C49.8850902,20.7502359 59.1932502,22.8197399 66.6070102,20.6898199 C67.6310102,20.3928599 67.8767702,20.3211799 71.6450902,19.0309399 C85.7455702,14.2181399 92.7906902,11.8014999 96.5282902,11.2372759 C96.5282902,11.2372759 108.68317,9.30293995 118.85149,12.8142359 C120.34653,13.3374999 130.97565,17.0023959 130.64797,20.7911959 C130.28957,24.8871959 117.25405,27.0078999 114.68381,27.3970199 L114.36637,27.4471959 C109.46141,28.2172439 105.035682,30.8325399 101.99645,34.7595799 C101.99645,34.7595799 104.24925,35.0667799 106.82973,35.5572759 C112.45149,36.6539799 134.67229,48.5016599 134.67229,48.5016599 C153.67773,60.3892759 152.26461,61.2606999 158.54173,63.2984599 C166.73373,65.9393559 172.87773,65.6946199 173.73789,69.0226199 C174.54685,72.0229399 170.61469,76.4056599 166.34461,78.3502359 C159.52477,81.4222359 151.85501,78.3502359 138.87069,72.7602199 C134.919074,71.1064599 131.053474,69.2550679 127.28925,67.2101399 C131.889058,69.7701399 136.631202,72.0638999 141.49213,74.0811799 C153.59581,79.1294999 159.15613,79.4059799 159.73981,82.6520599 C160.27229,85.6114199 156.37085,89.4104599 152.57181,90.9771799 C146.14109,93.5873559 138.99357,90.4549399 125.62013,84.1880599 C121.72893,82.3643159 117.92989,80.4504599 117.92989,80.4606999 C117.92989,80.4709399 121.31933,82.1492759 125.62013,84.1880599 C125.98877,84.3621399 128.37469,85.4885399 130.60701,86.5125399 C142.03485,91.7246999 144.83037,92.0114199 145.19901,93.9979799 C145.62909,96.3736599 142.29085,99.3637399 139.31101,100.74614 C132.85981,103.72598 125.06717,100.56182 115.54397,96.6501399 C113.93629,95.9845399 109.62525,94.1403159 109.65597,94.0901399 C109.68669,94.0389399 113.41405,96.2507799 118.22685,98.1861399 C125.94781,101.36054 129.19389,101.31958 129.41917,102.9887 C129.70589,105.09814 124.81117,107.81174 120.70493,108.814236 C118.100898,109.442972 115.394466,109.519772 112.75869,109.04054 C101.56637,106.99254 88.1826902,100.7871 83.7999702,98.8005399 C66.9244502,90.9669399 63.9241302,89.7278999 58.3126102,85.9800599 C54.9846102,83.7579799 52.7932502,81.7509399 47.5298902,78.0030999 C39.3133142,72.1519639 31.5216982,65.7253399 24.2134102,58.7713559 C24.5892182,55.7618199 25.1606102,52.7789079 25.9234902,49.8430999 C27.4533462,43.3847319 30.0082262,37.2141079 33.4908502,31.5646999 Z"/>
    <path fill="#FFF" d="M168.095855,19.6657175 C167.911535,19.6657175 165.832815,19.5530775 163.047535,19.5530775 C158.890095,19.1322135 155.951215,17.8941975 146.796655,16.6346775 C130.842735,14.4228375 121.555055,13.1428375 110.741615,15.8973975 C95.012975,19.9002135 97.112175,27.0897175 76.509295,34.8413975 C73.775215,35.8653975 68.317295,37.7597975 68.020335,41.0980375 C67.610735,44.9585175 74.164335,48.4401175 74.461295,48.5834775 C81.578095,52.2493975 89.770095,50.1194775 100.501615,47.1805975 C110.209135,44.5079575 109.994095,43.2381975 113.936495,43.2791575 C119.056495,43.2791575 136.085615,56.0996375 136.085615,56.0996375 C150.339695,66.8209175 168.403055,67.9985175 174.823535,65.4180375 C175.427695,65.1712535 178.428015,63.8820375 182.820975,62.3460375 C182.820975,62.3460375 185.892975,61.2503575 189.446255,60.1341975 C197.300335,57.6868375 208.676975,54.8196375 210.131055,54.4612375 C208.000111,39.7350935 200.497263,26.3155735 189.067375,16.7882775 C174.219375,19.1741975 169.396335,19.6657175 168.095855,19.6657175"/>
    <path stroke="#152E5F" stroke-linejoin="round" stroke-width="5.12" d="M168.095855,19.6657175 C167.911535,19.6657175 165.832815,19.5530775 163.047535,19.5530775 C158.890095,19.1322135 155.951215,17.8941975 146.796655,16.6346775 C130.842735,14.4228375 121.555055,13.1428375 110.741615,15.8973975 C95.012975,19.9002135 97.112175,27.0897175 76.509295,34.8413975 C73.775215,35.8653975 68.317295,37.7597975 68.020335,41.0980375 C67.610735,44.9585175 74.164335,48.4401175 74.461295,48.5834775 C81.578095,52.2493975 89.770095,50.1194775 100.501615,47.1805975 C110.209135,44.5079575 109.994095,43.2381975 113.936495,43.2791575 C119.056495,43.2791575 136.085615,56.0996375 136.085615,56.0996375 C150.339695,66.8209175 168.403055,67.9985175 174.823535,65.4180375 C175.427695,65.1712535 178.428015,63.8820375 182.820975,62.3460375 C182.820975,62.3460375 185.892975,61.2503575 189.446255,60.1341975 C197.300335,57.6868375 208.676975,54.8196375 210.131055,54.4612375 C208.000111,39.7350935 200.497263,26.3155735 189.067375,16.7882775 C174.219375,19.1741975 169.396335,19.6657175 168.095855,19.6657175 Z"/>
  </g>
</svg>
