<svg xmlns="http://www.w3.org/2000/svg" viewBox="0 0 256 256">
  <g fill="none" fill-rule="evenodd" transform="translate(61.44 21.504)">
    <polygon fill="#FFF" points="2.947 176.402 2.947 57.732 68.483 20.396 67.717 138.996"/>
    <polygon stroke="#0E2D63" stroke-linejoin="round" stroke-width="5.12" points="2.947 176.402 2.947 57.732 68.483 20.396 67.717 138.996"/>
    <polygon fill="#FFF" points="133.607 176.206 68.897 138.846 68.897 20.592 133.607 57.536"/>
    <polygon stroke="#0E2D63" stroke-linejoin="round" stroke-width="5.12" points="133.607 176.206 68.897 138.846 68.897 20.592 133.607 57.536"/>
    <polygon fill="#FFF" points="68.071 213.541 3.361 176.182 3.361 39.261 68.071 76.205"/>
    <polygon stroke="#0E2D63" stroke-linejoin="round" stroke-width="5.12" points="68.071 213.541 3.361 176.182 3.361 39.261 68.071 76.205"/>
    <polygon fill="#FFF" points="68.071 213.541 68.071 75.209 133.607 38.869 132.84 176.136"/>
    <polygon stroke="#0E2D63" stroke-linejoin="round" stroke-width="5.12" points="68.071 213.541 68.071 75.209 133.607 38.869 132.84 176.136"/>
    <polygon fill="#FFF" points="2.838 37.865 68.571 76.159 133.607 37.578 68.521 0"/>
    <polygon stroke="#0E2D63" stroke-linejoin="round" stroke-width="5.12" points="2.838 37.865 68.571 76.159 133.607 37.578 68.521 0"/>
    <polygon fill="#FFF" points="18.343 37.915 68.488 67.128 118.102 37.696 68.45 9.03"/>
    <polygon stroke="#0E2D63" stroke-linejoin="round" stroke-width="5.12" points="18.343 37.915 68.488 67.128 118.102 37.696 68.45 9.03"/>
    <polygon fill="#FFF" points="21.18 186.122 39.313 197.196 39.313 160.98 21.18 149.627"/>
    <polygon stroke="#0E2D63" stroke-linejoin="round" stroke-width="5.12" points="21.18 186.122 39.313 197.196 39.313 160.98 21.18 149.627"/>
    <polygon fill="#FFF" points="0 144.996 45.18 172.372 58.311 164.381 58.311 152.734 0 134.084"/>
    <polygon stroke="#0E2D63" stroke-linejoin="round" stroke-width="5.12" points="0 144.996 45.18 172.372 58.311 164.381 58.311 152.734 0 134.084"/>
    <polygon fill="#FFF" points="0 134.083 45.044 160.325 58.311 152.734 13.711 126.983"/>
    <polygon stroke="#0E2D63" stroke-linejoin="round" stroke-width="5.12" points="0 134.083 45.044 160.325 58.311 152.734 13.711 126.983"/>
    <polygon fill="#FFF" points="119.085 164.41 106.258 171.428 106.258 155.283 119.085 148.067"/>
    <polygon stroke="#0E2D63" stroke-linejoin="round" stroke-width="5.12" points="119.085 164.41 106.258 171.428 106.258 155.283 119.085 148.067"/>
    <polygon fill="#FFF" points="98.557 175.61 85.728 182.629 85.728 166.484 98.557 159.268"/>
    <polygon stroke="#0E2D63" stroke-linejoin="round" stroke-width="5.12" points="98.557 175.61 85.728 182.629 85.728 166.484 98.557 159.268"/>
    <polygon fill="#FFF" points="119.085 139.015 106.258 146.034 106.258 129.888 119.085 122.673"/>
    <polygon stroke="#0E2D63" stroke-linejoin="round" stroke-width="5.12" points="119.085 139.015 106.258 146.034 106.258 129.888 119.085 122.673"/>
    <polygon fill="#FFF" points="98.557 150.216 85.728 157.235 85.728 141.089 98.557 133.874"/>
    <polygon stroke="#0E2D63" stroke-linejoin="round" stroke-width="5.12" points="98.557 150.216 85.728 157.235 85.728 141.089 98.557 133.874"/>
    <polygon fill="#FFF" points="119.085 113.346 106.258 120.364 106.258 104.219 119.085 97.003"/>
    <polygon stroke="#0E2D63" stroke-linejoin="round" stroke-width="5.12" points="119.085 113.346 106.258 120.364 106.258 104.219 119.085 97.003"/>
    <polygon fill="#FFF" points="98.557 124.546 85.728 131.565 85.728 115.42 98.557 108.204"/>
    <polygon stroke="#0E2D63" stroke-linejoin="round" stroke-width="5.12" points="98.557 124.546 85.728 131.565 85.728 115.42 98.557 108.204"/>
    <polygon fill="#FFF" points="119.085 87.217 106.258 94.235 106.258 78.09 119.085 70.874"/>
    <polygon stroke="#0E2D63" stroke-linejoin="round" stroke-width="5.12" points="119.085 87.217 106.258 94.235 106.258 78.09 119.085 70.874"/>
    <polygon fill="#FFF" points="98.557 98.418 85.728 105.436 85.728 89.291 98.557 82.075"/>
    <polygon stroke="#0E2D63" stroke-linejoin="round" stroke-width="5.12" points="98.557 98.418 85.728 105.436 85.728 89.291 98.557 82.075"/>
    <polygon fill="#FFF" points="51.067 106.267 41.102 100.419 41.102 86.48 28.629 79.406 28.629 93.104 18.467 87.142 18.467 101.831 28.629 107.723 28.629 119.291 41.102 126.143 41.102 114.953 51.067 120.733"/>
    <polygon stroke="#0E2D63" stroke-linejoin="round" stroke-width="5.12" points="51.067 106.267 41.102 100.419 41.102 86.48 28.629 79.406 28.629 93.104 18.467 87.142 18.467 101.831 28.629 107.723 28.629 119.291 41.102 126.143 41.102 114.953 51.067 120.733"/>
  </g>
</svg>
