<svg xmlns="http://www.w3.org/2000/svg" viewBox="0 0 256 256">
  <g fill="none" fill-rule="evenodd" transform="translate(54.272 29.696)">
    <path fill="#FFF" d="M147.429171,60.1939968 L145.326899,60.3209728 C141.669171,54.7627008 133.733171,54.8527239 124.524339,54.8527239 C115.316531,54.8527239 107.380531,54.7627008 103.722803,60.3209728 L101.613363,60.1939968 L101.568307,70.9951488 C101.568307,71.0535168 101.568307,71.1088128 101.568307,71.1589888 C101.621555,80.0196608 110.210867,94.5195008 124.995379,94.2030848 C139.372339,93.8948608 147.378995,79.8414848 147.429171,71.1589888 L147.429171,70.9951488 L147.429171,60.1939968 Z"/>
    <path stroke="#152E5F" stroke-width="5.12" d="M147.429171,60.1939968 L145.326899,60.3209728 C141.669171,54.7627008 133.733171,54.8527239 124.524339,54.8527239 C115.316531,54.8527239 107.380531,54.7627008 103.722803,60.3209728 L101.613363,60.1939968 L101.568307,70.9951488 C101.568307,71.0535168 101.568307,71.1088128 101.568307,71.1589888 C101.621555,80.0196608 110.210867,94.5195008 124.995379,94.2030848 C139.372339,93.8948608 147.378995,79.8414848 147.429171,71.1589888 L147.429171,70.9951488 L147.429171,60.1939968 Z"/>
    <polyline stroke="#152E5F" stroke-width="5.12" points="102.594 54.269 124.996 14.336 146.423 54.269"/>
    <path fill="#FFF" d="M48.2551808,114.771968 L46.0453888,114.906112 C42.1992448,109.063168 33.8556928,109.157284 24.1747968,109.157284 C14.4939008,109.157284 6.1503488,109.063168 2.3042048,114.906112 L0.0862208,114.771968 L0.0401408,126.128128 C0.0393728,126.189568 0.0393728,126.247936 0.0401408,126.301184 C0.0944128,135.616512 9.1260928,150.859776 24.6693888,150.528 C39.7846528,150.20544 48.2019328,135.42912 48.2551808,126.301184 L48.2551808,126.128128 L48.2551808,114.771968 Z"/>
    <path stroke="#152E5F" stroke-width="5.12" d="M48.2551808,114.771968 L46.0453888,114.906112 C42.1992448,109.063168 33.8556928,109.157284 24.1747968,109.157284 C14.4939008,109.157284 6.1503488,109.063168 2.3042048,114.906112 L0.0862208,114.771968 L0.0401408,126.128128 C0.0393728,126.189568 0.0393728,126.247936 0.0401408,126.301184 C0.0944128,135.616512 9.1260928,150.859776 24.6693888,150.528 C39.7846528,150.20544 48.2019328,135.42912 48.2551808,126.301184 L48.2551808,126.128128 L48.2551808,114.771968 Z"/>
    <polyline stroke="#152E5F" stroke-width="5.12" points="1.118 110.592 24.67 68.608 47.198 110.592"/>
    <path fill="#FFF" d="M100.479181,168.019968 L98.2693888,168.154112 C94.4232448,162.311168 86.0796928,162.405284 76.3987968,162.405284 C66.7179008,162.405284 58.3743488,162.311168 54.5282048,168.154112 L52.3102208,168.019968 L52.2641408,179.376128 L52.2641408,179.549184 C52.2641408,188.986368 63.0693888,196.692992 76.3987968,196.692992 C89.7282048,196.692992 100.479181,189.018112 100.479181,179.549184 L100.479181,179.376128 L100.479181,168.019968 Z"/>
    <path stroke="#152E5F" stroke-width="5.12" d="M100.479181,168.019968 L98.2693888,168.154112 C94.4232448,162.311168 86.0796928,162.405284 76.3987968,162.405284 C66.7179008,162.405284 58.3743488,162.311168 54.5282048,168.154112 L52.3102208,168.019968 L52.2641408,179.376128 L52.2641408,179.549184 C52.2641408,188.986368 63.0693888,196.692992 76.3987968,196.692992 C89.7282048,196.692992 100.479181,189.018112 100.479181,179.549184 L100.479181,179.376128 L100.479181,168.019968 Z"/>
    <path fill="#FFF" d="M76.35968,149.77495 C89.689088,149.77495 100.494336,157.450854 100.494336,166.918758 C100.494336,176.387686 89.689088,184.062566 76.35968,184.062566 C63.030272,184.062566 52.224,176.387686 52.224,166.918758 C52.224,157.450854 63.030272,149.77495 76.35968,149.77495"/>
    <path stroke="#152E5F" stroke-width="5.12" d="M76.35968,149.77495 C89.689088,149.77495 100.494336,157.450854 100.494336,166.918758 C100.494336,176.387686 89.689088,184.062566 76.35968,184.062566 C63.030272,184.062566 52.224,176.387686 52.224,166.918758 C52.224,157.450854 63.030272,149.77495 76.35968,149.77495 Z"/>
    <path fill="#FFF" d="M82.013696,22.528 L70.749696,22.528 L70.749696,165.957632 C71.351808,166.445056 73.165312,167.784448 75.869696,167.936 C79.202816,168.124416 81.496576,166.3744 82.013696,165.957632 L82.013696,22.528 Z"/>
    <path stroke="#152E5F" stroke-width="5.12" d="M82.013696,22.528 L70.749696,22.528 L70.749696,165.957632 C71.351808,166.445056 73.165312,167.784448 75.869696,167.936 C79.202816,168.124416 81.496576,166.3744 82.013696,165.957632 L82.013696,22.528 Z"/>
    <path fill="#FFF" d="M134.237696,9.728 C134.237696,15.100928 129.882624,19.456 124.509696,19.456 C119.136768,19.456 114.781696,15.100928 114.781696,9.728 C114.781696,4.355072 119.136768,0 124.509696,0 C129.882624,0 134.237696,4.355072 134.237696,9.728"/>
    <path stroke="#152E5F" stroke-width="5.12" d="M134.237696,9.728 C134.237696,15.100928 129.882624,19.456 124.509696,19.456 C119.136768,19.456 114.781696,15.100928 114.781696,9.728 C114.781696,4.355072 119.136768,0 124.509696,0 C129.882624,0 134.237696,4.355072 134.237696,9.728 Z"/>
    <path fill="#FFF" d="M63.348736,37.1930112 L68.483072,46.2267392 L121.629696,16.0228352 C121.535488,15.4381312 121.204736,13.7014272 120.029184,11.4998272 C118.5792,8.7872512 116.885504,7.3157632 116.49536,6.9891072 L63.348736,37.1930112 Z"/>
    <path stroke="#152E5F" stroke-width="5.12" d="M63.348736,37.1930112 L68.483072,46.2267392 L121.629696,16.0228352 C121.535488,15.4381312 121.204736,13.7014272 120.029184,11.4998272 C118.5792,8.7872512 116.885504,7.3157632 116.49536,6.9891072 L63.348736,37.1930112 Z"/>
    <path fill="#FFF" d="M90.205696,33.28 C90.205696,40.914944 84.01664,47.104 76.381696,47.104 C68.746752,47.104 62.557696,40.914944 62.557696,33.28 C62.557696,25.645056 68.746752,19.456 76.381696,19.456 C84.01664,19.456 90.205696,25.645056 90.205696,33.28"/>
    <path stroke="#152E5F" stroke-width="5.12" d="M90.205696,33.28 C90.205696,40.914944 84.01664,47.104 76.381696,47.104 C68.746752,47.104 62.557696,40.914944 62.557696,33.28 C62.557696,25.645056 68.746752,19.456 76.381696,19.456 C84.01664,19.456 90.205696,25.645056 90.205696,33.28 Z"/>
    <path fill="#FFF" d="M20.3747328,61.0499584 L25.5090688,70.0836864 L69.8236928,44.8994304 C69.6997888,44.3311104 69.2871168,42.6404864 68.1013248,40.4460544 C66.6400768,37.7385984 65.0539008,36.2066944 64.6893568,35.8657024 L20.3747328,61.0499584 Z"/>
    <path stroke="#152E5F" stroke-width="5.12" d="M20.3747328,61.0499584 L25.5090688,70.0836864 L69.8236928,44.8994304 C69.6997888,44.3311104 69.2871168,42.6404864 68.1013248,40.4460544 C66.6400768,37.7385984 65.0539008,36.2066944 64.6893568,35.8657024 L20.3747328,61.0499584 Z"/>
    <path fill="#FFF" d="M34.397696,64.512 C34.397696,69.884928 30.042624,74.24 24.669696,74.24 C19.296768,74.24 14.941696,69.884928 14.941696,64.512 C14.941696,59.139072 19.296768,54.784 24.669696,54.784 C30.042624,54.784 34.397696,59.139072 34.397696,64.512"/>
    <path stroke="#152E5F" stroke-width="5.12" d="M34.397696,64.512 C34.397696,69.884928 30.042624,74.24 24.669696,74.24 C19.296768,74.24 14.941696,69.884928 14.941696,64.512 C14.941696,59.139072 19.296768,54.784 24.669696,54.784 C30.042624,54.784 34.397696,59.139072 34.397696,64.512 Z"/>
    <path fill="#FFF" d="M24.13568,98.5749504 C37.465088,98.5749504 48.270336,106.250854 48.270336,115.718758 C48.270336,125.187686 37.465088,132.862566 24.13568,132.862566 C10.806272,132.862566 0,125.187686 0,115.718758 C0,106.250854 10.806272,98.5749504 24.13568,98.5749504"/>
    <path stroke="#152E5F" stroke-width="5.12" d="M24.13568,98.5749504 C37.465088,98.5749504 48.270336,106.250854 48.270336,115.718758 C48.270336,125.187686 37.465088,132.862566 24.13568,132.862566 C10.806272,132.862566 0,125.187686 0,115.718758 C0,106.250854 10.806272,98.5749504 24.13568,98.5749504 Z"/>
    <path fill="#FFF" d="M124.48768,42.8399616 C137.165824,42.8399616 147.443712,50.1400576 147.443712,59.1461376 C147.443712,68.1522176 137.165824,75.4533376 124.48768,75.4533376 C111.809536,75.4533376 101.531648,68.1522176 101.531648,59.1461376 C101.531648,50.1400576 111.809536,42.8399616 124.48768,42.8399616"/>
    <path stroke="#152E5F" stroke-width="5.12" d="M124.48768,42.8399616 C137.165824,42.8399616 147.443712,50.1400576 147.443712,59.1461376 C147.443712,68.1522176 137.165824,75.4533376 124.48768,75.4533376 C111.809536,75.4533376 101.531648,68.1522176 101.531648,59.1461376 C101.531648,50.1400576 111.809536,42.8399616 124.48768,42.8399616 Z"/>
  </g>
</svg>
