<svg xmlns="http://www.w3.org/2000/svg" viewBox="0 0 256 256">
  <g fill="none" fill-rule="evenodd" transform="translate(57.344 32.768)">
    <polygon fill="#FFF" points="124.321 153.921 109.317 10.744 106.776 9.218 106.817 9.004 95.879 2.683 68.88 121.607 80.065 128.059 99.771 40.375 110.638 145.717"/>
    <polygon stroke="#152E5F" stroke-linejoin="round" stroke-width="5.12" points="124.321 153.921 109.317 10.744 106.776 9.218 106.817 9.004 95.879 2.683 68.88 121.607 80.065 128.059 99.771 40.375 110.638 145.717"/>
    <polygon fill="#FFF" points="60.409 191.244 45.405 48.067 42.854 46.54 42.905 46.326 31.967 40.006 4.958 158.93 16.153 165.382 35.859 77.698 46.726 183.04"/>
    <polygon stroke="#152E5F" stroke-linejoin="round" stroke-width="5.12" points="60.409 191.244 45.405 48.067 42.854 46.54 42.905 46.326 31.967 40.006 4.958 158.93 16.153 165.382 35.859 77.698 46.726 183.04"/>
    <polygon fill="#FFF" points="0 118.851 12.885 126.011 12.885 81.621 0 74.461"/>
    <polygon stroke="#152E5F" stroke-linejoin="round" stroke-width="5.12" points="0 118.851 12.885 126.011 12.885 81.621 0 74.461"/>
    <polygon fill="#FFF" points="141.754 51.559 12.886 126.011 12.886 80.197 141.754 6.719"/>
    <polygon stroke="#152E5F" stroke-linejoin="round" stroke-width="5.12" points="141.754 51.559 12.886 126.011 12.886 80.197 141.754 6.719"/>
    <polygon fill="#FFF" points="128.869 0 0 74.461 12.885 81.621 141.754 6.719"/>
    <polygon stroke="#152E5F" stroke-linejoin="round" stroke-width="5.12" points="128.869 0 0 74.461 12.885 81.621 141.754 6.719"/>
    <line x1="34.056" x2="12.885" y1="113.833" y2="101.552" stroke="#152E5F" stroke-linejoin="round" stroke-width="5.12"/>
    <line x1="43.336" x2="12.885" y1="108.322" y2="90.439" stroke="#152E5F" stroke-linejoin="round" stroke-width="5.12"/>
    <line x1="63.236" x2="25.207" y1="96.738" y2="74.328" stroke="#152E5F" stroke-linejoin="round" stroke-width="5.12"/>
    <line x1="72.874" x2="34.272" y1="91.556" y2="69.289" stroke="#152E5F" stroke-linejoin="round" stroke-width="5.12"/>
    <line x1="93.984" x2="54.674" y1="79.326" y2="57.204" stroke="#152E5F" stroke-linejoin="round" stroke-width="5.12"/>
    <line x1="103.519" x2="65.244" y1="73.57" y2="51.16" stroke="#152E5F" stroke-linejoin="round" stroke-width="5.12"/>
    <line x1="124.178" x2="85.145" y1="61.484" y2="39.576" stroke="#152E5F" stroke-linejoin="round" stroke-width="5.12"/>
    <line x1="134.246" x2="95.469" y1="55.943" y2="33.533" stroke="#152E5F" stroke-linejoin="round" stroke-width="5.12"/>
    <g stroke="#152E5F" stroke-linejoin="round" stroke-width="5.12" transform="translate(114.97 16.152)">
      <line x1="26.784" y1="20.956" y2="6.319"/>
      <line x1="26.784" x2="10.211" y1="9.853"/>
    </g>
  </g>
</svg>
