<svg xmlns="http://www.w3.org/2000/svg" viewBox="0 0 64 64">
  <g fill="none" fill-rule="evenodd">
    <path fill="#A0AEC0" d="M16.7173926,39.5617459 L30.8538475,55.388901 C31.5816071,56.2036997 32.7615386,56.2036997 33.4892982,55.388901 L47.6257532,39.5617459 C48.3535128,38.7469473 48.3535128,37.4258976 47.6257532,36.611099 C47.2762707,36.2198189 46.8022707,36 46.3080278,36 L18.0351179,36 C17.0059104,36 16.1715729,36.9341231 16.1715729,38.0864224 C16.1715729,38.6397761 16.3679101,39.1704658 16.7173926,39.5617459 Z"/>
    <path fill="#2071BD" d="M16.7173926,24.4382541 L30.8538475,8.61109899 C31.5816071,7.79630034 32.7615386,7.79630034 33.4892982,8.61109899 L47.6257532,24.4382541 C48.3535128,25.2530527 48.3535128,26.5741024 47.6257532,27.388901 C47.2762707,27.7801811 46.8022707,28 46.3080278,28 L18.0351179,28 C17.0059104,28 16.1715729,27.0658769 16.1715729,25.9135776 C16.1715729,25.3602239 16.3679101,24.8295342 16.7173926,24.4382541 Z"/>
  </g>
</svg>
