<svg xmlns="http://www.w3.org/2000/svg" viewBox="0 0 64 64">
  <path d="M54,28 C57.2873392,28 60,30.8722291 60,34.4705882 L60,34.4705882 L60,53.5294118 L59.9960047,53.7682031 C59.8791535,57.2540072 57.2142872,60 54,60 L54,60 L10,60 L9.78171889,59.9957684 C6.59343767,59.8719868 4,57.0478074 4,53.5294118 L4,53.5294118 L4,34.4705882 L4.00427771,34.2243102 C4.11516858,31.0372115 6.3691437,28.4302668 9.26176882,28.0483298 C9.50496785,28.0162183 9.75128211,28 10,28 L10,28 Z M46,16 L46.3436238,16.0084926 C47.027384,16.0423921 47.6891487,16.1773523 48.3096221,16.4057183 L48.3096221,16.4057183 L48.5382173,16.4947816 C50.6451675,17.3619934 52,19.2262465 52,21.2727273 L52,21.2727273 L52,24 L10.999,24 L11,21.272742 L11.0053082,21.0511952 C11.1146916,18.7706302 12.9046859,16.7733739 15.4557496,16.1765036 L15.4557496,16.1765036 L15.7570627,16.1133481 C16.1618744,16.0382815 16.5775504,16 17,16 L17,16 L46,16 Z M41,4 C44.353993,4 47,6.40546091 47,9.27272727 L47,9.27272727 L47.0011095,12.0459537 C46.6701012,12.0154181 46.3360817,12 46,12 L46,12 L17,12 L17,9.2726804 L17.0042688,9.07341548 C17.123453,6.29487996 19.7240068,4 23,4 L23,4 Z"/>
</svg>
