<svg xmlns="http://www.w3.org/2000/svg" viewBox="0 0 64 64">
  <path d="M32,60 C47.463973,60 60,47.463973 60,32 C60,16.536027 47.463973,4 32,4 C16.536027,4 4,16.536027 4,32 C4,47.463973 16.536027,60 32,60 Z M32,16 C33.7673112,16 35.2,17.4326888 35.2,19.2 L35.2,28.8 L44.8,28.8 C46.5673112,28.8 48,30.2326888 48,32 C48,33.7673112 46.5673112,35.2 44.8,35.2 L35.2,35.2 L35.2,44.8 C35.2,46.5673112 33.7673112,48 32,48 C30.2326888,48 28.8,46.5673112 28.8,44.8 L28.8,35.2 L19.2,35.2 C17.4326888,35.2 16,33.7673112 16,32 C16,30.2326888 17.4326888,28.8 19.2,28.8 L28.8,28.8 L28.8,19.2 C28.8,17.4326888 30.2326888,16 32,16 Z"/>
</svg>
