<svg xmlns="http://www.w3.org/2000/svg" viewBox="0 0 64 64">
  <path d="M46,4 C48.209139,4 50,5.790861 50,8 L50,21 L58,21 C60.209139,21 62,22.790861 62,25 L62,49 C62,51.209139 60.209139,53 58,53 L50,53 L50,56 C50,58.209139 48.209139,60 46,60 L18,60 C15.790861,60 14,58.209139 14,56 L14,53 L6,53 C3.790861,53 2,51.209139 2,49 L2,25 C2,22.790861 3.790861,21 6,21 L14,21 L14,8 C14,5.790861 15.790861,4 18,4 L46,4 Z M44,45 L20,45 L20,52 C20,53.0565447 20.8937378,53.9217411 22.0260016,53.9949784 L22.1818182,54 L41.8181818,54 C42.9707761,54 43.9146267,53.1807403 43.9945218,52.1428318 L44,52 L44,45 Z M41.8181818,10 L22.1818182,10 C21.0292239,10 20.0853733,10.8192597 20.0054782,11.8571682 L20,12 L20,21 L44,21 L44,12 C44,10.9434553 43.1062622,10.0782589 41.9739984,10.0050216 L41.8181818,10 Z"/>
</svg>
