<svg xmlns="http://www.w3.org/2000/svg" viewBox="0 0 64 64">
  <path d="M16,8 L16,12 C16,14.1421954 17.6839685,15.8910789 19.8003597,15.9951047 L20,16 L44,16 C46.1421954,16 47.8910789,14.3160315 47.9951047,12.1996403 L48,12 L48,8 L52,8 C54.209139,8 56,9.790861 56,12 L56,56 C56,58.209139 54.209139,60 52,60 L12,60 C9.790861,60 8,58.209139 8,56 L8,12 C8,9.790861 9.790861,8 12,8 L16,8 Z M42,4 C43.1045695,4 44,4.8954305 44,6 L44,10 C44,11.1045695 43.1045695,12 42,12 L22,12 C20.8954305,12 20,11.1045695 20,10 L20,6 C20,4.8954305 20.8954305,4 22,4 L42,4 Z"/>
</svg>
