<svg xmlns="http://www.w3.org/2000/svg" viewBox="0 0 64 64">
  <path d="M54,36 C55.1045695,36 56,36.8954305 56,38 L56,56 C56,58.209139 54.209139,60 52,60 C49.790861,60 48,58.209139 48,56 L48.0008348,49.8891097 C43.7292657,53.7072924 38.1005535,56 32,56 C22.8161491,56 14.5613795,50.7930792 10.5255934,42.7266131 C9.53713624,40.7509493 10.3374253,38.3480545 12.3130891,37.3595973 C14.2887529,36.3711401 16.6916478,37.1714291 17.680105,39.147093 C20.3730741,44.529624 25.8748198,48 32,48 C36.0263292,48 39.7453567,46.5009128 42.5829284,44.0012958 L36,44 C33.790861,44 32,42.209139 32,40 C32,37.790861 33.790861,36 36,36 L54,36 Z M12.1019738,4 C14.3111128,4 16.1019738,5.790861 16.1019738,8 L16.1011389,14.1108903 C20.3727081,10.2927076 26.0014203,8 32.1019738,8 C41.2858246,8 49.5405943,13.2069208 53.5763803,21.2733869 C54.5648375,23.2490507 53.7645485,25.6519455 51.7888847,26.6404027 C49.8132208,27.6288599 47.410326,26.8285709 46.4218688,24.852907 C43.7288997,19.470376 38.227154,16 32.1019738,16 C28.0756446,16 24.3566171,17.4990872 21.5190453,19.9987042 L28.1019738,20 C30.3111128,20 32.1019738,21.790861 32.1019738,24 C32.1019738,26.209139 30.3111128,28 28.1019738,28 L10.1019738,28 C8.99740427,28 8.10197377,27.1045695 8.10197377,26 L8.10197377,8 C8.10197377,5.790861 9.89283477,4 12.1019738,4 Z"/>
</svg>
