<svg xmlns="http://www.w3.org/2000/svg" viewBox="0 0 64 64">
  <path fill-rule="evenodd" d="M32,4 C47.463973,4 60,16.536027 60,32 C60,47.463973 47.463973,60 32,60 C16.536027,60 4,47.463973 4,32 C4,16.536027 16.536027,4 32,4 Z M32,42 C29.790861,42 28,43.790861 28,46 C28,48.209139 29.790861,50 32,50 C34.209139,50 36,48.209139 36,46 C36,43.790861 34.209139,42 32,42 Z M32,14 C29.790861,14 28,15.790861 28,18 L28,18 L28,34 C28,36.209139 29.790861,38 32,38 C34.209139,38 36,36.209139 36,34 L36,34 L36,18 C36,15.790861 34.209139,14 32,14 Z"/>
</svg>
