<svg xmlns="http://www.w3.org/2000/svg" viewBox="0 0 64 64">
  <path d="M43.0277808,32.2273833 C52.5262307,33.6700498 59.8305375,41.793794 59.9970929,51.6555106 L60,52 C60,56.418278 56.418278,60 52,60 L12,60 C7.581722,60 4,56.418278 4,52 C4,41.9832542 11.363751,33.6864046 20.9731451,32.2273833 C24.0194832,34.5924325 27.8453641,36 32,36 C36.1550905,36 39.981354,34.5921245 43.0277808,32.2273833 Z M32,4 C39.7319865,4 46,10.2680135 46,18 C46,25.7319865 39.7319865,32 32,32 C24.2680135,32 18,25.7319865 18,18 C18,10.2680135 24.2680135,4 32,4 Z"/>
</svg>
