<svg xmlns="http://www.w3.org/2000/svg" viewBox="0 0 64 64">
  <g transform="translate(2.82 -.656)">
    <path d="M15.3847763,21.8406204 L21.3847763,21.8406204 C21.9370611,21.8406204 22.3847763,22.2883357 22.3847763,22.8406204 L22.3847763,57.6642082 C22.3847763,57.8201884 22.3482882,57.974006 22.2782283,58.1133669 L19.2850519,64.0672962 C19.0369884,64.5607361 18.4358811,64.759653 17.9424412,64.5115895 C17.750994,64.4153446 17.5955248,64.2601495 17.4989421,64.0688725 L14.4921185,58.1140108 C14.4215439,57.9742414 14.3847763,57.8198525 14.3847763,57.6632758 L14.3847763,22.8406204 C14.3847763,22.2883357 14.8324916,21.8406204 15.3847763,21.8406204 Z" transform="rotate(45 18.385 43.84)"/>
    <path d="M44.6758647,34.0470075 L43.2739412,20.6075757 L48.1101474,20.6075757 C49.6289455,20.6075757 50.8601402,19.386553 50.8601402,17.880303 L50.8601402,12.4257575 C50.8601402,10.9195075 49.6289455,9.69848481 48.1101474,9.69848481 L16.9435619,9.69848481 C15.4247638,9.69848481 14.1935691,10.9195075 14.1935691,12.4257575 L14.1935691,17.880303 C14.1935691,19.386553 15.4247638,20.6075757 16.9435619,20.6075757 L21.779768,20.6075757 L20.3778446,34.0470075 C14.8197653,36.6098484 10.5269119,41.2054166 10.5269119,46.9712121 C10.5269119,48.4774621 11.7581066,49.6984848 13.2769048,49.6984848 L28.8601975,49.6984848 L36.1936263,49.6984848 L51.7769191,49.6984848 C53.2957172,49.6984848 54.5269119,48.4774621 54.5269119,46.9712121 C54.5269119,41.1549621 50.1747045,36.5825757 44.6758647,34.0470075 Z" transform="rotate(45 32.527 29.698)"/>
  </g>
</svg>
