<svg xmlns="http://www.w3.org/2000/svg" viewBox="0 0 64 64">
  <path d="M32,12 C18.3636364,12 6.71818182,20.2933333 2,32 C6.71818182,43.7066667 18.3636364,52 32,52 C45.6363636,52 57.2818182,43.7066667 62,32 C57.2818182,20.2933333 45.6363636,12 32,12 Z M32,44 C25.376,44 20,38.624 20,32 C20,25.376 25.376,20 32,20 C38.624,20 44,25.376 44,32 C44,38.624 38.624,44 32,44 Z M32,24 C27.5733333,24 24,27.5733333 24,32 C24,36.4266667 27.5733333,40 32,40 C36.4266667,40 40,36.4266667 40,32 C40,27.5733333 36.4266667,24 32,24 Z"/>
</svg>
