<svg xmlns="http://www.w3.org/2000/svg" viewBox="0 0 64 64">
  <path d="M26,4 C38.1502645,4 48,13.8497355 48,26 C48,30.6297752 46.5698785,34.9255277 44.1272966,38.4695965 L57.627417,51.9705627 C59.1895142,53.5326599 59.1895142,56.0653198 57.627417,57.627417 C56.0653198,59.1895142 53.5326599,59.1895142 51.9705627,57.627417 L38.4695965,44.1272966 C34.9255277,46.5698785 30.6297752,48 26,48 C13.8497355,48 4,38.1502645 4,26 C4,13.8497355 13.8497355,4 26,4 Z M26,12 C18.2680135,12 12,18.2680135 12,26 C12,33.7319865 18.2680135,40 26,40 C33.7319865,40 40,33.7319865 40,26 C40,18.2680135 33.7319865,12 26,12 Z"/>
</svg>
