<svg xmlns="http://www.w3.org/2000/svg" viewBox="0 0 64 64">
  <path d="M32,4 L32,12 L12,12 L12,52 L52,52 L52,32 L60,32 L60,56 C60,58.209139 58.209139,60 56,60 L8,60 C5.790861,60 4,58.209139 4,56 L4,8 C4,5.790861 5.790861,4 8,4 L32,4 Z M62,1.03028697e-13 C63.1045695,1.03028697e-13 64,0.8954305 64,2 L64,20 C64,22.209139 62.209139,24 60,24 C57.790861,24 56,22.209139 56,20 L55.9994373,13.656 L26.8578644,42.7989899 C25.2957672,44.361087 22.7631073,44.361087 21.2010101,42.7989899 C19.638913,41.2368927 19.638913,38.7042328 21.2010101,37.1421356 L50.3424373,8 L44,8 C41.790861,8 40,6.209139 40,4 C40,1.790861 41.790861,1.03028697e-13 44,1.03028697e-13 L62,1.03028697e-13 Z"/>
</svg>

