<svg xmlns="http://www.w3.org/2000/svg" viewBox="0 0 64 64">
  <path d="M58,27 L58,57.625 C58,60.0412458 56.0599006,62 53.6666667,62 L10.3333333,62 C7.94009942,62 6,60.0412458 6,57.625 L6,27 L58,27 Z M44,2 C46.209139,2 48,3.790861 48,6 L48,10 L53.6666667,10 C56.0599006,10 58,11.9400994 58,14.3333333 L58,23 L6,23 L6,14.3333333 C6,11.9400994 7.94009942,10 10.3333333,10 L16,10 L16,6 C16,3.790861 17.790861,2 20,2 C22.209139,2 24,3.790861 24,6 L24,10 L40,10 L40,6 C40,3.790861 41.790861,2 44,2 Z"/>
</svg>
