<svg xmlns="http://www.w3.org/2000/svg" viewBox="0 0 64 64">
  <path d="M32,4 L32,12 L12,12 L12,52 L52,52 L52,32 L60,32 L60,56 C60,58.209139 58.209139,60 56,60 L8,60 C5.790861,60 4,58.209139 4,56 L4,8 C4,5.790861 5.790861,4 8,4 L32,4 Z M52.2132034,6.24264069 L57.8700577,11.8994949 L26.8284271,42.9411255 C25.26633,44.5032227 22.73367,44.5032227 21.1715729,42.9411255 C19.6094757,41.3790283 19.6094757,38.8463684 21.1715729,37.2842712 L52.2132034,6.24264069 Z M60.6984848,0.585786438 L63.5269119,3.41421356 C64.3079605,4.19526215 64.3079605,5.4615921 63.5269119,6.24264069 L59.2842712,10.4852814 L53.627417,4.82842712 L57.8700577,0.585786438 C58.6511063,-0.195262146 59.9174362,-0.195262146 60.6984848,0.585786438 Z"/>
</svg>
