<svg xmlns="http://www.w3.org/2000/svg" viewBox="0 0 64 64">
  <path d="M32,4 C47.463973,4 60,16.536027 60,32 C60,47.463973 47.463973,60 32,60 C16.536027,60 4,47.463973 4,32 C4,16.536027 16.536027,4 32,4 Z M45.2032102,18.7967898 C43.9878883,17.5814678 41.8204195,17.7785104 40.3620332,19.2368968 L40.3620332,19.2368968 L32,27.5989299 L23.6379668,19.2368968 C22.1795805,17.7785104 20.0121117,17.5814678 18.7967898,18.7967898 C17.5814678,20.0121117 17.7785104,22.1795805 19.2368968,23.6379668 L19.2368968,23.6379668 L27.5989299,32 L19.2368968,40.3620332 C17.7785104,41.8204195 17.5814678,43.9878883 18.7967898,45.2032102 C20.0121117,46.4185322 22.1795805,46.2214896 23.6379668,44.7631032 L23.6379668,44.7631032 L32,36.4010701 L40.3620332,44.7631032 C41.8204195,46.2214896 43.9878883,46.4185322 45.2032102,45.2032102 C46.4185322,43.9878883 46.2214896,41.8204195 44.7631032,40.3620332 L44.7631032,40.3620332 L36.4010701,32 L44.7631032,23.6379668 C46.2214896,22.1795805 46.4185322,20.0121117 45.2032102,18.7967898 Z"/>
</svg>
