<svg xmlns="http://www.w3.org/2000/svg" viewBox="0 0 64 64">
  <path d="M42.5,32 C47.072052,32 50.9615893,34.9221924 52.4028006,39.0007655 L58,39 C60.209139,39 62,40.790861 62,43 C62,45.209139 60.209139,47 58,47 L51.9892648,47.0006072 C50.3039448,50.5477008 46.688355,53 42.5,53 C38.311645,53 34.6960552,50.5477008 33.0107352,47.0006072 L6,47 C3.790861,47 2,45.209139 2,43 C2,40.790861 3.790861,39 6,39 L32.5971994,39.0007655 C34.0384107,34.9221924 37.927948,32 42.5,32 Z M42.5,39 C40.5670034,39 39,40.5670034 39,42.5 C39,44.4329966 40.5670034,46 42.5,46 C44.4329966,46 46,44.4329966 46,42.5 C46,40.5670034 44.4329966,39 42.5,39 Z M20.5,10 C25.072052,10 28.9615893,12.9221924 30.4028006,17.0007655 L58,17 C60.209139,17 62,18.790861 62,21 C62,23.209139 60.209139,25 58,25 L29.9892648,25.0006072 C28.3039448,28.5477008 24.688355,31 20.5,31 C16.311645,31 12.6960552,28.5477008 11.0107352,25.0006072 L6,25 C3.790861,25 2,23.209139 2,21 C2,18.790861 3.790861,17 6,17 L10.5971994,17.0007655 C12.0384107,12.9221924 15.927948,10 20.5,10 Z M20.5,17 C18.5670034,17 17,18.5670034 17,20.5 C17,22.4329966 18.5670034,24 20.5,24 C22.4329966,24 24,22.4329966 24,20.5 C24,18.5670034 22.4329966,17 20.5,17 Z"/>
</svg>
