<svg xmlns="http://www.w3.org/2000/svg" viewBox="0 0 64 64">
  <path d="M32,4 C47.463973,4 60,16.536027 60,32 C60,47.463973 47.463973,60 32,60 C16.536027,60 4,47.463973 4,32 C4,16.536027 16.536027,4 32,4 Z M31.689,43.735 C29.181,43.735 27.357,45.559 27.357,48.181 C27.357,50.689 29.124,52.627 31.689,52.627 C34.311,52.627 36.021,50.689 36.021,48.181 C35.964,45.559 34.254,43.735 31.689,43.735 Z M32.544,12.955 C28.953,12.955 25.647,13.981 23.595,15.292 L25.305,20.308 C26.73,19.225 29.01,18.598 31.005,18.598 C34.197,18.655 35.679,20.251 35.679,22.645 C35.679,24.868 34.254,26.863 32.088,29.428 C29.409,32.677 28.383,35.812 28.668,38.776 L28.782,40.258 L34.938,40.258 L34.881,39.061 C34.767,36.325 35.679,33.988 37.902,31.366 C40.353,28.573 42.861,25.723 42.861,21.619 C42.861,17.059 39.612,12.955 32.544,12.955 Z"/>
</svg>
