<svg xmlns="http://www.w3.org/2000/svg" viewBox="0 0 64 64">
  <path d="M32,4 C47.463973,4 60,16.536027 60,32 C60,47.463973 47.463973,60 32,60 C16.536027,60 4,47.463973 4,32 C4,16.536027 16.536027,4 32,4 Z M23,18.236068 C21.8954305,18.236068 21,19.1314985 21,20.236068 L21,20.236068 L21,43.763932 C21,44.0744222 21.0722902,44.3806483 21.2111456,44.6583592 C21.7051241,45.6463162 22.9064702,46.0467649 23.8944272,45.5527864 L23.8944272,45.5527864 L47.4222912,33.7888544 C47.809346,33.595327 48.123191,33.281482 48.3167184,32.8944272 C48.8106969,31.9064702 48.4102482,30.7051241 47.4222912,30.2111456 L47.4222912,30.2111456 L23.8944272,18.4472136 C23.6167163,18.3083582 23.3104902,18.236068 23,18.236068 Z"/>
</svg>
