<svg xmlns="http://www.w3.org/2000/svg" viewBox="0 0 64 64">
  <path d="M59.1421356,8 C56.9329966,8 55.1421356,9.790861 55.1421356,12 L55.1421356,52 C55.1421356,54.209139 56.9329966,56 59.1421356,56 C61.3512746,56 63.1421356,54.209139 63.1421356,52 L63.1421356,12 C63.1421356,9.790861 61.3512746,8 59.1421356,8 Z M17.3137085,17.8578644 L4.58578644,30.5857864 C3.80473785,31.366835 3.80473785,32.633165 4.58578644,33.4142136 L17.3137085,46.1421356 C18.8758057,47.7042328 21.4084656,47.7042328 22.9705627,46.1421356 C24.5326599,44.5800385 24.5326599,42.0473785 22.9705627,40.4852814 L18.4861356,36 L47.1421356,36 C49.3512746,36 51.1421356,34.209139 51.1421356,32 C51.1421356,29.790861 49.3512746,28 47.1421356,28 L18.4861356,28 L22.9705627,23.5147186 C24.5326599,21.9526215 24.5326599,19.4199615 22.9705627,17.8578644 C21.4084656,16.2957672 18.8758057,16.2957672 17.3137085,17.8578644 Z"/>
</svg>
