<svg xmlns="http://www.w3.org/2000/svg" viewBox="0 0 64 64">
  <path d="M8,8 C10.209139,8 12,9.790861 12,12 L12,52 C12,54.209139 10.209139,56 8,56 C5.790861,56 4,54.209139 4,52 L4,12 C4,9.790861 5.790861,8 8,8 Z M49.8284271,17.8578644 L62.5563492,30.5857864 C63.3373978,31.366835 63.3373978,32.633165 62.5563492,33.4142136 L49.8284271,46.1421356 C48.26633,47.7042328 45.73367,47.7042328 44.1715729,46.1421356 C42.6094757,44.5800385 42.6094757,42.0473785 44.1715729,40.4852814 L48.656,36 L20,36 C17.790861,36 16,34.209139 16,32 C16,29.790861 17.790861,28 20,28 L48.656,28 L44.1715729,23.5147186 C42.6094757,21.9526215 42.6094757,19.4199615 44.1715729,17.8578644 C45.73367,16.2957672 48.26633,16.2957672 49.8284271,17.8578644 Z"/>
</svg>
