<svg xmlns="http://www.w3.org/2000/svg" viewBox="0 0 64 64">
  <path d="M5.98642041,31.9619472 C4.88935071,31.9619472 4,31.065097 4,29.9587761 C4,29.3421359 4.28162837,28.7598594 4.76349252,28.3802285 L29.5541001,8.84924688 C30.9913616,7.71691771 33.0085501,7.71691771 34.4458116,8.84924688 L59.2364191,28.3802285 C60.1009368,29.0613283 60.2542434,30.3202087 59.578839,31.1920165 C59.2023826,31.677944 58.6249751,31.9619472 58.0134913,31.9619472 L55.8370007,31.9619472 L55.8370007,51.9936579 C55.8370007,54.2062995 54.0582993,56 51.8641599,56 L37.959217,56 L37.959217,39.9746315 L26.0406946,39.9746315 L26.0406946,56 L12.1357518,56 C9.94161239,56 8.16291097,54.2062995 8.16291097,51.9936579 L8.16291097,31.9619472 L5.98642041,31.9619472 Z"/>
</svg>
