<svg xmlns="http://www.w3.org/2000/svg" viewBox="0 0 64 64">
  <path d="M56,0 C60.418278,0 64,3.581722 64,8 L64,56 C64,60.418278 60.418278,64 56,64 L8,64 C3.581722,64 0,60.418278 0,56 L0,8 C0,3.581722 3.581722,0 8,0 L56,0 Z M51.998661,10 L33.9866105,10 C31.7759925,10 29.9839326,11.7920599 29.9839326,14.0026779 C29.9839326,16.2132959 31.7759925,18.0053558 33.9866105,18.0053558 L33.9866105,18.0053558 L40.3332938,18.0053558 L18.0059189,40.3348576 L18.0053558,33.9866105 C18.0053558,31.7759925 16.2132959,29.9839326 14.0026779,29.9839326 C11.7920599,29.9839326 10,31.7759925 10,33.9866105 L10,33.9866105 L10,51.998661 C10,53.10397 10.89603,54 12.001339,54 L12.001339,54 L30.0133895,54 C32.2240075,54 34.0160674,52.2079401 34.0160674,49.9973221 C34.0160674,47.7867041 32.2240075,45.9946442 30.0133895,45.9946442 L30.0133895,45.9946442 L23.6667062,45.9946442 L45.9940811,23.6651424 L45.9946442,30.0133895 C45.9946442,32.2240075 47.7867041,34.0160674 49.9973221,34.0160674 C52.2079401,34.0160674 54,32.2240075 54,30.0133895 L54,30.0133895 L54,12.001339 C54,10.89603 53.10397,10 51.998661,10 L51.998661,10 Z"/>
</svg>
