<svg xmlns="http://www.w3.org/2000/svg" viewBox="0 0 64 64">
  <path d="M29.9956071,55.2467299 C20.8150816,50.7290556 13.3414397,43.2722453 8.80248565,34.1041033 L8.55892223,33.6038228 C5.63651154,27.5182903 4,20.700259 4,13.5 C4,10.8944896 4.21429323,8.3390301 4.62621635,5.85028479 C5.29696738,4.79960234 6.44530023,4.08313395 7.76533296,4.0067692 L8,4 L16.5506264,4 C18.414285,4 20.0212798,5.28498922 20.4439933,7.08232576 L20.4847101,7.27682284 L23.447339,23.3935244 C23.7610495,25.100109 22.938664,26.8054668 21.4286528,27.6283412 L21.2441796,27.7227938 L17.657,29.444 L17.8991228,29.9319503 C21.4988822,37.0597995 27.3675111,42.8464329 34.5557963,46.3426375 L36.2772062,42.7558204 C37.0581066,41.1289446 38.8316276,40.2264021 40.6064756,40.552661 L56.7231772,43.5152899 C58.6215868,43.8642623 60,45.5191558 60,47.4493736 L60,56 C60,57.4171835 59.2629992,58.6622313 58.1513638,59.372777 C55.6623407,59.7855918 53.1062092,60 50.5,60 C43.299741,60 36.4817097,58.3634885 30.3975702,55.4421294 L29.9956071,55.2467299 Z"/>
</svg>
