<svg xmlns="http://www.w3.org/2000/svg" viewBox="0 0 64 64">
  <path d="M32,4 C47.463973,4 60,16.536027 60,32 C60,47.463973 47.463973,60 32,60 C16.536027,60 4,47.463973 4,32 C4,16.536027 16.536027,4 32,4 Z M38.4142176,19.7864712 L16.2049108,41.9783533 C14.5983631,43.5846521 14.5983631,46.1889771 16.2049108,47.7952759 C17.8114586,49.4015747 20.4161873,49.4015747 22.022735,47.7952759 L22.022735,47.7952759 L44.2320418,25.6033938 L38.4142176,19.7864712 Z M46.2320377,14.6462069 C45.3700642,13.7845977 43.972529,13.7845977 43.1105555,14.6462069 L43.1105555,14.6462069 L40.893562,16.9416936 L47.1365264,23.1820196 L49.3535199,20.886533 C50.2154934,20.0249237 50.2154934,18.6279792 49.3535199,17.7663699 L49.3535199,17.7663699 Z"/>
</svg>
