<svg xmlns="http://www.w3.org/2000/svg" viewBox="0 0 64 64">
  <path d="M59.1421356,8 C56.9329966,8 55.1421356,9.790861 55.1421356,12 L55.1421356,52 C55.1421356,54.209139 56.9329966,56 59.1421356,56 C61.3512746,56 63.1421356,54.209139 63.1421356,52 L63.1421356,12 C63.1421356,9.790861 61.3512746,8 59.1421356,8 Z M37.8284271,46.1421356 L50.5563492,33.4142136 C51.3373978,32.633165 51.3373978,31.366835 50.5563492,30.5857864 L37.8284271,17.8578644 C36.26633,16.2957672 33.73367,16.2957672 32.1715729,17.8578644 C30.6094757,19.4199615 30.6094757,21.9526215 32.1715729,23.5147186 L36.656,28 L8,28 C5.790861,28 4,29.790861 4,32 C4,34.209139 5.790861,36 8,36 L36.656,36 L32.1715729,40.4852814 C30.6094757,42.0473785 30.6094757,44.5800385 32.1715729,46.1421356 C33.73367,47.7042328 36.26633,47.7042328 37.8284271,46.1421356 Z" transform="rotate(90 33.571 32)"/>
</svg>
