<svg xmlns="http://www.w3.org/2000/svg" viewBox="0 0 64 64">
  <path d="M16.7173926 39.5617459L30.8538475 55.388901C31.5816071 56.2036997 32.7615386 56.2036997 33.4892982 55.388901L47.6257532 39.5617459C48.3535128 38.7469473 48.3535128 37.4258976 47.6257532 36.611099 47.2762707 36.2198189 46.8022707 36 46.3080278 36L18.0351179 36C17.0059104 36 16.1715729 36.9341231 16.1715729 38.0864224 16.1715729 38.6397761 16.3679101 39.1704658 16.7173926 39.5617459zM16.7173926 24.4382541L30.8538475 8.61109899C31.5816071 7.79630034 32.7615386 7.79630034 33.4892982 8.61109899L47.6257532 24.4382541C48.3535128 25.2530527 48.3535128 26.5741024 47.6257532 27.388901 47.2762707 27.7801811 46.8022707 28 46.3080278 28L18.0351179 28C17.0059104 28 16.1715729 27.0658769 16.1715729 25.9135776 16.1715729 25.3602239 16.3679101 24.8295342 16.7173926 24.4382541z"/>
</svg>
