<svg xmlns="http://www.w3.org/2000/svg" viewBox="0 0 64 64">
  <path fill-rule="evenodd" d="M34.8284271,2.82842712 L61.1715729,29.1715729 C62.73367,30.73367 62.73367,33.26633 61.1715729,34.8284271 L34.8284271,61.1715729 C33.26633,62.73367 30.73367,62.73367 29.1715729,61.1715729 L2.82842712,34.8284271 C1.26632996,33.26633 1.26632996,30.73367 2.82842712,29.1715729 L29.1715729,2.82842712 C30.73367,1.26632996 33.26633,1.26632996 34.8284271,2.82842712 Z M32,42 C29.790861,42 28,43.790861 28,46 C28,48.209139 29.790861,50 32,50 C34.209139,50 36,48.209139 36,46 C36,43.790861 34.209139,42 32,42 Z M32,14 C29.790861,14 28,15.790861 28,18 L28,18 L28,34 C28,36.209139 29.790861,38 32,38 C34.209139,38 36,36.209139 36,34 L36,34 L36,18 C36,15.790861 34.209139,14 32,14 Z"/>
</svg>
