<svg xmlns="http://www.w3.org/2000/svg" viewBox="0 0 64 64">
  <path d="M47.5832355,2 C49.1020336,2 50.3332283,3.22102273 50.3332283,4.72727273 L50.3332283,4.72727273 L50.3332283,10.1818182 C50.3332283,11.6880682 49.1020336,12.9090909 47.5832355,12.9090909 L47.5832355,12.9090909 L42.7470293,12.9090909 L44.1489527,26.3485227 C49.6477926,28.8840909 54,33.4564773 54,39.2727273 C54,40.7789773 52.7688053,42 51.2500072,42 L51.2500072,42 L36,42 L36,55.8235877 C36,55.979568 35.9635119,56.1333856 35.893452,56.2727465 L32.9002756,62.2266758 C32.6522121,62.7201157 32.0511048,62.9190326 31.5576649,62.6709691 C31.3662177,62.5747242 31.2107485,62.4195291 31.1141658,62.2282521 L28.1073422,56.2733904 C28.0367676,56.1336209 28,55.9792321 28,55.8226554 L28,42 L12.7499928,42 C11.2874465,42 10.0915941,40.8677485 10.0050187,39.4388671 L10,39.2727273 C10,33.5069318 14.2928534,28.9113636 19.8509327,26.3485227 L19.8509327,26.3485227 L21.2528561,12.9090909 L16.41665,12.9090909 C14.8978518,12.9090909 13.6666571,11.6880682 13.6666571,10.1818182 L13.6666571,10.1818182 L13.6666571,4.72727273 C13.6666571,3.22102273 14.8978518,2 16.41665,2 L16.41665,2 Z"/>
</svg>
