<svg xmlns="http://www.w3.org/2000/svg" viewBox="0 0 64 64">
  <path d="M35.9622642,63 L35.9622642,55.2404908 C45.0188679,53.5668712 50,47.7852761 50,40.7104294 C50,33.7877301 46.5283019,29.4515337 37.0188679,26.2564417 C30.6792453,24.0503067 28.1132075,22.604908 28.1132075,20.7030675 C28.1132075,19.0294479 29.4716981,17.4319018 33.9245283,17.4319018 C39.5849057,17.4319018 43.2830189,19.1815951 45.3207547,20.0184049 L47.7358491,9.9006135 C45.0188679,8.68343558 41.4716981,7.61840491 36.2641509,7.46625767 L36.2641509,1 L27.7358491,1 L27.7358491,8.07484663 C19.1320755,9.82453988 14.3773585,15.3018405 14.3773585,22.2245399 C14.3773585,29.9079755 20.1886792,33.7877301 28.4150943,36.4503067 C34,38.2 36.2641509,39.6453988 36.2641509,42.003681 C36.2641509,44.4380368 33.5471698,45.5030675 29.6981132,45.5030675 C24.490566,45.5030675 19.8113208,43.8294479 16.4150943,42.1558282 L14,52.6539877 C16.8679245,54.1754601 22.0754717,55.6208589 27.3584906,55.9251534 L27.3584906,63 L35.9622642,63 Z"/>
</svg>
