<svg xmlns="http://www.w3.org/2000/svg" viewBox="0 0 64 64">
  <path d="M10.8284271,8 L56.0832611,53.254834 L53.254834,56.0832611 L46.0301754,48.8594037 C41.7895541,50.8714825 37.0302338,52 32,52 C18.3636364,52 6.71818182,43.7066667 2,32 C4.46066562,25.8946414 8.80549281,20.7176815 14.3342512,17.1613555 L8,10.8284271 L10.8284271,8 Z M32,12 C45.6363636,12 57.2818182,20.2933333 62,32 C59.9875543,36.9932435 56.7148454,41.365507 52.5649233,44.7381138 L43.4446988,35.6166225 C43.805425,34.4752 44,33.2601846 44,32 C44,25.376 38.624,20 32,20 C30.7398154,20 29.5248,20.194575 28.3833775,20.5553012 L21.5300086,13.7032409 C24.8121894,12.5993497 28.3341544,12 32,12 Z M22.2196459,25.048155 C20.8221779,27.0099822 20,29.4095597 20,32 C20,38.624 25.376,44 32,44 C34.5903058,44 36.9897686,43.1779075 38.9515393,41.7805718 L36.0667039,38.8948124 C34.875904,39.5973033 33.4860352,40 32,40 C27.5733333,40 24,36.4266667 24,32 C24,30.5139648 24.4026967,29.124096 25.1051876,27.9332961 L22.2196459,25.048155 Z M32,24 C36.3431447,24 39.8648534,27.4397627 39.996202,31.7503636 L39.9982477,32.1696374 L31.83,24.002 L32,24 Z"/>
</svg>
