<svg xmlns="http://www.w3.org/2000/svg" viewBox="0 0 64 64">
  <path d="M34.1199958,1.32499735 L62.1199958,18.8249974 C63.2895212,19.5559508 64,20.8378304 64,22.2169906 L64,56 C64,58.209139 62.209139,60 60,60 L4,60 C1.790861,60 0,58.209139 0,56 L0,22.2169906 C0,20.8378304 0.710478787,19.5559508 1.88000424,18.8249974 L29.8800042,1.32499735 C31.1770854,0.514321638 32.8229146,0.514321638 34.1199958,1.32499735 Z M55.3153947,25.7625126 C54.0794414,23.9314707 51.5931505,23.4490561 49.7621086,24.6850094 L49.7621086,24.6850094 L31.999,36.6744041 L14.2378914,24.6850094 L14.0587123,24.5707529 C12.2477447,23.4815829 9.88068915,23.9905366 8.6846053,25.7625126 C7.448652,27.5935546 7.93106665,30.0798454 9.76210858,31.3157987 L9.76210858,31.3157987 L29.7621086,44.8157987 L29.9490316,44.9346145 C31.2745653,45.7267199 32.9470531,45.6871146 34.2378914,44.8157987 L34.2378914,44.8157987 L54.2378914,31.3157987 L54.4108665,31.1923511 C56.0982688,29.9201214 56.5114785,27.5344887 55.3153947,25.7625126 Z"/>
</svg>
