<svg xmlns="http://www.w3.org/2000/svg" viewBox="0 0 64 64">
  <path d="M56,16 L52.3056515,60.3321819 C52.1328875,62.4053504 50.399823,64 48.3194685,64 L15.6805315,64 C13.600177,64 11.8671125,62.4053504 11.6943485,60.3321819 L8,16 L56,16 Z M38,0 C40.6125579,0 42.8351204,1.66976896 43.6587023,4.00032181 L58,4 C59.1045695,4 60,4.8954305 60,6 L60,10 C60,11.1045695 59.1045695,12 58,12 L6,12 C4.8954305,12 4,11.1045695 4,10 L4,6 C4,4.8954305 4.8954305,4 6,4 L20.3412977,4.00032181 C21.1648796,1.66976896 23.3874421,0 26,0 L38,0 Z"/>
</svg>
